<svg width="50" height="36" viewBox="0 0 50 36" fill="none" xmlns="http://www.w3.org/2000/svg">
<path d="M2.23482 1.0225C3.14136 0.360214 4.23446 0.00224631 5.35714 0H44.6429C45.7413 0.000930379 46.8124 0.342035 47.7091 0.976429L26.4796 14.93C26.0411 15.2182 25.528 15.3721 25.0032 15.3729C24.4785 15.3737 23.9649 15.2212 23.5255 14.9343L2.23482 1.0225ZM28.4405 17.9138C27.4212 18.5843 26.2281 18.9425 25.008 18.9444C23.7879 18.9463 22.5937 18.5917 21.5723 17.9243L0.207322 3.96286C0.0762951 4.41628 0.00656841 4.88521 0 5.35714V30.3571C0.00155978 31.7775 0.566472 33.1392 1.57079 34.1435C2.57511 35.1478 3.93682 35.7127 5.35714 35.7143H44.6429C46.0632 35.7127 47.4249 35.1478 48.4292 34.1435C49.4335 33.1392 49.9984 31.7775 50 30.3571V5.35714C49.9929 4.86072 49.9158 4.36778 49.7711 3.89286L28.4405 17.9138Z" fill="white"/>
</svg>
