<svg width="40" height="40" viewBox="0 0 40 40" fill="none" xmlns="http://www.w3.org/2000/svg">
<circle cx="20" cy="20" r="19.5" stroke="white" stroke-opacity="0.7"/>
<path d="M19.9988 16.1475C18.9769 16.1475 17.9968 16.5534 17.2741 17.2761C16.5515 17.9987 16.1455 18.9788 16.1455 20.0008C16.1455 21.0228 16.5515 22.0029 17.2741 22.7255C17.9968 23.4482 18.9769 23.8541 19.9988 23.8541C21.0208 23.8541 22.0009 23.4482 22.7236 22.7255C23.4462 22.0029 23.8522 21.0228 23.8522 20.0008C23.8522 18.9788 23.4462 17.9987 22.7236 17.2761C22.0009 16.5534 21.0208 16.1475 19.9988 16.1475ZM19.9988 22.5033C19.3349 22.5033 18.6982 22.2396 18.2287 21.7701C17.7593 21.3006 17.4955 20.6639 17.4955 20C17.4955 19.336 17.7593 18.6993 18.2287 18.2298C18.6982 17.7604 19.3349 17.4966 19.9988 17.4966C20.6628 17.4966 21.2995 17.7604 21.769 18.2298C22.2384 18.6993 22.5022 19.336 22.5022 20C22.5022 20.6639 22.2384 21.3006 21.769 21.7701C21.2995 22.2396 20.6628 22.5033 19.9988 22.5033Z" fill="white"/>
<path d="M24.0048 16.9041C24.5009 16.9041 24.9031 16.5019 24.9031 16.0058C24.9031 15.5096 24.5009 15.1074 24.0048 15.1074C23.5086 15.1074 23.1064 15.5096 23.1064 16.0058C23.1064 16.5019 23.5086 16.9041 24.0048 16.9041Z" fill="white"/>
<path d="M27.1111 15.0925C26.9182 14.5943 26.6234 14.1419 26.2456 13.7642C25.8677 13.3865 25.4152 13.0919 24.917 12.8992C24.3339 12.6803 23.7179 12.5619 23.0953 12.5492C22.2928 12.5142 22.0386 12.5042 20.0036 12.5042C17.9686 12.5042 17.7078 12.5042 16.912 12.5492C16.2898 12.5613 15.6743 12.6797 15.092 12.8992C14.5936 13.0917 14.1409 13.3862 13.7631 13.7639C13.3852 14.1416 13.0905 14.5942 12.8978 15.0925C12.6789 15.6755 12.5608 16.2915 12.5486 16.9142C12.5128 17.7158 12.502 17.97 12.502 20.0058C12.502 22.0408 12.502 22.3 12.5486 23.0975C12.5611 23.7208 12.6786 24.3358 12.8978 24.92C13.091 25.4181 13.386 25.8705 13.764 26.2481C14.1419 26.6258 14.5945 26.9205 15.0928 27.1133C15.674 27.341 16.2898 27.4678 16.9136 27.4883C17.7161 27.5233 17.9703 27.5342 20.0053 27.5342C22.0403 27.5342 22.3011 27.5342 23.097 27.4883C23.7195 27.4757 24.3355 27.3576 24.9186 27.1392C25.4167 26.946 25.8691 26.6511 26.2469 26.2733C26.6247 25.8955 26.9196 25.4431 27.1128 24.945C27.332 24.3617 27.4495 23.7467 27.462 23.1233C27.4978 22.3217 27.5086 22.0675 27.5086 20.0317C27.5086 17.9958 27.5086 17.7375 27.462 16.94C27.4523 16.3085 27.3336 15.6835 27.1111 15.0925ZM26.0961 23.0358C26.0907 23.5161 26.0031 23.9918 25.837 24.4425C25.7118 24.7665 25.5202 25.0608 25.2745 25.3064C25.0288 25.5519 24.7344 25.7434 24.4103 25.8683C23.9646 26.0337 23.4939 26.1214 23.0186 26.1275C22.227 26.1642 22.0036 26.1733 19.9736 26.1733C17.942 26.1733 17.7345 26.1733 16.9278 26.1275C16.4527 26.1217 15.9822 26.034 15.537 25.8683C15.2117 25.7441 14.9161 25.5531 14.6694 25.3075C14.4226 25.0618 14.2301 24.7672 14.1045 24.4425C13.9407 23.9967 13.853 23.5265 13.8453 23.0517C13.8095 22.26 13.8011 22.0367 13.8011 20.0067C13.8011 17.9758 13.8011 17.7683 13.8453 16.9608C13.8507 16.4808 13.9383 16.0053 14.1045 15.555C14.3586 14.8975 14.8795 14.38 15.537 14.1283C15.9824 13.9634 16.4528 13.8758 16.9278 13.8692C17.7203 13.8333 17.9428 13.8233 19.9736 13.8233C22.0045 13.8233 22.2128 13.8233 23.0186 13.8692C23.494 13.8749 23.9648 13.9625 24.4103 14.1283C24.7344 14.2535 25.0287 14.4452 25.2744 14.6908C25.5201 14.9365 25.7117 15.2309 25.837 15.555C26.0007 16.0008 26.0884 16.471 26.0961 16.9458C26.132 17.7383 26.1411 17.9608 26.1411 19.9917C26.1411 22.0217 26.1411 22.24 26.1053 23.0367H26.0961V23.0358Z" fill="white"/>
</svg>
