<svg width="40" height="40" viewBox="0 0 40 40" fill="none" xmlns="http://www.w3.org/2000/svg">
<circle cx="20" cy="20" r="19.5" stroke="white" stroke-opacity="0.7"/>
<path d="M26.6667 12.5H13.3333C13.1123 12.5 12.9004 12.5878 12.7441 12.7441C12.5878 12.9004 12.5 13.1123 12.5 13.3333V26.6667C12.5 26.8877 12.5878 27.0996 12.7441 27.2559C12.9004 27.4122 13.1123 27.5 13.3333 27.5H26.6667C26.8877 27.5 27.0996 27.4122 27.2559 27.2559C27.4122 27.0996 27.5 26.8877 27.5 26.6667V13.3333C27.5 13.1123 27.4122 12.9004 27.2559 12.7441C27.0996 12.5878 26.8877 12.5 26.6667 12.5ZM16.9492 25.2808H14.7225V18.1225H16.9492V25.2808ZM15.8358 17.145C15.4937 17.145 15.1656 17.0091 14.9237 16.7672C14.6817 16.5252 14.5458 16.1971 14.5458 15.855C14.5458 15.5129 14.6817 15.1848 14.9237 14.9428C15.1656 14.7009 15.4937 14.565 15.8358 14.565C16.178 14.565 16.5061 14.7009 16.748 14.9428C16.9899 15.1848 17.1258 15.5129 17.1258 15.855C17.1258 16.1971 16.9899 16.5252 16.748 16.7672C16.5061 17.0091 16.178 17.145 15.8358 17.145ZM25.2817 25.2808H23.0575V21.8C23.0575 20.97 23.0425 19.9025 21.9008 19.9025C20.7425 19.9025 20.5667 20.8075 20.5667 21.7417V25.2817H18.3442V18.1233H20.4775V19.1017H20.5083C20.8042 18.5392 21.5308 17.9458 22.6117 17.9458C24.865 17.9458 25.2808 19.4275 25.2808 21.3558V25.2808H25.2817Z" fill="white"/>
</svg>
