<svg width="40" height="40" viewBox="0 0 40 40" fill="none" xmlns="http://www.w3.org/2000/svg">
<circle cx="20" cy="20" r="19.5" stroke="white" stroke-opacity="0.7"/>
<path d="M27.3612 17.6641C27.372 17.81 27.372 17.955 27.372 18.1C27.372 22.5375 23.9945 27.6508 17.822 27.6508C15.9203 27.6508 14.1537 27.1 12.667 26.1433C12.937 26.1741 13.197 26.185 13.4778 26.185C14.9887 26.1886 16.4567 25.6834 17.6453 24.7508C16.9448 24.7381 16.2658 24.507 15.703 24.0897C15.1402 23.6725 14.7218 23.0899 14.5062 22.4233C14.7137 22.4541 14.922 22.475 15.1403 22.475C15.4412 22.475 15.7437 22.4333 16.0245 22.3608C15.2643 22.2073 14.5807 21.7952 14.09 21.1947C13.5993 20.5941 13.3317 19.8422 13.3328 19.0666V19.025C13.7803 19.2741 14.2995 19.43 14.8495 19.4508C14.3887 19.1446 14.0109 18.7291 13.7498 18.2414C13.4886 17.7538 13.3523 17.209 13.3528 16.6558C13.3528 16.0325 13.5187 15.4608 13.8095 14.9625C14.6529 16 15.7049 16.8488 16.8973 17.4538C18.0896 18.0589 19.3958 18.4068 20.7312 18.475C20.6795 18.225 20.6478 17.9658 20.6478 17.7058C20.6476 17.2649 20.7343 16.8283 20.9029 16.421C21.0715 16.0136 21.3187 15.6435 21.6305 15.3318C21.9422 15.02 22.3123 14.7728 22.7197 14.6042C23.127 14.4356 23.5636 14.3489 24.0045 14.3491C24.9712 14.3491 25.8437 14.7541 26.457 15.4091C27.2085 15.2638 27.9291 14.9895 28.587 14.5983C28.3365 15.374 27.8118 16.0317 27.1112 16.4483C27.7776 16.3723 28.429 16.197 29.0437 15.9283C28.5846 16.5975 28.0158 17.1844 27.3612 17.6641Z" fill="white"/>
</svg>
