<svg width="129" height="42" viewBox="0 0 129 42" fill="none" xmlns="http://www.w3.org/2000/svg">
<g clip-path="url(#clip0_767_423)">
<path d="M0 28.1159C0.0020337 27.4185 0.0817473 26.7233 0.237754 26.0425C0.397697 25.3381 0.639512 24.6535 0.958565 24.002C1.28499 23.3402 1.69122 22.7183 2.16872 22.1493C2.65808 21.5654 3.23224 21.0535 3.87326 20.6296C4.55122 20.1826 5.29458 19.8368 6.07846 19.6038C6.95611 19.3497 7.86847 19.2263 8.78433 19.2379C9.7169 19.2253 10.646 19.3512 11.5393 19.6111C12.3238 19.8448 13.0673 20.1923 13.7445 20.6418C14.3758 21.0655 14.9381 21.5786 15.4125 22.1639C16.334 23.3036 16.9677 24.6364 17.263 26.0559C17.4074 26.7341 17.4811 27.4246 17.4831 28.1171C17.481 28.8086 17.4008 29.4977 17.2441 30.1723C16.9197 31.5964 16.2592 32.9282 15.3144 34.063C14.8262 34.6497 14.2519 35.1638 13.6099 35.5888C12.933 36.035 12.1921 36.3823 11.411 36.6195C10.5368 36.8806 9.62606 37.0086 8.71137 36.9988C7.74912 37.0122 6.79002 36.8889 5.86461 36.6329C5.0735 36.4102 4.32159 36.073 3.63425 35.6327C3.00223 35.2236 2.44131 34.7197 1.97248 34.1399C1.51708 33.575 1.13945 32.9551 0.849123 32.2957C0.559426 31.6351 0.344321 30.9461 0.207563 30.2406C0.0700565 29.5402 0.000564772 28.8289 0 28.1159H0ZM3.93364 27.8305C3.93512 28.3693 3.9721 28.9075 4.04434 29.4417C4.11956 30.0048 4.23942 30.5613 4.40286 31.1065C4.56117 31.6478 4.77176 32.1734 5.03184 32.6763C5.27962 33.1552 5.59879 33.5962 5.97908 33.985C6.3514 34.3605 6.79246 34.6658 7.27981 34.8851C7.81002 35.1168 8.38648 35.2322 8.968 35.2229C9.49616 35.2321 10.0204 35.1332 10.5065 34.9327C10.9469 34.7442 11.3468 34.4769 11.6852 34.1447C12.0315 33.8023 12.322 33.4108 12.5469 32.9836C12.7859 32.5352 12.9785 32.065 13.1218 31.5798C13.2693 31.0794 13.3753 30.5683 13.4388 30.0515C13.5029 29.5465 13.5357 29.0382 13.5369 28.5294C13.5444 27.5178 13.4462 26.508 13.2438 25.5156C13.08 24.679 12.7744 23.8745 12.3393 23.1348C11.9643 22.5003 11.4359 21.9637 10.7996 21.5712C10.137 21.1839 9.37406 20.9884 8.60067 21.0077C8.05863 20.9983 7.52039 21.0971 7.01942 21.2979C6.56676 21.4868 6.15589 21.7585 5.80926 22.0981C5.45724 22.4447 5.16274 22.8422 4.93623 23.2763C4.69564 23.7327 4.50101 24.2106 4.35506 24.7033C4.20369 25.2134 4.09556 25.7348 4.03176 26.262C3.96714 26.7825 3.93437 27.3063 3.93364 27.8305Z" fill="white"/>
<path d="M34.7194 36.8453H32.596L24.5928 26.9294C24.1735 26.4017 23.7177 25.7975 23.2254 25.1169H23.2003L23.2368 32.6277C23.2368 32.8484 23.2368 33.0655 23.2305 33.279C23.2242 33.4924 23.2204 33.6961 23.2129 33.8888C23.2053 34.0815 23.194 34.2547 23.1814 34.4157C23.1688 34.5767 23.155 34.7048 23.1386 34.8072L25.0256 34.7353V36.6075H19.3157V35.0097C19.5685 34.9966 19.8204 34.9709 20.0705 34.9329C20.2809 34.9033 20.4771 34.8123 20.6328 34.6718C20.8038 34.4983 20.9237 34.2835 20.98 34.0498C21.0745 33.674 21.1168 33.2876 21.1058 32.9009L21.0441 23.6021C21.0441 23.3813 21.0441 23.1642 21.0441 22.9508C21.0441 22.7374 21.0542 22.5349 21.0617 22.341C21.0693 22.147 21.0806 21.9751 21.0932 21.8141C21.1058 21.6531 21.1196 21.525 21.136 21.4225L19.249 21.4945V19.6223H23.1713L30.8197 28.9796C31.2441 29.5017 31.5925 29.9489 31.8651 30.3213C32.1377 30.6937 32.3716 31.0189 32.567 31.297H32.5922V23.6021C32.5922 23.3813 32.5922 23.1642 32.5922 22.9508C32.5922 22.7374 32.6023 22.5349 32.6111 22.341C32.6199 22.147 32.6299 21.9751 32.6413 21.8141C32.6526 21.6531 32.6677 21.525 32.684 21.4225L30.8034 21.4945V19.6223H36.4957V21.2213C36.2426 21.2341 35.9905 21.2618 35.7409 21.3042C35.5337 21.3383 35.3409 21.4288 35.1849 21.5653C35.0137 21.7339 34.8936 21.9448 34.8377 22.1751C34.7432 22.5509 34.7009 22.9373 34.7119 23.324L34.7194 36.8453Z" fill="white"/>
<path d="M44.0282 28.6491V32.6362C44.0282 32.8582 44.0282 33.0741 44.0282 33.2839C44.0282 33.4936 44.0181 33.6924 44.0106 33.8827C44.003 34.073 43.9917 34.2486 43.9791 34.3986C43.9666 34.5487 43.9527 34.6816 43.9364 34.784L47.2964 34.7731C47.6704 34.7717 48.0417 34.7115 48.3958 34.595C48.7642 34.4745 49.0988 34.2729 49.3733 34.0059C49.6816 33.697 49.9191 33.3283 50.0702 32.9241C50.2631 32.392 50.354 31.8303 50.3381 31.2665H51.9886L51.8414 36.6087H38.6328V35.0231C38.8859 35.0099 39.1379 34.9822 39.3876 34.9402C39.5965 34.907 39.7912 34.8164 39.9486 34.6792C40.1205 34.508 40.241 34.2946 40.2971 34.062C40.3915 33.6857 40.4338 33.299 40.4229 32.9119V23.6058C40.4229 23.3838 40.4229 23.1667 40.4292 22.9532C40.4355 22.7398 40.4392 22.5361 40.4481 22.3434C40.4569 22.1507 40.4657 21.9775 40.4782 21.8153C40.4908 21.6531 40.5047 21.5274 40.521 21.4238L38.6341 21.4957V19.6223H51.1571L51.3042 24.3254H49.6513C49.6513 23.6692 49.5553 23.1362 49.3632 22.7264C49.2027 22.3551 48.9535 22.0261 48.6361 21.7665C48.3514 21.5414 48.0169 21.3832 47.6587 21.3042C47.3145 21.2264 46.9616 21.1907 46.6083 21.1981L45.7051 21.2213C45.4688 21.227 45.2335 21.2527 45.0019 21.2981C44.802 21.3381 44.6189 21.4349 44.476 21.5762C44.3142 21.7559 44.2009 21.9717 44.1465 22.2044C44.0592 22.5734 44.0203 22.9516 44.0307 23.3301V26.966H46.9756L46.8649 24.8693H48.7959V30.7689H47.1467C47.1638 30.3614 47.0971 29.9546 46.9504 29.5724C46.8448 29.3103 46.6625 29.084 46.4259 28.9211C46.1931 28.7747 45.9263 28.687 45.6497 28.6662C45.3307 28.6375 45.0101 28.6277 44.6899 28.6369L44.0282 28.6491Z" fill="white"/>
<path d="M54.2441 19.6222L61.5403 19.599C62.5482 19.5891 63.5534 19.7006 64.533 19.9307C65.377 20.13 66.1889 20.4407 66.9458 20.854C67.6281 21.2294 68.2495 21.7004 68.7899 22.2518C69.7982 23.2809 70.5086 24.5498 70.8492 25.9303C71.0145 26.5917 71.0989 27.2696 71.1008 27.9501C71.0983 28.6255 71.0202 29.2986 70.8681 29.9577C70.7114 30.6473 70.4672 31.3155 70.141 31.9469C69.8046 32.602 69.3808 33.2114 68.8805 33.7594C68.3467 34.3406 67.7249 34.8399 67.0363 35.2401C66.2643 35.6852 65.4313 36.0223 64.5619 36.2414C63.5348 36.4973 62.4774 36.6203 61.417 36.6073H54.2467V35.0095C54.4997 34.9964 54.7518 34.9687 55.0014 34.9266C55.2109 34.894 55.4062 34.8033 55.5637 34.6656C55.7359 34.4951 55.8564 34.282 55.9122 34.0497C56.0066 33.6738 56.0489 33.2874 56.038 32.9007V23.602C56.038 23.3812 56.038 23.1641 56.0443 22.9506C56.0506 22.7372 56.0543 22.5347 56.0632 22.3408C56.072 22.1469 56.0808 21.9749 56.0933 21.8139C56.1059 21.6529 56.1198 21.5249 56.1361 21.4224L54.2492 21.4944L54.2441 19.6222ZM61.4887 21.2212C61.2173 21.2115 60.9456 21.2274 60.6773 21.2687C60.4615 21.3002 60.2608 21.3951 60.1025 21.5407C59.9331 21.7171 59.8151 21.9338 59.7603 22.1688C59.6735 22.5338 59.6346 22.908 59.6446 23.2824V32.6287C59.6446 32.8495 59.6446 33.0666 59.6383 33.28C59.632 33.4935 59.6282 33.6972 59.6194 33.8899C59.6106 34.0826 59.6018 34.2558 59.5892 34.4168C59.5766 34.5778 59.5628 34.7058 59.5464 34.8083C59.6722 34.7998 59.8333 34.7961 60.0421 34.7961C60.2509 34.7961 60.4685 34.7961 60.7013 34.8083C60.934 34.8205 61.1617 34.8217 61.3856 34.8254C61.6095 34.829 61.7944 34.8254 61.9416 34.8254C62.854 34.8254 63.6377 34.6457 64.2927 34.2863C64.94 33.938 65.4958 33.4497 65.9167 32.8593C66.3523 32.2375 66.6709 31.5458 66.8577 30.8163C67.0621 30.0461 67.1648 29.2539 67.1634 28.4587C67.1634 27.2195 67.0309 26.1494 66.7659 25.2485C66.5487 24.4377 66.1635 23.6782 65.6337 23.0165C65.1581 22.4402 64.5433 21.9865 63.8436 21.6956C63.0971 21.3932 62.2977 21.2322 61.4887 21.2212Z" fill="white"/>
<path d="M81.6118 31.5274L76.1749 31.6225L75.7724 32.7629C75.7309 32.8739 75.6805 33.0069 75.6189 33.1801C75.5573 33.3533 75.4931 33.5228 75.4113 33.7082C75.3296 33.8936 75.2566 34.0741 75.1799 34.2558C75.1031 34.4375 75.0352 34.5949 74.9773 34.7364L76.7611 34.6656V36.6086H71.3984V34.9388C71.7092 34.9481 72.0157 34.8674 72.279 34.7071C72.5276 34.5454 72.7412 34.3383 72.908 34.0973C73.1003 33.8215 73.2603 33.5257 73.3848 33.2154C73.5231 32.8788 73.6615 32.53 73.7999 32.1665L78.6921 19.1953H80.4268L85.7656 32.4178C85.8147 32.5397 85.8738 32.6946 85.943 32.891C86.0122 33.0874 86.0839 33.3008 86.1568 33.5252C86.2298 33.7497 86.2952 33.9753 86.3518 34.2009C86.406 34.4016 86.448 34.6053 86.4776 34.8108L87.9192 34.7388V36.611H81.1715V35.0096C81.6194 35.0096 81.9338 34.9242 82.1125 34.7534C82.2045 34.6619 82.2759 34.5529 82.3222 34.4332C82.3686 34.3135 82.3888 34.1859 82.3817 34.0582C82.3793 33.872 82.3548 33.6866 82.3087 33.5057C82.2545 33.2868 82.189 33.0706 82.1125 32.8581L81.6118 31.5274ZM76.8102 29.8199H80.9765L79.8444 26.7707C79.6247 26.1779 79.4292 25.5917 79.2582 25.0119C79.1046 24.5032 78.9786 23.9869 78.8808 23.4654H78.8556C78.7902 23.7427 78.6883 24.1533 78.5499 24.6973C78.4116 25.2412 78.2082 25.897 77.9398 26.6646L76.8102 29.8199Z" fill="white"/>
<path d="M96.797 29.881V32.6289C96.797 32.8497 96.797 33.0668 96.7907 33.2802C96.7844 33.4936 96.7807 33.6973 96.7731 33.89C96.7656 34.0827 96.7542 34.2559 96.7417 34.4169C96.7291 34.5779 96.7153 34.706 96.6989 34.8084L98.7028 34.7365V36.6087H91.3966V35.0097C91.6499 35.0044 91.9024 34.9787 92.1514 34.9328C92.3603 34.8959 92.5545 34.8035 92.7124 34.6657C92.8846 34.4952 93.0051 34.2822 93.0609 34.0498C93.1553 33.674 93.1976 33.2876 93.1867 32.9009V30.7811L88.5599 23.7326C88.4375 23.5432 88.3196 23.3399 88.2064 23.1228C88.0932 22.9057 87.9913 22.6943 87.9007 22.4885C87.8164 22.296 87.745 22.0984 87.6869 21.897C87.6387 21.7409 87.6121 21.5793 87.6076 21.4165L86.3975 21.4884V19.6223H93.7641V21.2213C93.7176 21.2238 93.671 21.2238 93.6244 21.2213C93.5792 21.2213 93.5326 21.2152 93.4836 21.2152C93.0198 21.2152 92.6533 21.2965 92.3841 21.4591C92.256 21.5315 92.1508 21.6365 92.0799 21.7627C92.0089 21.8889 91.9749 22.0315 91.9815 22.1751C91.9909 22.3214 92.0154 22.4665 92.0545 22.6081C92.1053 22.7813 92.1834 22.9458 92.286 23.0959L94.2044 26.1451L94.456 26.5708C94.5704 26.7611 94.6899 26.9684 94.817 27.1928C94.944 27.4172 95.0686 27.6453 95.1831 27.8746C95.2867 28.0704 95.3783 28.272 95.4573 28.4783H95.495C95.5789 28.297 95.7173 28.0124 95.9102 27.6246C96.103 27.2367 96.3546 26.733 96.6649 26.1134L97.9594 23.6387C98.0248 23.5118 98.1086 23.3492 98.211 23.1508C98.3166 22.9545 98.4311 22.7483 98.5531 22.5349C98.6751 22.3214 98.8047 22.1165 98.9205 21.9251C99.0239 21.7531 99.1422 21.5899 99.2739 21.4372V21.414L97.3568 21.5091V19.6223H102.878V21.2213C102.601 21.2642 102.332 21.3438 102.078 21.4579C101.824 21.5782 101.591 21.7362 101.387 21.9263C101.142 22.1575 100.923 22.4134 100.734 22.6898C100.484 23.0533 100.254 23.429 100.044 23.8155L96.797 29.881Z" fill="white"/>
<path d="M122.523 11.6064H99.7891V13.9702H122.523V11.6064Z" fill="white"/>
<path d="M118.448 15.6106H103.864V17.9743H118.448V15.6106Z" fill="white"/>
<path d="M108.392 19.615V35.4329L105.955 36.5672V19.615H108.392Z" fill="white"/>
<path d="M112.374 19.615V33.5778L109.937 34.7133V19.615H112.374Z" fill="white"/>
<path d="M116.358 19.615V31.7239L113.92 32.8582V19.615H116.358Z" fill="white"/>
<path d="M127.781 12.7885H126.562C126.563 12.9787 126.524 13.167 126.448 13.3422C126.336 13.5968 126.151 13.8149 125.914 13.9703C125.711 14.1017 125.478 14.1824 125.235 14.2051C124.992 14.2279 124.747 14.1921 124.522 14.1009C124.259 13.9922 124.034 13.8127 123.874 13.5837C123.738 13.3869 123.655 13.1606 123.632 12.925C123.608 12.6894 123.645 12.4519 123.739 12.2335C123.851 11.979 124.036 11.7613 124.273 11.6066C124.476 11.4739 124.71 11.3924 124.954 11.3694C125.198 11.3464 125.444 11.3827 125.67 11.4749C125.933 11.5832 126.157 11.7628 126.317 11.992C126.482 12.2266 126.57 12.5044 126.568 12.7885H129.006C129.006 11.8805 128.67 11.0026 128.059 10.3147C127.448 9.62685 126.602 9.17464 125.676 9.04042C124.749 8.9062 123.804 9.09889 123.012 9.58343C122.22 10.068 121.634 10.8121 121.36 11.6805C121.086 12.5488 121.143 13.4836 121.521 14.3147C121.898 15.1458 122.57 15.8179 123.416 16.2088C124.261 16.5996 125.223 16.6832 126.126 16.4443C127.03 16.2054 127.815 15.6599 128.338 14.9071C128.773 14.2809 129.006 13.5434 129.006 12.7885H127.781Z" fill="white"/>
<path d="M100.22 12.7885H99.0014C99.0013 13.022 98.942 13.2518 98.8288 13.4579C98.7156 13.664 98.552 13.8399 98.3523 13.9703C98.1492 14.1017 97.9159 14.1824 97.6729 14.2051C97.4299 14.2279 97.185 14.1921 96.9597 14.1009C96.6972 13.9926 96.4727 13.813 96.3131 13.5837C96.1771 13.3871 96.0935 13.1608 96.0698 12.9252C96.0461 12.6896 96.083 12.4519 96.1773 12.2335C96.2889 11.979 96.4742 11.7613 96.7106 11.6066C96.9134 11.4748 97.1468 11.3937 97.3898 11.3707C97.6328 11.3477 97.8779 11.3835 98.1032 11.4749C98.3656 11.5834 98.5901 11.7629 98.7498 11.992C98.914 12.2271 99.0016 12.5046 99.0014 12.7885H101.438C101.438 11.8805 101.102 11.0026 100.491 10.3147C99.8793 9.62685 99.0335 9.17464 98.1073 9.04042C97.1811 8.9062 96.236 9.09889 95.4439 9.58343C94.6519 10.068 94.0656 10.8121 93.7918 11.6805C93.5181 12.5488 93.575 13.4836 93.9522 14.3147C94.3294 15.1458 95.0019 15.8179 95.8472 16.2088C96.6925 16.5996 97.6544 16.6832 98.5579 16.4443C99.4615 16.2054 100.246 15.6599 100.77 14.9071C101.205 14.2809 101.438 13.5434 101.438 12.7885H100.22Z" fill="white"/>
</g>
<defs>
<clipPath id="clip0_767_423">
<rect width="129" height="42" fill="white"/>
</clipPath>
</defs>
</svg>
