<svg width="145" height="41" viewBox="0 0 145 41" fill="none" xmlns="http://www.w3.org/2000/svg">
<path d="M9 25.1159C9.00203 24.4185 9.08175 23.7233 9.23775 23.0425C9.3977 22.3381 9.63951 21.6535 9.95857 21.002C10.285 20.3402 10.6912 19.7183 11.1687 19.1493C11.6581 18.5654 12.2322 18.0535 12.8733 17.6296C13.5512 17.1826 14.2946 16.8368 15.0785 16.6038C15.9561 16.3497 16.8685 16.2263 17.7843 16.2379C18.7169 16.2253 19.646 16.3512 20.5393 16.6111C21.3238 16.8448 22.0673 17.1923 22.7445 17.6418C23.3758 18.0655 23.9381 18.5786 24.4125 19.1639C25.334 20.3036 25.9677 21.6364 26.263 23.0559C26.4074 23.7341 26.4811 24.4246 26.4831 25.1171C26.481 25.8086 26.4008 26.4977 26.2441 27.1723C25.9197 28.5964 25.2592 29.9282 24.3144 31.063C23.8262 31.6497 23.2519 32.1638 22.6099 32.5888C21.933 33.035 21.1921 33.3823 20.411 33.6195C19.5368 33.8806 18.6261 34.0086 17.7114 33.9988C16.7491 34.0122 15.79 33.8889 14.8646 33.6329C14.0735 33.4102 13.3216 33.073 12.6342 32.6327C12.0022 32.2236 11.4413 31.7197 10.9725 31.1399C10.5171 30.575 10.1395 29.9551 9.84912 29.2957C9.55943 28.6351 9.34432 27.9461 9.20756 27.2406C9.07006 26.5402 9.00056 25.8289 9 25.1159V25.1159ZM12.9336 24.8305C12.9351 25.3693 12.9721 25.9075 13.0443 26.4417C13.1196 27.0048 13.2394 27.5613 13.4029 28.1065C13.5612 28.6478 13.7718 29.1734 14.0318 29.6763C14.2796 30.1552 14.5988 30.5962 14.9791 30.985C15.3514 31.3605 15.7925 31.6658 16.2798 31.8851C16.81 32.1168 17.3865 32.2322 17.968 32.2229C18.4962 32.2321 19.0204 32.1332 19.5065 31.9327C19.9469 31.7442 20.3468 31.4769 20.6852 31.1447C21.0315 30.8023 21.322 30.4108 21.5469 29.9836C21.7859 29.5352 21.9785 29.065 22.1218 28.5798C22.2693 28.0794 22.3753 27.5683 22.4388 27.0515C22.5029 26.5465 22.5357 26.0382 22.5369 25.5294C22.5444 24.5178 22.4462 23.508 22.2438 22.5156C22.08 21.679 21.7744 20.8745 21.3393 20.1348C20.9643 19.5003 20.4359 18.9637 19.7996 18.5712C19.137 18.1839 18.3741 17.9884 17.6007 18.0077C17.0586 17.9983 16.5204 18.0971 16.0194 18.2979C15.5668 18.4868 15.1559 18.7585 14.8093 19.0981C14.4572 19.4447 14.1627 19.8422 13.9362 20.2763C13.6956 20.7327 13.501 21.2106 13.3551 21.7033C13.2037 22.2134 13.0956 22.7348 13.0318 23.262C12.9671 23.7825 12.9344 24.3063 12.9336 24.8305Z" fill="#304E86"/>
<path d="M43.7194 33.8451H41.596L33.5928 23.9292C33.1735 23.4014 32.7177 22.7973 32.2254 22.1167H32.2003L32.2368 29.6275C32.2368 29.8482 32.2368 30.0653 32.2305 30.2788C32.2242 30.4922 32.2204 30.6959 32.2129 30.8886C32.2053 31.0813 32.194 31.2545 32.1814 31.4155C32.1688 31.5765 32.155 31.7046 32.1386 31.807L34.0256 31.7351V33.6072H28.3157V32.0095C28.5685 31.9964 28.8204 31.9707 29.0705 31.9326C29.2809 31.9031 29.4771 31.8121 29.6328 31.6716C29.8038 31.4981 29.9237 31.2833 29.98 31.0496C30.0745 30.6738 30.1168 30.2874 30.1058 29.9007L30.0441 20.6019C30.0441 20.3811 30.0441 20.164 30.0441 19.9506C30.0441 19.7371 30.0542 19.5347 30.0617 19.3407C30.0693 19.1468 30.0806 18.9748 30.0932 18.8139C30.1058 18.6529 30.1196 18.5248 30.136 18.4223L28.249 18.4943V16.6221H32.1713L39.8197 25.9794C40.2441 26.5014 40.5925 26.9487 40.8651 27.3211C41.1377 27.6935 41.3716 28.0187 41.567 28.2968H41.5922V20.6019C41.5922 20.3811 41.5922 20.164 41.5922 19.9506C41.5922 19.7371 41.6023 19.5347 41.6111 19.3407C41.6199 19.1468 41.6299 18.9748 41.6413 18.8139C41.6526 18.6529 41.6677 18.5248 41.684 18.4223L39.8034 18.4943V16.6221H45.4957V18.2211C45.2426 18.2338 44.9905 18.2615 44.7409 18.304C44.5337 18.338 44.3409 18.4286 44.1849 18.565C44.0137 18.7337 43.8936 18.9446 43.8377 19.1749C43.7432 19.5507 43.7009 19.9371 43.7119 20.3238L43.7194 33.8451Z" fill="#304E86"/>
<path d="M53.0282 25.6489V29.636C53.0282 29.858 53.0282 30.0739 53.0282 30.2836C53.0282 30.4934 53.0181 30.6922 53.0106 30.8825C53.003 31.0728 52.9917 31.2484 52.9791 31.3984C52.9666 31.5484 52.9527 31.6814 52.9364 31.7838L56.2964 31.7729C56.6704 31.7715 57.0417 31.7113 57.3958 31.5948C57.7642 31.4743 58.0988 31.2726 58.3733 31.0057C58.6816 30.6967 58.9191 30.3281 59.0702 29.9238C59.2631 29.3918 59.354 28.83 59.3381 28.2663H60.9886L60.8414 33.6085H47.6328V32.0229C47.8859 32.0096 48.1379 31.982 48.3876 31.94C48.5965 31.9068 48.7912 31.8162 48.9486 31.6789C49.1205 31.5078 49.241 31.2944 49.2971 31.0618C49.3915 30.6855 49.4338 30.2987 49.4229 29.9116V20.6055C49.4229 20.3836 49.4229 20.1665 49.4292 19.953C49.4355 19.7396 49.4392 19.5359 49.4481 19.3432C49.4569 19.1505 49.4657 18.9773 49.4782 18.8151C49.4908 18.6529 49.5047 18.5272 49.521 18.4236L47.6341 18.4955V16.6221H60.1571L60.3042 21.3252H58.6513C58.6513 20.669 58.5553 20.136 58.3632 19.7262C58.2027 19.3549 57.9535 19.0259 57.6361 18.7663C57.3514 18.5412 57.0169 18.383 56.6587 18.304C56.3145 18.2262 55.9616 18.1905 55.6083 18.1979L54.7051 18.2211C54.4688 18.2268 54.2335 18.2525 54.0019 18.2979C53.802 18.3379 53.6189 18.4347 53.476 18.576C53.3142 18.7557 53.2009 18.9715 53.1465 19.2041C53.0592 19.5732 53.0203 19.9514 53.0307 20.3299V23.9657H55.9756L55.8649 21.8691H57.7959V27.7687H56.1467C56.1638 27.3612 56.0971 26.9544 55.9504 26.5722C55.8448 26.3101 55.6625 26.0837 55.4259 25.9209C55.1931 25.7745 54.9263 25.6868 54.6497 25.666C54.3307 25.6372 54.0101 25.6275 53.6899 25.6367L53.0282 25.6489Z" fill="#304E86"/>
<path d="M63.2441 16.6221L70.5403 16.5989C71.5482 16.5891 72.5534 16.7005 73.533 16.9307C74.377 17.13 75.1889 17.4406 75.9458 17.854C76.6281 18.2293 77.2495 18.7003 77.7899 19.2517C78.7982 20.2808 79.5086 21.5497 79.8492 22.9302C80.0145 23.5916 80.0989 24.2695 80.1008 24.95C80.0983 25.6254 80.0202 26.2985 79.8681 26.9576C79.7114 27.6473 79.4672 28.3155 79.141 28.9469C78.8046 29.602 78.3808 30.2113 77.8805 30.7593C77.3467 31.3406 76.7249 31.8398 76.0363 32.24C75.2643 32.6852 74.4313 33.0223 73.5619 33.2413C72.5348 33.4972 71.4774 33.6202 70.417 33.6073H63.2467V32.0095C63.4997 31.9964 63.7518 31.9687 64.0014 31.9265C64.2109 31.8939 64.4062 31.8033 64.5637 31.6655C64.7359 31.495 64.8564 31.282 64.9122 31.0496C65.0066 30.6737 65.0489 30.2874 65.038 29.9007V20.6019C65.038 20.3811 65.038 20.164 65.0443 19.9506C65.0506 19.7371 65.0543 19.5347 65.0632 19.3408C65.072 19.1468 65.0808 18.9748 65.0933 18.8139C65.1059 18.6529 65.1198 18.5248 65.1361 18.4223L63.2492 18.4943L63.2441 16.6221ZM70.4887 18.2211C70.2173 18.2114 69.9456 18.2274 69.6773 18.2687C69.4615 18.3001 69.2608 18.395 69.1025 18.5406C68.9331 18.717 68.8151 18.9337 68.7603 19.1688C68.6735 19.5338 68.6346 19.9079 68.6446 20.2823V29.6287C68.6446 29.8494 68.6446 30.0665 68.6383 30.28C68.632 30.4934 68.6282 30.6971 68.6194 30.8898C68.6106 31.0825 68.6018 31.2557 68.5892 31.4167C68.5766 31.5777 68.5628 31.7058 68.5464 31.8082C68.6722 31.7997 68.8333 31.796 69.0421 31.796C69.2509 31.796 69.4685 31.796 69.7013 31.8082C69.934 31.8204 70.1617 31.8217 70.3856 31.8253C70.6095 31.829 70.7944 31.8253 70.9416 31.8253C71.854 31.8253 72.6377 31.6456 73.2927 31.2862C73.94 30.9379 74.4958 30.4496 74.9167 29.8592C75.3523 29.2374 75.6709 28.5457 75.8577 27.8162C76.0621 27.0461 76.1648 26.2539 76.1634 25.4586C76.1634 24.2194 76.0309 23.1494 75.7659 22.2484C75.5487 21.4376 75.1635 20.6782 74.6337 20.0164C74.1581 19.4401 73.5433 18.9864 72.8436 18.6955C72.0971 18.3932 71.2977 18.2321 70.4887 18.2211Z" fill="#304E86"/>
<path d="M90.6118 28.5273L85.1749 28.6225L84.7724 29.7628C84.7309 29.8738 84.6805 30.0068 84.6189 30.18C84.5573 30.3532 84.4931 30.5227 84.4113 30.7081C84.3296 30.8935 84.2566 31.074 84.1799 31.2557C84.1031 31.4375 84.0352 31.5948 83.9773 31.7363L85.7611 31.6655V33.6085H80.3984V31.9387C80.7092 31.948 81.0157 31.8673 81.279 31.707C81.5276 31.5453 81.7412 31.3382 81.908 31.0972C82.1003 30.8214 82.2603 30.5256 82.3848 30.2153C82.5231 29.8787 82.6615 29.5299 82.7999 29.1664L87.6921 16.1952H89.4268L94.7656 29.4177C94.8147 29.5396 94.8738 29.6945 94.943 29.8909C95.0122 30.0873 95.0839 30.3007 95.1568 30.5251C95.2298 30.7496 95.2952 30.9752 95.3518 31.2008C95.406 31.4016 95.448 31.6052 95.4776 31.8107L96.9192 31.7387V33.6109H90.1715V32.0095C90.6194 32.0095 90.9338 31.9241 91.1125 31.7533C91.2045 31.6618 91.2759 31.5528 91.3222 31.4331C91.3686 31.3134 91.3888 31.1858 91.3817 31.0581C91.3793 30.8719 91.3548 30.6865 91.3087 30.5056C91.2545 30.2867 91.189 30.0705 91.1125 29.858L90.6118 28.5273ZM85.8102 26.8198H89.9765L88.8444 23.7706C88.6247 23.1778 88.4292 22.5916 88.2582 22.0118C88.1046 21.5031 87.9786 20.9868 87.8808 20.4653H87.8556C87.7902 20.7426 87.6883 21.1532 87.5499 21.6972C87.4116 22.2411 87.2082 22.8969 86.9398 23.6645L85.8102 26.8198Z" fill="#304E86"/>
<path d="M105.797 26.8808V29.6287C105.797 29.8494 105.797 30.0665 105.791 30.28C105.784 30.4934 105.781 30.6971 105.773 30.8898C105.766 31.0825 105.754 31.2557 105.742 31.4167C105.729 31.5777 105.715 31.7058 105.699 31.8082L107.703 31.7363V33.6085H100.397V32.0095C100.65 32.0042 100.902 31.9785 101.151 31.9326C101.36 31.8957 101.555 31.8032 101.712 31.6655C101.885 31.495 102.005 31.282 102.061 31.0496C102.155 30.6737 102.198 30.2874 102.187 29.9007V27.7809L97.5599 20.7324C97.4375 20.5429 97.3196 20.3397 97.2064 20.1226C97.0932 19.9055 96.9913 19.694 96.9007 19.4883C96.8164 19.2958 96.745 19.0982 96.6869 18.8968C96.6387 18.7407 96.6121 18.5791 96.6076 18.4162L95.3975 18.4882V16.6221H102.764V18.2211C102.718 18.2236 102.671 18.2236 102.624 18.2211C102.579 18.2211 102.533 18.215 102.484 18.215C102.02 18.215 101.653 18.2963 101.384 18.4589C101.256 18.5313 101.151 18.6363 101.08 18.7625C101.009 18.8887 100.975 19.0313 100.982 19.1749C100.991 19.3212 101.015 19.4662 101.055 19.6079C101.105 19.7811 101.183 19.9456 101.286 20.0957L103.204 23.1449L103.456 23.5706C103.57 23.7608 103.69 23.9682 103.817 24.1926C103.944 24.417 104.069 24.6451 104.183 24.8744C104.287 25.0702 104.378 25.2718 104.457 25.4781H104.495C104.579 25.2968 104.717 25.0122 104.91 24.6244C105.103 24.2365 105.355 23.7328 105.665 23.1132L106.959 20.6385C107.025 20.5116 107.109 20.349 107.211 20.1506C107.317 19.9542 107.431 19.7481 107.553 19.5347C107.675 19.3212 107.805 19.1163 107.92 18.9248C108.024 18.7529 108.142 18.5897 108.274 18.437V18.4138L106.357 18.5089V16.6221H111.878V18.2211C111.601 18.264 111.332 18.3436 111.078 18.4577C110.824 18.5779 110.591 18.736 110.387 18.9261C110.142 19.1572 109.923 19.4132 109.734 19.6896C109.484 20.053 109.254 20.4288 109.044 20.8153L105.797 26.8808Z" fill="#304E86"/>
<path d="M131.523 8.60645H108.789V10.9702H131.523V8.60645Z" fill="#304E86"/>
<path d="M127.448 12.6106H112.864V14.9743H127.448V12.6106Z" fill="#304E86"/>
<path d="M117.392 16.6148V32.4327L114.955 33.567V16.6148H117.392Z" fill="#304E86"/>
<path d="M121.374 16.6148V30.5776L118.937 31.7131V16.6148H121.374Z" fill="#304E86"/>
<path d="M125.358 16.6148V28.7237L122.92 29.858V16.6148H125.358Z" fill="#304E86"/>
<path d="M136.781 9.7883H135.562C135.563 9.97848 135.524 10.1668 135.448 10.342C135.336 10.5966 135.151 10.8147 134.914 10.9702C134.711 11.1015 134.478 11.1822 134.235 11.2049C133.992 11.2277 133.747 11.1919 133.522 11.1007C133.259 10.9921 133.034 10.8125 132.874 10.5835C132.738 10.3867 132.655 10.1604 132.632 9.92483C132.608 9.68926 132.645 9.45172 132.739 9.23335C132.851 8.97886 133.036 8.76113 133.273 8.60644C133.476 8.47375 133.71 8.39223 133.954 8.36923C134.198 8.34623 134.444 8.38248 134.67 8.47472C134.933 8.58299 135.157 8.76259 135.317 8.99186C135.482 9.22644 135.57 9.50422 135.568 9.7883H138.006C138.006 8.88029 137.67 8.00245 137.059 7.31456C136.448 6.62667 135.602 6.17446 134.676 6.04023C133.749 5.90601 132.804 6.09871 132.012 6.58324C131.22 7.06778 130.634 7.81194 130.36 8.68028C130.086 9.54862 130.143 10.4834 130.521 11.3145C130.898 12.1456 131.57 12.8177 132.416 13.2086C133.261 13.5995 134.223 13.683 135.126 13.4441C136.03 13.2052 136.815 12.6597 137.338 11.9069C137.773 11.2808 138.006 10.5432 138.006 9.7883H136.781Z" fill="#304E86"/>
<path d="M109.22 9.7883H108.001C108.001 10.0218 107.942 10.2516 107.829 10.4577C107.716 10.6638 107.552 10.8397 107.352 10.9702C107.149 11.1015 106.916 11.1822 106.673 11.2049C106.43 11.2277 106.185 11.1919 105.96 11.1007C105.697 10.9924 105.473 10.8128 105.313 10.5835C105.177 10.3869 105.094 10.1607 105.07 9.92503C105.046 9.6894 105.083 9.45175 105.177 9.23335C105.289 8.97886 105.474 8.76113 105.711 8.60644C105.913 8.47458 106.147 8.39353 106.39 8.37054C106.633 8.34755 106.878 8.38334 107.103 8.47472C107.366 8.58317 107.59 8.76274 107.75 8.99186C107.914 9.22694 108.002 9.50439 108.001 9.7883H110.438C110.438 8.88029 110.102 8.00245 109.491 7.31456C108.879 6.62667 108.034 6.17446 107.107 6.04023C106.181 5.90601 105.236 6.09871 104.444 6.58324C103.652 7.06778 103.066 7.81194 102.792 8.68028C102.518 9.54862 102.575 10.4834 102.952 11.3145C103.329 12.1456 104.002 12.8177 104.847 13.2086C105.692 13.5995 106.654 13.683 107.558 13.4441C108.461 13.2052 109.246 12.6597 109.77 11.9069C110.205 11.2808 110.438 10.5432 110.438 9.7883H109.22Z" fill="#304E86"/>
</svg>
