<svg width="470" height="655" viewBox="0 0 470 655" fill="none" xmlns="http://www.w3.org/2000/svg">
<path d="M-24.404 644.103C-24.404 644.103 143.434 688.253 168.869 592.57C178.642 555.804 161.786 530.647 168.869 492.828C196.036 347.78 407.851 565.25 455.491 429.658C494.662 318.172 444.668 221.278 381.864 130.432C320.594 41.8057 258.727 24.9477 168.869 5.75403C94.264 -10.1816 -24.4039 19.053 -24.4039 19.053" stroke="#304E86"/>
<path d="M-32.0007 582.378C-32.0007 582.378 110.016 619.683 131.538 538.835C139.808 507.769 125.544 486.512 131.538 454.556C154.525 331.996 333.753 515.75 374.065 401.18C407.209 306.979 364.907 225.107 311.764 148.346C259.921 73.4602 207.572 59.2158 131.538 42.9979C68.4107 29.5329 -32.0006 54.235 -32.0006 54.235" stroke="#304E86"/>
<path d="M-11.7431 508.387C-11.7431 508.387 97.567 537.136 114.132 474.831C120.497 450.89 109.519 434.509 114.132 409.882C131.825 315.432 269.776 457.041 300.804 368.748C326.316 296.153 293.755 233.059 252.852 173.903C212.948 116.193 172.655 105.216 114.132 92.7179C65.5432 82.3412 -11.7431 101.378 -11.7431 101.378" stroke="#304E86"/>
<path d="M-2.00468 449.009C-2.00468 449.009 81.0207 470.873 93.6025 423.488C98.4371 405.28 90.0986 392.822 93.6025 374.093C107.041 302.26 211.821 409.958 235.387 342.809C254.764 287.598 230.033 239.613 198.966 194.623C168.657 150.733 138.053 142.384 93.6026 132.879C56.6974 124.987 -2.00465 139.465 -2.00465 139.465" stroke="#304E86"/>
</svg>
