<svg width="48" height="48" viewBox="0 0 48 48" fill="none" xmlns="http://www.w3.org/2000/svg">
<path d="M12.8039 38.0784H10.4143C9.97926 38.0784 9.66707 38.5547 9.79269 39.0272L10.0824 40.1166C10.1649 40.4278 10.418 40.6406 10.7039 40.6406H14.5449C14.8318 40.6406 15.0839 40.4278 15.1664 40.1166L15.4561 39.0272C15.5818 38.5547 15.2696 38.0784 14.8346 38.0784H12.8039V38.0784Z" fill="#FFFCF5" stroke="black" stroke-width="0.56" stroke-linecap="round" stroke-linejoin="round"/>
<path d="M35.5539 38.0784H33.1643C32.7293 38.0784 32.4171 38.5547 32.5427 39.0272L32.8324 40.1166C32.9149 40.4278 33.168 40.6406 33.4539 40.6406H37.2949C37.5818 40.6406 37.8339 40.4278 37.9164 40.1166L38.2061 39.0272C38.3318 38.5547 38.0196 38.0784 37.5846 38.0784H35.5539V38.0784Z" fill="#FFFCF5" stroke="black" stroke-width="0.56" stroke-linecap="round" stroke-linejoin="round"/>
<path d="M40.4135 7.35938H7.58695C6.5131 7.35938 5.64258 8.2299 5.64258 9.30375V37.1719C5.64258 38.2457 6.5131 39.1162 7.58695 39.1162H40.4135C41.4874 39.1162 42.3579 38.2457 42.3579 37.1719V9.30375C42.3579 8.2299 41.4874 7.35938 40.4135 7.35938Z" fill="#384170"/>
<path d="M38.9887 9.70502H9.01023C8.40807 9.70502 7.91992 10.1932 7.91992 10.7953V35.6822C7.91992 36.2844 8.40807 36.7725 9.01023 36.7725H38.9887C39.5908 36.7725 40.079 36.2844 40.079 35.6822V10.7953C40.079 10.1932 39.5908 9.70502 38.9887 9.70502Z" fill="#FFFCF5" stroke="black" stroke-width="0.56" stroke-linecap="round" stroke-linejoin="round"/>
<path d="M6.87207 28.9941H9.12207" stroke="black" stroke-width="0.56" stroke-linecap="round" stroke-linejoin="round"/>
<path d="M6.87207 17.3334H9.12207" stroke="black" stroke-width="0.56" stroke-linecap="round" stroke-linejoin="round"/>
<path d="M23.9999 31.9116C28.6743 31.9116 32.4636 28.1222 32.4636 23.4478C32.4636 18.7734 28.6743 14.9841 23.9999 14.9841C19.3255 14.9841 15.5361 18.7734 15.5361 23.4478C15.5361 28.1222 19.3255 31.9116 23.9999 31.9116Z" fill="#FFFCF5" stroke="black" stroke-width="0.56" stroke-linecap="round" stroke-linejoin="round"/>
<path d="M24 29.6363C27.4177 29.6363 30.1884 26.8656 30.1884 23.4478C30.1884 20.0301 27.4177 17.2594 24 17.2594C20.5822 17.2594 17.8115 20.0301 17.8115 23.4478C17.8115 26.8656 20.5822 29.6363 24 29.6363Z" fill="#384170"/>
<path d="M24.0433 12.3497H23.9561C23.4259 12.3497 22.9961 12.7795 22.9961 13.3097V18.9581C22.9961 19.4883 23.4259 19.9181 23.9561 19.9181H24.0433C24.5735 19.9181 25.0033 19.4883 25.0033 18.9581V13.3097C25.0033 12.7795 24.5735 12.3497 24.0433 12.3497Z" fill="#384170"/>
<path d="M24.0433 26.9766H23.9561C23.4259 26.9766 22.9961 27.4064 22.9961 27.9366V33.585C22.9961 34.1152 23.4259 34.545 23.9561 34.545H24.0433C24.5735 34.545 25.0033 34.1152 25.0033 33.585V27.9366C25.0033 27.4064 24.5735 26.9766 24.0433 26.9766Z" fill="#384170"/>
<path d="M14.3013 18.0543L14.2593 18.1307C14.0034 18.595 14.1723 19.1789 14.6367 19.4348L19.5836 22.1611C20.0479 22.417 20.6318 22.2481 20.8877 21.7837L20.9298 21.7074C21.1857 21.243 21.0167 20.6591 20.5524 20.4032L15.6055 17.6769C15.1411 17.421 14.5573 17.59 14.3013 18.0543Z" fill="#384170"/>
<path d="M27.1119 25.1142L27.0698 25.1906C26.8139 25.6549 26.9829 26.2388 27.4472 26.4947L32.3941 29.2211C32.8585 29.477 33.4424 29.308 33.6983 28.8437L33.7403 28.7673C33.9963 28.303 33.8273 27.7191 33.3629 27.4632L28.416 24.7368C27.9517 24.4809 27.3678 24.6499 27.1119 25.1142Z" fill="#384170"/>
<path d="M27.0688 21.7063L27.1109 21.7827C27.3668 22.247 27.9506 22.416 28.415 22.1601L33.3619 19.4338C33.8262 19.1779 33.9952 18.594 33.7393 18.1296L33.6972 18.0533C33.4413 17.5889 32.8574 17.42 32.3931 17.6759L27.4462 20.4022C26.9818 20.6581 26.8129 21.242 27.0688 21.7063Z" fill="#384170"/>
<path d="M14.2592 28.7652L14.3013 28.8415C14.5572 29.3059 15.1411 29.4749 15.6054 29.2189L20.5523 26.4926C21.0167 26.2367 21.1856 25.6528 20.9297 25.1885L20.8877 25.1121C20.6317 24.6478 20.0479 24.4788 19.5835 24.7347L14.6366 27.461C14.1723 27.717 14.0033 28.3008 14.2592 28.7652Z" fill="#384170"/>
<path d="M24.0002 27.24C26.0946 27.24 27.7924 25.5422 27.7924 23.4478C27.7924 21.3535 26.0946 19.6556 24.0002 19.6556C21.9058 19.6556 20.208 21.3535 20.208 23.4478C20.208 25.5422 21.9058 27.24 24.0002 27.24Z" fill="#FFFCF5" stroke="black" stroke-width="0.56" stroke-linecap="round" stroke-linejoin="round"/>
</svg>
