<svg width="48" height="48" viewBox="0 0 48 48" fill="none" xmlns="http://www.w3.org/2000/svg">
<path d="M23.7229 6.005L6.29199 10.5903V14.0263H23.7229H41.1539V10.5903L23.7229 6.005Z" fill="#304E86"/>
<path d="M39.5466 14.0262H7.89941V16.1853H39.5466V14.0262Z" fill="#FFFCF5" stroke="black" stroke-width="0.5625" stroke-linecap="round" stroke-linejoin="round"/>
<path d="M13.0274 16.1853H9.16211V35.48H13.0274V16.1853Z" fill="#FFFCF5" stroke="black" stroke-width="0.5625" stroke-linecap="round" stroke-linejoin="round"/>
<path d="M14.2913 33.9144H7.89941V35.8944H14.2913V33.9144Z" fill="#304E86"/>
<path d="M14.2913 16.1853H7.89941V18.1653H14.2913V16.1853Z" fill="#304E86"/>
<path d="M38.2813 16.1853H34.416V35.48H38.2813V16.1853Z" fill="#FFFCF5" stroke="black" stroke-width="0.5625" stroke-linecap="round" stroke-linejoin="round"/>
<path d="M39.5452 33.9144H33.1533V35.8944H39.5452V33.9144Z" fill="#304E86"/>
<path d="M39.5452 16.1853H33.1533V18.1653H39.5452V16.1853Z" fill="#304E86"/>
<path d="M25.6554 16.1853H21.79V35.48H25.6554V16.1853Z" fill="#FFFCF5" stroke="black" stroke-width="0.5625" stroke-linecap="round" stroke-linejoin="round"/>
<path d="M26.9192 33.9144H20.5273V35.8944H26.9192V33.9144Z" fill="#304E86"/>
<path d="M26.9192 16.1853H20.5273V18.1653H26.9192V16.1853Z" fill="#304E86"/>
<path d="M42.4474 40.0906H7.48242H4.99805V37.9925H42.4474V40.0906Z" fill="#304E86"/>
<path d="M41.1548 35.6178H6.29199V37.9925H41.1548V35.6178Z" fill="#FFFCF5" stroke="black" stroke-width="0.5625" stroke-linecap="round" stroke-linejoin="round"/>
<path d="M4.57812 43.0691L42.8675 4.77878" stroke="black" stroke-width="0.5625" stroke-linecap="round" stroke-linejoin="round"/>
</svg>
