<svg width="236" height="307" viewBox="0 0 236 307" fill="none" xmlns="http://www.w3.org/2000/svg">
<path d="M231.455 5.74639C231.455 5.74639 153.117 -14.86 141.246 29.7991C136.685 46.9593 144.552 58.7011 141.246 76.3529C128.566 144.053 29.7037 42.5506 7.46772 105.837C-10.815 157.872 12.5193 203.096 41.8328 245.498C70.4298 286.863 99.3059 294.732 141.246 303.69C176.067 311.128 231.455 297.483 231.455 297.483" stroke="#304E86"/>
<path d="M235 34.5559C235 34.5559 168.715 17.1443 158.67 54.8796C154.81 69.3793 161.467 79.3006 158.67 94.2157C147.941 151.42 64.2877 65.6541 45.4727 119.129C30.0027 163.096 49.7471 201.309 74.5509 237.137C98.7483 272.089 123.182 278.737 158.67 286.307C188.134 292.592 235 281.062 235 281.062" stroke="#304E86"/>
<path d="M225.545 69.0907C225.545 69.0907 174.525 55.6726 166.794 84.7529C163.823 95.927 168.947 103.573 166.794 115.067C158.536 159.151 94.1483 93.0562 79.6664 134.266C67.7592 168.149 82.9564 197.598 102.048 225.208C120.672 252.144 139.479 257.267 166.794 263.101C189.472 267.944 225.545 259.059 225.545 259.059" stroke="#304E86"/>
<path d="M221 96.8051C221 96.8051 182.249 86.6002 176.376 108.717C174.12 117.215 178.012 123.03 176.376 131.772C170.104 165.299 121.199 115.032 110.199 146.373C101.155 172.142 112.698 194.539 127.199 215.537C141.345 236.023 155.629 239.919 176.376 244.356C193.601 248.039 221 241.282 221 241.282" stroke="#304E86"/>
</svg>
