<svg width="236" height="306" viewBox="0 0 236 306" fill="none" xmlns="http://www.w3.org/2000/svg">
<path d="M231.455 5.2918C231.455 5.2918 153.117 -15.3146 141.246 29.3446C136.685 46.5047 144.552 58.2465 141.246 75.8983C128.566 143.598 29.7037 42.096 7.46772 105.382C-10.815 157.417 12.5193 202.642 41.8328 245.043C70.4298 286.409 99.3059 294.277 141.246 303.236C176.067 310.673 231.455 297.028 231.455 297.028" stroke="white" stroke-opacity="0.32"/>
<path d="M235 34.1013C235 34.1013 168.715 16.6897 158.67 54.425C154.81 68.9247 161.467 78.846 158.67 93.7611C147.941 150.965 64.2877 65.1995 45.4727 118.674C30.0027 162.641 49.7471 200.854 74.5509 236.682C98.7483 271.634 123.182 278.283 158.67 285.852C188.134 292.137 235 280.607 235 280.607" stroke="white" stroke-opacity="0.32"/>
<path d="M225.545 68.6361C225.545 68.6361 174.525 55.218 166.794 84.2983C163.823 95.4724 168.947 103.118 166.794 114.612C158.536 158.696 94.1483 92.6016 79.6664 133.811C67.7592 167.694 82.9564 197.143 102.048 224.753C120.672 251.689 139.479 256.813 166.794 262.646C189.472 267.489 225.545 258.604 225.545 258.604" stroke="white" stroke-opacity="0.32"/>
<path d="M221 96.3506C221 96.3506 182.249 86.1457 176.376 108.262C174.12 116.76 178.012 122.575 176.376 131.317C170.104 164.844 121.199 114.577 110.199 145.918C101.155 171.688 112.698 194.084 127.199 215.083C141.345 235.568 155.629 239.465 176.376 243.901C193.601 247.585 221 240.827 221 240.827" stroke="white" stroke-opacity="0.32"/>
</svg>
