<svg width="1282" height="420" viewBox="0 0 1282 420" fill="none" xmlns="http://www.w3.org/2000/svg">
<rect width="1264" height="420" fill="#304E86"/>
<path d="M1277.45 58.7464C1277.45 58.7464 1199.12 38.14 1187.25 82.7991C1182.68 99.9593 1190.55 111.701 1187.25 129.353C1174.57 197.053 1075.7 95.5506 1053.47 158.837C1035.19 210.872 1058.52 256.096 1087.83 298.498C1116.43 339.863 1145.31 347.732 1187.25 356.69C1222.07 364.128 1277.45 350.483 1277.45 350.483" stroke="white" stroke-opacity="0.32"/>
<path d="M1281 87.5559C1281 87.5559 1214.71 70.1443 1204.67 107.88C1200.81 122.379 1207.47 132.301 1204.67 147.216C1193.94 204.42 1110.29 118.654 1091.47 172.129C1076 216.096 1095.75 254.309 1120.55 290.137C1144.75 325.089 1169.18 331.737 1204.67 339.307C1234.13 345.592 1281 334.062 1281 334.062" stroke="white" stroke-opacity="0.32"/>
<path d="M1271.55 122.091C1271.55 122.091 1220.53 108.673 1212.79 137.753C1209.82 148.927 1214.95 156.573 1212.79 168.067C1204.54 212.151 1140.15 146.056 1125.67 187.266C1113.76 221.149 1128.96 250.598 1148.05 278.208C1166.67 305.144 1185.48 310.267 1212.79 316.101C1235.47 320.944 1271.55 312.059 1271.55 312.059" stroke="white" stroke-opacity="0.32"/>
<path d="M1267 149.805C1267 149.805 1228.25 139.6 1222.38 161.717C1220.12 170.215 1224.01 176.03 1222.38 184.772C1216.1 218.299 1167.2 168.032 1156.2 199.373C1147.16 225.142 1158.7 247.539 1173.2 268.537C1187.35 289.023 1201.63 292.919 1222.38 297.356C1239.6 301.039 1267 294.282 1267 294.282" stroke="white" stroke-opacity="0.32"/>
</svg>
