<svg width="2486" height="1710" viewBox="0 0 2486 1710" fill="none" xmlns="http://www.w3.org/2000/svg">
<path d="M246.81 1342.77H2222.99" stroke="#384170" stroke-width="5" stroke-miterlimit="10" stroke-linecap="round" stroke-linejoin="round"/>
<path d="M1547.88 488.44C1547.88 488.44 1559.63 538.35 1530.87 581.42C1527.78 586.04 1524.24 590.57 1520.17 594.96C1520.17 594.96 1498.23 604.32 1480.24 639.57C1480.63 638.41 1499.47 582.94 1480.77 551.96C1480.77 551.96 1495.88 510.4 1496.42 506.62C1496.96 502.84 1483.46 479.63 1483.46 479.63C1483.46 479.63 1443.27 468.83 1427.19 467.75C1411.13 466.67 1378.2 451.02 1359.84 444C1341.49 436.98 1327.27 431.04 1308.2 470.45C1308.2 470.45 1308.19 470.43 1308.18 470.41C1307.36 469.11 1286.93 435.74 1303.16 392C1319.71 347.38 1408.24 327.22 1498.92 371.13C1588.93 414.71 1548.48 487.35 1547.88 488.44V488.44Z" stroke="#384170" stroke-width="4" stroke-miterlimit="10" stroke-linecap="round" stroke-linejoin="round"/>
<path d="M1547.89 488.43L1547.88 488.44C1547.88 488.44 1562.27 530.9 1530.87 581.42C1527.78 586.04 1524.24 590.57 1520.17 594.96C1520.17 594.96 1498.23 604.32 1480.24 639.57C1480.63 638.41 1499.47 582.94 1480.77 551.96C1480.77 551.96 1495.88 510.4 1496.42 506.62C1496.96 502.84 1483.46 479.63 1483.46 479.63C1483.46 479.63 1443.27 468.83 1427.19 467.75C1411.13 466.67 1378.2 451.02 1359.84 444C1341.49 436.98 1327.27 431.04 1308.2 470.45C1308.2 470.45 1308.19 470.43 1308.18 470.41C1307.42 468.19 1278.2 396.98 1344.18 367.89C1411.13 338.37 1590.33 379.04 1547.89 488.43Z" fill="#384170"/>
<path d="M1311.21 464.55C1311.21 464.55 1247.75 586.33 1257.83 672.69C1267.91 759.05 1324.05 808.72 1408.25 754.02" stroke="#384170" stroke-width="4" stroke-miterlimit="10" stroke-linecap="round" stroke-linejoin="round"/>
<path d="M1508.83 596.22C1508.83 596.22 1536.9 585.42 1542.84 604.32C1548.78 623.21 1508.43 712.82 1476.78 684.21L1449.45 752.22C1449.45 752.22 1435.24 818.8 1430.2 836.43C1425.16 854.06 1403.57 897.25 1403.57 897.25L1408.25 940.07C1408.25 940.07 1392.06 947.99 1400.69 966.34C1409.33 984.69 1380.9 1102.01 1380.9 1102.01" stroke="#384170" stroke-width="4" stroke-miterlimit="10" stroke-linecap="round" stroke-linejoin="round"/>
<path d="M1453.84 741.31C1453.84 741.31 1461.87 769.25 1463.67 776.93C1465.47 784.61 1444.96 921 1444.96 921L1408.25 887.89" stroke="#384170" stroke-width="4" stroke-miterlimit="10" stroke-linecap="round" stroke-linejoin="round"/>
<path d="M1256.74 653.44C1256.74 653.44 1218.42 689.07 1208.7 712.28C1198.98 735.49 1186.57 792.17 1189.81 854.79C1189.81 854.79 1201.33 856.95 1204.2 851.55C1207.07 846.15 1198.44 842.19 1198.44 837.16C1198.44 832.13 1215.35 824.92 1216.79 829.6C1218.23 834.28 1213.19 850.97 1217.87 855.22C1222.55 859.47 1245.58 872.43 1245.58 872.43L1193.76 1059.92" stroke="#384170" stroke-width="4" stroke-miterlimit="10" stroke-linecap="round" stroke-linejoin="round"/>
<path d="M1257.83 672.69C1257.83 672.69 1223.29 698.98 1223.02 858.93" stroke="#384170" stroke-width="4" stroke-miterlimit="10" stroke-linecap="round" stroke-linejoin="round"/>
<path d="M1223.01 811.6C1223.01 811.6 1250.62 905.17 1317.56 912C1384.5 918.84 1418.13 866.6 1418.13 866.6" stroke="#384170" stroke-width="4" stroke-miterlimit="10" stroke-linecap="round" stroke-linejoin="round"/>
<path d="M1257.83 639.57C1257.83 639.57 1122.34 661.54 1118.56 662.62C1114.78 663.7 1095.89 678.81 1095.89 678.81L1067.82 690.15C1067.82 690.15 1038.67 719.3 1039.75 720.92C1040.83 722.54 1052.71 735.31 1067.82 717.32C1067.82 717.32 1051.27 769.5 1052.35 772.74C1053.43 775.98 1066.38 772.57 1072.14 765.82C1077.9 759.07 1089.41 728.12 1089.41 728.12C1089.41 728.12 1084.01 800.81 1087.61 801.17C1091.21 801.53 1103.8 795.41 1108.12 785.7C1112.44 775.98 1115.32 741.32 1115.32 741.32C1115.32 741.32 1121.08 803.36 1124.68 801.19C1128.28 799.02 1137.64 782.46 1140.51 771.67C1143.39 760.87 1142.31 731.72 1142.31 731.72L1146.63 726.32C1146.63 726.32 1165.7 725.24 1181.54 710.49C1181.54 710.49 1191.62 704.73 1194.86 704.73C1198.1 704.73 1217.35 697.4 1217.35 697.4" stroke="#384170" stroke-width="4" stroke-miterlimit="10" stroke-linecap="round" stroke-linejoin="round"/>
<path d="M1146.63 726.31C1146.63 726.31 1135.47 724.51 1135.11 716.95C1134.75 709.39 1149.14 694.64 1162.82 688.88C1176.49 683.12 1194.49 669.09 1194.49 669.09" stroke="#384170" stroke-width="4" stroke-miterlimit="10" stroke-linecap="round" stroke-linejoin="round"/>
<path d="M1115.32 741.31L1113.52 726.31L1126.47 694.29" stroke="#384170" stroke-width="4" stroke-miterlimit="10" stroke-linecap="round" stroke-linejoin="round"/>
<path d="M1089.41 728.11L1090.85 720.4C1090.85 720.4 1104.17 699.32 1108.12 689.96" stroke="#384170" stroke-width="4" stroke-miterlimit="10" stroke-linecap="round" stroke-linejoin="round"/>
<path d="M1067.82 717.32L1072.85 704L1091.98 686.74" stroke="#384170" stroke-width="4" stroke-miterlimit="10" stroke-linecap="round" stroke-linejoin="round"/>
<path d="M1413.29 1342.77L1392.78 1223.47C1392.78 1223.47 1363.63 1227.59 1338.8 1195.39C1338.8 1195.39 1303.89 1216.81 1293.46 1208.17C1283.02 1199.53 1280.5 1190.18 1280.5 1190.18C1280.5 1190.18 1271.86 1192.34 1263.95 1185.86C1256.03 1179.38 1253.15 1166.07 1253.15 1166.07C1253.15 1166.07 1224 1174.71 1213.56 1166.07C1203.12 1157.43 1210.68 1144.48 1236.59 1132.6C1236.59 1132.6 1247.03 1100.57 1251.34 1095.53C1255.66 1090.49 1280.13 1082.57 1280.13 1082.57L1246.66 1080.77C1246.66 1080.77 1182.96 1089.05 1174.69 1083.65C1166.41 1078.25 1166.23 1069.08 1172.8 1063.41L1215.98 1057.2C1215.98 1057.2 1237.84 1053.42 1249.99 1049.91C1262.14 1046.4 1328.8 1048.56 1331.5 1049.91C1334.2 1051.26 1350.12 1067.45 1350.12 1067.45L1390.34 1112.79C1390.34 1112.79 1418.68 1141.22 1422.28 1143.02C1425.88 1144.82 1457.77 1172.53 1462.16 1181.17C1466.55 1189.81 1523.76 1252.06 1523.76 1252.06C1523.76 1252.06 1569.28 1291.47 1542.29 1342.75" stroke="#384170" stroke-width="4" stroke-miterlimit="10" stroke-linecap="round" stroke-linejoin="round"/>
<path d="M1236.59 1132.6C1236.59 1132.6 1225.43 1162.11 1253.14 1166.07C1253.14 1166.07 1258.18 1147 1260.34 1143.76C1262.5 1140.52 1317.92 1116.05 1317.92 1116.05" stroke="#384170" stroke-width="4" stroke-miterlimit="10" stroke-linecap="round" stroke-linejoin="round"/>
<path d="M1280.5 1190.18C1280.5 1190.18 1279.06 1179.02 1280.5 1177.94C1281.94 1176.86 1334.84 1156.35 1334.84 1156.35" stroke="#384170" stroke-width="4" stroke-miterlimit="10" stroke-linecap="round" stroke-linejoin="round"/>
<path d="M1077.17 1236.96L1179.65 1244.5C1193.88 1245.55 1204.72 1231.96 1200.53 1218.31L1095.26 875.71C1091.76 864.31 1081.41 856.4 1069.5 855.99L834.72 848.02C824.25 847.66 815.9 856.58 816.84 867.01C817.4 873.22 818.84 881.4 821.67 892.2C833.19 936.1 865.93 1023.55 865.93 1023.55" stroke="#384170" stroke-width="4" stroke-miterlimit="10" stroke-linecap="round" stroke-linejoin="round"/>
<path d="M842.72 1205.66C842.72 1205.66 852.98 1199 852.98 1190.19C852.98 1181.38 842.72 1147.91 842.72 1131.71C842.72 1115.52 859.99 1096.08 858.91 1078.27C857.83 1060.46 847.93 1040.48 853.69 1032.21C859.45 1023.94 865.93 1023.57 865.93 1023.57L891.48 1092.3C891.48 1092.3 888.6 1127.21 891.48 1132.61C894.36 1138.01 920.27 1092.3 920.27 1092.3L955.54 1031.12C955.54 1031.12 966.34 1022.12 975.33 1027.52C984.33 1032.92 983.25 1040.09 981.45 1048.02C979.65 1055.95 935.75 1147.36 935.75 1147.36C935.75 1147.36 935.75 1155.64 943.67 1154.2C951.59 1152.76 1023.92 1077.91 1023.92 1077.91C1023.92 1077.91 1038.31 1063.52 1049.47 1072.15C1060.63 1080.79 1049.83 1093.38 1040.11 1107.06C1030.39 1120.73 980.37 1180.11 980.37 1180.11C980.37 1180.11 976.05 1191.99 986.13 1193.43C996.21 1194.87 1028.23 1187.67 1056.66 1178.68C1085.09 1169.68 1107.4 1161.05 1116.04 1170.76C1124.68 1180.48 1109.05 1200.99 1075.58 1211.07C1042.11 1221.15 1028.08 1233.74 1028.08 1233.74L1080.6 1237.23C1080.6 1237.23 1074.65 1250.29 1051.98 1257.13C1029.31 1263.97 985.04 1266.13 985.04 1266.13C985.04 1266.13 973.88 1277.29 965.25 1279.8C956.61 1282.32 931.06 1285.56 931.06 1285.56" stroke="#384170" stroke-width="4" stroke-miterlimit="10" stroke-linecap="round" stroke-linejoin="round"/>
<path d="M974.9 1274.65C974.9 1274.65 979.83 1304.98 963.1 1316.86C946.37 1328.74 876.19 1336.29 844.88 1316.86C813.57 1297.43 800.8 1241.47 847.13 1201.98" stroke="#384170" stroke-width="4" stroke-miterlimit="10" stroke-linecap="round" stroke-linejoin="round"/>
<path d="M844.88 1316.86C844.88 1316.86 805.47 1308.22 809.07 1259.64C812.67 1211.06 829.94 1199.18 835.7 1180.11C841.46 1161.04 842.9 1135.85 842.9 1135.85" stroke="#384170" stroke-width="4" stroke-miterlimit="10" stroke-linecap="round" stroke-linejoin="round"/>
<path d="M1039.75 720.92C1039.75 720.92 980.73 743.78 964.18 765.82C947.63 787.86 919.57 850.91 919.57 850.91" stroke="#384170" stroke-width="4" stroke-miterlimit="10" stroke-linecap="round" stroke-linejoin="round"/>
<path d="M1454.95 738.55C1454.95 738.55 1559.04 804.58 1605.46 838.05C1651.88 871.52 1656.2 895.27 1656.2 895.27C1656.2 895.27 1677.25 934.68 1656.2 979.48C1635.15 1024.28 1599.52 1122.53 1599.52 1160.31C1599.52 1198.1 1605.46 1277.45 1608.16 1288.78C1610.86 1300.11 1607.08 1328.73 1586.03 1342.76" stroke="#384170" stroke-width="4" stroke-miterlimit="10" stroke-linecap="round" stroke-linejoin="round"/>
<path d="M1462.16 1181.19C1462.16 1181.19 1457.19 1145.56 1486.7 1102.02C1516.21 1058.48 1549.32 1011.69 1565.87 967.79" stroke="#384170" stroke-width="4" stroke-miterlimit="10" stroke-linecap="round" stroke-linejoin="round"/>
<path d="M1359.51 1214.52C1359.51 1214.52 1356.43 1298.15 1380.91 1342.77" stroke="#384170" stroke-width="4" stroke-miterlimit="10" stroke-linecap="round" stroke-linejoin="round"/>
<path d="M1123.97 1240.41C1123.97 1240.41 1088.69 1296.71 1082.21 1342.77" stroke="#384170" stroke-width="4" stroke-miterlimit="10" stroke-linecap="round" stroke-linejoin="round"/>
<path d="M1186.58 1085.46L1172.57 1127.33" stroke="#384170" stroke-width="4" stroke-miterlimit="10" stroke-linecap="round" stroke-linejoin="round"/>
<path d="M2146.7 1162.12C2139.51 1136.21 2108.56 1124.69 2108.56 1124.69C2108.56 1124.69 2047.02 1030.76 2007.08 967.79C1967.13 904.81 1863.85 873.5 1828.59 863.43C1793.32 853.36 1794.76 777.06 1801.23 755.47C1807.71 733.88 1805.55 723.81 1782.52 715.17C1759.49 706.53 1755.17 636.72 1749.41 610.08C1743.66 583.46 1741.5 554.66 1714.15 555.39C1686.79 556.1 1688.95 537.39 1662.33 530.92C1635.7 524.44 1617.7 569.06 1617.7 569.06C1622.95 527.62 1639.36 501.43 1660.74 485C1660.75 485 1660.75 485 1660.75 485C1660.75 485 1660.76 485 1660.77 484.99C1701.06 454.06 1759 457.78 1793.31 459.66C1845.85 462.54 1912.07 498.53 1943.37 564.38C1974.67 630.23 2021.1 700.41 2082.64 824.56C2144.18 948.71 2132.3 983.8 2129.6 1017.81C2126.9 1051.82 2127.98 1052.9 2139.32 1087.98C2140.82 1092.62 2142.05 1097.33 2143.06 1102.01C2143.06 1102.01 2143.06 1102.02 2143.07 1102.03C2149.67 1132.73 2146.7 1162.12 2146.7 1162.12Z" stroke="#384170" stroke-width="4" stroke-miterlimit="10" stroke-linecap="round" stroke-linejoin="round"/>
<path d="M1617.69 569.05C1617.69 569.05 1588.9 672.69 1588.18 705.08C1587.46 737.47 1585.3 805.12 1628.49 822.4C1671.67 839.67 1727.81 823.59 1761.64 776.93" stroke="#384170" stroke-width="4" stroke-miterlimit="10" stroke-linecap="round" stroke-linejoin="round"/>
<path d="M1679.28 828.11L1712.7 941.15" stroke="#384170" stroke-width="4" stroke-miterlimit="10" stroke-linecap="round" stroke-linejoin="round"/>
<path d="M1684.31 845.12L1658.36 853.17C1658.36 853.17 1597.02 806.76 1531.34 787.86" stroke="#384170" stroke-width="4" stroke-miterlimit="10" stroke-linecap="round" stroke-linejoin="round"/>
<path d="M1708.27 926.16C1708.27 926.16 1694.81 949.08 1679.29 988.66C1663.76 1028.25 1645.77 1075.75 1632.82 1116.05C1619.86 1156.36 1596.11 1265.04 1632.82 1342.77" stroke="#384170" stroke-width="4" stroke-miterlimit="10" stroke-linecap="round" stroke-linejoin="round"/>
<path d="M1850.81 870.13C1850.81 870.13 1813.46 897.25 1768.84 972.1C1724.22 1046.95 1699.03 1156.35 1703.34 1246.32C1707.66 1336.29 1713.42 1342.76 1713.42 1342.76" stroke="#384170" stroke-width="4" stroke-miterlimit="10" stroke-linecap="round" stroke-linejoin="round"/>
<path d="M1677.77 992.52C1677.77 992.52 1663.76 1045.34 1685.89 1055.05C1708.02 1064.76 1746.87 1015.17 1746.87 1015.17" stroke="#384170" stroke-width="4" stroke-miterlimit="10" stroke-linecap="round" stroke-linejoin="round"/>
<path d="M2146.7 1162.11C2146.7 1162.11 2160.91 1183.52 2151.2 1198.1C2151.2 1198.1 2174.28 1293.12 2175.79 1342.77" stroke="#384170" stroke-width="4" stroke-miterlimit="10" stroke-linecap="round" stroke-linejoin="round"/>
<path d="M1938.05 1190.18L1988.25 1342.77" stroke="#384170" stroke-width="4" stroke-miterlimit="10" stroke-linecap="round" stroke-linejoin="round"/>
<path d="M1752.82 787.86C1752.82 787.86 1760.93 854.79 1697.59 890.06L1681.16 827.84C1681.17 827.83 1719.36 825.65 1752.82 787.86Z" fill="#384170"/>
<path d="M1940.89 1198.81C1940.89 1198.81 1976.84 1336.29 1822.1 1342.77H1989.8L1940.89 1198.81Z" fill="#384170"/>
<path d="M2146.7 1162.12C2139.51 1136.21 2108.56 1124.69 2108.56 1124.69C2108.56 1124.69 2047.02 1030.76 2007.08 967.79C1967.13 904.81 1863.85 873.5 1828.59 863.43C1793.32 853.36 1794.76 777.06 1801.23 755.47C1807.71 733.88 1805.55 723.81 1782.52 715.17C1759.49 706.53 1755.17 636.72 1749.41 610.08C1743.66 583.46 1741.5 554.66 1714.15 555.39C1686.79 556.1 1688.95 537.39 1662.33 530.92C1635.7 524.44 1617.7 569.06 1617.7 569.06C1622.95 527.62 1639.36 501.43 1660.74 485C1660.75 485 1660.75 485 1660.75 485C1660.75 485 1660.76 485 1660.77 484.99C1662.39 484.02 1737.57 439.38 1825.7 480.18C1914.79 521.42 1928.26 568.71 1957.41 647.52C1986.56 726.33 2048.1 788.95 2072.93 853.18C2097.76 917.41 2099.92 1018.18 2109.64 1040.67C2119.36 1063.16 2143.06 1102.02 2143.06 1102.02C2143.06 1102.02 2143.06 1102.03 2143.07 1102.04C2149.67 1132.73 2146.7 1162.12 2146.7 1162.12Z" fill="#384170"/>
<path d="M963.1 1316.86V1342.77" stroke="#384170" stroke-width="4" stroke-miterlimit="10" stroke-linecap="round" stroke-linejoin="round"/>
<path d="M1332.5 776.24C1332.5 776.24 1280.75 784.59 1257.83 755.46C1257.83 755.46 1248.86 787.39 1262.89 828.11C1276.92 868.83 1376.81 912.57 1432.13 829.16C1432.13 829.16 1423.96 864.66 1398.67 887.44C1373.37 910.21 1316.34 929.21 1271.99 891.28C1227.64 853.35 1224.47 807.25 1224.47 807.25C1224.47 807.25 1226.48 725.6 1257.47 669.1C1257.45 669.09 1262.84 762.83 1332.5 776.24Z" fill="#384170"/>
<path d="M1462.83 790.99L1444.96 921L1405.54 915.23L1403.57 897.25L1410.25 889.87L1444.96 921L1462.83 790.99Z" fill="#384170"/>
<path d="M1738.68 1035.15C1738.68 1035.15 1695.08 1127.56 1689.33 1227.61C1683.57 1327.65 1629.11 1334.32 1629.11 1334.32L1632.81 1342.76H1713.42C1713.42 1342.76 1699.04 1231.95 1706.59 1166.07C1714.14 1100.19 1738.68 1035.15 1738.68 1035.15Z" fill="#384170"/>
<path d="M1562.64 975.9C1562.64 975.9 1486.37 1144.1 1506.88 1195.39C1527.39 1246.68 1541.38 1274.78 1541.38 1274.78L1510.81 1237.86L1465.96 1186.56C1465.96 1186.56 1459.28 1183.7 1463.65 1156.35C1468.02 1129 1479.38 1113.42 1500.68 1081.44C1521.99 1049.47 1562.64 975.9 1562.64 975.9Z" fill="#384170"/>
<path d="M1338.8 1195.39C1338.8 1195.39 1387.77 1220.14 1416.56 1214.51C1416.56 1214.51 1416.56 1321.17 1482.06 1342.76H1413.3L1392.79 1223.46C1392.78 1223.47 1358.93 1225.79 1338.8 1195.39Z" fill="#384170"/>
<path d="M1245.59 872.42L1215.99 1057.21L1193.77 1059.91L1245.59 872.42Z" fill="#384170"/>
<path d="M1211.07 1085.46L1193.77 1196.32L1172.57 1129L1185.57 1088.47C1185.57 1088.48 1184.62 1083.76 1211.07 1085.46Z" fill="#384170"/>
<path d="M1183.36 1244.56C1183.36 1244.56 1164.1 1326.93 1201.44 1342.76H1082.21C1082.21 1342.76 1091.64 1301.05 1104.67 1276.07C1117.7 1251.09 1123.97 1241.28 1123.97 1241.28L1183.36 1244.56Z" fill="#384170"/>
<path d="M975.34 1278.64C975.34 1278.64 879.23 1347.75 816.82 1265.37C816.82 1265.37 817.01 1343.35 914.9 1328.3C914.89 1328.3 986.84 1331.65 975.34 1278.64Z" fill="#384170"/>
<path d="M1330.13 577.574C1331.77 571.989 1330.58 566.721 1327.47 565.808C1324.36 564.894 1320.51 568.682 1318.87 574.267C1317.23 579.853 1318.42 585.121 1321.53 586.034C1324.64 586.947 1328.49 583.16 1330.13 577.574Z" fill="#384170"/>
<path d="M1412.8 598.074C1414.44 592.489 1413.25 587.221 1410.14 586.307C1407.03 585.394 1403.18 589.182 1401.54 594.767C1399.9 600.352 1401.09 605.62 1404.2 606.534C1407.31 607.447 1411.17 603.659 1412.8 598.074Z" fill="#384170"/>
<path d="M1355.33 595.36C1355.33 595.36 1330.31 619.98 1332.5 628.61C1334.03 634.67 1343.53 635.68 1349.06 635.74C1351.44 635.77 1353.5 634.12 1353.99 631.79C1355.24 625.85 1357.09 613.19 1355.33 595.36Z" stroke="#384170" stroke-width="4" stroke-miterlimit="10" stroke-linecap="round" stroke-linejoin="round"/>
<path d="M1319.57 540.02C1319.57 540.02 1338.46 527.06 1353.58 547.04" stroke="#384170" stroke-width="4" stroke-miterlimit="10" stroke-linecap="round" stroke-linejoin="round"/>
<path d="M1400.75 561.08C1400.75 561.08 1426.15 554.2 1436.02 575.72" stroke="#384170" stroke-width="4" stroke-miterlimit="10" stroke-linecap="round" stroke-linejoin="round"/>
<path d="M1311.47 666.22C1311.47 666.22 1325.86 688.53 1360.41 680.61" stroke="#384170" stroke-width="4" stroke-miterlimit="10" stroke-linecap="round" stroke-linejoin="round"/>
<path d="M1690 662.152C1690.99 657.788 1689.59 653.755 1686.89 653.145C1684.18 652.534 1681.19 655.577 1680.21 659.941C1679.22 664.305 1680.62 668.338 1683.32 668.948C1686.02 669.559 1689.02 666.516 1690 662.152Z" fill="#384170"/>
<path d="M1626.08 651.797C1627.07 647.433 1625.68 643.4 1622.97 642.79C1620.27 642.179 1617.28 645.222 1616.29 649.586C1615.31 653.95 1616.7 657.982 1619.4 658.593C1622.11 659.203 1625.1 656.161 1626.08 651.797Z" fill="#384170"/>
<path d="M1647.23 680.07C1647.23 680.07 1626 700.5 1629.6 706.12C1631.86 709.65 1638.24 710.82 1642.67 711.2C1645.12 711.41 1647.23 709.48 1647.23 707.02V680.07V680.07Z" stroke="#384170" stroke-width="4" stroke-miterlimit="10" stroke-linecap="round" stroke-linejoin="round"/>
<path d="M1621.14 741.31C1621.14 741.31 1634.64 760.67 1660.1 750.27" stroke="#384170" stroke-width="4" stroke-miterlimit="10" stroke-linecap="round" stroke-linejoin="round"/>
<path d="M1632.51 624.35C1632.51 624.35 1615.9 613.17 1602.34 630.29" stroke="#384170" stroke-width="4" stroke-miterlimit="10" stroke-linecap="round" stroke-linejoin="round"/>
<path d="M1679.85 632.68C1679.85 632.68 1702.21 626.74 1712.7 645.1" stroke="#384170" stroke-width="4" stroke-miterlimit="10" stroke-linecap="round" stroke-linejoin="round"/>
<path d="M2209.34 1398.29H258.29C251.35 1398.29 245.72 1392.66 245.72 1385.72V1383.72C245.72 1376.78 251.35 1371.15 258.29 1371.15H2209.34C2216.28 1371.15 2221.91 1376.78 2221.91 1383.72V1385.72C2221.91 1392.66 2216.28 1398.29 2209.34 1398.29Z" fill="#384170"/>
<path d="M1938.05 1357.42H2272.96" stroke="#384170" stroke-width="5" stroke-miterlimit="10" stroke-linecap="round" stroke-linejoin="round"/>
<path d="M332.35 1354.64H615.21" stroke="#384170" stroke-width="5" stroke-miterlimit="10" stroke-linecap="round" stroke-linejoin="round"/>
<path d="M1508.04 620.74C1508.04 620.74 1519.92 614.36 1522.07 625.53C1524.22 636.7 1508.04 656.68 1508.04 656.68" stroke="#384170" stroke-width="4" stroke-miterlimit="10" stroke-linecap="round" stroke-linejoin="round"/>
<path d="M474 910.46C474 910.46 438.33 910.79 431.67 924.13C425 937.46 405 953.46 405 953.46C405 953.46 385.33 969.79 385 986.13C384.67 1002.47 388.33 1020.13 388.33 1020.13C388.33 1020.13 380 996.8 376.67 996.8C373.34 996.8 368.34 1002.8 369 1011.47C369 1011.47 356.67 995.8 357.67 965.3C358.67 934.8 447.67 851.13 477.34 897.47C477.34 897.47 495.67 888.8 508.01 907.14C520.34 925.47 565.01 977.47 531.34 1012.47C531.34 1012.47 532.34 999.97 527.51 995.64C522.68 991.31 516.68 996.97 515.51 1000.81C514.34 1004.64 511.68 1018.81 509.01 1014.48C506.34 1010.15 510.26 986.98 507.51 971.73C504.76 956.48 498.5 923.21 474 910.46Z" fill="#384170"/>
<path d="M593 1195.96C593 1195.96 525 1085.71 520.25 1079.96C515.5 1074.21 476 1044.96 476 1044.96C476 1044.96 454.75 1035.21 450.63 1033.46C446.51 1031.71 432.75 1034.71 431 1035.71C429.25 1036.71 425 1041.96 423.75 1045.21C422.5 1048.46 425 1050.96 425 1050.96C425 1050.96 427.75 1052.96 432.88 1048.46L443.38 1048.21L453.5 1054.33C453.5 1054.33 443.38 1067.83 442.62 1070.33C441.86 1072.83 444.37 1076.45 444.37 1076.45C444.37 1076.45 442.49 1090.83 443.12 1091.7C443.75 1092.57 457.24 1104.32 466.37 1099.08C466.37 1099.08 488.99 1111.92 492.49 1114.44C495.99 1116.96 543.99 1235.96 554.49 1256.96C564.99 1277.96 577.32 1275.46 584.99 1272.13C592.66 1268.8 608.66 1257.8 605.32 1229.8C601.99 1201.8 593.24 1185.22 593.24 1185.22" stroke="#384170" stroke-width="3" stroke-miterlimit="10" stroke-linecap="round" stroke-linejoin="round"/>
<path d="M383.33 1002.8C383.33 1002.8 394 1045.47 404.25 1053.72C414.5 1061.97 435.01 1063.4 449.13 1060.31" stroke="#384170" stroke-width="3" stroke-miterlimit="10" stroke-linecap="round" stroke-linejoin="round"/>
<path d="M510.25 1011.21C510.25 1011.21 504.72 1047.33 485.61 1052.15" stroke="#384170" stroke-width="3" stroke-miterlimit="10" stroke-linecap="round" stroke-linejoin="round"/>
<path d="M533.25 1004.96C533.25 1004.96 530 1035.21 517.5 1039.21C505 1043.21 505.22 1029.54 505.22 1029.54" stroke="#384170" stroke-width="3" stroke-miterlimit="10" stroke-linecap="round" stroke-linejoin="round"/>
<path d="M367.33 1003.63C367.33 1003.63 372 1031.3 374.66 1036.13C377.33 1040.96 390.84 1044.07 392.25 1031.68" stroke="#384170" stroke-width="3" stroke-miterlimit="10" stroke-linecap="round" stroke-linejoin="round"/>
<path d="M404.25 1053.71L416.23 1092.21L407.5 1106.39C407.5 1106.39 439.7 1114.85 469.35 1100.78" stroke="#384170" stroke-width="3" stroke-miterlimit="10" stroke-linecap="round" stroke-linejoin="round"/>
<path d="M503.82 1032.93L496.19 1060.19" stroke="#384170" stroke-width="3" stroke-miterlimit="10" stroke-linecap="round" stroke-linejoin="round"/>
<path d="M524.91 1086.86C524.91 1086.86 548.34 1083.59 557.67 1086.86C567 1090.13 583.67 1113.22 595.34 1135.84C607.01 1158.46 635.01 1208.8 636.34 1212.46C637.67 1216.13 625.17 1229.13 605.34 1229.79" stroke="#384170" stroke-width="3" stroke-miterlimit="10" stroke-linecap="round" stroke-linejoin="round"/>
<path d="M586.82 1185.96C586.82 1185.96 613.92 1178.22 636.33 1212.47" stroke="#384170" stroke-width="3" stroke-miterlimit="10" stroke-linecap="round" stroke-linejoin="round"/>
<path d="M409.4 1103.31H396.33C396.33 1103.31 384.66 1116.46 378.66 1119.13C372.66 1121.8 325.33 1147.74 318.33 1157.6C311.33 1167.46 283 1274.35 283 1274.35C283 1274.35 305.5 1268.46 368 1283.71C368 1283.71 351.25 1318.46 351 1319.46C350.75 1320.46 353.75 1342.76 353.75 1342.76" stroke="#384170" stroke-width="3" stroke-miterlimit="10" stroke-linecap="round" stroke-linejoin="round"/>
<path d="M318.74 1274.57C318.74 1274.57 316.75 1306.96 315.25 1313.96C313.75 1320.96 309.25 1342.76 309.25 1342.76" stroke="#384170" stroke-width="3" stroke-miterlimit="10" stroke-linecap="round" stroke-linejoin="round"/>
<path d="M283 1274.35C283 1274.35 296.27 1282.23 318.13 1283.72L318.68 1275.38C318.69 1275.38 295.83 1271.57 283 1274.35Z" fill="#384170"/>
<path d="M283 1274.35C283 1274.35 290.6 1282.98 318.13 1283.72" stroke="#384170" stroke-width="3" stroke-miterlimit="10" stroke-linecap="round" stroke-linejoin="round"/>
<path d="M634.91 1210.36C634.91 1210.36 616.81 1198.84 599.66 1202.07L593.82 1186.37C593.82 1186.37 595.46 1185.04 598.28 1185.48C601.1 1185.92 623.95 1191.76 634.91 1210.36Z" fill="#384170"/>
<path d="M575.65 1274.35L589 1342.77" stroke="#384170" stroke-width="3" stroke-miterlimit="10" stroke-linecap="round" stroke-linejoin="round"/>
<path d="M368 1283.71V1197.87" stroke="#384170" stroke-width="3" stroke-miterlimit="10" stroke-linecap="round" stroke-linejoin="round"/>
<path d="M407.45 1063.98C407.45 1063.98 411.64 1071.63 423.4 1074.46C435.17 1077.29 437.33 1086.63 438.33 1094.13C439.33 1101.63 444.85 1107.02 458.8 1104.87L470.25 1101.3L466.37 1099.09C466.37 1099.09 452.1 1102.05 443.12 1091.71L444.37 1076.46C444.37 1076.46 441 1073.27 442.62 1070.34C444.24 1067.41 448.58 1061.07 448.58 1061.07C448.58 1061.07 422.31 1064.87 405.53 1054.67C405.53 1054.67 404.46 1054.4 407.45 1063.98Z" fill="#384170"/>
<path d="M501.08 1038.38L496.57 1058.82L486.36 1052.72C486.37 1052.72 494.79 1048.43 501.08 1038.38Z" fill="#384170"/>
<path d="M368 1202.96C368 1202.96 362.7 1277.15 340.59 1277.83L368 1282.71V1202.96Z" fill="#384170"/>
<path d="M454.53 1106.07C454.53 1106.07 495.52 1135.26 514.6 1163.86L492.51 1114.44L468.24 1100.14L454.53 1106.07Z" fill="#384170"/>
<path d="M679.33 1024.13C680.04 1034.15 690.33 1042.8 690.33 1042.8C690.33 1042.8 690.5 1066.47 688.16 1073.3C685.83 1080.13 659.49 1099.63 649.33 1106.47C639.16 1113.3 623 1119.47 623 1119.47C623 1119.47 646.67 1033.47 656 992.47C665.33 951.47 676.33 921.47 700 900.14C723.67 878.81 771.67 898.14 771.67 898.14C785.67 886.81 806 917.81 811 933.81C816 949.81 818.67 956.14 818.5 960.14C818.33 964.14 815 972.8 815 972.8L818.5 1098.22L782.5 1088.97L771.25 1063.47C771.25 1063.47 772.5 1050.72 774 1043.22C775.5 1035.72 778.75 1029.72 778.75 1029.72C781 1035.97 789.25 1032.72 793.75 1027.72C798.25 1022.72 798 1016.97 799.5 1012.47C801 1007.97 807 997.72 802 995.22C797 992.72 788.33 1007.47 788.33 1007.47C788.33 1007.47 791.33 983.8 791.33 981.47C791.33 979.14 791.25 965.8 789.25 962.47C789.25 962.47 776.67 944.47 757 938.47C757 938.47 729.33 923.14 709.67 934.14C690 945.13 676 977.13 679.33 1024.13Z" fill="#384170"/>
<path d="M809.35 1274.35C780.95 1261.91 763.67 1121.29 763.67 1121.29C756.84 1117.96 745.5 1101.79 745.5 1101.79C743.5 1105.12 738 1102.96 736.83 1101.79C735.66 1100.62 732.5 1089.29 732.5 1089.29C732.5 1089.29 727.33 1089.12 726.5 1087.96C725.67 1086.79 724.33 1072.96 724.67 1070.79C725 1068.62 733.34 1056.62 736.5 1055.79C739.67 1054.96 754.33 1055.79 754.33 1055.79C754.33 1055.79 764.66 1042.46 768.83 1030.62C773 1018.79 778 1012.29 780 1015.62C782 1018.95 777.57 1032.17 777.57 1032.17L771.25 1063.45L782.5 1088.95L829.37 1194.18" stroke="#384170" stroke-width="3" stroke-miterlimit="10" stroke-linecap="round" stroke-linejoin="round"/>
<path d="M781.83 1087.46C781.83 1087.46 823.99 1100.22 829.37 1101.72C834.75 1103.22 846.27 1107.89 848.38 1111.81" stroke="#384170" stroke-width="3" stroke-miterlimit="10" stroke-linecap="round" stroke-linejoin="round"/>
<path d="M826.86 1100.99C826.86 1100.99 816 1118.47 819.75 1141.47L813.73 1159.09" stroke="#384170" stroke-width="3" stroke-miterlimit="10" stroke-linecap="round" stroke-linejoin="round"/>
<path d="M761.25 1065.96L740.25 1068.46C740.25 1068.46 733.75 1075.71 733.25 1077.21C732.75 1078.71 732.5 1089.29 732.5 1089.29" stroke="#384170" stroke-width="3" stroke-miterlimit="10" stroke-linecap="round" stroke-linejoin="round"/>
<path d="M745.5 1101.8C745.5 1101.8 747.5 1089.7 748.75 1087.46C750 1085.22 755.75 1085.47 755.75 1085.47L759.25 1089.3" stroke="#384170" stroke-width="3" stroke-miterlimit="10" stroke-linecap="round" stroke-linejoin="round"/>
<path d="M734.43 1095.73C734.43 1095.73 741.5 1077.22 744 1075.72C746.5 1074.22 759.25 1074.22 759.25 1074.22" stroke="#384170" stroke-width="3" stroke-miterlimit="10" stroke-linecap="round" stroke-linejoin="round"/>
<path d="M629.33 1113.8C629.33 1113.8 608.56 1126.94 605.78 1130.04C603 1133.14 600.38 1138.13 601.35 1147.3" stroke="#384170" stroke-width="3" stroke-miterlimit="10" stroke-linecap="round" stroke-linejoin="round"/>
<path d="M605.78 1238.13C605.78 1238.13 613.33 1297.65 626.66 1308.56C639.99 1319.47 667.33 1323.8 711.33 1322.13C755.33 1320.46 807.33 1315.13 807.33 1315.13C807.33 1315.13 827 1316.13 833 1311.8" stroke="#384170" stroke-width="3" stroke-miterlimit="10" stroke-linecap="round" stroke-linejoin="round"/>
<path d="M809.86 1277.76C809.86 1277.76 798.67 1283.13 790.33 1283.13C782 1283.13 742.66 1285.06 716 1277.76C689.33 1270.46 675 1260.79 655.33 1258.79" stroke="#384170" stroke-width="3" stroke-miterlimit="10" stroke-linecap="round" stroke-linejoin="round"/>
<path d="M666.57 1260.83C666.57 1260.83 663.66 1218.14 659.33 1204.14C655 1190.14 647.66 1163.75 643 1157.61" stroke="#384170" stroke-width="3" stroke-miterlimit="10" stroke-linecap="round" stroke-linejoin="round"/>
<path d="M626.3 1115.74C626.3 1115.74 644.7 1133.41 647.85 1167.94" stroke="#384170" stroke-width="3" stroke-miterlimit="10" stroke-linecap="round" stroke-linejoin="round"/>
<path d="M674 1084.97C674 1084.97 714.97 1114.18 738.86 1102.94" stroke="#384170" stroke-width="3" stroke-miterlimit="10" stroke-linecap="round" stroke-linejoin="round"/>
<path d="M688 1042.71C688 1042.71 703 1058.96 708.5 1062.46C714 1065.96 720.5 1067.46 726.75 1065.96" stroke="#384170" stroke-width="3" stroke-miterlimit="10" stroke-linecap="round" stroke-linejoin="round"/>
<path d="M791.5 998.96C791.5 998.96 783.88 1019.89 777.57 1032.18" stroke="#384170" stroke-width="3" stroke-miterlimit="10" stroke-linecap="round" stroke-linejoin="round"/>
<path d="M631.54 1311.89V1342.77" stroke="#384170" stroke-width="3" stroke-miterlimit="10" stroke-linecap="round" stroke-linejoin="round"/>
<path d="M844.88 1316.86L849.5 1342.77" stroke="#384170" stroke-width="3" stroke-miterlimit="10" stroke-linecap="round" stroke-linejoin="round"/>
<path d="M750.18 1108.02C750.18 1108.02 762.33 1198.83 784.66 1258.79L788.49 1274.35C788.49 1274.35 785.48 1279.96 767.48 1283.33C767.48 1283.33 796.78 1285.98 808.83 1278.22V1273.33C808.83 1273.33 797.45 1267.79 787.72 1238.12C777.99 1208.45 763.66 1121.29 763.66 1121.29C763.66 1121.29 754.86 1114.25 750.18 1108.02Z" fill="#384170"/>
<path d="M688 1052.21C688 1052.21 701.83 1071.96 709 1077.63C716.17 1083.3 717.17 1090.69 714.67 1095.24C712.17 1099.79 704.72 1101.2 701.96 1100.06C701.96 1100.06 728.55 1110.52 737.72 1102.42L732.69 1089.96L726.5 1087.97L724.67 1070.8L726.75 1067.47C726.75 1067.47 717.41 1066.33 711.04 1063.9C704.67 1061.47 690.34 1045.21 690.34 1045.21C690.34 1045.21 687.51 1050.64 688.01 1052.97" fill="#384170"/>
<path d="M820.3 1314.93C820.3 1314.93 666.17 1327.56 655.34 1342.76H631.55V1313.12C631.55 1313.12 638.51 1318.12 648.67 1318.45C658.84 1318.78 678.46 1323.92 706.25 1322.46C734.04 1321 820.3 1314.93 820.3 1314.93Z" fill="#384170"/>
<path d="M710.815 978.298C711.107 976.32 710.134 974.538 708.642 974.319C707.151 974.099 705.705 975.524 705.414 977.502C705.122 979.48 706.095 981.261 707.587 981.481C709.078 981.701 710.524 980.276 710.815 978.298Z" fill="#384170"/>
<path d="M759.817 989.049C760.109 987.071 759.136 985.29 757.644 985.07C756.153 984.85 754.707 986.275 754.415 988.253C754.124 990.231 755.097 992.013 756.589 992.233C758.08 992.452 759.526 991.027 759.817 989.049Z" fill="#384170"/>
<path d="M713.49 962.81C713.49 962.81 703.18 958.56 697.21 967.06" stroke="#384170" stroke-width="3" stroke-miterlimit="10" stroke-linecap="round" stroke-linejoin="round"/>
<path d="M754.35 972.98C754.35 972.98 762.75 969.48 771.5 980.48" stroke="#384170" stroke-width="3" stroke-miterlimit="10" stroke-linecap="round" stroke-linejoin="round"/>
<path d="M731.7 987.04C731.7 987.04 723.68 1001.19 724.44 1003C725.19 1004.81 732.72 1005.11 735.13 1004.51C737.53 1003.9 731.7 987.04 731.7 987.04Z" stroke="#384170" stroke-width="3" stroke-miterlimit="10" stroke-linecap="round" stroke-linejoin="round"/>
<path d="M716.13 1017.6C716.13 1017.6 727.97 1026.93 743.97 1020.93" stroke="#384170" stroke-width="3" stroke-miterlimit="10" stroke-linecap="round" stroke-linejoin="round"/>
<path d="M418.73 977.37C420.127 977.37 421.26 975.785 421.26 973.83C421.26 971.875 420.127 970.29 418.73 970.29C417.333 970.29 416.2 971.875 416.2 973.83C416.2 975.785 417.333 977.37 418.73 977.37Z" fill="#384170"/>
<path d="M476.9 977.37C478.297 977.37 479.43 975.785 479.43 973.83C479.43 971.875 478.297 970.29 476.9 970.29C475.503 970.29 474.37 971.875 474.37 973.83C474.37 975.785 475.503 977.37 476.9 977.37Z" fill="#384170"/>
<path d="M445.38 980.52L441.81 992.36C441.54 993.24 442.26 994.11 443.18 994.02L452.14 993.14C453.04 993.05 453.57 992.09 453.18 991.28L447.79 980.31C447.27 979.27 445.72 979.39 445.38 980.52Z" stroke="#384170" stroke-width="3" stroke-miterlimit="10" stroke-linecap="round" stroke-linejoin="round"/>
<path d="M439.33 1016.13C439.33 1016.13 452.33 1023.39 464.33 1014.76" stroke="#384170" stroke-width="3" stroke-miterlimit="10" stroke-linecap="round" stroke-linejoin="round"/>
<path d="M421.27 955.8C421.27 955.8 409.03 954.34 405.35 964.4" stroke="#384170" stroke-width="3" stroke-miterlimit="10" stroke-linecap="round" stroke-linejoin="round"/>
<path d="M469.35 955.72C469.35 955.72 481 951.99 488.33 960.06" stroke="#384170" stroke-width="3" stroke-miterlimit="10" stroke-linecap="round" stroke-linejoin="round"/>
<path d="M473.43 801.24C490.308 801.24 503.99 787.558 503.99 770.68C503.99 753.802 490.308 740.12 473.43 740.12C456.552 740.12 442.87 753.802 442.87 770.68C442.87 787.558 456.552 801.24 473.43 801.24Z" stroke="#384170" stroke-width="3" stroke-miterlimit="10" stroke-linecap="round" stroke-linejoin="round"/>
<path d="M743.96 807.49C760.838 807.49 774.52 793.808 774.52 776.93C774.52 760.052 760.838 746.37 743.96 746.37C727.082 746.37 713.4 760.052 713.4 776.93C713.4 793.808 727.082 807.49 743.96 807.49Z" stroke="#384170" stroke-width="3" stroke-miterlimit="10" stroke-linecap="round" stroke-linejoin="round"/>
<path d="M454.58 854.83C461.047 854.83 466.29 849.587 466.29 843.12C466.29 836.653 461.047 831.41 454.58 831.41C448.113 831.41 442.87 836.653 442.87 843.12C442.87 849.587 448.113 854.83 454.58 854.83Z" stroke="#384170" stroke-width="3" stroke-miterlimit="10" stroke-linecap="round" stroke-linejoin="round"/>
<path d="M757.1 859.29C763.567 859.29 768.81 854.047 768.81 847.58C768.81 841.113 763.567 835.87 757.1 835.87C750.633 835.87 745.39 841.113 745.39 847.58C745.39 854.047 750.633 859.29 757.1 859.29Z" stroke="#384170" stroke-width="3" stroke-miterlimit="10" stroke-linecap="round" stroke-linejoin="round"/>
<path d="M572.25 584.67C578.06 595.53 581.34 607.93 581.34 621.09C581.34 663.84 546.68 698.51 503.92 698.51C485.42 698.51 468.45 692.03 455.13 681.2C454.45 680.65 453.78 680.09 453.13 679.52C451.22 680.63 449.27 681.7 447.31 682.72C427.51 693.01 405.03 698.81 381.18 698.81C353.32 698.81 327.3 690.87 305.28 677.15C298.35 679.7 290.86 681.1 283.04 681.1C247.54 681.1 218.76 652.32 218.76 616.82C218.76 604.29 222.34 592.6 228.54 582.72C205.31 568.45 189.82 542.81 189.82 513.55C189.82 468.75 226.13 432.43 270.94 432.43C280.77 432.43 290.19 434.18 298.9 437.38C322.2 421.07 350.57 411.5 381.17 411.5C405.02 411.5 427.52 417.31 447.32 427.6C473.4 431.83 496.86 443.86 515.24 461.22C517.75 460.95 520.32 460.81 522.91 460.81C562.54 460.81 594.66 492.93 594.66 532.56C594.67 553.08 586.06 571.58 572.25 584.67Z" stroke="#384170" stroke-width="3" stroke-miterlimit="10" stroke-linecap="round" stroke-linejoin="round"/>
<path d="M200.55 553.85L273.93 500.73H333.77L422.51 436.19L589.53 559.27" stroke="#384170" stroke-width="3" stroke-miterlimit="10" stroke-linecap="round" stroke-linejoin="round"/>
<path d="M558.06 469.99H467.8" stroke="#384170" stroke-width="3" stroke-miterlimit="10" stroke-linecap="round" stroke-linejoin="round"/>
<path d="M571.03 479.33V519.56H535.63" stroke="#384170" stroke-width="3" stroke-miterlimit="10" stroke-linecap="round" stroke-linejoin="round"/>
<path d="M571.03 510.14H522.86" stroke="#384170" stroke-width="3" stroke-miterlimit="10" stroke-linecap="round" stroke-linejoin="round"/>
<path d="M566.04 519.56V541.97" stroke="#384170" stroke-width="3" stroke-miterlimit="10" stroke-linecap="round" stroke-linejoin="round"/>
<path d="M333.77 500.73L252.75 563.26V574.39H273.26V668.69H245.11" stroke="#384170" stroke-width="3" stroke-miterlimit="10" stroke-linecap="round" stroke-linejoin="round"/>
<path d="M273.26 668.69H566.04" stroke="#384170" stroke-width="3" stroke-miterlimit="10" stroke-linecap="round" stroke-linejoin="round"/>
<path d="M232.5 656.51H361.33" stroke="#384170" stroke-width="3" stroke-miterlimit="10" stroke-linecap="round" stroke-linejoin="round"/>
<path d="M354.78 668.69V660.74H361.33V652.45H484.19V660.57H490.24V668.69" stroke="#384170" stroke-width="3" stroke-miterlimit="10" stroke-linecap="round" stroke-linejoin="round"/>
<path d="M484.19 656.87H572.59" stroke="#384170" stroke-width="3" stroke-miterlimit="10" stroke-linecap="round" stroke-linejoin="round"/>
<path d="M228.56 582.7H273.26" stroke="#384170" stroke-width="3" stroke-miterlimit="10" stroke-linecap="round" stroke-linejoin="round"/>
<path d="M223.51 592.54H273.26" stroke="#384170" stroke-width="3" stroke-miterlimit="10" stroke-linecap="round" stroke-linejoin="round"/>
<path d="M360.32 532.5L422.51 470.82L484.36 532.5V541.74L422.34 480.73L360.32 541.74V532.5Z" stroke="#384170" stroke-width="3" stroke-miterlimit="10" stroke-linecap="round" stroke-linejoin="round"/>
<path d="M360.32 541.74H367.72V574.39H273.26" stroke="#384170" stroke-width="3" stroke-miterlimit="10" stroke-linecap="round" stroke-linejoin="round"/>
<path d="M252.75 563.26H367.72" stroke="#384170" stroke-width="3" stroke-miterlimit="10" stroke-linecap="round" stroke-linejoin="round"/>
<path d="M486.03 541.4H476.97V574.39H581.21" stroke="#384170" stroke-width="3" stroke-miterlimit="10" stroke-linecap="round" stroke-linejoin="round"/>
<path d="M476.97 563.26H587.79" stroke="#384170" stroke-width="3" stroke-miterlimit="10" stroke-linecap="round" stroke-linejoin="round"/>
<path d="M367.72 574.39H476.97" stroke="#384170" stroke-width="3" stroke-miterlimit="10" stroke-linecap="round" stroke-linejoin="round"/>
<path d="M360.32 574.39V583.76H483.24V574.39" stroke="#384170" stroke-width="3" stroke-miterlimit="10" stroke-linecap="round" stroke-linejoin="round"/>
<path d="M439.76 515.64H404.58V558.07H439.76V515.64Z" stroke="#384170" stroke-width="3" stroke-miterlimit="10" stroke-linecap="round" stroke-linejoin="round"/>
<path d="M421.78 515.64V558.07" stroke="#384170" stroke-width="3" stroke-miterlimit="10" stroke-linecap="round" stroke-linejoin="round"/>
<path d="M367.72 583.76V652.45" stroke="#384170" stroke-width="3" stroke-miterlimit="10" stroke-linecap="round" stroke-linejoin="round"/>
<path d="M381.84 583.76V651.35" stroke="#384170" stroke-width="3" stroke-miterlimit="10" stroke-linecap="round" stroke-linejoin="round"/>
<path d="M463.34 582.11V651.35" stroke="#384170" stroke-width="3" stroke-miterlimit="10" stroke-linecap="round" stroke-linejoin="round"/>
<path d="M475.62 583.76V651.35" stroke="#384170" stroke-width="3" stroke-miterlimit="10" stroke-linecap="round" stroke-linejoin="round"/>
<path d="M574.45 574.39V582.49" stroke="#384170" stroke-width="3" stroke-miterlimit="10" stroke-linecap="round" stroke-linejoin="round"/>
<path d="M573.94 588.05V653.07" stroke="#384170" stroke-width="3" stroke-miterlimit="10" stroke-linecap="round" stroke-linejoin="round"/>
<path d="M341.84 596.09H298.81V639.79H341.84V596.09Z" stroke="#384170" stroke-width="3" stroke-miterlimit="10" stroke-linecap="round" stroke-linejoin="round"/>
<path d="M548.67 595.64H506.32V638.89H548.67V595.64Z" stroke="#384170" stroke-width="3" stroke-miterlimit="10" stroke-linecap="round" stroke-linejoin="round"/>
<path d="M443.69 595.88H398.81V653.07H443.69V595.88Z" stroke="#384170" stroke-width="3" stroke-miterlimit="10" stroke-linecap="round" stroke-linejoin="round"/>
<path d="M1111.71 543.56C1111.71 606.91 1060.35 658.26 997.01 658.26C994.61 658.26 992.23 658.19 989.86 658.04C964.69 678.04 932.85 689.99 898.21 689.99C882.47 689.99 867.3 687.53 853.08 682.95C842.83 688.12 831.25 691.02 818.99 691.02C799.22 691.02 781.21 683.46 767.7 671.07C761.74 672.25 755.58 672.87 749.27 672.87C697.08 672.87 654.78 630.57 654.78 578.39C654.78 535.66 683.15 499.56 722.08 487.88C736.86 441.62 780.2 408.13 831.35 408.13C833.34 408.13 835.31 408.18 837.27 408.28C855.85 399.85 876.48 395.14 898.2 395.14C933.9 395.14 966.64 407.83 992.16 428.96C993.77 428.9 995.38 428.86 997 428.86C1060.35 428.86 1111.71 480.21 1111.71 543.56Z" stroke="#384170" stroke-width="3" stroke-miterlimit="10" stroke-linecap="round" stroke-linejoin="round"/>
<path d="M870.31 431.56C870.31 431.56 880.23 453.72 904.47 453.72L909.09 465.14C909.09 465.14 915.32 459.02 919.48 460.76C923.63 462.49 919.94 480.49 910.83 479.68C910.83 479.68 907.37 487.53 901.25 491.68L898.94 504.49C898.94 504.49 936.79 507.72 943.02 492.03C949.25 476.34 931.02 476.34 927.33 459.95C923.64 443.56 916.28 408.95 883.26 420.02C883.26 420.02 870.55 420.71 861.55 434.33C852.55 447.95 860.42 458.79 854.87 468.03C849.32 477.26 842.16 483.26 847.93 490.42C853.7 497.57 876.32 502.19 876.32 502.19V499.19C876.32 499.19 862.47 498.27 860.63 478.88C858.77 459.49 860.85 444.71 870.31 431.56Z" fill="#384170"/>
<path d="M900.66 500.1L898.01 509.1C898.01 509.1 880.93 539.91 878.16 537.6C875.39 535.29 876.31 505.4 876.31 505.4L875.16 500.09" stroke="#384170" stroke-width="3" stroke-miterlimit="10" stroke-linecap="round" stroke-linejoin="round"/>
<path d="M898.91 506.03C898.91 506.03 923.39 528.26 928.47 535.41C933.55 542.56 947.63 622.65 948.32 625.65C949.01 628.65 919.01 663.73 919.01 663.73" stroke="#384170" stroke-width="3" stroke-miterlimit="10" stroke-linecap="round" stroke-linejoin="round"/>
<path d="M898.91 639.73C898.91 639.73 908.15 660.5 923.62 666.27" stroke="#384170" stroke-width="3" stroke-miterlimit="10" stroke-linecap="round" stroke-linejoin="round"/>
<path d="M925.24 537.73C925.24 537.73 911.16 561.95 912.78 576.96C914.4 591.96 920.17 616.89 920.17 616.89L927.56 618.27" stroke="#384170" stroke-width="3" stroke-miterlimit="10" stroke-linecap="round" stroke-linejoin="round"/>
<path d="M920.16 616.88L900.85 643.52" stroke="#384170" stroke-width="3" stroke-miterlimit="10" stroke-linecap="round" stroke-linejoin="round"/>
<path d="M897.31 648.04C897.31 648.04 902.39 665.58 914.62 669.04" stroke="#384170" stroke-width="3" stroke-miterlimit="10" stroke-linecap="round" stroke-linejoin="round"/>
<path d="M898.01 509.11C898.01 509.11 888.55 548.04 884.85 570.5C881.16 592.96 881.76 689.07 881.76 689.07" stroke="#384170" stroke-width="3" stroke-miterlimit="10" stroke-linecap="round" stroke-linejoin="round"/>
<path d="M927.55 653.58L934.38 685.51" stroke="#384170" stroke-width="3" stroke-miterlimit="10" stroke-linecap="round" stroke-linejoin="round"/>
<path d="M904.18 510.88L906.39 551.57L893.62 548.03L901.31 564.03C901.31 564.03 886.69 596.8 886.92 601.19C887.15 605.58 881.72 644.81 881.72 644.81" stroke="#384170" stroke-width="3" stroke-miterlimit="10" stroke-linecap="round" stroke-linejoin="round"/>
<path d="M876.27 506.79C876.27 506.79 866.38 553.26 864.84 572.95C863.3 592.64 862.38 623.42 862.38 623.42" stroke="#384170" stroke-width="3" stroke-miterlimit="10" stroke-linecap="round" stroke-linejoin="round"/>
<path d="M806.57 626.8L800.13 604.49C799.38 601.91 800.87 599.21 803.46 598.46L846.49 586.05C849.07 585.3 851.77 586.79 852.52 589.38L868.67 645.36C869.42 647.94 867.93 650.64 865.34 651.39L822.31 663.8C819.73 664.55 817.03 663.06 816.28 660.47L812.46 647.23" stroke="#384170" stroke-width="3" stroke-miterlimit="10" stroke-linecap="round" stroke-linejoin="round"/>
<path d="M811.72 596.08L809.92 590.04L833.77 583.27L835.82 589.13" stroke="#384170" stroke-width="3" stroke-miterlimit="10" stroke-linecap="round" stroke-linejoin="round"/>
<path d="M806.83 627.73C806.83 627.73 816.38 624.03 818.69 624.03C821 624.03 825.61 633.72 824.38 636.95C823.15 640.18 812.27 646.57 812.27 646.57C812.27 646.57 805 645.26 802.23 639.11C799.46 632.96 802.3 629.39 806.83 627.73Z" stroke="#384170" stroke-width="3" stroke-miterlimit="10" stroke-linecap="round" stroke-linejoin="round"/>
<path d="M876.31 505.41C876.31 505.41 849.54 530.34 846.77 535.41C844 540.49 834.4 584.88 834.4 584.88" stroke="#384170" stroke-width="3" stroke-miterlimit="10" stroke-linecap="round" stroke-linejoin="round"/>
<path d="M850.92 541.42C850.92 541.42 840.3 566.35 841.69 570.73C843.07 575.12 850.01 586.39 850.01 586.39" stroke="#384170" stroke-width="3" stroke-miterlimit="10" stroke-linecap="round" stroke-linejoin="round"/>
<path d="M872.38 509.11L857.85 540.26L862.391 545.15L853.23 558.72L862.391 612.73" stroke="#384170" stroke-width="3" stroke-miterlimit="10" stroke-linecap="round" stroke-linejoin="round"/>
<path d="M862.81 652.12V685.51" stroke="#384170" stroke-width="3" stroke-miterlimit="10" stroke-linecap="round" stroke-linejoin="round"/>
<path d="M835.82 659.91L833.15 689.07" stroke="#384170" stroke-width="3" stroke-miterlimit="10" stroke-linecap="round" stroke-linejoin="round"/>
<path d="M903.16 491.72C903.16 491.72 890.27 501.49 873.54 499.3" stroke="#384170" stroke-width="3" stroke-miterlimit="10" stroke-linecap="round" stroke-linejoin="round"/>
<path d="M876.31 503.72C876.31 503.72 862.69 505.64 859.92 540.03" stroke="#384170" stroke-width="3" stroke-miterlimit="10" stroke-linecap="round" stroke-linejoin="round"/>
<path d="M898.93 504.49C898.93 504.49 914.85 508.41 911.39 532.18C911.39 532.18 919.38 537.22 918.96 550.39" stroke="#384170" stroke-width="3" stroke-miterlimit="10" stroke-linecap="round" stroke-linejoin="round"/>
<path d="M911.39 532.18C911.39 532.18 905 536.76 903.16 550.39" stroke="#384170" stroke-width="3" stroke-miterlimit="10" stroke-linecap="round" stroke-linejoin="round"/>
<path d="M918.98 548.11C918.98 548.11 933.88 580.47 920.1 589.68" stroke="#384170" stroke-width="2" stroke-miterlimit="10" stroke-linecap="round" stroke-linejoin="round"/>
<path d="M903.53 548.11C903.53 548.11 892.47 584.16 904.7 589.68" stroke="#384170" stroke-width="2" stroke-miterlimit="10" stroke-linecap="round" stroke-linejoin="round"/>
<path d="M858.9 553.75C862.341 553.75 865.13 550.961 865.13 547.52C865.13 544.079 862.341 541.29 858.9 541.29C855.46 541.29 852.67 544.079 852.67 547.52C852.67 550.961 855.46 553.75 858.9 553.75Z" fill="#384170"/>
<path d="M905.53 592.49C906.867 592.49 907.95 591.407 907.95 590.07C907.95 588.734 906.867 587.65 905.53 587.65C904.194 587.65 903.11 588.734 903.11 590.07C903.11 591.407 904.194 592.49 905.53 592.49Z" fill="#384170"/>
<path d="M919.53 592.8C920.867 592.8 921.95 591.717 921.95 590.38C921.95 589.044 920.867 587.96 919.53 587.96C918.194 587.96 917.11 589.044 917.11 590.38C917.11 591.717 918.194 592.8 919.53 592.8Z" fill="#384170"/>
<path d="M870.23 462.47C870.816 462.47 871.29 461.713 871.29 460.78C871.29 459.847 870.816 459.09 870.23 459.09C869.645 459.09 869.17 459.847 869.17 460.78C869.17 461.713 869.645 462.47 870.23 462.47Z" fill="#384170"/>
<path d="M888.16 462.47C888.746 462.47 889.22 461.713 889.22 460.78C889.22 459.847 888.746 459.09 888.16 459.09C887.575 459.09 887.1 459.847 887.1 460.78C887.1 461.713 887.575 462.47 888.16 462.47Z" fill="#384170"/>
<path d="M875.16 479.56C875.16 479.56 879.31 482.91 885.08 479.56" stroke="#384170" stroke-width="2" stroke-miterlimit="10" stroke-linecap="round" stroke-linejoin="round"/>
<path d="M879.2 465.6L878.04 470.45H880.12" stroke="#384170" stroke-width="2" stroke-miterlimit="10" stroke-linecap="round" stroke-linejoin="round"/>
<path d="M872.04 453.14C872.04 453.14 866.96 451.99 865.23 454.87" stroke="#384170" stroke-width="2" stroke-miterlimit="10" stroke-linecap="round" stroke-linejoin="round"/>
<path d="M886.35 453.89C886.35 453.89 890.73 452.33 893.39 454.87" stroke="#384170" stroke-width="2" stroke-miterlimit="10" stroke-linecap="round" stroke-linejoin="round"/>
</svg>
