<svg width="2486" height="1710" viewBox="0 0 2486 1710" fill="none" xmlns="http://www.w3.org/2000/svg">
<g clip-path="url(#clip0_926_22)">
<path d="M71.8645 1461.88H2426.46" stroke="#384170" stroke-width="5" stroke-miterlimit="10" stroke-linecap="round" stroke-linejoin="round"/>
<path d="M1622.08 443.952C1622.08 443.952 1636.08 503.419 1601.81 554.737C1598.13 560.241 1593.91 565.639 1589.06 570.87C1589.06 570.87 1562.92 582.022 1541.48 624.022C1541.95 622.64 1564.4 556.548 1542.11 519.636C1542.11 519.636 1560.12 470.117 1560.76 465.613C1561.4 461.11 1545.32 433.455 1545.32 433.455C1545.32 433.455 1497.43 420.587 1478.27 419.3C1459.14 418.013 1419.9 399.367 1398.03 391.002C1376.16 382.638 1359.22 375.561 1336.5 422.517C1336.5 422.517 1336.49 422.493 1336.48 422.47C1335.5 420.921 1311.16 381.161 1330.49 329.045C1350.21 275.881 1455.7 251.86 1563.74 304.179C1670.99 356.104 1622.79 442.653 1622.08 443.952Z" stroke="#384170" stroke-width="4" stroke-miterlimit="10" stroke-linecap="round" stroke-linejoin="round"/>
<path d="M1622.09 443.94L1622.08 443.952C1622.08 443.952 1639.22 494.543 1601.81 554.737C1598.13 560.242 1593.91 565.639 1589.06 570.87C1589.06 570.87 1562.92 582.022 1541.48 624.022C1541.95 622.64 1564.4 556.548 1542.11 519.636C1542.11 519.636 1560.12 470.117 1560.76 465.614C1561.4 461.11 1545.32 433.455 1545.32 433.455C1545.32 433.455 1497.43 420.587 1478.27 419.3C1459.14 418.014 1419.9 399.367 1398.03 391.003C1376.16 382.638 1359.22 375.561 1336.5 422.517C1336.5 422.517 1336.49 422.494 1336.48 422.47C1335.57 419.825 1300.75 334.979 1379.37 300.318C1459.14 265.146 1672.65 313.603 1622.09 443.94Z" fill="#384170"/>
<path d="M1340.09 415.488C1340.09 415.488 1264.47 560.587 1276.48 663.484C1288.49 766.381 1355.38 825.563 1455.71 760.388" stroke="#384170" stroke-width="4" stroke-miterlimit="10" stroke-linecap="round" stroke-linejoin="round"/>
<path d="M1575.55 572.371C1575.55 572.371 1608.99 559.503 1616.07 582.022C1623.15 604.53 1575.07 711.299 1537.36 677.21L1504.8 758.243C1504.8 758.243 1487.87 837.573 1481.86 858.579C1475.86 879.585 1450.13 931.045 1450.13 931.045L1455.71 982.065C1455.71 982.065 1436.42 991.501 1446.7 1013.37C1456.99 1035.23 1423.12 1175.01 1423.12 1175.01" stroke="#384170" stroke-width="4" stroke-miterlimit="10" stroke-linecap="round" stroke-linejoin="round"/>
<path d="M1510.03 745.244C1510.03 745.244 1519.6 778.534 1521.74 787.685C1523.88 796.836 1499.45 959.343 1499.45 959.343L1455.71 919.893" stroke="#384170" stroke-width="4" stroke-miterlimit="10" stroke-linecap="round" stroke-linejoin="round"/>
<path d="M1275.19 640.548C1275.19 640.548 1229.53 683.001 1217.95 710.655C1206.36 738.31 1191.58 805.843 1195.44 880.454C1195.44 880.454 1209.16 883.028 1212.58 876.594C1216 870.16 1205.72 865.441 1205.72 859.448C1205.72 853.455 1225.87 844.864 1227.59 850.441C1229.3 856.017 1223.3 875.903 1228.87 880.966C1234.45 886.03 1261.89 901.472 1261.89 901.472L1200.15 1124.86" stroke="#384170" stroke-width="4" stroke-miterlimit="10" stroke-linecap="round" stroke-linejoin="round"/>
<path d="M1276.48 663.484C1276.48 663.484 1235.33 694.809 1235.01 885.387" stroke="#384170" stroke-width="4" stroke-miterlimit="10" stroke-linecap="round" stroke-linejoin="round"/>
<path d="M1235 828.994C1235 828.994 1267.89 940.482 1347.65 948.62C1427.41 956.769 1467.48 894.526 1467.48 894.526" stroke="#384170" stroke-width="4" stroke-miterlimit="10" stroke-linecap="round" stroke-linejoin="round"/>
<path d="M1276.48 624.022C1276.48 624.022 1115.05 650.199 1110.55 651.486C1106.04 652.773 1083.53 670.776 1083.53 670.776L1050.09 684.288C1050.09 684.288 1015.36 719.019 1016.64 720.95C1017.93 722.88 1032.09 738.095 1050.09 716.66C1050.09 716.66 1030.37 778.832 1031.66 782.693C1032.94 786.553 1048.37 782.49 1055.24 774.447C1062.1 766.405 1075.81 729.528 1075.81 729.528C1075.81 729.528 1069.38 816.138 1073.67 816.567C1077.96 816.995 1092.96 809.704 1098.11 798.134C1103.25 786.553 1106.68 745.256 1106.68 745.256C1106.68 745.256 1113.55 819.176 1117.84 816.59C1122.13 814.005 1133.28 794.274 1136.7 781.418C1140.13 768.55 1138.84 733.818 1138.84 733.818L1143.99 727.384C1143.99 727.384 1166.71 726.097 1185.58 708.522C1185.58 708.522 1197.6 701.659 1201.46 701.659C1205.32 701.659 1228.25 692.926 1228.25 692.926" stroke="#384170" stroke-width="4" stroke-miterlimit="10" stroke-linecap="round" stroke-linejoin="round"/>
<path d="M1143.99 727.372C1143.99 727.372 1130.69 725.227 1130.26 716.219C1129.84 707.212 1146.98 689.637 1163.28 682.774C1179.57 675.911 1201.01 659.195 1201.01 659.195" stroke="#384170" stroke-width="4" stroke-miterlimit="10" stroke-linecap="round" stroke-linejoin="round"/>
<path d="M1106.68 745.244L1104.54 727.372L1119.97 689.22" stroke="#384170" stroke-width="4" stroke-miterlimit="10" stroke-linecap="round" stroke-linejoin="round"/>
<path d="M1075.81 729.516L1077.53 720.33C1077.53 720.33 1093.4 695.213 1098.11 684.061" stroke="#384170" stroke-width="4" stroke-miterlimit="10" stroke-linecap="round" stroke-linejoin="round"/>
<path d="M1050.09 716.66L1056.08 700.79L1078.88 680.225" stroke="#384170" stroke-width="4" stroke-miterlimit="10" stroke-linecap="round" stroke-linejoin="round"/>
<path d="M1461.71 1461.88L1437.28 1319.73C1437.28 1319.73 1402.54 1324.64 1372.96 1286.28C1372.96 1286.28 1331.36 1311.8 1318.94 1301.5C1306.5 1291.21 1303.49 1280.07 1303.49 1280.07C1303.49 1280.07 1293.2 1282.64 1283.78 1274.92C1274.34 1267.2 1270.91 1251.34 1270.91 1251.34C1270.91 1251.34 1236.18 1261.64 1223.74 1251.34C1211.3 1241.05 1220.31 1225.62 1251.18 1211.46C1251.18 1211.46 1263.62 1173.3 1268.75 1167.29C1273.9 1161.29 1303.05 1151.85 1303.05 1151.85L1263.17 1149.71C1263.17 1149.71 1187.28 1159.57 1177.42 1153.14C1167.56 1146.7 1167.34 1135.78 1175.17 1129.02L1226.62 1121.62C1226.62 1121.62 1252.67 1117.12 1267.14 1112.94C1281.62 1108.76 1361.04 1111.33 1364.26 1112.94C1367.48 1114.55 1386.45 1133.84 1386.45 1133.84L1434.37 1187.86C1434.37 1187.86 1468.13 1221.73 1472.42 1223.88C1476.71 1226.02 1514.71 1259.04 1519.94 1269.33C1525.17 1279.63 1593.34 1353.8 1593.34 1353.8C1593.34 1353.8 1647.57 1400.75 1615.41 1461.85" stroke="#384170" stroke-width="4" stroke-miterlimit="10" stroke-linecap="round" stroke-linejoin="round"/>
<path d="M1251.18 1211.46C1251.18 1211.46 1237.88 1246.62 1270.9 1251.34C1270.9 1251.34 1276.9 1228.62 1279.47 1224.76C1282.05 1220.9 1348.08 1191.74 1348.08 1191.74" stroke="#384170" stroke-width="4" stroke-miterlimit="10" stroke-linecap="round" stroke-linejoin="round"/>
<path d="M1303.49 1280.07C1303.49 1280.07 1301.78 1266.77 1303.49 1265.48C1305.21 1264.2 1368.24 1239.76 1368.24 1239.76" stroke="#384170" stroke-width="4" stroke-miterlimit="10" stroke-linecap="round" stroke-linejoin="round"/>
<path d="M1061.23 1335.81L1183.33 1344.79C1200.29 1346.04 1213.2 1329.85 1208.21 1313.58L1082.78 905.38C1078.61 891.797 1066.28 882.372 1052.09 881.884L772.353 872.388C759.878 871.959 749.929 882.587 751.049 895.014C751.716 902.413 753.432 912.159 756.804 925.028C770.53 977.334 809.539 1081.53 809.539 1081.53" stroke="#384170" stroke-width="4" stroke-miterlimit="10" stroke-linecap="round" stroke-linejoin="round"/>
<path d="M781.885 1298.51C781.885 1298.51 794.109 1290.58 794.109 1280.08C794.109 1269.58 781.885 1229.7 781.885 1210.4C781.885 1191.11 802.462 1167.95 801.175 1146.73C799.888 1125.51 788.092 1101.7 794.955 1091.85C801.818 1081.99 809.539 1081.55 809.539 1081.55L839.982 1163.44C839.982 1163.44 836.55 1205.04 839.982 1211.47C843.413 1217.91 874.285 1163.44 874.285 1163.44L916.308 1090.55C916.308 1090.55 929.176 1079.83 939.888 1086.26C950.611 1092.69 949.325 1101.24 947.18 1110.69C945.035 1120.13 892.729 1229.05 892.729 1229.05C892.729 1229.05 892.729 1238.91 902.165 1237.2C911.602 1235.48 997.782 1146.3 997.782 1146.3C997.782 1146.3 1014.93 1129.15 1028.22 1139.44C1041.52 1149.73 1028.65 1164.73 1017.07 1181.03C1005.49 1197.32 945.893 1268.07 945.893 1268.07C945.893 1268.07 940.746 1282.22 952.756 1283.94C964.766 1285.66 1002.92 1277.08 1036.79 1266.37C1070.67 1255.64 1097.25 1245.36 1107.54 1256.93C1117.84 1268.51 1099.21 1292.95 1059.33 1304.96C1019.46 1316.97 1002.74 1331.97 1002.74 1331.97L1065.32 1336.13C1065.32 1336.13 1058.23 1351.69 1031.22 1359.84C1004.2 1367.99 951.457 1370.56 951.457 1370.56C951.457 1370.56 938.16 1383.86 927.878 1386.85C917.583 1389.85 887.141 1393.71 887.141 1393.71" stroke="#384170" stroke-width="4" stroke-miterlimit="10" stroke-linecap="round" stroke-linejoin="round"/>
<path d="M939.376 1380.71C939.376 1380.71 945.25 1416.85 925.316 1431.01C905.383 1445.16 821.764 1454.16 784.458 1431.01C747.153 1407.86 731.938 1341.18 787.139 1294.13" stroke="#384170" stroke-width="4" stroke-miterlimit="10" stroke-linecap="round" stroke-linejoin="round"/>
<path d="M784.458 1431.01C784.458 1431.01 737.502 1420.71 741.791 1362.83C746.08 1304.95 766.657 1290.79 773.52 1268.07C780.383 1245.35 782.099 1215.33 782.099 1215.33" stroke="#384170" stroke-width="4" stroke-miterlimit="10" stroke-linecap="round" stroke-linejoin="round"/>
<path d="M1016.64 720.949C1016.64 720.949 946.322 748.187 926.603 774.447C906.884 800.708 873.451 875.831 873.451 875.831" stroke="#384170" stroke-width="4" stroke-miterlimit="10" stroke-linecap="round" stroke-linejoin="round"/>
<path d="M1511.35 741.956C1511.35 741.956 1635.37 820.63 1690.68 860.509C1745.99 900.388 1751.14 928.686 1751.14 928.686C1751.14 928.686 1776.22 975.642 1751.14 1029.02C1726.06 1082.4 1683.6 1199.46 1683.6 1244.48C1683.6 1289.5 1690.68 1384.05 1693.9 1397.55C1697.12 1411.05 1692.61 1445.15 1667.53 1461.87" stroke="#384170" stroke-width="4" stroke-miterlimit="10" stroke-linecap="round" stroke-linejoin="round"/>
<path d="M1519.94 1269.36C1519.94 1269.36 1514.02 1226.9 1549.18 1175.03C1584.34 1123.15 1623.79 1067.4 1643.51 1015.09" stroke="#384170" stroke-width="4" stroke-miterlimit="10" stroke-linecap="round" stroke-linejoin="round"/>
<path d="M1397.63 1309.07C1397.63 1309.07 1393.96 1408.71 1423.13 1461.88" stroke="#384170" stroke-width="4" stroke-miterlimit="10" stroke-linecap="round" stroke-linejoin="round"/>
<path d="M1116.99 1339.92C1116.99 1339.92 1074.96 1407 1067.23 1461.88" stroke="#384170" stroke-width="4" stroke-miterlimit="10" stroke-linecap="round" stroke-linejoin="round"/>
<path d="M1191.59 1155.29L1174.9 1205.18" stroke="#384170" stroke-width="4" stroke-miterlimit="10" stroke-linecap="round" stroke-linejoin="round"/>
<path d="M2335.56 1246.63C2327 1215.76 2290.12 1202.04 2290.12 1202.04C2290.12 1202.04 2216.79 1090.12 2169.21 1015.09C2121.61 940.053 1998.55 902.747 1956.54 890.749C1914.51 878.751 1916.23 787.84 1923.94 762.116C1931.66 736.391 1929.09 724.393 1901.65 714.099C1874.21 703.804 1869.06 620.626 1862.2 588.885C1855.34 557.168 1852.77 522.853 1820.18 523.723C1787.58 524.569 1790.16 502.276 1758.44 494.567C1726.71 486.846 1705.26 540.01 1705.26 540.01C1711.52 490.635 1731.07 459.43 1756.55 439.854C1756.56 439.854 1756.56 439.854 1756.56 439.854C1756.56 439.854 1756.57 439.854 1756.58 439.842C1804.59 402.989 1873.62 407.421 1914.5 409.661C1977.1 413.093 2056 455.975 2093.3 534.434C2130.59 612.894 2185.91 696.512 2259.24 844.436C2332.56 992.359 2318.41 1034.17 2315.19 1074.69C2311.97 1115.21 2313.26 1116.5 2326.77 1158.3C2328.56 1163.83 2330.02 1169.44 2331.23 1175.01C2331.23 1175.01 2331.23 1175.03 2331.24 1175.04C2339.1 1211.62 2335.56 1246.63 2335.56 1246.63Z" stroke="#384170" stroke-width="4" stroke-miterlimit="10" stroke-linecap="round" stroke-linejoin="round"/>
<path d="M1705.25 539.998C1705.25 539.998 1670.95 663.484 1670.09 702.076C1669.23 740.669 1666.66 821.273 1718.12 841.862C1769.57 862.439 1836.46 843.28 1876.77 787.685" stroke="#384170" stroke-width="4" stroke-miterlimit="10" stroke-linecap="round" stroke-linejoin="round"/>
<path d="M1778.64 848.666L1818.46 983.352" stroke="#384170" stroke-width="4" stroke-miterlimit="10" stroke-linecap="round" stroke-linejoin="round"/>
<path d="M1784.63 868.933L1753.71 878.524C1753.71 878.524 1680.62 823.227 1602.37 800.708" stroke="#384170" stroke-width="4" stroke-miterlimit="10" stroke-linecap="round" stroke-linejoin="round"/>
<path d="M1813.18 965.491C1813.18 965.491 1797.14 992.8 1778.65 1039.96C1760.14 1087.13 1738.71 1143.73 1723.28 1191.74C1707.84 1239.77 1679.54 1369.26 1723.28 1461.88" stroke="#384170" stroke-width="4" stroke-miterlimit="10" stroke-linecap="round" stroke-linejoin="round"/>
<path d="M1983.01 898.731C1983.01 898.731 1938.51 931.045 1885.35 1020.23C1832.18 1109.41 1802.17 1239.76 1807.3 1346.96C1812.45 1454.16 1819.31 1461.86 1819.31 1461.86" stroke="#384170" stroke-width="4" stroke-miterlimit="10" stroke-linecap="round" stroke-linejoin="round"/>
<path d="M1776.84 1044.56C1776.84 1044.56 1760.14 1107.49 1786.51 1119.06C1812.88 1130.63 1859.17 1071.54 1859.17 1071.54" stroke="#384170" stroke-width="4" stroke-miterlimit="10" stroke-linecap="round" stroke-linejoin="round"/>
<path d="M2335.56 1246.62C2335.56 1246.62 2352.49 1272.13 2340.92 1289.5C2340.92 1289.5 2368.42 1402.72 2370.22 1461.88" stroke="#384170" stroke-width="4" stroke-miterlimit="10" stroke-linecap="round" stroke-linejoin="round"/>
<path d="M2086.96 1280.07L2146.77 1461.88" stroke="#384170" stroke-width="4" stroke-miterlimit="10" stroke-linecap="round" stroke-linejoin="round"/>
<path d="M1866.26 800.708C1866.26 800.708 1875.92 880.454 1800.45 922.478L1780.88 848.344C1780.89 848.332 1826.39 845.734 1866.26 800.708Z" fill="#384170"/>
<path d="M2090.34 1290.35C2090.34 1290.35 2133.18 1454.16 1948.81 1461.88H2148.62L2090.34 1290.35Z" fill="#384170"/>
<path d="M2335.56 1246.63C2327 1215.76 2290.12 1202.04 2290.12 1202.04C2290.12 1202.04 2216.79 1090.12 2169.21 1015.09C2121.61 940.053 1998.55 902.747 1956.54 890.749C1914.51 878.75 1916.23 787.84 1923.94 762.116C1931.66 736.391 1929.09 724.393 1901.65 714.099C1874.21 703.804 1869.06 620.626 1862.2 588.885C1855.34 557.168 1852.77 522.853 1820.18 523.723C1787.58 524.568 1790.16 502.276 1758.44 494.567C1726.71 486.846 1705.26 540.01 1705.26 540.01C1711.52 490.635 1731.07 459.43 1756.55 439.854C1756.56 439.854 1756.56 439.854 1756.56 439.854C1756.56 439.854 1756.57 439.854 1756.58 439.842C1758.51 438.686 1848.09 385.498 1953.09 434.111C2059.24 483.248 2075.29 539.593 2110.03 633.494C2144.76 727.396 2218.08 802.007 2247.67 878.536C2277.25 955.065 2279.82 1075.13 2291.41 1101.93C2302.99 1128.72 2331.23 1175.03 2331.23 1175.03C2331.23 1175.03 2331.23 1175.04 2331.24 1175.05C2339.1 1211.62 2335.56 1246.63 2335.56 1246.63Z" fill="#384170"/>
<path d="M925.316 1431.01V1461.88" stroke="#384170" stroke-width="4" stroke-miterlimit="10" stroke-linecap="round" stroke-linejoin="round"/>
<path d="M1365.45 786.863C1365.45 786.863 1303.79 796.812 1276.48 762.104C1276.48 762.104 1265.8 800.148 1282.51 848.666C1299.23 897.183 1418.25 949.299 1484.16 849.917C1484.16 849.917 1474.43 892.215 1444.29 919.357C1414.15 946.487 1346.2 969.125 1293.36 923.932C1240.51 878.739 1236.74 823.811 1236.74 823.811C1236.74 823.811 1239.13 726.526 1276.05 659.207C1276.03 659.195 1282.45 770.885 1365.45 786.863Z" fill="#384170"/>
<path d="M1520.74 804.438L1499.45 959.343L1452.48 952.468L1450.13 931.045L1458.09 922.252L1499.45 959.343L1520.74 804.438Z" fill="#384170"/>
<path d="M1849.41 1095.35C1849.41 1095.35 1797.46 1205.46 1790.61 1324.66C1783.75 1443.86 1718.86 1451.81 1718.86 1451.81L1723.27 1461.86H1819.31C1819.31 1461.86 1802.18 1329.84 1811.18 1251.34C1820.17 1172.84 1849.41 1095.35 1849.41 1095.35Z" fill="#384170"/>
<path d="M1639.66 1024.76C1639.66 1024.76 1548.79 1225.16 1573.22 1286.28C1597.66 1347.39 1614.33 1380.87 1614.33 1380.87L1577.91 1336.88L1524.47 1275.75C1524.47 1275.75 1516.51 1272.35 1521.72 1239.76C1526.92 1207.17 1540.46 1188.61 1565.84 1150.51C1591.23 1112.41 1639.66 1024.76 1639.66 1024.76Z" fill="#384170"/>
<path d="M1372.96 1286.28C1372.96 1286.28 1431.31 1315.76 1465.61 1309.06C1465.61 1309.06 1465.61 1436.14 1543.65 1461.87H1461.72L1437.29 1319.72C1437.28 1319.73 1396.94 1322.5 1372.96 1286.28Z" fill="#384170"/>
<path d="M1261.9 901.46L1226.63 1121.64L1200.16 1124.85L1261.9 901.46Z" fill="#384170"/>
<path d="M1220.77 1155.3L1200.16 1287.38L1174.9 1207.17L1190.39 1158.88C1190.39 1158.89 1189.25 1153.27 1220.77 1155.3Z" fill="#384170"/>
<path d="M1187.75 1344.86C1187.75 1344.86 1164.81 1443 1209.3 1461.87H1067.23C1067.23 1461.87 1078.47 1412.17 1094 1382.4C1109.52 1352.64 1116.99 1340.95 1116.99 1340.95L1187.75 1344.86Z" fill="#384170"/>
<path d="M939.9 1385.47C939.9 1385.47 825.386 1467.81 751.025 1369.66C751.025 1369.66 751.252 1462.57 867.886 1444.64C867.874 1444.64 953.602 1448.63 939.9 1385.47Z" fill="#384170"/>
<path d="M1362.63 550.155C1364.58 543.5 1363.16 537.224 1359.46 536.136C1355.75 535.047 1351.17 539.56 1349.21 546.215C1347.26 552.87 1348.68 559.147 1352.38 560.235C1356.09 561.323 1360.67 556.81 1362.63 550.155Z" fill="#384170"/>
<path d="M1461.13 574.58C1463.08 567.926 1461.66 561.649 1457.96 560.56C1454.25 559.472 1449.67 563.986 1447.71 570.64C1445.76 577.295 1447.18 583.571 1450.88 584.66C1454.59 585.748 1459.19 581.235 1461.13 574.58Z" fill="#384170"/>
<path d="M1392.65 571.346C1392.65 571.346 1362.84 600.681 1365.45 610.963C1367.28 618.184 1378.59 619.387 1385.18 619.459C1388.02 619.494 1390.47 617.528 1391.06 614.752C1392.55 607.675 1394.75 592.59 1392.65 571.346Z" stroke="#384170" stroke-width="4" stroke-miterlimit="10" stroke-linecap="round" stroke-linejoin="round"/>
<path d="M1350.05 505.41C1350.05 505.41 1372.55 489.968 1390.57 513.774" stroke="#384170" stroke-width="4" stroke-miterlimit="10" stroke-linecap="round" stroke-linejoin="round"/>
<path d="M1446.77 530.502C1446.77 530.502 1477.04 522.304 1488.8 547.945" stroke="#384170" stroke-width="4" stroke-miterlimit="10" stroke-linecap="round" stroke-linejoin="round"/>
<path d="M1340.4 655.775C1340.4 655.775 1357.54 682.357 1398.71 672.92" stroke="#384170" stroke-width="4" stroke-miterlimit="10" stroke-linecap="round" stroke-linejoin="round"/>
<path d="M1791.41 650.928C1792.59 645.729 1790.92 640.923 1787.7 640.197C1784.48 639.469 1780.91 643.094 1779.74 648.294C1778.57 653.493 1780.23 658.299 1783.45 659.026C1786.67 659.754 1790.24 656.128 1791.41 650.928Z" fill="#384170"/>
<path d="M1715.25 638.59C1716.43 633.391 1714.77 628.585 1711.54 627.859C1708.33 627.131 1704.76 630.756 1703.58 635.956C1702.42 641.156 1704.07 645.96 1707.29 646.688C1710.52 647.415 1714.08 643.79 1715.25 638.59Z" fill="#384170"/>
<path d="M1740.45 672.277C1740.45 672.277 1715.15 696.619 1719.44 703.315C1722.14 707.521 1729.74 708.915 1735.02 709.368C1737.94 709.618 1740.45 707.319 1740.45 704.388V672.277Z" stroke="#384170" stroke-width="4" stroke-miterlimit="10" stroke-linecap="round" stroke-linejoin="round"/>
<path d="M1709.36 745.244C1709.36 745.244 1725.45 768.311 1755.78 755.92" stroke="#384170" stroke-width="4" stroke-miterlimit="10" stroke-linecap="round" stroke-linejoin="round"/>
<path d="M1722.91 605.887C1722.91 605.887 1703.12 592.566 1686.96 612.965" stroke="#384170" stroke-width="4" stroke-miterlimit="10" stroke-linecap="round" stroke-linejoin="round"/>
<path d="M1779.32 615.813C1779.32 615.813 1805.96 608.736 1818.46 630.611" stroke="#384170" stroke-width="4" stroke-miterlimit="10" stroke-linecap="round" stroke-linejoin="round"/>
<path d="M2410.2 1528.03H85.5428C77.2739 1528.03 70.5658 1521.32 70.5658 1513.05V1510.67C70.5658 1502.4 77.2739 1495.69 85.5428 1495.69H2410.2C2418.47 1495.69 2425.17 1502.4 2425.17 1510.67V1513.05C2425.17 1521.32 2418.47 1528.03 2410.2 1528.03Z" fill="#384170"/>
<path d="M2086.96 1479.33H2486" stroke="#384170" stroke-width="5" stroke-miterlimit="10" stroke-linecap="round" stroke-linejoin="round"/>
<path d="M173.784 1476.02H510.809" stroke="#384170" stroke-width="5" stroke-miterlimit="10" stroke-linecap="round" stroke-linejoin="round"/>
<path d="M1574.61 601.586C1574.61 601.586 1588.76 593.984 1591.32 607.293C1593.88 620.602 1574.61 644.408 1574.61 644.408" stroke="#384170" stroke-width="4" stroke-miterlimit="10" stroke-linecap="round" stroke-linejoin="round"/>
<path d="M342.559 946.785C342.559 946.785 300.059 947.178 292.123 963.072C284.176 978.955 260.346 998.019 260.346 998.019C260.346 998.019 236.91 1017.48 236.516 1036.94C236.123 1056.41 240.484 1077.46 240.484 1077.46C240.484 1077.46 230.559 1049.66 226.591 1049.66C222.624 1049.66 216.666 1056.81 217.453 1067.14C217.453 1067.14 202.762 1048.47 203.953 1012.13C205.145 975.786 311.187 876.094 346.539 931.307C346.539 931.307 368.379 920.977 383.081 942.829C397.773 964.669 450.996 1026.63 410.879 1068.33C410.879 1068.33 412.07 1053.43 406.316 1048.28C400.561 1043.12 393.412 1049.86 392.018 1054.44C390.624 1059 387.454 1075.88 384.273 1070.72C381.092 1065.56 385.762 1037.96 382.486 1019.79C379.209 1001.62 371.75 961.976 342.559 946.785Z" fill="#384170"/>
<path d="M484.346 1286.95C484.346 1286.95 403.325 1155.59 397.665 1148.74C392.006 1141.89 344.942 1107.04 344.942 1107.04C344.942 1107.04 319.623 1095.42 314.714 1093.34C309.805 1091.25 293.41 1094.83 291.325 1096.02C289.24 1097.21 284.176 1103.47 282.687 1107.34C281.197 1111.21 284.176 1114.19 284.176 1114.19C284.176 1114.19 287.453 1116.57 293.565 1111.21L306.075 1110.91L318.133 1118.2C318.133 1118.2 306.075 1134.29 305.17 1137.27C304.264 1140.25 307.255 1144.56 307.255 1144.56C307.255 1144.56 305.015 1161.69 305.766 1162.73C306.516 1163.77 322.59 1177.77 333.468 1171.52C333.468 1171.52 360.419 1186.82 364.589 1189.82C368.76 1192.83 425.951 1334.61 438.462 1359.64C450.972 1384.66 465.664 1381.68 474.802 1377.71C483.941 1373.74 503.005 1360.64 499.025 1327.27C495.058 1293.91 484.632 1274.16 484.632 1274.16" stroke="#384170" stroke-width="3" stroke-miterlimit="10" stroke-linecap="round" stroke-linejoin="round"/>
<path d="M234.526 1056.81C234.526 1056.81 247.24 1107.65 259.452 1117.48C271.665 1127.31 296.103 1129.01 312.926 1125.33" stroke="#384170" stroke-width="3" stroke-miterlimit="10" stroke-linecap="round" stroke-linejoin="round"/>
<path d="M385.75 1066.83C385.75 1066.83 379.161 1109.86 356.392 1115.61" stroke="#384170" stroke-width="3" stroke-miterlimit="10" stroke-linecap="round" stroke-linejoin="round"/>
<path d="M413.155 1059.38C413.155 1059.38 409.282 1095.42 394.389 1100.19C379.495 1104.95 379.757 1088.67 379.757 1088.67" stroke="#384170" stroke-width="3" stroke-miterlimit="10" stroke-linecap="round" stroke-linejoin="round"/>
<path d="M215.463 1057.8C215.463 1057.8 221.027 1090.76 224.196 1096.52C227.378 1102.27 243.475 1105.98 245.155 1091.22" stroke="#384170" stroke-width="3" stroke-miterlimit="10" stroke-linecap="round" stroke-linejoin="round"/>
<path d="M259.453 1117.47L273.727 1163.34L263.325 1180.23C263.325 1180.23 301.691 1190.31 337.019 1173.55" stroke="#384170" stroke-width="3" stroke-miterlimit="10" stroke-linecap="round" stroke-linejoin="round"/>
<path d="M378.089 1092.71L368.998 1125.19" stroke="#384170" stroke-width="3" stroke-miterlimit="10" stroke-linecap="round" stroke-linejoin="round"/>
<path d="M403.217 1156.96C403.217 1156.96 431.134 1153.07 442.25 1156.96C453.367 1160.86 473.229 1188.37 487.134 1215.32C501.039 1242.27 534.4 1302.25 535.985 1306.61C537.57 1310.99 522.676 1326.48 499.049 1327.26" stroke="#384170" stroke-width="3" stroke-miterlimit="10" stroke-linecap="round" stroke-linejoin="round"/>
<path d="M476.983 1275.04C476.983 1275.04 509.272 1265.82 535.973 1306.63" stroke="#384170" stroke-width="3" stroke-miterlimit="10" stroke-linecap="round" stroke-linejoin="round"/>
<path d="M265.589 1176.56H250.016C250.016 1176.56 236.111 1192.23 228.962 1195.41C221.813 1198.59 165.42 1229.5 157.08 1241.25C148.739 1253 114.984 1380.36 114.984 1380.36C114.984 1380.36 141.793 1373.34 216.261 1391.51C216.261 1391.51 196.303 1432.91 196.006 1434.1C195.708 1435.29 199.282 1461.86 199.282 1461.86" stroke="#384170" stroke-width="3" stroke-miterlimit="10" stroke-linecap="round" stroke-linejoin="round"/>
<path d="M157.568 1380.62C157.568 1380.62 155.197 1419.21 153.41 1427.55C151.623 1435.89 146.261 1461.87 146.261 1461.87" stroke="#384170" stroke-width="3" stroke-miterlimit="10" stroke-linecap="round" stroke-linejoin="round"/>
<path d="M114.984 1380.35C114.984 1380.35 130.795 1389.74 156.841 1391.52L157.497 1381.58C157.509 1381.58 130.271 1377.04 114.984 1380.35Z" fill="#384170"/>
<path d="M114.984 1380.36C114.984 1380.36 124.04 1390.64 156.841 1391.52" stroke="#384170" stroke-width="3" stroke-miterlimit="10" stroke-linecap="round" stroke-linejoin="round"/>
<path d="M534.281 1304.11C534.281 1304.11 512.715 1290.39 492.281 1294.23L485.323 1275.53C485.323 1275.53 487.277 1273.94 490.637 1274.47C493.997 1274.99 521.223 1281.95 534.281 1304.11Z" fill="#384170"/>
<path d="M463.674 1380.36L479.58 1461.88" stroke="#384170" stroke-width="3" stroke-miterlimit="10" stroke-linecap="round" stroke-linejoin="round"/>
<path d="M216.261 1391.51V1289.23" stroke="#384170" stroke-width="3" stroke-miterlimit="10" stroke-linecap="round" stroke-linejoin="round"/>
<path d="M263.265 1129.7C263.265 1129.7 268.258 1138.82 282.269 1142.19C296.293 1145.56 298.867 1156.69 300.058 1165.63C301.25 1174.56 307.827 1180.98 324.448 1178.42L338.091 1174.17L333.468 1171.54C333.468 1171.54 316.465 1175.06 305.766 1162.74L307.255 1144.57C307.255 1144.57 303.24 1140.77 305.17 1137.28C307.1 1133.79 312.271 1126.23 312.271 1126.23C312.271 1126.23 280.971 1130.76 260.978 1118.61C260.978 1118.61 259.703 1118.29 263.265 1129.7Z" fill="#384170"/>
<path d="M374.824 1099.2L369.451 1123.55L357.286 1116.29C357.298 1116.29 367.33 1111.17 374.824 1099.2Z" fill="#384170"/>
<path d="M216.261 1295.3C216.261 1295.3 209.946 1383.69 183.602 1384.5L216.261 1390.32V1295.3Z" fill="#384170"/>
<path d="M319.361 1179.85C319.361 1179.85 368.2 1214.63 390.933 1248.71L364.613 1189.82L335.696 1172.79L319.361 1179.85Z" fill="#384170"/>
<path d="M587.207 1082.22C588.053 1094.16 600.314 1104.47 600.314 1104.47C600.314 1104.47 600.516 1132.67 597.728 1140.81C594.952 1148.94 563.568 1172.18 551.463 1180.33C539.345 1188.47 520.091 1195.82 520.091 1195.82C520.091 1195.82 548.293 1093.35 559.41 1044.5C570.527 995.648 583.633 959.903 611.835 934.489C640.038 909.074 697.229 932.106 697.229 932.106C713.91 918.606 738.133 955.542 744.091 974.606C750.048 993.67 753.229 1001.21 753.027 1005.98C752.824 1010.74 748.857 1021.06 748.857 1021.06L753.027 1170.5L710.133 1159.48L696.729 1129.09C696.729 1129.09 698.218 1113.9 700.006 1104.97C701.793 1096.03 705.665 1088.88 705.665 1088.88C708.346 1096.33 718.176 1092.46 723.538 1086.5C728.899 1080.54 728.601 1073.69 730.389 1068.33C732.176 1062.97 739.325 1050.75 733.367 1047.78C727.41 1044.8 717.08 1062.37 717.08 1062.37C717.08 1062.37 720.654 1034.17 720.654 1031.39C720.654 1028.62 720.559 1012.72 718.176 1008.75C718.176 1008.75 703.187 987.307 679.75 980.158C679.75 980.158 646.782 961.893 623.357 974.999C599.921 988.094 583.24 1026.22 587.207 1082.22Z" fill="#384170"/>
<path d="M742.125 1380.36C708.286 1365.53 687.697 1197.99 687.697 1197.99C679.559 1194.02 666.048 1174.75 666.048 1174.75C663.665 1178.72 657.112 1176.15 655.718 1174.75C654.324 1173.36 650.559 1159.86 650.559 1159.86C650.559 1159.86 644.399 1159.66 643.41 1158.27C642.421 1156.88 640.824 1140.4 641.229 1137.82C641.622 1135.23 651.56 1120.93 655.325 1119.94C659.102 1118.95 676.569 1119.94 676.569 1119.94C676.569 1119.94 688.877 1104.06 693.845 1089.95C698.814 1075.86 704.771 1068.11 707.154 1072.08C709.537 1076.05 704.259 1091.8 704.259 1091.8L696.729 1129.07L710.133 1159.45L765.978 1284.83" stroke="#384170" stroke-width="3" stroke-miterlimit="10" stroke-linecap="round" stroke-linejoin="round"/>
<path d="M709.335 1157.68C709.335 1157.68 759.568 1172.88 765.978 1174.67C772.389 1176.46 786.115 1182.02 788.629 1186.69" stroke="#384170" stroke-width="3" stroke-miterlimit="10" stroke-linecap="round" stroke-linejoin="round"/>
<path d="M762.988 1173.8C762.988 1173.8 750.048 1194.63 754.516 1222.03L747.343 1243.02" stroke="#384170" stroke-width="3" stroke-miterlimit="10" stroke-linecap="round" stroke-linejoin="round"/>
<path d="M684.814 1132.06L659.793 1135.04C659.793 1135.04 652.048 1143.68 651.452 1145.47C650.857 1147.25 650.559 1159.86 650.559 1159.86" stroke="#384170" stroke-width="3" stroke-miterlimit="10" stroke-linecap="round" stroke-linejoin="round"/>
<path d="M666.048 1174.76C666.048 1174.76 668.431 1160.35 669.921 1157.68C671.41 1155.01 678.261 1155.31 678.261 1155.31L682.431 1159.87" stroke="#384170" stroke-width="3" stroke-miterlimit="10" stroke-linecap="round" stroke-linejoin="round"/>
<path d="M652.858 1167.53C652.858 1167.53 661.282 1145.48 664.261 1143.69C667.24 1141.9 682.431 1141.9 682.431 1141.9" stroke="#384170" stroke-width="3" stroke-miterlimit="10" stroke-linecap="round" stroke-linejoin="round"/>
<path d="M527.633 1189.06C527.633 1189.06 502.886 1204.72 499.573 1208.41C496.261 1212.11 493.139 1218.05 494.295 1228.98" stroke="#384170" stroke-width="3" stroke-miterlimit="10" stroke-linecap="round" stroke-linejoin="round"/>
<path d="M499.573 1337.2C499.573 1337.2 508.569 1408.12 524.451 1421.12C540.334 1434.12 572.909 1439.27 625.335 1437.28C677.76 1435.29 739.718 1428.94 739.718 1428.94C739.718 1428.94 763.154 1430.14 770.303 1424.98" stroke="#384170" stroke-width="3" stroke-miterlimit="10" stroke-linecap="round" stroke-linejoin="round"/>
<path d="M742.733 1384.42C742.733 1384.42 729.4 1390.82 719.463 1390.82C709.538 1390.82 662.665 1393.12 630.899 1384.42C599.122 1375.72 582.048 1364.2 558.612 1361.82" stroke="#384170" stroke-width="3" stroke-miterlimit="10" stroke-linecap="round" stroke-linejoin="round"/>
<path d="M572.004 1364.25C572.004 1364.25 568.537 1313.38 563.377 1296.7C558.218 1280.02 549.473 1248.58 543.92 1241.26" stroke="#384170" stroke-width="3" stroke-miterlimit="10" stroke-linecap="round" stroke-linejoin="round"/>
<path d="M524.023 1191.37C524.023 1191.37 545.946 1212.43 549.699 1253.57" stroke="#384170" stroke-width="3" stroke-miterlimit="10" stroke-linecap="round" stroke-linejoin="round"/>
<path d="M580.857 1154.71C580.857 1154.71 629.672 1189.51 658.137 1176.12" stroke="#384170" stroke-width="3" stroke-miterlimit="10" stroke-linecap="round" stroke-linejoin="round"/>
<path d="M597.537 1104.36C597.537 1104.36 615.41 1123.72 621.963 1127.89C628.516 1132.06 636.261 1133.85 643.708 1132.06" stroke="#384170" stroke-width="3" stroke-miterlimit="10" stroke-linecap="round" stroke-linejoin="round"/>
<path d="M720.857 1052.23C720.857 1052.23 711.778 1077.17 704.259 1091.81" stroke="#384170" stroke-width="3" stroke-miterlimit="10" stroke-linecap="round" stroke-linejoin="round"/>
<path d="M530.266 1425.08V1461.88" stroke="#384170" stroke-width="3" stroke-miterlimit="10" stroke-linecap="round" stroke-linejoin="round"/>
<path d="M784.458 1431.01L789.963 1461.88" stroke="#384170" stroke-width="3" stroke-miterlimit="10" stroke-linecap="round" stroke-linejoin="round"/>
<path d="M671.624 1182.17C671.624 1182.17 686.101 1290.37 712.707 1361.82L717.27 1380.36C717.27 1380.36 713.684 1387.04 692.237 1391.05C692.237 1391.05 727.148 1394.21 741.505 1384.97V1379.14C741.505 1379.14 727.946 1372.54 716.353 1337.19C704.76 1301.84 687.686 1197.99 687.686 1197.99C687.686 1197.99 677.2 1189.6 671.624 1182.17Z" fill="#384170"/>
<path d="M597.538 1115.68C597.538 1115.68 614.016 1139.21 622.559 1145.97C631.102 1152.72 632.293 1161.53 629.315 1166.95C626.336 1172.37 617.459 1174.05 614.171 1172.69C614.171 1172.69 645.852 1185.15 656.778 1175.5L650.785 1160.66L643.41 1158.29L641.23 1137.83L643.708 1133.86C643.708 1133.86 632.579 1132.5 624.99 1129.61C617.4 1126.71 600.326 1107.34 600.326 1107.34C600.326 1107.34 596.954 1113.81 597.55 1116.58" fill="#384170"/>
<path d="M755.172 1428.71C755.172 1428.71 571.527 1443.75 558.624 1461.87H530.278V1426.55C530.278 1426.55 538.571 1432.51 550.676 1432.9C562.794 1433.29 586.171 1439.42 619.282 1437.68C652.394 1435.94 755.172 1428.71 755.172 1428.71Z" fill="#384170"/>
<path d="M624.722 1027.61C625.069 1025.26 623.91 1023.13 622.132 1022.87C620.356 1022.61 618.633 1024.31 618.286 1026.66C617.938 1029.02 619.098 1031.14 620.875 1031.4C622.652 1031.67 624.375 1029.97 624.722 1027.61Z" fill="#384170"/>
<path d="M683.107 1040.42C683.455 1038.07 682.295 1035.94 680.518 1035.68C678.741 1035.42 677.018 1037.12 676.67 1039.47C676.323 1041.83 677.483 1043.95 679.26 1044.22C681.037 1044.48 682.76 1042.78 683.107 1040.42Z" fill="#384170"/>
<path d="M627.909 1009.16C627.909 1009.16 615.624 1004.09 608.511 1014.22" stroke="#384170" stroke-width="3" stroke-miterlimit="10" stroke-linecap="round" stroke-linejoin="round"/>
<path d="M676.593 1021.28C676.593 1021.28 686.601 1017.11 697.027 1030.21" stroke="#384170" stroke-width="3" stroke-miterlimit="10" stroke-linecap="round" stroke-linejoin="round"/>
<path d="M649.606 1038.03C649.606 1038.03 640.05 1054.89 640.955 1057.04C641.849 1059.2 650.821 1059.56 653.692 1058.84C656.552 1058.12 649.606 1038.03 649.606 1038.03Z" stroke="#384170" stroke-width="3" stroke-miterlimit="10" stroke-linecap="round" stroke-linejoin="round"/>
<path d="M631.054 1074.44C631.054 1074.44 645.161 1085.56 664.225 1078.41" stroke="#384170" stroke-width="3" stroke-miterlimit="10" stroke-linecap="round" stroke-linejoin="round"/>
<path d="M276.705 1026.51C278.37 1026.51 279.72 1024.62 279.72 1022.29C279.72 1019.96 278.37 1018.07 276.705 1018.07C275.041 1018.07 273.691 1019.96 273.691 1022.29C273.691 1024.62 275.041 1026.51 276.705 1026.51Z" fill="#384170"/>
<path d="M346.014 1026.51C347.679 1026.51 349.029 1024.62 349.029 1022.29C349.029 1019.96 347.679 1018.07 346.014 1018.07C344.35 1018.07 343 1019.96 343 1022.29C343 1024.62 344.35 1026.51 346.014 1026.51Z" fill="#384170"/>
<path d="M308.458 1030.26L304.205 1044.37C303.883 1045.42 304.741 1046.45 305.837 1046.35L316.513 1045.3C317.585 1045.19 318.217 1044.05 317.752 1043.08L311.33 1030.01C310.71 1028.77 308.863 1028.91 308.458 1030.26Z" stroke="#384170" stroke-width="3" stroke-miterlimit="10" stroke-linecap="round" stroke-linejoin="round"/>
<path d="M301.25 1072.69C301.25 1072.69 316.739 1081.34 331.037 1071.06" stroke="#384170" stroke-width="3" stroke-miterlimit="10" stroke-linecap="round" stroke-linejoin="round"/>
<path d="M279.732 1000.81C279.732 1000.81 265.148 999.067 260.763 1011.05" stroke="#384170" stroke-width="3" stroke-miterlimit="10" stroke-linecap="round" stroke-linejoin="round"/>
<path d="M337.018 1000.71C337.018 1000.71 350.899 996.267 359.633 1005.88" stroke="#384170" stroke-width="3" stroke-miterlimit="10" stroke-linecap="round" stroke-linejoin="round"/>
<path d="M341.88 816.65C361.99 816.65 378.292 800.349 378.292 780.239C378.292 760.129 361.99 743.827 341.88 743.827C321.77 743.827 305.468 760.129 305.468 780.239C305.468 800.349 321.77 816.65 341.88 816.65Z" stroke="#384170" stroke-width="3" stroke-miterlimit="10" stroke-linecap="round" stroke-linejoin="round"/>
<path d="M664.213 824.097C684.323 824.097 700.625 807.795 700.625 787.685C700.625 767.575 684.323 751.273 664.213 751.273C644.103 751.273 627.801 767.575 627.801 787.685C627.801 807.795 644.103 824.097 664.213 824.097Z" stroke="#384170" stroke-width="3" stroke-miterlimit="10" stroke-linecap="round" stroke-linejoin="round"/>
<path d="M319.42 880.502C327.125 880.502 333.372 874.255 333.372 866.55C333.372 858.845 327.125 852.598 319.42 852.598C311.715 852.598 305.468 858.845 305.468 866.55C305.468 874.255 311.715 880.502 319.42 880.502Z" stroke="#384170" stroke-width="3" stroke-miterlimit="10" stroke-linecap="round" stroke-linejoin="round"/>
<path d="M679.869 885.817C687.575 885.817 693.822 879.57 693.822 871.864C693.822 864.159 687.575 857.912 679.869 857.912C672.164 857.912 665.917 864.159 665.917 871.864C665.917 879.57 672.164 885.817 679.869 885.817Z" stroke="#384170" stroke-width="3" stroke-miterlimit="10" stroke-linecap="round" stroke-linejoin="round"/>
<path d="M459.623 558.609C466.545 571.549 470.453 586.324 470.453 602.004C470.453 652.94 429.156 694.249 378.208 694.249C356.166 694.249 335.946 686.528 320.076 673.624C319.265 672.969 318.467 672.301 317.693 671.622C315.417 672.945 313.093 674.22 310.758 675.435C287.167 687.695 260.382 694.606 231.965 694.606C198.77 694.606 167.768 685.146 141.531 668.798C133.274 671.837 124.35 673.505 115.032 673.505C72.7344 673.505 38.4433 639.214 38.4433 596.916C38.4433 581.986 42.7089 568.058 50.0961 556.286C22.4178 539.283 3.96167 508.734 3.96167 473.871C3.96167 420.492 47.2246 377.217 100.615 377.217C112.328 377.217 123.551 379.302 133.929 383.115C161.691 363.682 195.494 352.279 231.953 352.279C260.37 352.279 287.179 359.202 310.77 371.462C341.844 376.502 369.796 390.836 391.696 411.52C394.687 411.198 397.749 411.032 400.835 411.032C448.053 411.032 486.324 449.302 486.324 496.521C486.336 520.97 476.077 543.013 459.623 558.609Z" stroke="#384170" stroke-width="3" stroke-miterlimit="10" stroke-linecap="round" stroke-linejoin="round"/>
<path d="M16.7463 521.888L104.178 458.596H175.476L281.209 381.697L480.212 528.346" stroke="#384170" stroke-width="3" stroke-miterlimit="10" stroke-linecap="round" stroke-linejoin="round"/>
<path d="M442.716 421.97H335.172" stroke="#384170" stroke-width="3" stroke-miterlimit="10" stroke-linecap="round" stroke-linejoin="round"/>
<path d="M458.169 433.098V481.031H415.99" stroke="#384170" stroke-width="3" stroke-miterlimit="10" stroke-linecap="round" stroke-linejoin="round"/>
<path d="M458.169 469.808H400.775" stroke="#384170" stroke-width="3" stroke-miterlimit="10" stroke-linecap="round" stroke-linejoin="round"/>
<path d="M452.224 481.031V507.732" stroke="#384170" stroke-width="3" stroke-miterlimit="10" stroke-linecap="round" stroke-linejoin="round"/>
<path d="M175.477 458.596L78.9421 533.1V546.361H103.38V658.719H69.8391" stroke="#384170" stroke-width="3" stroke-miterlimit="10" stroke-linecap="round" stroke-linejoin="round"/>
<path d="M103.379 658.718H452.224" stroke="#384170" stroke-width="3" stroke-miterlimit="10" stroke-linecap="round" stroke-linejoin="round"/>
<path d="M54.8142 644.206H208.314" stroke="#384170" stroke-width="3" stroke-miterlimit="10" stroke-linecap="round" stroke-linejoin="round"/>
<path d="M200.51 658.718V649.246H208.314V639.369H354.7V649.044H361.909V658.718" stroke="#384170" stroke-width="3" stroke-miterlimit="10" stroke-linecap="round" stroke-linejoin="round"/>
<path d="M354.7 644.635H460.028" stroke="#384170" stroke-width="3" stroke-miterlimit="10" stroke-linecap="round" stroke-linejoin="round"/>
<path d="M50.1199 556.263H103.379" stroke="#384170" stroke-width="3" stroke-miterlimit="10" stroke-linecap="round" stroke-linejoin="round"/>
<path d="M44.1028 567.986H103.379" stroke="#384170" stroke-width="3" stroke-miterlimit="10" stroke-linecap="round" stroke-linejoin="round"/>
<path d="M207.11 496.449L281.209 422.958L354.903 496.449V507.458L281.007 434.766L207.11 507.458V496.449Z" stroke="#384170" stroke-width="3" stroke-miterlimit="10" stroke-linecap="round" stroke-linejoin="round"/>
<path d="M207.11 507.459H215.927V546.362H103.379" stroke="#384170" stroke-width="3" stroke-miterlimit="10" stroke-linecap="round" stroke-linejoin="round"/>
<path d="M78.9421 533.099H215.928" stroke="#384170" stroke-width="3" stroke-miterlimit="10" stroke-linecap="round" stroke-linejoin="round"/>
<path d="M356.893 507.053H346.098V546.36H470.298" stroke="#384170" stroke-width="3" stroke-miterlimit="10" stroke-linecap="round" stroke-linejoin="round"/>
<path d="M346.098 533.099H478.138" stroke="#384170" stroke-width="3" stroke-miterlimit="10" stroke-linecap="round" stroke-linejoin="round"/>
<path d="M215.927 546.361H346.098" stroke="#384170" stroke-width="3" stroke-miterlimit="10" stroke-linecap="round" stroke-linejoin="round"/>
<path d="M207.11 546.361V557.526H353.568V546.361" stroke="#384170" stroke-width="3" stroke-miterlimit="10" stroke-linecap="round" stroke-linejoin="round"/>
<path d="M301.762 476.361H259.846V526.916H301.762V476.361Z" stroke="#384170" stroke-width="3" stroke-miterlimit="10" stroke-linecap="round" stroke-linejoin="round"/>
<path d="M280.339 476.361V526.916" stroke="#384170" stroke-width="3" stroke-miterlimit="10" stroke-linecap="round" stroke-linejoin="round"/>
<path d="M215.927 557.524V639.368" stroke="#384170" stroke-width="3" stroke-miterlimit="10" stroke-linecap="round" stroke-linejoin="round"/>
<path d="M232.751 557.524V638.057" stroke="#384170" stroke-width="3" stroke-miterlimit="10" stroke-linecap="round" stroke-linejoin="round"/>
<path d="M329.858 555.559V638.058" stroke="#384170" stroke-width="3" stroke-miterlimit="10" stroke-linecap="round" stroke-linejoin="round"/>
<path d="M344.489 557.524V638.057" stroke="#384170" stroke-width="3" stroke-miterlimit="10" stroke-linecap="round" stroke-linejoin="round"/>
<path d="M462.244 546.361V556.012" stroke="#384170" stroke-width="3" stroke-miterlimit="10" stroke-linecap="round" stroke-linejoin="round"/>
<path d="M461.636 562.637V640.107" stroke="#384170" stroke-width="3" stroke-miterlimit="10" stroke-linecap="round" stroke-linejoin="round"/>
<path d="M185.092 572.216H133.822V624.284H185.092V572.216Z" stroke="#384170" stroke-width="3" stroke-miterlimit="10" stroke-linecap="round" stroke-linejoin="round"/>
<path d="M431.527 571.68H381.068V623.212H431.527V571.68Z" stroke="#384170" stroke-width="3" stroke-miterlimit="10" stroke-linecap="round" stroke-linejoin="round"/>
<path d="M306.445 571.965H252.971V640.107H306.445V571.965Z" stroke="#384170" stroke-width="3" stroke-miterlimit="10" stroke-linecap="round" stroke-linejoin="round"/>
<path d="M1102.38 509.627C1102.38 585.108 1041.19 646.291 965.72 646.291C962.86 646.291 960.024 646.208 957.2 646.029C927.211 669.859 889.274 684.097 848 684.097C829.246 684.097 811.172 681.166 794.229 675.709C782.016 681.869 768.218 685.324 753.611 685.324C730.055 685.324 708.596 676.317 692.499 661.554C685.398 662.96 678.058 663.699 670.54 663.699C608.356 663.699 557.956 613.299 557.956 551.127C557.956 500.215 591.759 457.202 638.143 443.285C655.754 388.167 707.393 348.264 768.337 348.264C770.709 348.264 773.056 348.324 775.391 348.443C797.529 338.399 822.109 332.787 847.989 332.787C890.525 332.787 929.534 347.907 959.941 373.083C961.859 373.011 963.777 372.964 965.708 372.964C1041.19 372.964 1102.38 434.147 1102.38 509.627Z" stroke="#384170" stroke-width="3" stroke-miterlimit="10" stroke-linecap="round" stroke-linejoin="round"/>
<path d="M814.758 376.181C814.758 376.181 826.577 402.584 855.459 402.584L860.964 416.191C860.964 416.191 868.387 408.899 873.343 410.972C878.288 413.034 873.891 434.48 863.037 433.515C863.037 433.515 858.914 442.868 851.622 447.813L848.87 463.076C848.87 463.076 893.968 466.925 901.391 448.23C908.814 429.536 887.093 429.536 882.696 410.007C878.3 390.479 869.531 349.241 830.188 362.431C830.188 362.431 815.044 363.253 804.32 379.481C793.597 395.709 802.974 408.625 796.361 419.634C789.748 430.632 781.217 437.781 788.092 446.312C794.967 454.831 821.919 460.336 821.919 460.336V456.761C821.919 456.761 805.416 455.665 803.224 432.562C801.008 409.459 803.486 391.849 814.758 376.181Z" fill="#384170"/>
<path d="M850.919 457.845L847.762 468.568C847.762 468.568 827.411 505.278 824.111 502.526C820.811 499.773 821.907 464.16 821.907 464.16L820.536 457.833" stroke="#384170" stroke-width="3" stroke-miterlimit="10" stroke-linecap="round" stroke-linejoin="round"/>
<path d="M848.834 464.911C848.834 464.911 878.002 491.397 884.055 499.917C890.108 508.436 906.884 603.862 907.706 607.437C908.528 611.011 872.783 652.808 872.783 652.808" stroke="#384170" stroke-width="3" stroke-miterlimit="10" stroke-linecap="round" stroke-linejoin="round"/>
<path d="M848.834 624.212C848.834 624.212 859.844 648.96 878.276 655.835" stroke="#384170" stroke-width="3" stroke-miterlimit="10" stroke-linecap="round" stroke-linejoin="round"/>
<path d="M880.206 502.681C880.206 502.681 863.43 531.539 865.36 549.423C867.29 567.296 874.165 596.999 874.165 596.999L882.97 598.644" stroke="#384170" stroke-width="3" stroke-miterlimit="10" stroke-linecap="round" stroke-linejoin="round"/>
<path d="M874.154 596.987L851.146 628.728" stroke="#384170" stroke-width="3" stroke-miterlimit="10" stroke-linecap="round" stroke-linejoin="round"/>
<path d="M846.928 634.114C846.928 634.114 852.981 655.013 867.553 659.136" stroke="#384170" stroke-width="3" stroke-miterlimit="10" stroke-linecap="round" stroke-linejoin="round"/>
<path d="M847.762 468.58C847.762 468.58 836.491 514.965 832.082 541.726C827.686 568.486 828.4 683 828.4 683" stroke="#384170" stroke-width="3" stroke-miterlimit="10" stroke-linecap="round" stroke-linejoin="round"/>
<path d="M882.959 640.715L891.097 678.759" stroke="#384170" stroke-width="3" stroke-miterlimit="10" stroke-linecap="round" stroke-linejoin="round"/>
<path d="M855.114 470.689L857.747 519.171L842.532 514.953L851.694 534.017C851.694 534.017 834.274 573.062 834.549 578.292C834.823 583.523 828.353 630.265 828.353 630.265" stroke="#384170" stroke-width="3" stroke-miterlimit="10" stroke-linecap="round" stroke-linejoin="round"/>
<path d="M821.859 465.816C821.859 465.816 810.075 521.184 808.24 544.645C806.406 568.105 805.309 604.779 805.309 604.779" stroke="#384170" stroke-width="3" stroke-miterlimit="10" stroke-linecap="round" stroke-linejoin="round"/>
<path d="M738.813 608.806L731.139 582.224C730.246 579.15 732.021 575.933 735.107 575.04L786.377 560.253C789.451 559.36 792.668 561.135 793.562 564.221L812.804 630.92C813.698 633.994 811.922 637.212 808.836 638.105L757.567 652.891C754.493 653.785 751.276 652.01 750.382 648.924L745.831 633.148" stroke="#384170" stroke-width="3" stroke-miterlimit="10" stroke-linecap="round" stroke-linejoin="round"/>
<path d="M744.948 572.204L742.804 565.008L771.221 556.941L773.663 563.924" stroke="#384170" stroke-width="3" stroke-miterlimit="10" stroke-linecap="round" stroke-linejoin="round"/>
<path d="M739.122 609.916C739.122 609.916 750.501 605.507 753.253 605.507C756.006 605.507 761.498 617.053 760.033 620.901C758.567 624.75 745.604 632.363 745.604 632.363C745.604 632.363 736.942 630.803 733.641 623.475C730.341 616.147 733.725 611.894 739.122 609.916Z" stroke="#384170" stroke-width="3" stroke-miterlimit="10" stroke-linecap="round" stroke-linejoin="round"/>
<path d="M821.907 464.172C821.907 464.172 790.011 493.876 786.71 499.917C783.41 505.969 771.972 558.86 771.972 558.86" stroke="#384170" stroke-width="3" stroke-miterlimit="10" stroke-linecap="round" stroke-linejoin="round"/>
<path d="M791.655 507.077C791.655 507.077 779.001 536.781 780.657 542C782.302 547.23 790.571 560.658 790.571 560.658" stroke="#384170" stroke-width="3" stroke-miterlimit="10" stroke-linecap="round" stroke-linejoin="round"/>
<path d="M817.224 468.58L799.912 505.695L805.322 511.521L794.407 527.69L805.322 592.042" stroke="#384170" stroke-width="3" stroke-miterlimit="10" stroke-linecap="round" stroke-linejoin="round"/>
<path d="M805.822 638.976V678.759" stroke="#384170" stroke-width="3" stroke-miterlimit="10" stroke-linecap="round" stroke-linejoin="round"/>
<path d="M773.663 648.257L770.482 683.001" stroke="#384170" stroke-width="3" stroke-miterlimit="10" stroke-linecap="round" stroke-linejoin="round"/>
<path d="M853.898 447.861C853.898 447.861 838.54 459.502 818.606 456.892" stroke="#384170" stroke-width="3" stroke-miterlimit="10" stroke-linecap="round" stroke-linejoin="round"/>
<path d="M821.907 462.159C821.907 462.159 805.679 464.446 802.378 505.422" stroke="#384170" stroke-width="3" stroke-miterlimit="10" stroke-linecap="round" stroke-linejoin="round"/>
<path d="M848.858 463.076C848.858 463.076 867.827 467.746 863.704 496.068C863.704 496.068 873.224 502.073 872.724 517.765" stroke="#384170" stroke-width="3" stroke-miterlimit="10" stroke-linecap="round" stroke-linejoin="round"/>
<path d="M863.704 496.068C863.704 496.068 856.091 501.525 853.898 517.765" stroke="#384170" stroke-width="3" stroke-miterlimit="10" stroke-linecap="round" stroke-linejoin="round"/>
<path d="M872.748 515.048C872.748 515.048 890.501 553.605 874.082 564.579" stroke="#384170" stroke-width="2" stroke-miterlimit="10" stroke-linecap="round" stroke-linejoin="round"/>
<path d="M854.339 515.048C854.339 515.048 841.161 558.002 855.733 564.579" stroke="#384170" stroke-width="2" stroke-miterlimit="10" stroke-linecap="round" stroke-linejoin="round"/>
<path d="M801.163 521.768C805.263 521.768 808.586 518.445 808.586 514.345C808.586 510.245 805.263 506.922 801.163 506.922C797.064 506.922 793.74 510.245 793.74 514.345C793.74 518.445 797.064 521.768 801.163 521.768Z" fill="#384170"/>
<path d="M856.722 567.926C858.315 567.926 859.606 566.636 859.606 565.043C859.606 563.451 858.315 562.16 856.722 562.16C855.13 562.16 853.839 563.451 853.839 565.043C853.839 566.636 855.13 567.926 856.722 567.926Z" fill="#384170"/>
<path d="M873.403 568.296C874.996 568.296 876.287 567.006 876.287 565.413C876.287 563.821 874.996 562.529 873.403 562.529C871.811 562.529 870.52 563.821 870.52 565.413C870.52 567.006 871.811 568.296 873.403 568.296Z" fill="#384170"/>
<path d="M814.662 413.009C815.361 413.009 815.925 412.107 815.925 410.996C815.925 409.884 815.361 408.982 814.662 408.982C813.965 408.982 813.399 409.884 813.399 410.996C813.399 412.107 813.965 413.009 814.662 413.009Z" fill="#384170"/>
<path d="M836.026 413.009C836.724 413.009 837.289 412.107 837.289 410.996C837.289 409.884 836.724 408.982 836.026 408.982C835.329 408.982 834.763 409.884 834.763 410.996C834.763 412.107 835.329 413.009 836.026 413.009Z" fill="#384170"/>
<path d="M820.536 433.372C820.536 433.372 825.481 437.364 832.356 433.372" stroke="#384170" stroke-width="2" stroke-miterlimit="10" stroke-linecap="round" stroke-linejoin="round"/>
<path d="M825.35 416.739L823.968 422.518H826.446" stroke="#384170" stroke-width="2" stroke-miterlimit="10" stroke-linecap="round" stroke-linejoin="round"/>
<path d="M816.819 401.893C816.819 401.893 810.766 400.522 808.705 403.954" stroke="#384170" stroke-width="2" stroke-miterlimit="10" stroke-linecap="round" stroke-linejoin="round"/>
<path d="M833.869 402.786C833.869 402.786 839.088 400.928 842.258 403.954" stroke="#384170" stroke-width="2" stroke-miterlimit="10" stroke-linecap="round" stroke-linejoin="round"/>
</g>
<defs>
<clipPath id="clip0_926_22">
<rect width="2486" height="1710" fill="white"/>
</clipPath>
</defs>
</svg>
