<svg width="48" height="48" viewBox="0 0 48 48" fill="none" xmlns="http://www.w3.org/2000/svg">
<path d="M42.7297 26.7631C41.3919 35.9075 33.516 42.9285 24.0004 42.9285C13.5463 42.9285 5.07129 34.4535 5.07129 23.9994" stroke="#304E86" stroke-width="1.21875" stroke-linecap="round" stroke-linejoin="round"/>
<path d="M5.3916 20.5128C7.02754 11.7237 14.7366 5.07031 24 5.07031C34.4541 5.07031 42.9291 13.5453 42.9291 23.9994" stroke="#304E86" stroke-width="1.21875" stroke-linecap="round" stroke-linejoin="round"/>
<path d="M44.9096 21.53L42.9231 24.0097L40.4443 22.0241" stroke="#304E86" stroke-width="1.21875" stroke-linecap="round" stroke-linejoin="round"/>
<path d="M7.26309 26.2841L5.08902 23.9675L2.77246 26.1416" stroke="#304E86" stroke-width="1.21875" stroke-linecap="round" stroke-linejoin="round"/>
<path d="M32.8173 26.4425C35.6661 26.4425 37.9754 24.1331 37.9754 21.2844C37.9754 18.4356 35.6661 16.1263 32.8173 16.1263C29.9685 16.1263 27.6592 18.4356 27.6592 21.2844C27.6592 24.1331 29.9685 26.4425 32.8173 26.4425Z" fill="#FFFCF5" stroke="black" stroke-width="0.5625" stroke-linecap="round" stroke-linejoin="round"/>
<path d="M32.8171 24.9228C34.8266 24.9228 36.4556 23.2938 36.4556 21.2844C36.4556 19.2749 34.8266 17.6459 32.8171 17.6459C30.8077 17.6459 29.1787 19.2749 29.1787 21.2844C29.1787 23.2938 30.8077 24.9228 32.8171 24.9228Z" fill="#304E86"/>
<path d="M31.9648 19.7253V21.2844H33.1752C33.5239 21.2844 33.807 21.0228 33.807 20.6994V20.3094C33.807 19.9869 33.5239 19.7244 33.1752 19.7244H31.9648V19.7253Z" stroke="#FFFCF5" stroke-width="0.5625" stroke-linecap="round" stroke-linejoin="round"/>
<path d="M31.9648 21.2844V22.8434H33.1752C33.5239 22.8434 33.807 22.5819 33.807 22.2584V21.8684C33.807 21.5459 33.5239 21.2834 33.1752 21.2834H31.9648V21.2844Z" stroke="#FFFCF5" stroke-width="0.5625" stroke-linecap="round" stroke-linejoin="round"/>
<path d="M32.708 23.3863V22.8828" stroke="#FFFCF5" stroke-width="0.5625" stroke-linecap="round" stroke-linejoin="round"/>
<path d="M32.708 19.6859V19.1825" stroke="#FFFCF5" stroke-width="0.5625" stroke-linecap="round" stroke-linejoin="round"/>
<path d="M15.3417 27.3894C18.1905 27.3894 20.4998 25.08 20.4998 22.2313C20.4998 19.3825 18.1905 17.0732 15.3417 17.0732C12.493 17.0732 10.1836 19.3825 10.1836 22.2313C10.1836 25.08 12.493 27.3894 15.3417 27.3894Z" fill="#FFFCF5" stroke="black" stroke-width="0.5625" stroke-linecap="round" stroke-linejoin="round"/>
<path d="M15.3416 25.8697C17.351 25.8697 18.98 24.2407 18.98 22.2313C18.98 20.2218 17.351 18.5928 15.3416 18.5928C13.3321 18.5928 11.7031 20.2218 11.7031 22.2313C11.7031 24.2407 13.3321 25.8697 15.3416 25.8697Z" fill="#304E86"/>
<path d="M15.342 19.5913L13.8457 22.0728L15.342 22.9775L16.8382 22.0728L15.342 19.5913Z" fill="white"/>
<path d="M15.3414 23.5597L13.7842 22.58L15.3414 24.6641L16.8986 22.58L15.3414 23.5597Z" fill="white"/>
<path d="M20.6263 20.1294C19.0738 21.3322 16.3598 23.7078 15.3107 27.4438C13.9738 32.2063 16.1591 34.8725 19.7254 34.9888C23.3291 35.106 24.0407 35.0628 24.0407 35.0628C24.0407 35.0628 23.9254 35.0666 27.4166 35.0019L28.1076 34.9888C31.6673 34.7413 33.7645 31.8397 32.2523 27.1297C31.0663 23.435 28.266 21.1616 26.6704 20.0169" fill="#FFFCF5"/>
<path d="M20.6263 20.1294C19.0738 21.3322 16.3598 23.7078 15.3107 27.4438C13.9738 32.2063 16.1591 34.8725 19.7254 34.9888C23.3291 35.106 24.0407 35.0628 24.0407 35.0628C24.0407 35.0628 23.9254 35.0666 27.4166 35.0019L28.1076 34.9888C31.6673 34.7413 33.7645 31.8397 32.2523 27.1297C31.0663 23.435 28.266 21.1616 26.6704 20.0169" stroke="black" stroke-width="0.5625" stroke-linecap="round" stroke-linejoin="round"/>
<path d="M25.7895 20.0347C26.6042 19.1366 27.5314 17.4613 27.4573 16.6485C27.3467 15.4372 25.5486 17.3544 25.3508 17.4097C25.153 17.465 24.9692 15.8685 23.6895 15.995C22.407 15.9153 22.2814 17.5175 22.0817 17.4697C21.882 17.4219 20.0136 15.5722 19.948 16.7863C19.9039 17.6028 20.2583 18.1063 21.1048 18.9725" fill="#FFFCF5"/>
<path d="M25.7895 20.0347C26.6042 19.1366 27.5314 17.4613 27.4573 16.6485C27.3467 15.4372 25.5486 17.3544 25.3508 17.4097C25.153 17.465 24.9692 15.8685 23.6895 15.995C22.407 15.9153 22.2814 17.5175 22.0817 17.4697C21.882 17.4219 20.0136 15.5722 19.948 16.7863C19.9039 17.6028 20.2583 18.1063 21.1048 18.9725" stroke="black" stroke-width="0.5625" stroke-linecap="round" stroke-linejoin="round"/>
<path d="M26.7048 18.8125L20.6749 18.9241C20.2639 18.9317 19.9368 19.2711 19.9444 19.6821C19.952 20.0932 20.2914 20.4202 20.7025 20.4126L26.7324 20.301C27.1434 20.2934 27.4704 19.954 27.4628 19.543C27.4552 19.132 27.1159 18.8049 26.7048 18.8125Z" fill="#304E86"/>
<path d="M23.7863 31.7141C26.0749 31.7141 27.9301 29.8589 27.9301 27.5704C27.9301 25.2818 26.0749 23.4266 23.7863 23.4266C21.4978 23.4266 19.6426 25.2818 19.6426 27.5704C19.6426 29.8589 21.4978 31.7141 23.7863 31.7141Z" fill="#304E86"/>
<path d="M24.4909 25.8547H23.6341C23.2619 25.8547 22.9609 26.1566 22.9609 26.5278V26.8456C22.9609 27.2178 23.2628 27.5188 23.6341 27.5188H24.0306C24.4028 27.5188 24.7037 27.8206 24.7037 28.1919V28.4497C24.7037 28.8219 24.4019 29.1228 24.0306 29.1228H23.08" stroke="#FFFCF5" stroke-width="0.5625" stroke-linecap="round" stroke-linejoin="round"/>
<path d="M23.832 29.7781V29.2428" stroke="#FFFCF5" stroke-width="0.5625" stroke-linecap="round" stroke-linejoin="round"/>
<path d="M23.832 25.8453V25.3109" stroke="#FFFCF5" stroke-width="0.5625" stroke-linecap="round" stroke-linejoin="round"/>
<path d="M35.2438 33.3388H28.1648C27.8505 33.3388 27.5957 33.5936 27.5957 33.9078V34.3672C27.5957 34.6815 27.8505 34.9363 28.1648 34.9363H35.2438C35.5581 34.9363 35.8129 34.6815 35.8129 34.3672V33.9078C35.8129 33.5936 35.5581 33.3388 35.2438 33.3388Z" fill="#FFFCF5" stroke="black" stroke-width="0.5625" stroke-linecap="round" stroke-linejoin="round"/>
<path d="M35.2438 31.7413H28.1648C27.8505 31.7413 27.5957 31.9961 27.5957 32.3103V32.7697C27.5957 33.084 27.8505 33.3388 28.1648 33.3388H35.2438C35.5581 33.3388 35.8129 33.084 35.8129 32.7697V32.3103C35.8129 31.9961 35.5581 31.7413 35.2438 31.7413Z" fill="#FFFCF5" stroke="black" stroke-width="0.5625" stroke-linecap="round" stroke-linejoin="round"/>
<path d="M20.1286 33.3388H13.0495C12.7352 33.3388 12.4805 33.5936 12.4805 33.9078V34.3672C12.4805 34.6815 12.7352 34.9363 13.0495 34.9363H20.1286C20.4429 34.9363 20.6977 34.6815 20.6977 34.3672V33.9078C20.6977 33.5936 20.4429 33.3388 20.1286 33.3388Z" fill="#FFFCF5" stroke="black" stroke-width="0.5625" stroke-linecap="round" stroke-linejoin="round"/>
<path d="M20.1286 31.7413H13.0495C12.7352 31.7413 12.4805 31.9961 12.4805 32.3103V32.7697C12.4805 33.084 12.7352 33.3388 13.0495 33.3388H20.1286C20.4429 33.3388 20.6977 33.084 20.6977 32.7697V32.3103C20.6977 31.9961 20.4429 31.7413 20.1286 31.7413Z" fill="#FFFCF5" stroke="black" stroke-width="0.5625" stroke-linecap="round" stroke-linejoin="round"/>
<path d="M35.2438 30.1438H28.1648C27.8505 30.1438 27.5957 30.3985 27.5957 30.7128V31.1722C27.5957 31.4865 27.8505 31.7413 28.1648 31.7413H35.2438C35.5581 31.7413 35.8129 31.4865 35.8129 31.1722V30.7128C35.8129 30.3985 35.5581 30.1438 35.2438 30.1438Z" fill="#FFFCF5" stroke="black" stroke-width="0.5625" stroke-linecap="round" stroke-linejoin="round"/>
</svg>
