<svg width="48" height="48" viewBox="0 0 48 48" fill="none" xmlns="http://www.w3.org/2000/svg">
<path d="M35.3236 29.3075L38.797 27.5309C38.797 27.5309 40.4592 29.5672 40.3477 29.9778C40.2352 30.3884 40.4686 31.1825 39.4645 32.1584C38.4605 33.1344 36.6858 33.9378 35.1914 34.5359C33.697 35.1341 33.0145 35.0863 32.917 35.1003C32.8195 35.1144 32.707 34.8903 32.707 34.8903" fill="#FFFCF5"/>
<path d="M35.3236 29.3075L38.797 27.5309C38.797 27.5309 40.4592 29.5672 40.3477 29.9778C40.2352 30.3884 40.4686 31.1825 39.4645 32.1584C38.4605 33.1344 36.6858 33.9378 35.1914 34.5359C33.697 35.1341 33.0145 35.0863 32.917 35.1003C32.8195 35.1144 32.707 34.8903 32.707 34.8903" stroke="black" stroke-width="0.5625" stroke-linecap="round" stroke-linejoin="round"/>
<path d="M36.4874 28.7365L36.4968 28.7122L31.4136 31.294C31.033 31.4656 30.6861 31.7047 30.3908 32L27.613 34.7778C27.1593 35.2315 26.9033 35.8484 26.9033 36.4906V39.2365H33.3468V37.9728L38.7168 35.4678C39.793 34.8237 40.5824 33.7915 40.9208 32.5831L44.4121 20.1415C44.6221 19.3934 44.0136 18.6697 43.2421 18.7456C42.8914 18.7803 42.5821 18.9903 42.3955 19.2894L36.4958 28.7122L36.6102 28.6681C36.6243 28.6625 36.6393 28.6597 36.6543 28.654C37.4727 28.3737 38.4758 28.9512 38.8124 29.9112C39.0618 30.6228 38.8677 31.3437 38.3333 31.6915L34.4521 34.2134" fill="#FFFCF5"/>
<path d="M36.4874 28.7365L36.4968 28.7122L31.4136 31.294C31.033 31.4656 30.6861 31.7047 30.3908 32L27.613 34.7778C27.1593 35.2315 26.9033 35.8484 26.9033 36.4906V39.2365H33.3468V37.9728L38.7168 35.4678C39.793 34.8237 40.5824 33.7915 40.9208 32.5831L44.4121 20.1415C44.6221 19.3934 44.0136 18.6697 43.2421 18.7456C42.8914 18.7803 42.5821 18.9903 42.3955 19.2894L36.4958 28.7122L36.6102 28.6681C36.6243 28.6625 36.6393 28.6597 36.6543 28.654C37.4727 28.3737 38.4758 28.9512 38.8124 29.9112C39.0618 30.6228 38.8677 31.3437 38.3333 31.6915L34.4521 34.2134" stroke="black" stroke-width="0.5625" stroke-linecap="round" stroke-linejoin="round"/>
<path d="M35.0042 43.4169V39.3912C35.0042 39.0162 34.7004 38.7115 34.3245 38.7115H25.0498C24.6748 38.7115 24.3701 39.0153 24.3701 39.3912V43.4169" fill="#304E86"/>
<path d="M12.6759 29.3075L9.20248 27.5309C9.20248 27.5309 7.5403 29.5672 7.65186 29.9778C7.76436 30.3884 7.53092 31.1825 8.53498 32.1584C9.53905 33.1344 11.3137 33.9378 12.8081 34.5359C14.3025 35.1341 14.985 35.0863 15.0825 35.1003C15.18 35.1144 15.2925 34.8903 15.2925 34.8903" fill="#FFFCF5"/>
<path d="M12.6759 29.3075L9.20248 27.5309C9.20248 27.5309 7.5403 29.5672 7.65186 29.9778C7.76436 30.3884 7.53092 31.1825 8.53498 32.1584C9.53905 33.1344 11.3137 33.9378 12.8081 34.5359C14.3025 35.1341 14.985 35.0863 15.0825 35.1003C15.18 35.1144 15.2925 34.8903 15.2925 34.8903" stroke="black" stroke-width="0.5625" stroke-linecap="round" stroke-linejoin="round"/>
<path d="M11.5125 28.7365L11.5031 28.7122L16.5863 31.294C16.9669 31.4656 17.3138 31.7047 17.6091 32L20.3869 34.7778C20.8406 35.2315 21.0966 35.8484 21.0966 36.4906V39.2365H14.6531V37.9728L9.28313 35.4678C8.20688 34.8237 7.4175 33.7915 7.07906 32.5831L3.58781 20.1415C3.37781 19.3934 3.98625 18.6697 4.75781 18.7456C5.10844 18.7803 5.41781 18.9903 5.60438 19.2894L11.5041 28.7122L11.3897 28.6681C11.3756 28.6625 11.3606 28.6597 11.3456 28.654C10.5272 28.3737 9.52406 28.9512 9.1875 29.9112C8.93813 30.6228 9.13219 31.3437 9.66656 31.6915L13.5478 34.2134" fill="#FFFCF5"/>
<path d="M11.5125 28.7365L11.5031 28.7122L16.5863 31.294C16.9669 31.4656 17.3138 31.7047 17.6091 32L20.3869 34.7778C20.8406 35.2315 21.0966 35.8484 21.0966 36.4906V39.2365H14.6531V37.9728L9.28313 35.4678C8.20688 34.8237 7.4175 33.7915 7.07906 32.5831L3.58781 20.1415C3.37781 19.3934 3.98625 18.6697 4.75781 18.7456C5.10844 18.7803 5.41781 18.9903 5.60438 19.2894L11.5041 28.7122L11.3897 28.6681C11.3756 28.6625 11.3606 28.6597 11.3456 28.654C10.5272 28.3737 9.52406 28.9512 9.1875 29.9112C8.93813 30.6228 9.13219 31.3437 9.66656 31.6915L13.5478 34.2134" stroke="black" stroke-width="0.5625" stroke-linecap="round" stroke-linejoin="round"/>
<path d="M12.9961 43.4169V39.3912C12.9961 39.0162 13.2998 38.7115 13.6758 38.7115H22.9505C23.3255 38.7115 23.6302 39.0153 23.6302 39.3912V43.4169" fill="#304E86"/>
<path d="M31.641 11.5409C29.1838 11.4425 26.8241 10.5584 24.9079 9.01813L24.0013 8.28876L23.0948 9.01813C21.1785 10.5584 18.8179 11.4434 16.3616 11.5409L15.4082 11.5794V24.6191C15.4082 25.4263 15.891 26.1547 16.6345 26.4697L24.0023 29.5906L31.3701 26.4697C32.1135 26.1547 32.5963 25.4263 32.5963 24.6191V11.5784L31.6429 11.54L31.641 11.5409Z" fill="#FFFCF5" stroke="black" stroke-width="0.5625" stroke-linecap="round" stroke-linejoin="round"/>
<path d="M23.9998 24.0538C26.8247 24.0538 29.1148 21.7637 29.1148 18.9388C29.1148 16.1139 26.8247 13.8238 23.9998 13.8238C21.1748 13.8238 18.8848 16.1139 18.8848 18.9388C18.8848 21.7637 21.1748 24.0538 23.9998 24.0538Z" fill="#304E86"/>
<path d="M22.3027 19.3006L23.5712 20.5691L26.438 17.7022" stroke="#FFFCF5" stroke-width="0.5625" stroke-linecap="round" stroke-linejoin="round"/>
</svg>
