<svg width="48" height="48" viewBox="0 0 48 48" fill="none" xmlns="http://www.w3.org/2000/svg">
<path d="M12.0102 10.6737V13.9091H7.66211V10.6737C7.66211 9.47187 8.63523 8.49875 9.83711 8.49875C10.438 8.49875 10.9809 8.7425 11.3737 9.13531C11.7674 9.52906 12.0102 10.0728 12.0102 10.6728V10.6737Z" fill="#304E86" stroke="black" stroke-width="0.5625" stroke-linecap="round" stroke-linejoin="round"/>
<path d="M14.1855 39.5C15.3874 39.499 16.3596 38.5268 16.3596 37.325V34.0897H40.338V37.325C40.338 38.5268 39.3649 39.5 38.163 39.5" fill="#304E86"/>
<path d="M14.1855 39.5C15.3874 39.499 16.3596 38.5268 16.3596 37.325V34.0897H40.338V37.325C40.338 38.5268 39.3649 39.5 38.163 39.5" stroke="black" stroke-width="0.5625" stroke-linecap="round" stroke-linejoin="round"/>
<path d="M35.9885 10.6165V34.0897H16.3591V37.325C16.3591 38.5259 15.385 39.5 14.1841 39.5C13.96 39.5 13.7435 39.4662 13.5391 39.4015C13.4707 39.3809 13.4041 39.3565 13.3385 39.3284C13.0779 39.2197 12.8435 39.0603 12.6466 38.8625C12.2529 38.4687 12.01 37.925 12.01 37.325V10.6737C12.01 10.0728 11.7663 9.52904 11.3735 9.13623C10.9797 8.74248 10.4369 8.49966 9.83691 8.49966H33.8716C35.0407 8.49966 35.9885 9.44748 35.9885 10.6165Z" fill="#FFFCF5" stroke="black" stroke-width="0.5625" stroke-linecap="round" stroke-linejoin="round"/>
<path d="M38.163 39.5H14.1855" stroke="black" stroke-width="0.5625" stroke-linecap="round" stroke-linejoin="round"/>
<path d="M35.0782 28.52C35.0782 28.52 33.1413 16.6578 44.9463 11.4612C45.0176 11.5325 47.3557 21.9659 35.0782 28.52Z" fill="#304E86"/>
<path d="M42.1698 15.8384C42.1698 15.8384 35.1854 26.6366 34.0107 31.7234" stroke="black" stroke-width="0.5625" stroke-linecap="round" stroke-linejoin="round"/>
<path d="M16.0762 19.8603H31.9237" stroke="black" stroke-width="0.5625" stroke-linecap="round" stroke-linejoin="round"/>
<path d="M16.0762 23.9994H31.9237" stroke="black" stroke-width="0.5625" stroke-linecap="round" stroke-linejoin="round"/>
<path d="M16.0762 28.1385H31.9237" stroke="black" stroke-width="0.5625" stroke-linecap="round" stroke-linejoin="round"/>
<path d="M36.976 5.97314H33.5897H30.2035L28.126 8.56908H33.5897H39.0525L36.976 5.97314Z" fill="#FFFCF5" stroke="black" stroke-width="0.5625" stroke-linecap="round" stroke-linejoin="round"/>
<path d="M33.5897 8.56906H28.126L33.5897 14.3487L39.0525 8.56906H33.5897Z" fill="#FFFCF5" stroke="black" stroke-width="0.5625" stroke-linecap="round" stroke-linejoin="round"/>
<path d="M33.5895 8.56906H31.1895L33.5895 14.3487L35.9885 8.56906H33.5895Z" fill="#FFFCF5" stroke="black" stroke-width="0.5625" stroke-linecap="round" stroke-linejoin="round"/>
<path d="M33.5895 8.56908H31.1895L33.5895 5.97314L35.9885 8.56908H33.5895Z" fill="#FFFCF5" stroke="black" stroke-width="0.5625" stroke-linecap="round" stroke-linejoin="round"/>
<path d="M18.4012 16.9597C20.086 16.9597 21.4518 15.5939 21.4518 13.9091C21.4518 12.2243 20.086 10.8585 18.4012 10.8585C16.7164 10.8585 15.3506 12.2243 15.3506 13.9091C15.3506 15.5939 16.7164 16.9597 18.4012 16.9597Z" fill="#304E86"/>
</svg>
