<svg width="48" height="48" viewBox="0 0 48 48" fill="none" xmlns="http://www.w3.org/2000/svg">
<path d="M32.2724 5.85034H5.1543V40.7328H32.2724V5.85034Z" fill="#304E86"/>
<path d="M27.5982 8.53625L33.9414 14.8784L35.6486 16.5856V21.3163V26.7434V38.9619V43.2275L19.7598 43.4188H8.81543V8.53625H27.5982Z" fill="#FFFCF5" stroke="black" stroke-width="0.5625" stroke-linecap="round" stroke-linejoin="round"/>
<path d="M35.6485 16.5856H27.6348V8.53625L35.6485 16.5856Z" fill="#FFFCF5" stroke="black" stroke-width="0.5625" stroke-linecap="round" stroke-linejoin="round"/>
<path d="M44.8739 28.8191H26.0283V37.0569H44.8739V28.8191Z" fill="#304E86"/>
<path d="M30.5029 34.8763V31.0785" stroke="#FFFCF5" stroke-width="0.5625" stroke-linecap="round" stroke-linejoin="round"/>
<path d="M28.5996 31.0785H32.2718" stroke="#FFFCF5" stroke-width="0.5625" stroke-linecap="round" stroke-linejoin="round"/>
<path d="M33.873 34.8763L34.504 33.3257L35.4509 30.9988L36.3537 33.2178L37.0287 34.8763" stroke="#FFFCF5" stroke-width="0.5625" stroke-linecap="round" stroke-linejoin="round"/>
<path d="M38.7666 34.8763L42.0835 31.0785" stroke="#FFFCF5" stroke-width="0.5625" stroke-linecap="round" stroke-linejoin="round"/>
<path d="M42.0835 34.8763L38.7666 31.0785" stroke="#FFFCF5" stroke-width="0.5625" stroke-linecap="round" stroke-linejoin="round"/>
<path d="M34.5039 33.6107H36.4473" stroke="#FFFCF5" stroke-width="0.5625" stroke-linecap="round" stroke-linejoin="round"/>
<path d="M12.749 22.2181H31.6415" stroke="black" stroke-width="0.5625" stroke-linecap="round" stroke-linejoin="round"/>
<path d="M12.749 26.3778H31.6415" stroke="black" stroke-width="0.5625" stroke-linecap="round" stroke-linejoin="round"/>
<path d="M12.749 30.5375H23.2293" stroke="black" stroke-width="0.5625" stroke-linecap="round" stroke-linejoin="round"/>
<path d="M12.749 34.6972H18.7462" stroke="black" stroke-width="0.5625" stroke-linecap="round" stroke-linejoin="round"/>
<path d="M35.6487 16.5856L27.6162 8.55408" stroke="black" stroke-width="0.5625" stroke-linecap="round" stroke-linejoin="round"/>
<path d="M15.4291 18.7934C17.4562 18.7934 19.0994 17.1502 19.0994 15.1231C19.0994 13.0961 17.4562 11.4528 15.4291 11.4528C13.402 11.4528 11.7588 13.0961 11.7588 15.1231C11.7588 17.1502 13.402 18.7934 15.4291 18.7934Z" fill="#304E86"/>
<path d="M16.101 13.3991H15.2272C14.8475 13.3991 14.54 13.7066 14.54 14.0863V14.4107C14.54 14.7904 14.8475 15.0979 15.2272 15.0979H15.6313C16.011 15.0979 16.3185 15.4054 16.3185 15.785V16.0475C16.3185 16.4272 16.011 16.7347 15.6313 16.7347H14.661" stroke="#FFFCF5" stroke-width="0.5625" stroke-linecap="round" stroke-linejoin="round"/>
<path d="M15.4297 17.4013V16.8557" stroke="#FFFCF5" stroke-width="0.5625" stroke-linecap="round" stroke-linejoin="round"/>
<path d="M15.4297 13.3907V12.845" stroke="#FFFCF5" stroke-width="0.5625" stroke-linecap="round" stroke-linejoin="round"/>
</svg>
