<svg width="1302" height="817" viewBox="0 0 1302 817" fill="none" xmlns="http://www.w3.org/2000/svg">
<path d="M629.682 253.305C629.682 253.305 589.917 341.592 653.541 364.303C717.166 387.015 742.109 298.839 742.109 298.839" stroke="#384170" stroke-width="5.33333" stroke-miterlimit="10" stroke-linecap="round" stroke-linejoin="round"/>
<path d="M624.496 267.351C624.496 267.351 616.306 260.352 610.341 271.736C604.376 283.119 603.509 309.138 617.408 305.524" stroke="#384170" stroke-width="5.33333" stroke-miterlimit="10" stroke-linecap="round" stroke-linejoin="round"/>
<path d="M740.886 302.663C740.886 302.663 750.063 300.465 752.232 307.331C754.401 314.197 733.383 355.321 721.749 339.999" stroke="#384170" stroke-width="5.33333" stroke-miterlimit="10" stroke-linecap="round" stroke-linejoin="round"/>
<path d="M741.573 300.59C741.573 300.59 767.777 283.119 773.47 251.95C779.164 220.781 755.034 220.239 755.034 220.239C755.034 220.239 754.401 173.079 713.912 149.951C673.424 126.823 607.63 152.119 637.996 210.662C637.996 210.662 619.991 232.946 622.306 266.028" stroke="#384170" stroke-width="5.33333" stroke-miterlimit="10" stroke-linecap="round" stroke-linejoin="round"/>
<path d="M737.069 312.614C737.069 312.614 741.336 283.661 737.069 264.146C737.069 264.146 744.859 249.782 738.965 232.978C733.072 216.173 640.889 189.07 643.329 232.978C643.329 232.978 630.773 248.4 626.909 260.281L624.496 268.845L622.234 264.877C622.234 264.877 622.339 235.027 640.053 214.429C640.053 214.429 626.971 188.076 643.6 163.864C660.229 139.651 739.489 140.735 755.034 220.239C755.034 220.239 762.715 222.227 768.138 239.934C773.56 257.642 762.575 277.66 756.228 286.985L742.368 300.029L737.069 312.614Z" fill="#384170"/>
<path d="M675.956 347.083C664.205 344.009 667.28 335.336 659.504 332.989C651.734 330.642 646.311 334.615 640.346 332.989C634.381 331.363 632.803 317.66 640.346 310.672C640.346 310.672 661.424 303.539 671.309 311.485C681.194 319.438 688.97 329.558 693.308 331.184C697.646 332.81 687.701 350.157 675.956 347.083ZM694.029 322.863C687.522 320.5 679.568 304.623 669.086 302.33C658.604 300.037 656.793 303.539 640.888 304.26C624.984 304.981 620.906 280.425 620.906 280.425C619.155 287.315 602.204 343.566 610.517 365.791C618.835 388.016 635.103 376.534 657.877 387.375C680.652 398.216 704.153 390.99 709.213 372.56C714.191 354.417 733.126 321.004 733.717 319.969C721.484 337.423 700.531 325.221 694.029 322.863" fill="#384170"/>
<path d="M617.752 297.393C617.752 297.393 599.316 333.711 605.1 363.164C610.884 392.617 638.358 383.264 650.649 387.579C662.94 391.894 693.126 406.711 705.056 378.523" stroke="#384170" stroke-width="5.33333" stroke-miterlimit="10" stroke-linecap="round" stroke-linejoin="round"/>
<path d="M605.1 363.164L592.628 387.196L576.089 397.495L590.594 409.692L576.089 424.057L646.673 611.431" stroke="#384170" stroke-width="5.33333" stroke-miterlimit="10" stroke-linecap="round" stroke-linejoin="round"/>
<path d="M718.973 355.395L711.743 384.666C711.743 384.666 670.284 442.667 664.805 459.291C659.325 475.914 646.056 609.793 646.056 609.793" stroke="#384170" stroke-width="5.33333" stroke-miterlimit="10" stroke-linecap="round" stroke-linejoin="round"/>
<path d="M718.716 356.437L721.75 375L742.833 384.215L726.926 402.916L737.069 413.396C737.069 413.396 704.875 437.066 689.15 478.806C673.424 520.545 646.056 609.794 646.056 609.794L661.494 725.684" stroke="#384170" stroke-width="5.33333" stroke-miterlimit="10" stroke-linecap="round" stroke-linejoin="round"/>
<path d="M608.236 372.534L628.959 475.011L648.77 583.285" stroke="#384170" stroke-width="5.33333" stroke-miterlimit="10" stroke-linecap="round" stroke-linejoin="round"/>
<path d="M715.901 350.381L717.261 362.329" stroke="#384170" stroke-width="5.33333" stroke-miterlimit="10" stroke-linecap="round" stroke-linejoin="round"/>
<path d="M666.012 392.981L661.133 403.458L656.433 420.443C656.433 420.443 640.198 471.912 639.003 529.906" stroke="#384170" stroke-width="5.33333" stroke-miterlimit="10" stroke-linecap="round" stroke-linejoin="round"/>
<path d="M625.879 384.885L634.381 394.062L642.335 397.134L654.516 427.05" stroke="#384170" stroke-width="5.33333" stroke-miterlimit="10" stroke-linecap="round" stroke-linejoin="round"/>
<path d="M634.381 394.062C634.381 394.062 629.305 390.448 625.879 391.532C622.452 392.616 619.117 412.909 619.519 428.33" stroke="#384170" stroke-width="5.33333" stroke-miterlimit="10" stroke-linecap="round" stroke-linejoin="round"/>
<path d="M687.648 394.543C687.648 394.543 691.536 401.251 689.8 416.539" stroke="#384170" stroke-width="5.33333" stroke-miterlimit="10" stroke-linecap="round" stroke-linejoin="round"/>
<path d="M626.934 385.078L632.605 392.981L642.334 397.134L654.516 425.502L661.133 403.458L665.74 393.564L649.107 387.126L626.934 385.078Z" fill="#384170"/>
<path d="M721.116 371.121C721.116 371.121 746.086 360.906 746.899 360.906C747.713 360.906 795.702 360.363 804.107 369.308C812.512 378.252 821.731 402.916 821.731 402.916L843.15 414.028L848.572 419.178H867.551L870.263 375.812C870.263 375.812 881.108 406.71 917.981 399.121C954.855 391.532 938.045 356.437 938.045 356.437L952.686 387.807V449.534C952.686 449.534 941.298 498.862 939.671 500.488C938.045 502.114 868.455 511.871 868.455 511.871L802.054 522.485L802.481 532.47" stroke="#384170" stroke-width="5.33333" stroke-miterlimit="10" stroke-linecap="round" stroke-linejoin="round"/>
<path d="M592.628 387.196C592.628 387.196 521.592 389.5 514.543 391.33C507.494 393.159 494.479 428.33 494.479 428.33L429.409 482.594L415.672 484.949" stroke="#384170" stroke-width="5.33333" stroke-miterlimit="10" stroke-linecap="round" stroke-linejoin="round"/>
<path d="M419.648 516.75L410.972 449.534C410.972 449.534 401.754 472.843 387.655 480.16C373.556 487.478 369.218 498.862 362.44 499.133C355.662 499.404 341.292 474.198 344.546 454.412C344.546 454.412 328.007 496.151 331.26 503.74C334.514 511.329 337.496 514.311 337.496 514.311C337.496 514.311 349.155 554.333 354.939 565.898C360.723 577.462 376.629 582.603 401.934 583.285C427.24 583.966 525.207 529.906 525.207 529.906L534.654 609.793L511.289 744.418" stroke="#384170" stroke-width="5.33333" stroke-miterlimit="10" stroke-linecap="round" stroke-linejoin="round"/>
<path d="M344.546 454.412C344.546 454.412 348.432 448.269 354.216 442.125C354.216 442.125 343.371 462.724 351.686 470.855C360 478.986 375.906 477.541 385.486 472.12C395.066 466.699 402.115 455.135 402.476 436.073L410.626 431.376L410.972 449.534" stroke="#384170" stroke-width="5.33333" stroke-miterlimit="10" stroke-linecap="round" stroke-linejoin="round"/>
<path d="M354.216 442.125V434.356L324.753 399.393C324.753 399.393 276.221 381.504 274.595 376.355C272.968 371.205 278.391 364.429 287.338 369.308C296.285 374.187 329.87 384.215 330.836 384.215C331.803 384.215 334.785 377.981 334.785 377.981C334.785 377.981 293.845 340.578 289.778 335.7C285.711 330.821 295.2 323.503 301.708 328.653C308.215 333.802 345.359 362.803 346.172 362.532C346.986 362.261 350.239 359.551 350.239 359.551C350.239 359.551 305.503 310.223 302.25 303.176C298.996 296.129 309.192 290.979 314.262 294.232C319.331 297.484 349.787 328.653 354.216 334.074C358.644 339.494 365.965 347.354 371.93 345.999C377.894 344.644 380.063 340.578 376.539 319.438C373.014 298.297 371.659 284.203 377.081 282.035C382.504 279.867 387.655 283.661 391.18 294.232C394.704 304.802 399.314 351.691 399.314 351.691C399.314 351.691 404.736 364.7 406.363 365.784C407.99 366.869 417.208 375.542 417.208 375.542C417.208 375.542 422.631 360.093 430.493 353.046C438.356 345.999 447.845 341.934 454.353 346.541C460.86 351.149 455.708 362.261 444.863 371.205C434.018 380.149 429.68 392.346 429.951 398.851C430.222 405.355 425.251 424.599 410.626 431.376" stroke="#384170" stroke-width="5.33333" stroke-miterlimit="10" stroke-linecap="round" stroke-linejoin="round"/>
<path d="M723.066 532.47H1004.92C1010.52 532.47 1014.79 537.475 1013.91 543.002L983.594 744.418H678.719L700.449 552.698C701.734 541.181 711.473 532.47 723.066 532.47Z" stroke="#384170" stroke-width="5.33333" stroke-miterlimit="10" stroke-linecap="round" stroke-linejoin="round"/>
<path d="M680.809 725.684H605.252C601.174 725.684 597.869 728.988 597.869 733.064V744.419H678.719" stroke="#384170" stroke-width="5.33333" stroke-miterlimit="10" stroke-linecap="round" stroke-linejoin="round"/>
<path d="M878.397 364.303L865.744 331.001L854.537 320.16C854.537 320.16 825.978 303.176 823.809 294.863C821.64 286.552 834.293 274.626 858.153 291.611C858.153 291.611 872.974 255.835 876.95 245.355C880.927 234.875 897.556 177.777 905.871 178.5C914.185 179.223 916.355 181.391 914.547 194.4C912.739 207.41 906.052 221.594 904.154 232.978C902.256 244.361 907.136 239.138 910.661 231.315C914.185 223.492 943.467 177.687 944.823 176.603C946.179 175.519 952.143 173.35 956.753 177.958C961.362 182.565 957.295 188.257 952.957 195.304C948.619 202.351 925.031 244.903 924.759 247.072C924.488 249.24 929.098 250.595 931.809 246.8C934.52 243.006 964.886 199.37 964.886 199.37C964.886 199.37 971.665 191.51 978.172 196.659C984.679 201.809 975.189 213.734 972.749 217.529C970.309 221.323 944.281 260.894 945.365 262.249C946.45 263.605 980.341 227.828 983.594 227.828C986.848 227.828 992.541 229.454 991.457 237.585C990.372 245.716 952.686 280.951 952.686 280.951C952.686 280.951 935.876 320.16 924.308 330.64L938.045 356.437C938.045 356.437 939.129 380.872 918.524 386.292C897.918 391.713 885.265 390.739 878.397 364.303Z" stroke="#384170" stroke-width="5.33333" stroke-miterlimit="10" stroke-linecap="round" stroke-linejoin="round"/>
<path d="M870.263 375.812L868.455 361.538L874.826 354.904" stroke="#384170" stroke-width="5.33333" stroke-miterlimit="10" stroke-linecap="round" stroke-linejoin="round"/>
<path d="M991.592 476.637L1010.71 486.394V497.236L1034.02 511.871L1041.07 529.906L1055.71 522.171L1076.32 486.394L1090.42 479.347L1085.54 464.712L1093.13 443.171L1074.69 421.346L1042.36 432.187L1017.21 421.346L1002.03 452.244L1000.4 471.216L991.592 476.637Z" stroke="#384170" stroke-width="5.33333" stroke-miterlimit="10" stroke-linecap="round" stroke-linejoin="round"/>
<path d="M1000.4 471.216L1014.02 462.543" stroke="#384170" stroke-width="5.33333" stroke-miterlimit="10" stroke-linecap="round" stroke-linejoin="round"/>
<path d="M1042.36 432.188L1058.43 436.524" stroke="#384170" stroke-width="5.33333" stroke-miterlimit="10" stroke-linecap="round" stroke-linejoin="round"/>
<path d="M1076.32 486.394L1045.95 497.236" stroke="#384170" stroke-width="5.33333" stroke-miterlimit="10" stroke-linecap="round" stroke-linejoin="round"/>
<path d="M166.957 422.972L190.274 415.926L216.302 428.33L234.197 422.128L254.26 436.073V449.534L271.612 461.443L267.816 476.569L268.359 496.694L247.753 482.594L236.366 493.983L196.781 482.594L192.985 461.443L166.957 422.972Z" stroke="#384170" stroke-width="5.33333" stroke-miterlimit="10" stroke-linecap="round" stroke-linejoin="round"/>
<path d="M192.985 461.444L189.731 436.072" stroke="#384170" stroke-width="5.33333" stroke-miterlimit="10" stroke-linecap="round" stroke-linejoin="round"/>
<path d="M216.302 428.33L229.316 436.073" stroke="#384170" stroke-width="5.33333" stroke-miterlimit="10" stroke-linecap="round" stroke-linejoin="round"/>
<path d="M247.753 482.594L258.056 471.759" stroke="#384170" stroke-width="5.33333" stroke-miterlimit="10" stroke-linecap="round" stroke-linejoin="round"/>
<path d="M447.503 82.1401L464.196 94.8256H486.971L511.915 126.823L517.88 150.674L524.929 140.375L514.626 189.161L486.216 217.891L457.689 209.76L438.71 200.002L432.745 166.394L460.4 158.263L462.569 130.076L444.675 126.823L447.503 82.1401Z" stroke="#384170" stroke-width="5.33333" stroke-miterlimit="10" stroke-linecap="round" stroke-linejoin="round"/>
<path d="M462.569 130.075L478.837 134.954" stroke="#384170" stroke-width="5.33333" stroke-miterlimit="10" stroke-linecap="round" stroke-linejoin="round"/>
<path d="M460.4 158.263L454.978 177.235" stroke="#384170" stroke-width="5.33333" stroke-miterlimit="10" stroke-linecap="round" stroke-linejoin="round"/>
<path d="M464.196 94.8257L485.886 115.976" stroke="#384170" stroke-width="5.33333" stroke-miterlimit="10" stroke-linecap="round" stroke-linejoin="round"/>
<path d="M517.879 150.674L504.323 167.749" stroke="#384170" stroke-width="5.33333" stroke-miterlimit="10" stroke-linecap="round" stroke-linejoin="round"/>
<path d="M229.316 744.418H1093.13" stroke="#384170" stroke-width="5.33333" stroke-miterlimit="10" stroke-linecap="round" stroke-linejoin="round"/>
<path d="M1093.13 781.551H229.316C222.129 781.551 216.302 775.727 216.302 768.542C216.302 761.357 222.129 755.532 229.316 755.532H1093.13C1100.32 755.532 1106.14 761.357 1106.14 768.542C1106.14 775.727 1100.32 781.551 1093.13 781.551Z" fill="#384170"/>
<path d="M785.781 363.164C785.781 363.164 759.57 439.556 802.054 522.485" stroke="#384170" stroke-width="5.33333" stroke-miterlimit="10" stroke-linecap="round" stroke-linejoin="round"/>
<path d="M514.543 391.33C514.543 391.33 535.281 465.782 525.208 529.906" stroke="#384170" stroke-width="5.33333" stroke-miterlimit="10" stroke-linecap="round" stroke-linejoin="round"/>
<path d="M517.192 402.049C517.192 402.049 531.727 523.085 477.883 554.492L523.624 530.774C523.624 530.774 525.512 530.621 525.484 528.09C525.456 525.558 534.843 486.468 517.192 402.049Z" fill="#384170"/>
<path d="M778.602 402.05C778.602 402.05 786.213 461.99 810.072 482.594C833.931 503.198 932.622 485.841 936.96 482.594C941.298 479.347 952.685 449.534 952.685 449.534L939.671 500.488L802.3 522.894C802.3 522.894 775.33 473.278 778.602 402.05" fill="#384170"/>
<path d="M354.216 439.506C354.216 439.506 347.528 464.17 367.32 466.609C387.113 469.048 399.923 453.057 399.923 453.057C399.923 453.057 390.216 482.097 361.28 475.844C361.28 475.844 338.129 474.649 354.216 439.506" fill="#384170"/>
<path d="M876.508 359.332C876.508 359.332 887.254 382.679 908.402 380.511C929.55 378.342 937.33 364.303 937.33 364.303C937.33 364.303 934.644 379.488 923.33 384.516C912.016 389.545 896.015 390.824 890.819 385.913C885.622 381.003 880.945 375.918 876.508 359.332Z" fill="#384170"/>
<path d="M991.457 237.585C991.457 237.585 954.041 273.091 945.636 278.24C945.636 278.24 927.2 324.858 910.119 334.615C910.119 334.615 922.749 333.665 933.244 347.421L924.308 330.64C924.308 330.64 940.485 314.559 952.686 280.951C952.686 280.951 981.696 255.473 991.457 237.585Z" fill="#384170"/>
<path d="M576.089 397.495L586.028 414.214L590.594 409.692L576.089 397.495Z" fill="#384170"/>
<path d="M576.089 424.056L639.003 631.307L646.056 725.685H661.494L645.396 608.042L576.089 424.056Z" fill="#384170"/>
<path d="M655.677 263.881C654.943 266.937 652.844 269.053 650.987 268.608C649.131 268.162 648.22 265.324 648.954 262.268C649.688 259.213 651.787 257.097 653.643 257.542C655.5 257.987 656.411 260.825 655.677 263.881Z" fill="#384170"/>
<path d="M709.541 279.42C708.807 282.476 706.708 284.592 704.852 284.147C702.995 283.701 702.084 280.863 702.818 277.807C703.552 274.752 705.651 272.636 707.508 273.081C709.364 273.526 710.275 276.364 709.541 279.42Z" fill="#384170"/>
<path d="M652.315 245.355C652.315 245.355 662.94 245.174 667.278 256.377" stroke="#384170" stroke-width="8" stroke-miterlimit="10" stroke-linecap="round" stroke-linejoin="round"/>
<path d="M716.443 264.147C716.443 264.147 706.207 260.352 698.22 266.134" stroke="#384170" stroke-width="8" stroke-miterlimit="10" stroke-linecap="round" stroke-linejoin="round"/>
<path d="M647.37 318.04C647.37 318.04 666.942 316.142 675.618 327.797" stroke="#384170" stroke-width="5.33333" stroke-miterlimit="10" stroke-linecap="round" stroke-linejoin="round"/>
<path d="M676.948 267.76C676.948 267.76 661.172 283.119 659.797 289.985C658.421 296.852 675.773 299.562 678.124 296.49C680.473 293.418 678.169 273.904 676.948 267.76Z" stroke="#384170" stroke-width="5.33333" stroke-miterlimit="10" stroke-linecap="round" stroke-linejoin="round"/>
<path d="M610.793 725.684C610.793 725.684 602.659 744.419 669.628 744.419H597.87V733.064C597.87 733.064 597.541 725.684 605.251 725.684H610.793Z" fill="#384170"/>
<path d="M1013.91 543.002C1013.91 543.002 998.522 744.418 678.719 744.418H983.594L1013.91 543.002Z" fill="#384170"/>
<path d="M872.397 635.061C872.397 642.246 866.571 648.07 859.383 648.07C852.196 648.07 846.37 642.246 846.37 635.061C846.37 627.876 852.196 622.052 859.383 622.052C866.571 622.052 872.397 627.876 872.397 635.061Z" stroke="#384170" stroke-width="5.33333" stroke-miterlimit="10" stroke-linecap="round" stroke-linejoin="round"/>
<path d="M256.993 472.876V488.916L248.058 482.273L256.993 472.876Z" fill="#384170"/>
<path d="M189.876 437.196L186.967 452.549L192.009 460.001L189.876 437.196Z" fill="#384170"/>
<path d="M1047.13 496.816H1070.32L1076.32 487.163L1047.13 496.816Z" fill="#384170"/>
<path d="M1057.36 436.236L1054.82 428.011L1043.03 431.963L1057.36 436.236Z" fill="#384170"/>
<path d="M461.834 139.629C461.834 139.629 478.412 134.827 478.164 134.752C477.915 134.678 462.924 130.182 462.924 130.182L461.834 139.629Z" fill="#384170"/>
<path d="M450.998 161.027L455.251 176.279L460.129 159.212L450.998 161.027Z" fill="#384170"/>
<path d="M780.786 99.9926C825.221 116.996 873.832 129.585 920.1 118.497C926.662 116.925 933.326 114.769 938.383 110.304C944.869 104.579 947.824 95.8328 949.251 87.3007C953.637 61.0662 943.715 30.9674 920.231 18.4629C913.664 14.9666 906.411 12.9761 899.167 11.2838C873.879 5.37743 847.819 2.78363 821.863 3.59077C806.065 4.08188 789.999 5.90919 775.589 12.4015C761.179 18.8939 748.511 30.6524 744.028 45.8037C739.546 60.9551 744.907 79.3333 758.535 87.3353L757.988 109.284L780.786 99.9926Z" stroke="#384170" stroke-width="5.33333" stroke-miterlimit="10" stroke-linecap="round" stroke-linejoin="round"/>
<path d="M828.782 39.1928C829.408 38.4784 830.571 38.9489 831.365 39.4682C843.814 47.6116 854.496 58.4389 862.469 70.9954" stroke="#384170" stroke-width="6.66667" stroke-miterlimit="10" stroke-linecap="round" stroke-linejoin="round"/>
<path d="M863.317 39.4642C853.087 49.4209 844.376 60.9361 837.58 73.4893" stroke="#384170" stroke-width="6.66667" stroke-miterlimit="10" stroke-linecap="round" stroke-linejoin="round"/>
<path d="M754.401 124.431C754.401 127.175 752.175 129.4 749.43 129.4C746.685 129.4 744.46 127.175 744.46 124.431C744.46 121.686 746.685 119.462 749.43 119.462C752.175 119.462 754.401 121.686 754.401 124.431Z" stroke="#384170" stroke-width="5.33333" stroke-miterlimit="10" stroke-linecap="round" stroke-linejoin="round"/>
<path d="M742.086 139.628C742.086 141.062 740.923 142.224 739.489 142.224C738.055 142.224 736.892 141.062 736.892 139.628C736.892 138.194 738.055 137.032 739.489 137.032C740.923 137.032 742.086 138.194 742.086 139.628Z" stroke="#384170" stroke-width="5.33333" stroke-miterlimit="10" stroke-linecap="round" stroke-linejoin="round"/>
<path d="M331.581 269.435C335.981 268.164 339.878 265.582 343.557 262.855C345.853 261.154 348.134 259.341 349.742 256.979C352.36 253.131 352.902 248.299 354.044 243.787C355.187 239.274 357.405 234.502 361.717 232.745L345.052 221.568C344.272 220.975 343.141 221.377 342.323 221.917C339.116 224.037 337.414 227.83 336.556 231.576C335.698 235.322 335.514 239.209 334.489 242.913C331.95 252.094 323.915 259.521 314.561 261.335L331.581 269.435Z" stroke="#384170" stroke-width="5.33333" stroke-miterlimit="10" stroke-linecap="round" stroke-linejoin="round"/>
<path d="M1067.23 310.626C1068.75 303.354 1068.01 295.807 1066.9 288.462C1066.2 283.878 1065.34 279.232 1063.17 275.133C1059.64 268.455 1053.12 264.005 1047.52 258.939C1041.92 253.872 1036.76 247.065 1037.52 239.551L1008.82 254.938C1007.38 255.606 1007.1 257.532 1007.25 259.114C1007.85 265.322 1012 270.642 1016.72 274.72C1021.44 278.798 1026.87 282.016 1031.41 286.3C1042.64 296.918 1047.19 314.076 1042.68 328.861L1067.23 310.626Z" stroke="#384170" stroke-width="5.33333" stroke-miterlimit="10" stroke-linecap="round" stroke-linejoin="round"/>
</svg>
