<svg width="1168" height="783" viewBox="0 0 1168 783" fill="none" xmlns="http://www.w3.org/2000/svg">
<g clip-path="url(#clip0_1121_37)">
<path d="M447.977 67.6855C447.977 67.6855 436.555 161.403 407.438 169.08C378.322 176.758 357.291 132.723 357.291 132.723" stroke="#384170" stroke-width="4" stroke-linecap="round" stroke-linejoin="round"/>
<path d="M334.089 103.086L323.316 149.284C323.316 149.284 337.067 184.429 346.366 196.149C355.665 207.868 364.164 212.709 364.164 212.709L379.529 203.42C379.529 203.42 391.46 177.182 393.784 169.093" stroke="#384170" stroke-width="4" stroke-linecap="round" stroke-linejoin="round"/>
<path d="M333.919 109.212C333.919 109.212 328.987 93.1357 329.388 62.0258C329.788 30.916 350.418 19.6088 357.291 24.8625C357.291 24.8625 366.996 9.10758 391.26 9.51357C415.524 9.91956 474.164 8.30166 477.397 44.6591C480.63 81.0165 449.493 77.7807 422.803 64.4497C422.803 64.4497 414.311 59.5051 409.155 67.6855C403.999 75.8659 402.786 78.8957 392.473 81.3195C382.161 83.7433 380.038 100.104 372.152 94.9535C364.267 89.8029 365.783 73.4421 353.651 70.4123C341.519 67.3825 336.903 97.9409 333.919 109.212Z" fill="#384170"/>
<path d="M359.857 137.492C359.857 137.492 365.31 181.254 384.582 192.161L395.385 169.486C395.385 169.486 374.1 163.215 359.857 137.492Z" fill="#384170"/>
<path d="M357.285 81.4165C357.285 81.4165 348.999 75.357 345.359 85.4583" stroke="#384170" stroke-width="4" stroke-linecap="round" stroke-linejoin="round"/>
<path d="M339.396 84.0464C339.396 84.0464 331.201 110.406 348.793 111.714" stroke="#384170" stroke-width="4" stroke-linecap="round" stroke-linejoin="round"/>
<path d="M402.634 169.892L414.614 192.161C414.614 192.161 406.122 189.21 400.663 195.876C395.203 202.541 389.647 211.328 379.535 203.45" stroke="#384170" stroke-width="4" stroke-linecap="round" stroke-linejoin="round"/>
<path d="M238.392 152.822C238.392 152.822 252.04 152.156 260.23 137.492C268.419 122.828 270.542 116.768 279.641 120.707C288.74 124.645 306.331 142.521 311.184 130.099C316.036 117.677 292.682 90.7118 260.23 87.379C227.777 84.0463 196.234 115.986 210.792 157.882C210.792 157.882 218.374 173.728 227.88 180.793C227.886 180.793 212.721 155.343 238.392 152.822Z" fill="#384170"/>
<path d="M307.853 125.251C307.853 125.251 310.583 195.846 288.139 209.783C265.695 223.72 242.038 193.725 242.038 193.725" stroke="#384170" stroke-width="4" stroke-linecap="round" stroke-linejoin="round"/>
<path d="M221.407 169.977C221.407 169.977 236.572 199.578 245.271 181.806" stroke="#384170" stroke-width="4" stroke-linecap="round" stroke-linejoin="round"/>
<path d="M226.594 178.297L228.292 195.337C228.292 195.337 239.994 219.739 264.773 211.273" stroke="#384170" stroke-width="4" stroke-linecap="round" stroke-linejoin="round"/>
<path d="M231.525 161.003C231.525 161.003 224.853 162.821 229.906 171.91" stroke="#384170" stroke-width="4" stroke-linecap="round" stroke-linejoin="round"/>
<path d="M228.292 195.336C228.292 195.336 195.93 209.292 189.864 213.473C183.799 217.654 144.673 266.439 144.673 277.347C144.673 288.254 160.748 314.613 160.748 314.613C160.748 314.613 164.187 296.131 181.172 295.319L180.917 279.771L196.385 254.975" stroke="#384170" stroke-width="4" stroke-linecap="round" stroke-linejoin="round"/>
<path d="M161.506 311.868C161.506 311.868 171.472 330.653 174.912 333.495C178.351 336.337 185.424 340.972 185.424 340.972" stroke="#384170" stroke-width="4" stroke-linecap="round" stroke-linejoin="round"/>
<path d="M265.082 306.027C265.082 306.027 249.111 284.618 234.753 278.353C220.394 272.087 203.009 278.759 197.144 298.149C191.278 317.54 181.882 339.554 186.48 371.064C186.48 371.064 201.796 348.644 226.867 367.834L242.438 321.176L249.517 316.528L251.943 314.886" stroke="#384170" stroke-width="4" stroke-linecap="round" stroke-linejoin="round"/>
<path d="M181.178 295.32L194.396 306.875" stroke="#384170" stroke-width="4" stroke-linecap="round" stroke-linejoin="round"/>
<path d="M295.546 201.96C300.444 203.183 305.261 204.709 309.97 206.529C316.849 209.274 351.425 242.807 351.425 242.807C351.425 242.807 362.95 255.532 365.777 265.022C368.604 274.511 369.417 286.23 369.417 286.23C369.417 286.23 357.285 276.335 346.166 277.953C335.047 279.571 337.874 291.078 337.874 291.078" stroke="#384170" stroke-width="4" stroke-linecap="round" stroke-linejoin="round"/>
<path d="M265.082 306.027L295.539 289.466C295.539 289.466 312.093 273.408 328.775 282.194C345.456 290.981 346.669 323.575 346.669 323.575L344.243 366.422C344.243 366.422 341.513 352.485 327.562 349.153C313.61 345.82 305.876 365.211 305.876 365.211L303.298 334.004L283.887 326.417C283.887 326.417 295.667 318.212 295.539 311.874C295.412 305.536 278.731 314.013 272.968 314.619C267.205 315.225 251.3 315.328 251.3 315.328" stroke="#384170" stroke-width="4" stroke-linecap="round" stroke-linejoin="round"/>
<path d="M305.033 354.916C281.485 373.912 244.919 350.438 244.919 350.438" stroke="#384170" stroke-width="4" stroke-linecap="round" stroke-linejoin="round"/>
<path d="M273.575 338.143C273.575 338.143 296.019 345.044 304.196 344.869" stroke="#384170" stroke-width="4" stroke-linecap="round" stroke-linejoin="round"/>
<path d="M272.167 345.82C272.167 345.82 294.812 353.092 304.202 349.365" stroke="#384170" stroke-width="4" stroke-linecap="round" stroke-linejoin="round"/>
<path d="M173.486 409.039C178.952 402.827 186.301 398.571 194.414 396.92C208.087 394.09 218.199 396.114 219.005 402.98C219.812 409.845 210.919 413.481 210.919 413.481C210.919 413.481 187.796 413.481 173.486 409.039Z" fill="#384170"/>
<path d="M310.638 414.947C309.561 414.475 308.603 413.772 307.83 412.888C307.056 412.003 306.488 410.96 306.165 409.831C305.842 408.702 305.772 407.516 305.96 406.357C306.148 405.198 306.589 404.094 307.253 403.125C309.843 399.356 314.611 395.672 323.322 395.684C334.847 395.684 341.01 397.732 344.079 402.01C344.779 403.008 345.244 404.15 345.441 405.352C345.638 406.554 345.561 407.784 345.216 408.952C344.871 410.121 344.266 411.196 343.448 412.098C342.63 413.001 341.618 413.708 340.488 414.166C333.628 417.008 321.975 420.068 310.638 414.947Z" fill="#384170"/>
<path d="M175.676 406.694L186.486 379.548V371.064" stroke="#384170" stroke-width="4" stroke-linecap="round" stroke-linejoin="round"/>
<path d="M217.78 399.877L219.042 377.53L226.873 367.834" stroke="#384170" stroke-width="4" stroke-linecap="round" stroke-linejoin="round"/>
<path d="M306.744 406.695L305.882 365.211" stroke="#384170" stroke-width="4" stroke-linecap="round" stroke-linejoin="round"/>
<path d="M343.747 409.445L342.333 361.357" stroke="#384170" stroke-width="4" stroke-linecap="round" stroke-linejoin="round"/>
<path d="M313.61 381.165C313.61 381.165 325.742 367.428 342.326 381.165" stroke="#384170" stroke-width="4" stroke-linecap="round" stroke-linejoin="round"/>
<path d="M219.042 377.53C219.042 377.53 207.158 369.549 193.207 381.165" stroke="#384170" stroke-width="4" stroke-linecap="round" stroke-linejoin="round"/>
<path d="M269.783 353.116C269.783 353.116 291.773 359.848 303.34 356.146" stroke="#384170" stroke-width="4" stroke-linecap="round" stroke-linejoin="round"/>
<path d="M148.519 291.078C148.519 291.078 122.338 331.247 119.105 348.129C115.872 365.01 125.171 381.971 170.866 381.165C170.866 381.165 156.714 375.487 155.094 361.363C153.475 347.238 170.866 328.156 170.866 328.156" stroke="#384170" stroke-width="4" stroke-linecap="round" stroke-linejoin="round"/>
<path d="M170.866 381.165C170.866 381.165 177.581 381.22 186.486 378.014" stroke="#384170" stroke-width="4" stroke-linecap="round" stroke-linejoin="round"/>
<path d="M162.998 340.16C162.998 340.16 149.847 367.61 181.081 379.663C181.081 379.663 174.342 384.159 166.413 378.699C166.413 378.699 143.405 363.284 162.998 340.16Z" fill="#384170"/>
<path d="M251.307 353.964L227.752 365.211" stroke="#384170" stroke-width="4" stroke-linecap="round" stroke-linejoin="round"/>
<path d="M369.417 286.23C369.417 286.23 370.43 308.45 360.318 309.462C350.206 310.474 343.012 301.088 338.42 292.041" stroke="#384170" stroke-width="4" stroke-linecap="round" stroke-linejoin="round"/>
<path d="M343.746 300.604L345.767 289.06" stroke="#384170" stroke-width="4" stroke-linecap="round" stroke-linejoin="round"/>
<path d="M349.763 306.499L352.239 294.835" stroke="#384170" stroke-width="4" stroke-linecap="round" stroke-linejoin="round"/>
<path d="M358.28 309.523L360.732 297.883" stroke="#384170" stroke-width="4" stroke-linecap="round" stroke-linejoin="round"/>
<path d="M188.657 309.614L192.442 313.044" stroke="#384170" stroke-width="4" stroke-linecap="round" stroke-linejoin="round"/>
<path d="M183.046 318.855L189.228 324.333" stroke="#384170" stroke-width="4" stroke-linecap="round" stroke-linejoin="round"/>
<path d="M179.407 329.78L186.486 335.216" stroke="#384170" stroke-width="4" stroke-linecap="round" stroke-linejoin="round"/>
<path d="M327.252 132.426L307.629 146.46" stroke="#384170" stroke-width="4" stroke-linecap="round" stroke-linejoin="round"/>
<path d="M302.521 184.508C302.521 184.508 308.46 177.921 319.985 187.489C331.511 197.057 343.442 211.394 364.17 212.709L362.811 258.356" stroke="#384170" stroke-width="4" stroke-linecap="round" stroke-linejoin="round"/>
<path d="M404.599 169.892C404.599 169.892 417.944 183.12 438.872 190.089C459.8 197.057 480.424 215.539 480.424 215.539C480.424 215.539 503.778 273.105 506.811 282.194C509.844 291.284 545.736 432.066 545.736 432.066C545.736 432.066 509.747 426.812 486.696 445.803L452.32 338.142C452.32 338.142 468.092 285.424 470.518 260.38" stroke="#384170" stroke-width="4" stroke-linecap="round" stroke-linejoin="round"/>
<path d="M452.326 338.143L436.142 453.075L452.32 562.547C452.32 562.547 447.874 578.708 436.142 579.514C424.411 580.32 407.432 570.224 388.828 572.648C370.224 575.072 357.285 579.562 357.285 579.562V554.469L348.793 579.562C348.793 579.562 311.59 585.573 290.159 572.648C268.728 559.723 234.352 526.595 203.21 536.291L226.715 371.064" stroke="#384170" stroke-width="4" stroke-linecap="round" stroke-linejoin="round"/>
<path d="M224.914 370.264C224.914 370.264 234.31 375.839 265.283 375.063C297.365 374.252 305.645 362.338 305.645 362.338" stroke="#384170" stroke-width="4" stroke-linecap="round" stroke-linejoin="round"/>
<path d="M339.7 281.219L318.469 258.356L316.042 228.87" stroke="#384170" stroke-width="4" stroke-linecap="round" stroke-linejoin="round"/>
<path d="M318.469 258.356V279.565" stroke="#384170" stroke-width="4" stroke-linecap="round" stroke-linejoin="round"/>
<path d="M469.372 268.96C469.372 268.96 463.245 357.939 486.702 445.803L452.648 337.052C452.648 337.052 469.432 283.2 469.372 268.96Z" fill="#384170"/>
<path d="M486.702 445.803L469.675 449.136L497.415 486.402C497.415 486.402 515.309 473.071 549.582 477.919L553.828 436.914C553.828 436.914 551.402 433.478 545.742 432.066" stroke="#384170" stroke-width="4" stroke-linecap="round" stroke-linejoin="round"/>
<path d="M439.43 113.217C439.43 113.217 441.638 131.323 441.074 135.698C440.51 140.073 427.31 136.147 427.031 134.183C426.752 132.22 434.972 113.302 439.43 113.217Z" fill="white" stroke="#384170" stroke-width="4" stroke-linecap="round" stroke-linejoin="round"/>
<path d="M507.933 481.251L518.342 526.698C518.342 526.698 500.751 544.271 493.775 554.269C486.799 564.268 481.037 575.175 477.7 579.417C474.364 583.658 476.487 589.112 480.733 589.112C484.979 589.112 494.181 583.149 499.034 573.66" stroke="#384170" stroke-width="4" stroke-linecap="round" stroke-linejoin="round"/>
<path d="M495.516 579.114C495.516 579.114 515.006 579.574 518.342 580.962C521.679 582.349 520.805 609.611 504.227 617.083H487.703C487.703 617.083 483.257 610.823 486.696 605.57C486.696 605.57 484.27 598.098 489.123 594.462C489.129 594.462 488.152 586.585 495.516 579.114Z" stroke="#384170" stroke-width="4" stroke-linecap="round" stroke-linejoin="round"/>
<path d="M489.128 594.462H519.228" stroke="#384170" stroke-width="4" stroke-linecap="round" stroke-linejoin="round"/>
<path d="M486.702 605.57H515.57" stroke="#384170" stroke-width="4" stroke-linecap="round" stroke-linejoin="round"/>
<path d="M485.398 609.411C482.971 625.566 504.087 623.142 511.754 621.931C519.422 620.719 525.1 621.531 533.204 600.116C541.308 578.702 547.362 530.231 547.362 530.231L544.201 477.289" stroke="#384170" stroke-width="4" stroke-linecap="round" stroke-linejoin="round"/>
<path d="M544.917 547.337C544.917 547.337 558.074 559.117 564.14 571.436L544.917 587.391C544.917 587.391 538.05 607.388 524.001 617.083" stroke="#384170" stroke-width="4" stroke-linecap="round" stroke-linejoin="round"/>
<path d="M865.218 219.575L880.65 238.214C881.937 239.774 882.884 241.587 883.428 243.534L888.42 261.483C888.628 262.232 889.043 262.907 889.616 263.432C890.19 263.957 890.899 264.311 891.664 264.453C892.429 264.595 893.218 264.52 893.942 264.236C894.666 263.952 895.296 263.47 895.76 262.846L900.006 257.138C900.006 257.138 911.732 264.816 900.006 279.359L895.153 295.519C895.153 295.519 904.052 306.827 913.351 307.639C922.65 308.451 948.94 292.69 945.701 277.741C945.701 277.741 962.686 255.926 949.747 235.324C949.747 235.324 955.006 194.931 929.529 196.142C929.529 196.142 904.452 166.651 874.529 184.829C874.529 184.829 845.412 184.423 839.346 207.856C833.281 231.288 862.385 236.948 865.218 219.575Z" fill="#384170"/>
<path d="M809.508 366.423L805.365 474.889C805.365 474.889 881.39 557.699 916.172 500.739C916.172 500.739 913.745 370.664 911.719 345.214C909.693 319.764 902.014 304.815 896.555 300.979C896.555 300.979 880.486 301.888 871.684 300.979C862.882 300.07 850.757 295.223 844.387 296.132C838.018 297.04 789.49 320.067 789.49 320.067L750.668 325.52L693.648 310.765C693.648 310.765 674.844 324.309 684.549 347.941L753.095 369.755L809.508 366.423L829.526 358.848" stroke="#384170" stroke-width="4" stroke-linecap="round" stroke-linejoin="round"/>
<path d="M843.775 214.63C843.775 214.63 811.067 295.344 835.61 299.222" stroke="#384170" stroke-width="4" stroke-linecap="round" stroke-linejoin="round"/>
<path d="M892.284 301.173L898.374 290.375" stroke="#384170" stroke-width="4" stroke-linecap="round" stroke-linejoin="round"/>
<path d="M902.614 279.165C902.614 279.165 886.54 291.284 881.384 279.165" stroke="#384170" stroke-width="4" stroke-linecap="round" stroke-linejoin="round"/>
<path d="M742.388 323.375L738.737 275.735" stroke="#384170" stroke-width="4" stroke-linecap="round" stroke-linejoin="round"/>
<path d="M823.526 304.409C823.526 304.409 798.086 262.398 795.253 254.72C792.42 247.043 790 177.564 760.477 159.791C730.954 142.018 712.756 153.731 712.756 153.731C712.756 153.731 684.853 144.987 663.622 164.808C642.391 184.629 629.046 268.257 619.947 319.764" stroke="#384170" stroke-width="4" stroke-linecap="round" stroke-linejoin="round"/>
<path d="M237.737 187.435C237.737 187.435 249.396 206.401 265.834 211.673C265.834 211.673 240.964 221.89 228.147 193.919L227.886 180.793C227.886 180.793 231.817 185.999 237.737 187.435Z" fill="#384170"/>
<path d="M729.905 260.707C729.905 260.707 716.371 279.231 693.739 284.552C671.107 289.872 658.557 274.923 659.376 240.177C660.195 205.432 669.488 180.793 673.534 175.946C677.58 171.098 687.685 162.821 698.804 161.912C698.804 161.912 688.492 171.304 697.288 186.453C706.084 201.602 714.576 215.691 720.339 234.851C726.101 254.011 733.987 275.226 753.701 293.708" stroke="#384170" stroke-width="4" stroke-linecap="round" stroke-linejoin="round"/>
<path d="M681.771 333.495C681.771 333.495 650.076 322.588 643.604 312.492C637.132 302.397 657.356 289.06 666.655 293.708C675.954 298.355 683.439 305.009 693.648 310.765" stroke="#384170" stroke-width="4" stroke-linecap="round" stroke-linejoin="round"/>
<path d="M669.324 279.165L670.47 295.78L692.684 311.535L695.049 311.117L706.52 314.086C706.52 314.086 681.34 296.616 691.895 284.927C687.95 285.917 683.82 285.908 679.879 284.902C675.938 283.896 672.31 281.924 669.324 279.165Z" fill="#384170"/>
<path d="M696.978 283.328C696.978 283.328 714.776 285.436 725.288 275.735C725.288 275.735 740.866 298.155 740.556 322.903L743.947 323.781C743.947 323.781 742.697 322.369 742.382 314.086C742.067 305.803 738.742 277.535 738.742 277.535L730.45 261.846C730.45 261.846 718.015 279.559 696.978 283.328Z" fill="#384170"/>
<path d="M643.598 312.492C643.598 312.492 618.527 316.364 610.842 329.78C603.156 343.196 590.824 477.289 590.824 477.289L545.33 544.829" stroke="#384170" stroke-width="4" stroke-linecap="round" stroke-linejoin="round"/>
<path d="M554.896 579.114C554.896 579.114 558.481 583.355 565.153 581.131C571.826 578.908 639.958 518.918 639.958 518.918L650.07 451.457C650.07 451.457 640.365 419.947 650.07 398.538" stroke="#384170" stroke-width="4" stroke-linecap="round" stroke-linejoin="round"/>
<path d="M195.154 256.962C195.154 256.962 187.226 287.927 200.68 290.005L194.972 305.094L191.684 304.488L182.07 296.089L180.923 279.728L195.154 256.962Z" fill="#384170"/>
<path d="M316.376 232.912C316.376 232.912 326.045 265.409 342.46 279.049L339.166 281.922L332.081 273.038L319.342 259.313L316.376 232.912Z" fill="#384170"/>
<path d="M334.234 97.8803C334.234 97.8803 320.889 70.1093 327.246 40.1144C333.603 10.1195 357.285 19.5119 357.285 19.5119C357.285 19.5119 359.711 7.89569 373.869 4.25995C388.027 0.624207 455.553 -3.21151 471.628 32.54" stroke="#384170" stroke-width="4" stroke-linecap="round" stroke-linejoin="round"/>
<path d="M217.98 169.977C217.98 169.977 174.505 107.679 224.653 92.3237C224.653 92.3237 235.286 75.3872 259.49 79.5986C283.693 83.81 305.433 96.7714 307.963 120.586" stroke="#384170" stroke-width="4" stroke-linecap="round" stroke-linejoin="round"/>
<path d="M887.177 543.865L875.318 551.845L865.005 541.241C865.005 541.241 857.726 527.607 854.39 524.88C851.054 522.154 829.216 524.88 829.216 524.88C829.216 524.88 810.212 502.763 808.592 501.951C806.972 501.139 800.706 503.163 803.945 507.611C807.185 512.058 825.983 546.592 825.983 546.592L796.26 517.1C796.26 517.1 791.407 515.282 788.781 517.1C786.154 518.918 789.387 524.777 795.047 530.637C800.706 536.497 820.117 558.105 820.117 558.105C820.117 558.105 808.392 559.923 806.572 559.517C804.752 559.111 786.148 553.057 784.328 552.451C782.508 551.845 777.255 553.257 776.649 556.287C776.042 559.317 803.539 569.212 807.179 569.818C810.818 570.424 840.541 572.848 851.66 575.072C862.779 577.296 873.498 575.678 878.757 568.406C884.016 561.135 889.269 550.834 889.269 550.834C889.269 550.834 892.029 544.974 887.177 543.865Z" stroke="#384170" stroke-width="4" stroke-linecap="round" stroke-linejoin="round"/>
<path d="M829.216 524.88C829.216 524.88 838.522 537.848 842.361 538.89C846.201 539.932 855.1 542.35 855.1 542.35" stroke="#384170" stroke-width="4" stroke-linecap="round" stroke-linejoin="round"/>
<path d="M805.365 474.889L691.731 562.547L609.629 676.873C609.629 676.873 616.507 698.281 643.598 694.645C643.598 694.645 714.776 637.685 734.587 592.445L811.413 570.315" stroke="#384170" stroke-width="4" stroke-linecap="round" stroke-linejoin="round"/>
<path d="M901.45 515.967C901.45 515.967 897.507 532.552 887.177 543.841" stroke="#384170" stroke-width="4" stroke-linecap="round" stroke-linejoin="round"/>
<path d="M643.598 694.652C642.384 702.668 637.532 718.726 633.819 730.245C631.393 737.881 629.446 743.528 629.446 743.528C573.639 747.164 538.456 720.908 529.151 713.23C521.265 706.704 519.761 696.657 529.97 695.052C532.113 694.755 534.287 694.755 536.43 695.052C553.415 697.088 594.663 688.992 594.663 688.992L609.628 676.873" stroke="#384170" stroke-width="4" stroke-linecap="round" stroke-linejoin="round"/>
<path d="M633.826 730.252C631.399 737.887 629.452 743.534 629.452 743.534C573.645 747.17 538.463 720.914 529.158 713.236C521.272 706.71 519.768 696.663 529.977 695.058C529.977 695.064 569.126 744.225 633.826 730.252Z" fill="#384170"/>
<path d="M650.077 451.457L663.828 509.222L641.378 632.668" stroke="#384170" stroke-width="4" stroke-linecap="round" stroke-linejoin="round"/>
<path d="M851.66 575.072L870.811 638.237C870.811 638.237 813.833 633.65 776.637 647.587C739.44 661.524 687.613 654.573 687.613 654.573" stroke="#384170" stroke-width="4" stroke-linecap="round" stroke-linejoin="round"/>
<path d="M203.21 536.291C203.21 536.291 189.864 721.386 189.864 743.867C189.864 766.348 192.291 781.182 192.291 781.182H275.94L322.042 608.199L334.234 781.182H416.731L442.596 577.265" stroke="#384170" stroke-width="4" stroke-linecap="round" stroke-linejoin="round"/>
<path d="M860.183 637.698L851.06 781.182H764.923L755.824 697.881L744.299 781.182H638.145L639.861 710.37" stroke="#384170" stroke-width="4" stroke-linecap="round" stroke-linejoin="round"/>
<path d="M842.167 637.57C842.167 637.57 845.74 765.985 811.419 781.182H851.054L860.838 637.722C860.838 637.722 844.12 637.54 842.167 637.57Z" fill="#384170"/>
<path d="M755.818 697.881C755.818 697.881 747.933 781.182 672.715 781.182H744.293L755.818 697.881Z" fill="#384170"/>
<path d="M714.272 656.931C714.272 656.931 672.417 668.504 638.145 716.278L639.358 712.127L644.92 693.567L686.484 655.719C686.484 655.719 699.368 655.67 714.272 656.931Z" fill="#384170"/>
<path d="M857.544 594.463L814.264 575.999L737.833 598.098C737.833 598.098 719.847 633.71 696.978 656.325L686.478 655.719C686.478 655.719 724.275 618.495 734.587 592.439L812.074 570.376L850.599 574.866L857.544 594.463Z" fill="#384170"/>
<path d="M809.654 479.288C809.654 479.288 866.413 543.362 892.86 536.248C892.86 536.248 898.86 524.026 902.79 515.137C902.79 515.137 871.981 540.344 809.654 479.288Z" fill="#384170"/>
<path d="M646.115 414.299L626.619 505.193L564.14 571.442L555.854 579.12C555.854 579.12 557.468 583.967 565.153 581.138C572.839 578.308 639.958 518.918 639.958 518.918L650.78 452.263C650.78 452.263 644.205 436.932 646.115 414.299Z" fill="#384170"/>
<path d="M687.922 349.013L763.104 382.177H798.972L802.247 477.289L805.438 472.914L809.478 367.235L753.095 369.755L687.922 349.856" fill="#384170"/>
<path d="M322.042 608.199C322.042 608.199 332.96 786.89 416.737 781.182H334.234L322.042 608.199Z" fill="#384170"/>
<path d="M286.574 570.382C286.574 570.382 224.44 537.302 217.768 557.905C211.095 578.507 196.24 781.182 196.24 781.182H192.291C192.291 781.182 189.155 740.244 189.864 733.027C190.574 725.81 203.21 537.702 203.21 537.702C203.21 537.702 210.64 531.715 226.739 536.024C242.838 540.332 281.23 567.116 286.574 570.382Z" fill="#384170"/>
<path d="M390.811 572.442C390.811 572.442 430.477 579.968 438.369 610.617L442.615 579.108C442.615 579.108 435.554 581.683 421.451 578.199C407.347 574.714 405.813 571.527 390.811 572.442Z" fill="#384170"/>
<path d="M699.459 162.93L699.326 163.021L698.901 163.306C698.525 163.572 697.979 163.984 697.318 164.56C695.49 166.156 693.937 168.042 692.72 170.141C691.907 171.543 691.279 173.044 690.852 174.607C690.369 176.357 690.136 178.166 690.16 179.982C690.204 181.945 690.493 183.895 691.022 185.787C691.537 187.804 692.144 189.78 692.842 191.761C693.539 193.743 694.249 195.706 694.995 197.627C695.377 198.591 695.759 199.536 696.135 200.475C696.511 201.414 696.924 202.329 697.306 203.238C698.089 205.056 698.859 206.783 699.623 208.425C700.388 210.067 701.109 211.606 701.795 213.03C704.537 218.708 706.551 222.405 706.551 222.405C706.551 222.405 704.403 218.769 701.455 213.2C700.715 211.8 699.927 210.285 699.114 208.668C698.301 207.05 697.458 205.335 696.608 203.553L695.335 200.826C694.93 199.893 694.512 198.954 694.079 198.009C693.26 196.1 692.447 194.149 691.701 192.167C690.955 190.186 690.251 188.162 689.663 186.187C689.018 184.195 688.622 182.131 688.486 180.042C688.297 176.266 689.136 172.509 690.913 169.171C691.614 167.84 692.443 166.58 693.387 165.408C694.112 164.502 694.9 163.65 695.747 162.857C696.293 162.339 696.866 161.849 697.464 161.391L697.955 161.027L698.143 160.9C698.409 160.719 698.737 160.651 699.053 160.712C699.369 160.772 699.648 160.955 699.829 161.221C700.01 161.487 700.078 161.814 700.018 162.13C699.958 162.446 699.774 162.725 699.508 162.906V162.906L699.459 162.93Z" fill="#384170"/>
<path d="M364.091 215.267C364.091 215.267 353.045 219.636 335.15 206.529C317.256 193.422 302.521 203.917 302.521 203.917L296.413 202.178L300.556 191.089L302.521 183.726C302.521 183.726 306.713 179.485 312.991 183.199C319.269 186.914 347.84 213.97 364.17 212.709L364.091 215.267Z" fill="#384170"/>
<path d="M291.032 371.064C291.032 371.064 224.992 383.226 220.061 417.723L226.576 371.943C226.576 371.943 266.477 381.771 291.032 371.064Z" fill="#384170"/>
<path d="M544.238 477.901C544.238 477.901 511.342 479.518 513.478 505.459L508.188 482.348C508.188 482.348 519.246 474.253 544.238 477.901Z" fill="#384170"/>
<path d="M673.776 223.95C673.552 222.489 672.63 221.805 671.78 223.017C668.602 227.549 663.015 235.705 663.015 237.148C663.015 238.444 668.256 239.408 672.017 239.935C673.994 240.208 674.783 238.887 674.728 236.905C674.653 232.572 674.335 228.247 673.776 223.95V223.95Z" fill="white" stroke="#384170" stroke-width="4" stroke-linecap="round" stroke-linejoin="round"/>
<path d="M833.838 243.292C833.838 243.292 824.97 251.491 824.97 254.114C824.97 256.738 832.856 258.962 832.856 258.962C832.856 258.962 836.635 249.036 833.838 243.292Z" fill="white" stroke="#384170" stroke-width="4" stroke-linecap="round" stroke-linejoin="round"/>
<path d="M305.779 167.517C305.779 167.517 307.453 181 307.599 183.726C307.744 186.453 297.741 185.241 297.135 183.272C296.528 181.303 304.566 169.335 305.779 167.517Z" fill="white" stroke="#384170" stroke-width="4" stroke-linecap="round" stroke-linejoin="round"/>
<path d="M693.677 217.644C694.145 215.633 693.58 213.783 692.415 213.513C691.25 213.243 689.926 214.654 689.458 216.665C688.99 218.676 689.556 220.526 690.721 220.796C691.886 221.067 693.209 219.656 693.677 217.644Z" fill="#384170"/>
<path d="M670.539 212.253C670.788 210.204 670.028 208.425 668.841 208.281C667.653 208.137 666.489 209.682 666.239 211.731C665.99 213.781 666.75 215.56 667.937 215.704C669.125 215.848 670.289 214.303 670.539 212.253Z" fill="#384170"/>
<path d="M666.127 201.008C666.127 201.008 671.204 197.221 674.389 202.978" stroke="#384170" stroke-width="4" stroke-linecap="round" stroke-linejoin="round"/>
<path d="M692.799 204.517C692.799 204.517 697.755 203.384 701.176 209.837" stroke="#384170" stroke-width="4" stroke-linecap="round" stroke-linejoin="round"/>
<path d="M669.244 250.091C669.244 250.091 675.098 254.472 682.147 251.03" stroke="#384170" stroke-width="4" stroke-linecap="round" stroke-linejoin="round"/>
<path d="M423.042 103.561C423.471 101.513 422.755 99.6316 421.443 99.3576C420.132 99.0836 418.721 100.521 418.292 102.569C417.864 104.616 418.58 106.498 419.891 106.772C421.203 107.046 422.614 105.608 423.042 103.561Z" fill="#384170"/>
<path d="M291.409 166.884C291.646 165.052 290.888 163.444 289.716 163.292C288.543 163.14 287.399 164.502 287.162 166.334C286.924 168.166 287.682 169.774 288.854 169.926C290.027 170.078 291.171 168.716 291.409 166.884Z" fill="#384170"/>
<path d="M424.926 91.621C424.926 91.621 417.647 88.2882 412.491 93.7418" stroke="#384170" stroke-width="4" stroke-linecap="round" stroke-linejoin="round"/>
<path d="M404.599 139.443C404.599 139.443 407.839 147.866 418.151 146.46" stroke="#384170" stroke-width="4" stroke-linecap="round" stroke-linejoin="round"/>
<path d="M291.487 154.64C291.487 154.64 285.713 153.429 281.782 159.488" stroke="#384170" stroke-width="4" stroke-linecap="round" stroke-linejoin="round"/>
<path d="M284.427 189.447C284.427 189.447 288.533 194.088 294.211 192.131" stroke="#384170" stroke-width="4" stroke-linecap="round" stroke-linejoin="round"/>
<path d="M848.072 243.315C848.496 241.524 848.047 239.884 847.069 239.653C846.091 239.422 844.955 240.687 844.53 242.478C844.106 244.269 844.555 245.908 845.533 246.139C846.511 246.371 847.648 245.106 848.072 243.315Z" fill="#384170"/>
<path d="M846.316 233.112C846.316 233.112 850.453 232.3 853.486 238.16" stroke="#384170" stroke-width="4" stroke-linecap="round" stroke-linejoin="round"/>
<path d="M835.137 267.246C835.137 267.246 839.334 270.075 843.781 267.246" stroke="#384170" stroke-width="4" stroke-linecap="round" stroke-linejoin="round"/>
<path d="M8.94727 781.182H1108.21" stroke="#384170" stroke-width="6" stroke-linecap="round" stroke-linejoin="round"/>
<path d="M205.648 146.46H1.81976V434.817H216.858" stroke="#384170" stroke-width="6" stroke-linecap="round" stroke-linejoin="round"/>
<path d="M220.558 414.402H1.81976" stroke="#384170" stroke-width="6" stroke-linecap="round" stroke-linejoin="round"/>
<path d="M427.814 146.46H856.222" stroke="#384170" stroke-width="6" stroke-linecap="round" stroke-linejoin="round"/>
<path d="M785.875 202.971L878.411 129.42L1166.18 356.351L1148.89 378.166L878.411 164.166L791.644 231.336" stroke="#384170" stroke-width="6" stroke-linecap="round" stroke-linejoin="round"/>
<path d="M526.677 354.685H592.492L606.141 344.081" stroke="#384170" stroke-width="6" stroke-linecap="round" stroke-linejoin="round"/>
<path d="M1119.22 354.685V709.376H855.106" stroke="#384170" stroke-width="6" stroke-linecap="round" stroke-linejoin="round"/>
<path d="M915.056 447.542H1065.18V624.488H866.649" stroke="#384170" stroke-width="6" stroke-linecap="round" stroke-linejoin="round"/>
<path d="M994.817 447.542V624.488" stroke="#384170" stroke-width="6" stroke-linecap="round" stroke-linejoin="round"/>
<path d="M440.795 477.289H490.384" stroke="#384170" stroke-width="6" stroke-linecap="round" stroke-linejoin="round"/>
<path d="M549.648 477.289H562.114V519.245" stroke="#384170" stroke-width="6" stroke-linecap="round" stroke-linejoin="round"/>
<path d="M562.114 579.114V693.064" stroke="#384170" stroke-width="6" stroke-linecap="round" stroke-linejoin="round"/>
<path d="M426.437 704.722H526.931" stroke="#384170" stroke-width="6" stroke-linecap="round" stroke-linejoin="round"/>
<path d="M533.349 379.529H600.226" stroke="#384170" stroke-width="6" stroke-linecap="round" stroke-linejoin="round"/>
<path d="M458.174 354.685H450.852" stroke="#384170" stroke-width="6" stroke-linecap="round" stroke-linejoin="round"/>
<path d="M466.775 379.529H447.364" stroke="#384170" stroke-width="6" stroke-linecap="round" stroke-linejoin="round"/>
<path d="M1041.52 709.376V780.388" stroke="#384170" stroke-width="6" stroke-linecap="round" stroke-linejoin="round"/>
<path d="M57.293 434.817V704.722" stroke="#384170" stroke-width="6" stroke-linecap="round" stroke-linejoin="round"/>
<path d="M191.897 704.722H38.8221V780.388" stroke="#384170" stroke-width="6" stroke-linecap="round" stroke-linejoin="round"/>
<path d="M84.9234 434.817V704.722" stroke="#384170" stroke-width="6" stroke-linecap="round" stroke-linejoin="round"/>
<path d="M84.9234 589.948H199.697" stroke="#384170" stroke-width="6" stroke-linecap="round" stroke-linejoin="round"/>
<path d="M106.154 591.463V685.689" stroke="#384170" stroke-width="6" stroke-linecap="round" stroke-linejoin="round"/>
<path d="M132.038 591.463V685.689" stroke="#384170" stroke-width="6" stroke-linecap="round" stroke-linejoin="round"/>
<path d="M157.915 591.463V685.689" stroke="#384170" stroke-width="6" stroke-linecap="round" stroke-linejoin="round"/>
<path d="M183.799 591.463V685.689" stroke="#384170" stroke-width="6" stroke-linecap="round" stroke-linejoin="round"/>
<path d="M212.108 465.121H151.849V575.011" stroke="#384170" stroke-width="6" stroke-linecap="round" stroke-linejoin="round"/>
<path d="M792.639 238.159L881.39 185.774L1119.22 404.525L1120.02 355.321L878.411 164.166L791.99 231.07L792.639 238.159Z" fill="#384170"/>
<path d="M851.86 713.163L1041.52 739.529V710.685H853.28L851.86 713.163Z" fill="#384170"/>
<path d="M445.672 385.401L468.826 389.812V379.529H446.503L445.672 385.401Z" fill="#384170"/>
<path d="M532.3 379.529L536.334 395.26L598.237 406.161L602.126 379.529H532.3Z" fill="#384170"/>
<path d="M57.293 455.226L84.9234 445.53V435.962H57.293V455.226Z" fill="#384170"/>
<path d="M219.509 420.262L1.44368 424.14L1.06152 413.463L220.085 414.402L219.509 420.262Z" fill="#384170"/>
<path d="M38.8221 757.495L153.062 781.182H38.8221V757.495Z" fill="#384170"/>
</g>
<defs>
<clipPath id="clip0_1121_37">
<rect width="1168" height="782.206" fill="white" transform="translate(0 0.793945)"/>
</clipPath>
</defs>
</svg>
