<svg id="Layer_1" data-name="Layer 1" xmlns="http://www.w3.org/2000/svg" viewBox="0 0 512 512"><path d="M414.93836,434.94819l-333.542-14.63146a11.79438,11.79438,0,0,1-11.26616-12.3l14.63146-333.542a11.79439,11.79439,0,0,1,12.29993-11.2662L430.60361,77.84a11.79442,11.79442,0,0,1,11.2662,12.3L427.23835,423.682A11.79444,11.79444,0,0,1,414.93836,434.94819Z" fill="#fff"/><path d="M402.576,403.69844a5.16357,5.16357,0,0,1-5.38491,4.93232l-29.71556-1.30353a22.23808,22.23808,0,0,0-16.83267,6.62659h0l53.32881,2.33937a5.41161,5.41161,0,0,0,5.64358-5.16926L423.2148,101.10659v0a24.11491,24.11491,0,0,0-8.11084,17.00249Z" fill="#f4f6f9"/><path d="M404.21191,417.29785c-.09472,0-.18847-.00195-.28418-.00586h0L93.91064,403.69238a6.4187,6.4187,0,0,1-6.12451-6.68652l13.59961-310.0166a6.412,6.412,0,0,1,6.68653-6.125L418.08984,94.46387a6.41891,6.41891,0,0,1,6.124,6.68652L410.61426,411.168A6.41906,6.41906,0,0,1,404.21191,417.29785Zm-.19629-2.0039a4.4144,4.4144,0,0,0,4.60059-4.21387L422.21582,101.0625a4.41648,4.41648,0,0,0-4.21387-4.60059L107.98438,82.8623a4.412,4.412,0,0,0-4.60059,4.21485L89.78418,397.09375a4.41655,4.41655,0,0,0,4.21436,4.60059Z" fill="#304e86"/><path d="M111.125,435.99377l-19.06437-.8363a4.94225,4.94225,0,0,1-4.72092-5.1541l.4127-9.40783,32.50609,1.42595-4.3252,10.863A4.94231,4.94231,0,0,1,111.125,435.99377Z" fill="#fff"/><path d="M111.34131,436.999c-.08643,0-.17285-.00195-.25977-.00586h-.00049l-19.06445-.83691a5.94143,5.94143,0,0,1-5.67578-6.19727l.4126-9.40722a.99886.99886,0,0,1,.32373-.69336.97488.97488,0,0,1,.71924-.26172l32.50586,1.42578a1.00013,1.00013,0,0,1,.88525,1.36914l-4.3252,10.86328A5.949,5.949,0,0,1,111.34131,436.999Zm-.17285-2.0039a3.932,3.932,0,0,0,3.83545-2.48047l3.80468-9.55567-30.10107-1.32031-.36865,8.40821A3.94153,3.94153,0,0,0,92.104,434.1582l19.06495.83692Z" fill="#304e86"/><path d="M383.95117,447.96181l19.0644.8363a4.94227,4.94227,0,0,0,5.1541-4.72092l.4127-9.40782-32.5061-1.42594,3.35736,11.2A4.94227,4.94227,0,0,0,383.95117,447.96181Z" fill="#fff"/><path d="M403.23926,449.80273c-.08887,0-.17774-.002-.26758-.00585l-19.06445-.83594a5.94606,5.94606,0,0,1-5.43164-4.23047l-3.35743-11.2002a.99883.99883,0,0,1,.16895-.90136,1.00919,1.00919,0,0,1,.833-.38477l32.50586,1.42578a1,1,0,0,1,.95507,1.043l-.4121,9.4082a5.94256,5.94256,0,0,1-5.92969,5.68164Zm-25.80078-15.499,2.95312,9.85254a3.94387,3.94387,0,0,0,3.60352,2.80664h0l19.06445.83594a3.96547,3.96547,0,0,0,4.11133-3.76563l.36816-8.40918Z" fill="#304e86"/><path d="M87.75229,420.59557l-.23219,5.29313,17.08263.74936a5.40736,5.40736,0,0,1,4.78682,7.40241l-.73464,1.845,2.47.10835a4.94219,4.94219,0,0,0,4.80818-3.1092l4.32526-10.86309Z" fill="#304e86"/><path d="M376.07633,433.24346l1.61089,5.374,17.43858.765a5.40735,5.40735,0,0,1,5.16515,5.6391l-.16012,3.65009,2.88468.12654a4.94239,4.94239,0,0,0,5.15423-4.721l.41269-9.4077Z" fill="#304e86"/><path d="M424.05856,167.40446l-7.48968-.32855a3.32224,3.32224,0,0,1-3.17345-3.46464l1.43329-32.67358a3.32225,3.32225,0,0,1,3.46464-3.17345l7.48968.32855a3.32225,3.32225,0,0,1,3.17345,3.46464L427.5232,164.231A3.32224,3.32224,0,0,1,424.05856,167.40446Z" fill="#304e86"/><path d="M414.53673,384.46634l-7.48969-.32855a3.32222,3.32222,0,0,1-3.17344-3.46464l1.43328-32.67356a3.32225,3.32225,0,0,1,3.46464-3.17345l7.48969.32855a3.32225,3.32225,0,0,1,3.17345,3.46464l-1.43329,32.67356A3.32223,3.32223,0,0,1,414.53673,384.46634Z" fill="#304e86"/><path d="M427.23836,423.682l7.4704-170.29673-1.0949,1.88228a41.96223,41.96223,0,0,0-5.64978,19.25986l-6.29389,143.477a11.41089,11.41089,0,0,1-11.9,10.89985l-152.54373-6.69162a23.41034,23.41034,0,0,0-15.67779,5.12949h0l173.38971,7.60608A11.79444,11.79444,0,0,0,427.23836,423.682Z" fill="#f4f6f9"/><path d="M128.08984,258.78418q-.3435,0-.688-.01465a15.32032,15.32032,0,1,1,.688.01465Zm-.02392-28.63574a13.31308,13.31308,0,1,0,.59082.01269C128.45947,230.15234,128.26172,230.14844,128.06592,230.14844Z" fill="#304e86"/><path d="M120.34505,255.50562a14.29921,14.29921,0,0,0,22.03238-11.41149,14.37758,14.37758,0,0,0-.16041-2.861l-11.4818-1.1823Z" fill="#304e86"/><path d="M184.60237,245.94639v0a7.71526,7.71526,0,0,1-8.046,7.36972l-42.69678-1.873a7.71526,7.71526,0,0,1-7.36972-8.046v0a7.71525,7.71525,0,0,1,8.046-7.36972l42.69678,1.873A7.71526,7.71526,0,0,1,184.60237,245.94639Z" fill="#fff"/><path d="M176.89893,254.32422c-.12842,0-.25635-.00293-.38623-.00879l-42.69678-1.873a8.7154,8.7154,0,1,1,.76367-17.41406l42.69678,1.873a8.7156,8.7156,0,0,1,8.32519,9.08886h0A8.72787,8.72787,0,0,1,176.89893,254.32422Zm-42.70459-17.30469a6.71562,6.71562,0,0,0-.29053,13.42481l42.69678,1.873a6.71542,6.71542,0,1,0,.58789-13.418l-42.69678-1.873C134.39209,237.02246,134.293,237.01953,134.19434,237.01953Zm50.4082,8.92676h0Z" fill="#304e86"/><path d="M415.46191,435.96c-.18847,0-.37695-.00391-.56738-.01269l-333.542-14.63184a12.79314,12.79314,0,0,1-12.22119-13.34277L83.7627,74.43066A12.79309,12.79309,0,0,1,97.10547,62.21l333.542,14.63086a12.81,12.81,0,0,1,12.22168,13.34277l-14.63184,333.542A12.81145,12.81145,0,0,1,415.46191,435.96Zm-.47949-2.01074a10.81254,10.81254,0,0,0,11.25684-10.31152l14.63183-333.542a10.8081,10.8081,0,0,0-10.31152-11.25683L97.01758,64.208A10.7931,10.7931,0,0,0,85.76074,74.51855l-14.63135,333.542a10.79392,10.79392,0,0,0,10.311,11.25683Z" fill="#304e86"/><path d="M347.68717,303.62466a71.694,71.694,0,0,1-101.29337-4.44338l-5.56939,5.1013A79.24668,79.24668,0,1,0,357.7,197.23l-5.56939,5.1013A71.694,71.694,0,0,1,347.68717,303.62466Z" fill="#f4f6f9"/><path d="M299.56738,348.78516q-2.16064,0-4.33789-.09571a97.7557,97.7557,0,1,1,4.33789.09571Zm-.10254-193.59571a95.797,95.797,0,0,0-4.14746,191.502c1.41992.0625,2.84082.09277,4.249.09375a95.797,95.797,0,0,0,4.14746-191.502C302.294,155.2207,300.87305,155.18945,299.46484,155.18945Z" fill="#304e86"/><path d="M299.5459,323.64746a72.65792,72.65792,0,1,1,49.07031-19.05469A72.51962,72.51962,0,0,1,299.5459,323.64746Zm-.05957-143.32129a70.66307,70.66307,0,1,0,52.16015,22.91211A70.42328,70.42328,0,0,0,299.48633,180.32617Z" fill="#304e86"/><path d="M302.65918,180.3623c-.01465,0-.03027,0-.04492-.001a1,1,0,0,1-.95508-1.043l.502-11.44336a1,1,0,1,1,1.998.08789l-.50195,11.44336A.99934.99934,0,0,1,302.65918,180.3623Z" fill="#304e86"/><path d="M295.87305,335.05566c-.01465,0-.03028,0-.04493-.001a1,1,0,0,1-.95507-1.043l.502-11.44336a1,1,0,1,1,1.998.08789l-.502,11.44336A.99933.99933,0,0,1,295.87305,335.05566Z" fill="#304e86"/><path d="M352.38379,203.5625a1,1,0,0,1-.67578-1.7373l8.44629-7.73633a1.00015,1.00015,0,0,1,1.35156,1.47461l-8.44629,7.73632A.999.999,0,0,1,352.38379,203.5625Z" fill="#304e86"/><path d="M238.20166,308.14844a.99978.99978,0,0,1-.67578-1.73731l8.44629-7.73633a.99982.99982,0,1,1,1.35058,1.47461l-8.44629,7.73633A.99574.99574,0,0,1,238.20166,308.14844Z" fill="#304e86"/><path d="M382.585,255.63086c-.01465,0-.03027,0-.04492-.001l-11.44336-.502a1,1,0,0,1,.08789-1.998l11.44336.502a1,1,0,0,1-.043,1.999Z" fill="#304e86"/><path d="M227.8916,248.8457c-.01514,0-.02978,0-.04492-.001l-11.44287-.502a1,1,0,0,1-.95508-1.043,1.01019,1.01019,0,0,1,1.043-.95507l11.44287.50195a1,1,0,0,1-.043,1.999Z" fill="#304e86"/><path d="M355.67676,313.30176a.99834.99834,0,0,1-.73731-.32422l-7.73633-8.44629a1.00015,1.00015,0,1,1,1.47461-1.35156l7.73633,8.44629a1,1,0,0,1-.7373,1.67578Z" fill="#304e86"/><path d="M251.09131,199.11914a.99853.99853,0,0,1-.73779-.32422l-7.73633-8.44629a1.00015,1.00015,0,0,1,1.47461-1.35156l7.73632,8.44629a1.00025,1.00025,0,0,1-.73681,1.67578Z" fill="#304e86"/><path d="M301.20494,212.48292a38.54138,38.54138,0,1,0,36.81525,40.19339A38.5413,38.5413,0,0,0,301.20494,212.48292Zm-2.97479,67.81394a29.33777,29.33777,0,1,1,30.59528-28.0239A29.33772,29.33772,0,0,1,298.23015,280.29686Z" fill="#304e86"/><path d="M301.35127,268.88222a18.01387,18.01387,0,0,0,15.82962-14.49662q.02552-.13616.04893-.27206c1.21721-7.06327-7.331-11.60016-12.61634-6.75905l-17.81618,16.3187A17.92007,17.92007,0,0,0,301.35127,268.88222Z" fill="#f4f6f9"/><circle cx="299.51587" cy="250.98729" r="10.33" transform="translate(35.64357 539.21599) rotate(-87.48823)" fill="#304e86"/><path d="M299.53613,269.97168q-.4248,0-.85254-.01856a18.96431,18.96431,0,1,1,.85254.01856Zm-.03906-35.96875a16.99954,16.99954,0,1,0,.7627.0166Q299.87744,234.00342,299.49707,234.00293Z" fill="#304e86"/><path d="M300.335,233.33887c-.01465,0-.03027,0-.04492-.001a1,1,0,0,1-.95508-1.043l.13086-2.97949a1.01648,1.01648,0,0,1,1.043-.95508,1,1,0,0,1,.95508,1.043l-.13086,2.97949A.99935.99935,0,0,1,300.335,233.33887Z" fill="#304e86"/><path d="M298.56836,273.61523c-.01465,0-.03027,0-.04492-.001a1,1,0,0,1-.95508-1.043l.13086-2.97949a1,1,0,1,1,1.998.08789l-.13086,2.97949A.99934.99934,0,0,1,298.56836,273.61523Z" fill="#304e86"/><path d="M313.28125,239.37891a1,1,0,0,1-.67578-1.73731l2.19922-2.01465a1.00015,1.00015,0,0,1,1.35156,1.47461l-2.19922,2.01465A.999.999,0,0,1,313.28125,239.37891Z" fill="#304e86"/><path d="M283.55176,266.60938a1,1,0,0,1-.67578-1.73731l2.19922-2.01367a1.00015,1.00015,0,0,1,1.35156,1.47461l-2.19922,2.01367A.999.999,0,0,1,283.55176,266.60938Z" fill="#304e86"/><path d="M321.14453,252.93652c-.01465,0-.03027,0-.04492-.001l-2.97852-.13086a1,1,0,0,1,.08789-1.99805l2.97852.13086a1,1,0,0,1-.043,1.999Z" fill="#304e86"/><path d="M280.86816,251.169c-.01464,0-.03027,0-.04492-.001l-2.97949-.13086a1,1,0,1,1,.08789-1.99805l2.97949.13086a1,1,0,0,1-.043,1.999Z" fill="#304e86"/><path d="M314.13867,267.95117a.99827.99827,0,0,1-.7373-.32422l-2.01465-2.19824a1.00015,1.00015,0,1,1,1.47461-1.35156l2.01465,2.19824a1,1,0,0,1-.73731,1.67578Z" fill="#304e86"/><path d="M286.90723,238.22168a.99834.99834,0,0,1-.73731-.32422l-2.01367-2.19824a1.00015,1.00015,0,1,1,1.47461-1.35156l2.01367,2.19824a1,1,0,0,1-.7373,1.67578Z" fill="#304e86"/><path d="M299.74023,246.88574c-.01464,0-.03027,0-.04492-.001a1,1,0,0,1-.95508-1.043l.06543-1.48535a1,1,0,0,1,1.99805.08789l-.06543,1.48535A.99934.99934,0,0,1,299.74023,246.88574Z" fill="#fff"/></svg>