<svg width="242" height="309" viewBox="0 0 242 309" fill="none" xmlns="http://www.w3.org/2000/svg">
<path d="M163.272 175.987L5.79661 169.079C5.06605 169.047 4.34895 168.871 3.68626 168.562C3.02357 168.253 2.42827 167.816 1.93435 167.277C1.44043 166.738 1.05755 166.106 0.807588 165.419C0.557624 164.732 0.445468 164.002 0.47752 163.272L7.38547 5.79638C7.41751 5.06582 7.59314 4.34873 7.90232 3.68604C8.2115 3.02335 8.64818 2.42805 9.18743 1.93412C9.72667 1.4402 10.3579 1.05732 11.0451 0.807356C11.7324 0.557389 12.4621 0.445227 13.1926 0.477274L170.668 7.38523C171.398 7.41727 172.115 7.5929 172.778 7.90209C173.441 8.21127 174.036 8.64796 174.53 9.1872C175.024 9.72645 175.407 10.3577 175.657 11.0449C175.907 11.7321 176.019 12.4619 175.987 13.1924L169.079 170.668C169.014 172.143 168.366 173.532 167.277 174.53C166.188 175.527 164.747 176.051 163.272 175.987V175.987Z" fill="white"/>
<path d="M157.435 161.233C157.421 161.553 157.344 161.867 157.208 162.157C157.073 162.447 156.882 162.708 156.646 162.924C156.41 163.14 156.133 163.308 155.833 163.417C155.532 163.527 155.212 163.576 154.892 163.562L140.863 162.946C139.393 162.882 137.926 163.127 136.557 163.666C135.188 164.205 133.947 165.026 132.916 166.075V166.075L158.094 167.179C158.429 167.194 158.764 167.142 159.079 167.028C159.394 166.913 159.684 166.737 159.931 166.511C160.179 166.284 160.379 166.011 160.521 165.707C160.663 165.403 160.743 165.074 160.758 164.739L167.179 18.3702C166.035 19.3828 165.106 20.6154 164.448 21.9945C163.79 23.3737 163.417 24.8711 163.35 26.3976L157.435 161.233Z" fill="#F4F6F9"/>
<path d="M158.207 167.654C158.163 167.654 158.118 167.653 158.073 167.651L11.7049 161.23C10.9031 161.194 10.1484 160.841 9.60629 160.25C9.0642 159.658 8.77902 158.875 8.81332 158.073L15.2341 11.705C15.2693 10.9029 15.6216 10.1476 16.2137 9.6053C16.8057 9.06299 17.5889 8.77806 18.391 8.81321L164.76 15.234C165.561 15.2701 166.316 15.6228 166.858 16.2146C167.4 16.8064 167.685 17.5891 167.651 18.3909L161.23 164.759C161.195 165.538 160.861 166.273 160.298 166.812C159.736 167.351 158.987 167.652 158.207 167.654ZM158.115 166.707C158.666 166.731 159.205 166.535 159.612 166.162C160.02 165.789 160.262 165.27 160.287 164.718L166.708 18.3494C166.731 17.7977 166.535 17.2592 166.162 16.852C165.789 16.4448 165.27 16.2022 164.718 16.1773L18.3495 9.75654C17.7976 9.7324 17.2587 9.92849 16.8514 10.3017C16.444 10.6749 16.2016 11.1946 16.1774 11.7465L9.75666 158.115C9.73309 158.666 9.92934 159.205 10.3024 159.612C10.6754 160.019 11.1947 160.262 11.7464 160.287L158.115 166.707Z" fill="#304E86"/>
<path d="M19.8321 176.48L10.8312 176.086C10.5251 176.072 10.2246 175.999 9.94692 175.869C9.66923 175.739 9.41978 175.556 9.21281 175.33C9.00584 175.105 8.8454 174.84 8.74066 174.552C8.63591 174.264 8.58891 173.958 8.60234 173.652L8.79719 169.21L24.1443 169.884L22.1022 175.012C21.923 175.462 21.6082 175.846 21.2014 176.109C20.7946 176.372 20.3161 176.502 19.8321 176.48V176.48Z" fill="white"/>
<path d="M19.9341 176.955C19.8933 176.955 19.8525 176.954 19.8115 176.952H19.8112L10.8104 176.557C10.4423 176.541 10.081 176.453 9.74707 176.297C9.41318 176.141 9.11325 175.921 8.86441 175.649C8.61556 175.378 8.42268 175.06 8.29678 174.713C8.17088 174.367 8.11443 173.999 8.13065 173.631L8.32545 169.19C8.32816 169.128 8.34305 169.067 8.36928 169.011C8.3955 168.955 8.43255 168.904 8.47829 168.863C8.52363 168.82 8.57709 168.787 8.63545 168.766C8.6938 168.745 8.75586 168.736 8.81787 168.739L24.1649 169.412C24.2401 169.415 24.3135 169.437 24.3789 169.474C24.4443 169.512 24.4997 169.564 24.5406 169.627C24.5816 169.691 24.6067 169.763 24.6141 169.838C24.6214 169.913 24.6107 169.989 24.5828 170.059L22.5408 175.187C22.3327 175.709 21.9731 176.156 21.5085 176.471C21.0439 176.786 20.4955 176.955 19.9341 176.955V176.955ZM19.8525 176.009C20.2387 176.027 20.6208 175.923 20.9454 175.713C21.27 175.503 21.521 175.197 21.6633 174.838L23.4597 170.326L9.24804 169.703L9.07399 173.673C9.06322 173.917 9.10067 174.161 9.18418 174.391C9.26769 174.62 9.39564 174.831 9.56072 175.012C9.72579 175.192 9.92476 175.338 10.1463 175.441C10.3677 175.544 10.6074 175.603 10.8516 175.614L19.8528 176.009L19.8525 176.009Z" fill="#304E86"/>
<path d="M148.642 182.131L157.643 182.526C158.261 182.553 158.865 182.333 159.321 181.915C159.777 181.497 160.049 180.915 160.076 180.297L160.271 175.855L144.924 175.182L146.509 180.47C146.648 180.934 146.928 181.343 147.31 181.641C147.692 181.938 148.158 182.11 148.642 182.131Z" fill="white"/>
<path d="M157.748 183C157.706 183 157.664 182.999 157.622 182.997L148.621 182.603C148.039 182.577 147.48 182.371 147.02 182.013C146.561 181.655 146.224 181.163 146.057 180.605L144.472 175.317C144.45 175.245 144.446 175.169 144.46 175.095C144.474 175.021 144.505 174.951 144.551 174.892C144.598 174.833 144.658 174.785 144.726 174.754C144.795 174.722 144.869 174.707 144.945 174.71L160.292 175.383C160.354 175.386 160.414 175.401 160.471 175.427C160.527 175.453 160.577 175.49 160.619 175.536C160.661 175.582 160.693 175.635 160.715 175.694C160.736 175.752 160.745 175.814 160.743 175.876L160.548 180.318C160.516 181.039 160.208 181.721 159.686 182.22C159.165 182.72 158.471 182.999 157.748 183V183ZM145.567 175.682L146.961 180.334C147.072 180.704 147.296 181.031 147.601 181.268C147.905 181.505 148.277 181.642 148.663 181.659V181.659L157.664 182.054C158.156 182.073 158.636 181.897 158.999 181.564C159.363 181.231 159.58 180.768 159.605 180.276L159.778 176.306L145.567 175.682Z" fill="#304E86"/>
<path d="M8.79761 169.21L8.68799 171.709L16.7532 172.063C17.1602 172.081 17.557 172.196 17.9105 172.399C18.264 172.601 18.5639 172.885 18.7851 173.228C19.0063 173.57 19.1425 173.96 19.1822 174.365C19.2218 174.771 19.1639 175.18 19.0132 175.558L18.6664 176.429L19.8325 176.48C20.3165 176.502 20.795 176.372 21.2018 176.109C21.6086 175.846 21.9234 175.463 22.1026 175.012L24.1447 169.884L8.79761 169.21Z" fill="#304E86"/>
<path d="M144.924 175.182L145.684 177.719L153.918 178.08C154.594 178.11 155.231 178.407 155.688 178.906C156.146 179.406 156.386 180.066 156.356 180.743L156.281 182.466L157.643 182.526C158.261 182.553 158.865 182.333 159.321 181.915C159.777 181.497 160.049 180.915 160.076 180.297L160.271 175.855L144.924 175.182Z" fill="#304E86"/>
<path d="M167.577 49.6712L164.041 49.5161C163.626 49.4978 163.234 49.3153 162.953 49.0085C162.672 48.7017 162.525 48.2959 162.543 47.8803L163.22 32.4541C163.238 32.0385 163.421 31.6472 163.727 31.3662C164.034 31.0852 164.44 30.9376 164.855 30.9559L168.392 31.111C168.807 31.1292 169.199 31.3118 169.479 31.6186C169.76 31.9253 169.908 32.3311 169.89 32.7467L169.213 48.1729C169.204 48.3787 169.155 48.5807 169.068 48.7673C168.98 48.954 168.857 49.1217 168.706 49.2608C168.554 49.4 168.376 49.5078 168.182 49.5782C167.989 49.6486 167.783 49.6802 167.577 49.6712V49.6712Z" fill="#304E86"/>
<path d="M163.082 152.153L159.546 151.998C159.34 151.989 159.138 151.939 158.951 151.852C158.765 151.765 158.597 151.642 158.458 151.49C158.319 151.338 158.211 151.16 158.14 150.967C158.07 150.773 158.038 150.568 158.047 150.362L158.724 134.936C158.742 134.52 158.925 134.129 159.232 133.848C159.538 133.567 159.944 133.419 160.36 133.438L163.896 133.593C164.312 133.611 164.703 133.793 164.984 134.1C165.265 134.407 165.412 134.813 165.394 135.228L164.718 150.655C164.709 150.86 164.659 151.062 164.572 151.249C164.485 151.436 164.362 151.603 164.21 151.743C164.058 151.882 163.88 151.989 163.687 152.06C163.493 152.13 163.288 152.162 163.082 152.153V152.153Z" fill="#304E86"/>
<path d="M169.079 170.668L172.606 90.2654L172.089 91.1541C170.477 93.9247 169.562 97.045 169.421 100.247L166.45 167.987C166.387 169.414 165.76 170.759 164.707 171.724C163.653 172.689 162.259 173.196 160.832 173.133L88.8111 169.974C86.1317 169.856 83.5009 170.717 81.4092 172.396V172.396L163.272 175.987C164.747 176.051 166.188 175.527 167.277 174.53C168.366 173.532 169.014 172.143 169.079 170.668V170.668Z" fill="#F4F6F9"/>
<path d="M27.8422 92.8145C27.7341 92.8145 27.6258 92.8122 27.5174 92.8076C25.6149 92.7243 23.8221 91.8941 22.5279 90.4972C21.2336 89.1003 20.5425 87.2494 20.6044 85.3461C20.6663 83.4429 21.4763 81.6408 22.8586 80.331C24.2409 79.0211 26.0839 78.3092 27.9878 78.3498C29.8916 78.3903 31.7027 79.18 33.0279 80.5475C34.3532 81.915 35.0857 83.7499 35.0666 85.6541C35.0474 87.5583 34.2781 89.3781 32.9256 90.7186C31.5731 92.0592 29.7465 92.8123 27.8422 92.8145V92.8145ZM27.8309 79.2947C26.176 79.2959 24.5883 79.9497 23.4125 81.1143C22.2366 82.2788 21.5675 83.8601 21.5503 85.515C21.5331 87.1698 22.1693 88.7647 23.3207 89.9534C24.4722 91.1421 26.046 91.8287 27.7005 91.8643C29.3551 91.8998 30.9569 91.2814 32.1583 90.1432C33.3597 89.005 34.0637 87.439 34.1176 85.7849C34.1715 84.1309 33.5709 82.5223 32.4462 81.3083C31.3214 80.0944 29.7632 79.373 28.1099 79.3007C28.0167 79.2966 27.9234 79.2947 27.8309 79.2947Z" fill="#304E86"/>
<path d="M24.1855 91.2664C25.1847 91.9103 26.3362 92.279 27.5236 92.3352C28.7109 92.3914 29.8921 92.1331 30.9476 91.5864C32.0031 91.0397 32.8956 90.224 33.5348 89.2218C34.1739 88.2195 34.5372 87.0663 34.5877 85.8787C34.6075 85.427 34.5821 84.9745 34.512 84.5279L29.0911 83.9697L24.1855 91.2664Z" fill="#304E86"/>
<path d="M54.5232 86.7535C54.5022 87.2314 54.3873 87.7004 54.1851 88.1339C53.9828 88.5674 53.6972 88.9568 53.3444 89.2799C52.9917 89.603 52.5787 89.8535 52.1292 90.017C51.6796 90.1805 51.2023 90.2539 50.7244 90.2329L30.566 89.3486C30.0881 89.3277 29.619 89.2128 29.1855 89.0105C28.752 88.8083 28.3626 88.5226 28.0395 88.1699C27.7164 87.8171 27.4659 87.4042 27.3024 86.9546C27.1389 86.5051 27.0655 86.0278 27.0865 85.5499V85.5499C27.1075 85.072 27.2224 84.6029 27.4246 84.1694C27.6269 83.7359 27.9125 83.3465 28.2653 83.0234C28.618 82.7003 29.0309 82.4498 29.4805 82.2863C29.93 82.1228 30.4074 82.0494 30.8853 82.0704L51.0437 82.9547C51.5216 82.9757 51.9907 83.0905 52.4242 83.2928C52.8577 83.4951 53.2471 83.7807 53.5702 84.1334C53.8933 84.4862 54.1437 84.8991 54.3072 85.3487C54.4708 85.7982 54.5441 86.2756 54.5232 86.7535V86.7535Z" fill="white"/>
<path d="M50.8857 90.7087C50.8251 90.7087 50.7647 90.7073 50.7033 90.7045L30.5449 89.8202C30.0049 89.7969 29.4747 89.6673 28.9847 89.439C28.4947 89.2107 28.0545 88.8881 27.6893 88.4895C27.324 88.091 27.0409 87.6244 26.856 87.1165C26.6711 86.6085 26.5882 86.0691 26.6119 85.529C26.6355 84.989 26.7654 84.4589 26.994 83.969C27.2227 83.4792 27.5456 83.0392 27.9443 82.6742C28.343 82.3092 28.8098 82.0263 29.3179 81.8417C29.826 81.6572 30.3654 81.5745 30.9055 81.5985L51.0639 82.4828C52.1542 82.5307 53.1808 83.0096 53.9179 83.8144C54.655 84.6191 55.0423 85.6837 54.9945 86.774V86.774C54.9467 87.8322 54.4931 88.8314 53.728 89.5641C52.9629 90.2968 51.945 90.7067 50.8857 90.7087V90.7087ZM30.7236 82.5386C29.8948 82.539 29.0992 82.8639 28.507 83.4437C27.9148 84.0235 27.5732 84.8121 27.5552 85.6407C27.5373 86.4692 27.8445 87.2719 28.411 87.8768C28.9776 88.4816 29.7584 88.8406 30.5864 88.8769L50.7448 89.7612C51.1608 89.7794 51.5763 89.7155 51.9676 89.5732C52.3588 89.4308 52.7182 89.2128 53.0253 88.9316C53.3323 88.6503 53.5809 88.3114 53.7569 87.934C53.9329 87.5567 54.0329 87.1484 54.0511 86.7324C54.0694 86.3165 54.0055 85.901 53.8631 85.5097C53.7208 85.1184 53.5028 84.759 53.2215 84.452C52.9403 84.145 52.6013 83.8964 52.224 83.7204C51.8467 83.5443 51.4384 83.4444 51.0224 83.4261L30.864 82.5418C30.8169 82.54 30.7702 82.5386 30.7236 82.5386Z" fill="#304E86"/>
<path d="M163.519 176.464C163.43 176.464 163.341 176.463 163.251 176.458L5.77582 169.55C4.9833 169.516 4.20538 169.325 3.48648 168.99C2.76759 168.654 2.12179 168.181 1.58599 167.596C1.05018 167.011 0.634855 166.326 0.36373 165.58C0.0926041 164.835 -0.0290122 164.043 0.00582854 163.251L6.91373 5.77557C6.94846 4.98307 7.13896 4.20518 7.47434 3.48631C7.80973 2.76744 8.28344 2.12167 8.86842 1.58589C9.45339 1.05011 10.1382 0.634808 10.8837 0.363699C11.6292 0.09259 12.4208 -0.0290144 13.2133 0.00583008L170.688 6.9135C172.288 6.98559 173.794 7.68929 174.876 8.87025C175.958 10.0512 176.527 11.613 176.459 13.213L169.551 170.688C169.48 172.242 168.815 173.709 167.692 174.784C166.568 175.86 165.074 176.462 163.519 176.464V176.464ZM163.292 175.515C164.642 175.572 165.96 175.092 166.956 174.179C167.952 173.266 168.546 171.996 168.607 170.647L175.515 13.1715C175.573 11.8216 175.093 10.504 174.18 9.50769C173.267 8.51138 171.997 7.91769 170.647 7.85684L13.1718 0.949146C12.5031 0.91975 11.8353 1.02235 11.2063 1.25109C10.5774 1.47982 9.99963 1.83022 9.5061 2.28226C9.01258 2.7343 8.61293 3.27913 8.32999 3.88564C8.04704 4.49214 7.88634 5.14844 7.85707 5.81706L0.949166 163.292C0.919823 163.961 1.02247 164.629 1.25124 165.258C1.48001 165.887 1.83042 166.464 2.28247 166.958C2.73453 167.451 3.27936 167.851 3.88587 168.134C4.49238 168.417 5.14868 168.578 5.8173 168.607L163.292 175.515Z" fill="#304E86"/>
<path d="M131.52 113.985C128.243 116.987 124.405 119.315 120.228 120.834C116.051 122.354 111.615 123.035 107.174 122.841C102.733 122.646 98.3744 121.578 94.3461 119.699C90.3179 117.819 86.6992 115.165 83.6969 111.887L81.0674 114.296C87.7698 121.613 97.1045 125.968 107.018 126.403C116.931 126.838 126.612 123.317 133.929 116.614C141.246 109.912 145.602 100.577 146.036 90.6639C146.471 80.7504 142.95 71.0702 136.248 63.7528L133.618 66.1613C136.621 69.4392 138.948 73.2763 140.468 77.4537C141.987 81.631 142.669 86.0668 142.474 90.5076C142.279 94.9484 141.212 99.3074 139.332 103.336C137.453 107.364 134.798 110.983 131.52 113.985V113.985Z" fill="#F4F6F9"/>
<path d="M108.802 135.307C108.122 135.307 107.439 135.291 106.754 135.261C94.6136 134.724 83.1755 129.42 74.9217 120.501C66.6679 111.582 62.2646 99.7684 62.6675 87.6231C63.0703 75.4779 68.2468 63.9815 77.0735 55.6293C85.9001 47.2771 97.6646 42.7429 109.814 43.011C121.963 43.2791 133.516 48.3277 141.965 57.0611C150.415 65.7945 155.079 77.5079 154.946 89.6591C154.813 101.81 149.893 113.419 141.254 121.965C132.615 130.511 120.954 135.305 108.802 135.307V135.307ZM108.753 43.9042C96.9316 43.9104 85.5821 48.5448 77.135 56.8152C68.6879 65.0856 63.8147 76.3346 63.5587 88.1535C63.3027 99.9725 67.6844 111.422 75.7655 120.05C83.8466 128.679 94.9848 133.8 106.795 134.318C107.466 134.348 108.136 134.362 108.801 134.362C120.623 134.356 131.972 129.722 140.42 121.451C148.867 113.181 153.74 101.932 153.996 90.113C154.252 78.294 149.87 66.8446 141.789 58.2163C133.708 49.5879 122.57 44.4664 110.759 43.9485C110.089 43.919 109.418 43.9042 108.753 43.9042V43.9042Z" fill="#304E86"/>
<path d="M108.791 123.438C100.79 123.436 93.0413 120.637 86.8857 115.525C80.7301 110.414 76.5551 103.311 75.0828 95.4462C73.6106 87.5815 74.9339 79.4496 78.8237 72.4575C82.7134 65.4654 88.9251 60.0529 96.3837 57.1566C103.842 54.2603 112.079 54.0624 119.668 56.5971C127.257 59.1317 133.722 64.2396 137.943 71.0368C142.164 77.834 143.876 85.8929 142.784 93.8192C141.691 101.746 137.862 109.041 131.959 114.442C125.636 120.237 117.368 123.447 108.791 123.438ZM108.763 55.772C101.108 55.7799 93.689 58.4199 87.7497 63.2493C81.8105 68.0787 77.7127 74.8036 76.1437 82.2959C74.5746 89.7883 75.6299 97.5923 79.1324 104.399C82.6349 111.206 88.3715 116.601 95.3801 119.679C102.389 122.758 110.243 123.333 117.625 121.307C125.007 119.282 131.468 114.779 135.924 108.555C140.38 102.331 142.56 94.7639 142.099 87.123C141.637 79.482 138.562 72.2321 133.39 66.5895C130.265 63.1705 126.46 60.4422 122.219 58.5793C117.978 56.7165 113.395 55.7603 108.763 55.772V55.772Z" fill="#304E86"/>
<path d="M110.262 55.7892C110.255 55.7892 110.247 55.7892 110.24 55.7887C110.178 55.786 110.118 55.7711 110.062 55.7448C110.005 55.7186 109.955 55.6816 109.913 55.6359C109.871 55.5901 109.839 55.5366 109.817 55.4783C109.796 55.4201 109.787 55.3582 109.79 55.2963L110.027 49.8935C110.029 49.8312 110.043 49.77 110.069 49.7133C110.095 49.6567 110.132 49.6058 110.178 49.5635C110.224 49.5212 110.278 49.4884 110.336 49.467C110.395 49.4456 110.457 49.4359 110.519 49.4387C110.581 49.4414 110.642 49.4565 110.699 49.4829C110.755 49.5094 110.806 49.5468 110.848 49.593C110.89 49.6391 110.922 49.6931 110.943 49.7518C110.964 49.8105 110.973 49.8728 110.97 49.935L110.733 55.3377C110.728 55.4592 110.676 55.5739 110.588 55.658C110.5 55.7421 110.383 55.7891 110.262 55.7892Z" fill="#304E86"/>
<path d="M107.057 128.825C107.05 128.825 107.043 128.825 107.036 128.824C106.974 128.821 106.913 128.806 106.857 128.78C106.801 128.754 106.75 128.717 106.708 128.671C106.667 128.626 106.634 128.572 106.613 128.514C106.592 128.455 106.582 128.394 106.585 128.332L106.822 122.929C106.824 122.867 106.839 122.805 106.865 122.749C106.891 122.692 106.928 122.641 106.973 122.599C107.019 122.557 107.073 122.524 107.132 122.502C107.19 122.481 107.252 122.471 107.315 122.474C107.377 122.477 107.438 122.492 107.494 122.518C107.551 122.545 107.601 122.582 107.643 122.628C107.685 122.674 107.718 122.728 107.738 122.787C107.759 122.846 107.769 122.908 107.765 122.97L107.528 128.373C107.523 128.495 107.471 128.609 107.383 128.693C107.295 128.778 107.179 128.825 107.057 128.825V128.825Z" fill="#304E86"/>
<path d="M133.738 66.7425C133.643 66.7425 133.55 66.7138 133.471 66.6601C133.393 66.6064 133.332 66.5302 133.298 66.4415C133.263 66.3528 133.256 66.2558 133.278 66.1631C133.3 66.0705 133.349 65.9865 133.419 65.9222L137.407 62.2697C137.499 62.1853 137.621 62.141 137.746 62.1466C137.871 62.1521 137.989 62.207 138.073 62.2993C138.158 62.3915 138.202 62.5135 138.197 62.6385C138.191 62.7635 138.137 62.8812 138.045 62.9659L134.057 66.6184C133.97 66.6983 133.856 66.7425 133.738 66.7425V66.7425Z" fill="#304E86"/>
<path d="M79.8293 116.121C79.7342 116.121 79.6412 116.092 79.5626 116.038C79.484 115.985 79.4235 115.908 79.389 115.82C79.3545 115.731 79.3477 115.634 79.3693 115.541C79.3909 115.449 79.4401 115.365 79.5103 115.3L83.498 111.648C83.5437 111.606 83.5972 111.573 83.6555 111.552C83.7138 111.531 83.7758 111.521 83.8378 111.524C83.8998 111.526 83.9607 111.541 84.017 111.567C84.0732 111.594 84.1238 111.631 84.1657 111.676C84.2076 111.722 84.2401 111.776 84.2613 111.834C84.2825 111.892 84.292 111.954 84.2892 112.016C84.2864 112.078 84.2714 112.139 84.2451 112.196C84.2187 112.252 84.1815 112.302 84.1357 112.344L80.1479 115.997C80.0611 116.076 79.9473 116.121 79.8293 116.121Z" fill="#304E86"/>
<path d="M147.997 91.3254C147.99 91.3254 147.983 91.3254 147.976 91.3249L142.573 91.0879C142.449 91.0814 142.332 91.026 142.248 90.9338C142.164 90.8416 142.12 90.7201 142.126 90.5957C142.131 90.4712 142.186 90.354 142.277 90.2695C142.369 90.185 142.49 90.1401 142.614 90.1446L148.017 90.3816C148.14 90.3871 148.257 90.4406 148.341 90.5306C148.425 90.6207 148.471 90.7401 148.468 90.8634C148.466 90.9867 148.415 91.1041 148.327 91.1904C148.239 91.2767 148.12 91.3252 147.997 91.3254H147.997Z" fill="#304E86"/>
<path d="M74.9615 88.122C74.9544 88.122 74.9475 88.122 74.9403 88.1215L69.5378 87.8845C69.4759 87.8818 69.4151 87.8669 69.3589 87.8407C69.3027 87.8145 69.2522 87.7774 69.2104 87.7317C69.1685 87.686 69.136 87.6325 69.1148 87.5742C69.0937 87.5159 69.0842 87.454 69.0869 87.3921C69.0936 87.2675 69.149 87.1504 69.241 87.0661C69.3331 86.9818 69.4546 86.937 69.5793 86.9412L74.9818 87.1782C75.105 87.1837 75.2212 87.2372 75.3055 87.3272C75.3897 87.4173 75.4354 87.5367 75.4328 87.66C75.4301 87.7833 75.3793 87.9006 75.2913 87.987C75.2032 88.0733 75.0849 88.1218 74.9615 88.122V88.122Z" fill="#304E86"/>
<path d="M135.292 118.554C135.227 118.554 135.162 118.54 135.102 118.514C135.042 118.488 134.988 118.449 134.944 118.401L131.292 114.413C131.25 114.367 131.217 114.314 131.196 114.255C131.174 114.197 131.165 114.135 131.167 114.073C131.17 114.011 131.185 113.95 131.211 113.894C131.237 113.838 131.274 113.787 131.32 113.745C131.366 113.703 131.419 113.671 131.478 113.65C131.536 113.628 131.598 113.619 131.66 113.622C131.722 113.624 131.783 113.639 131.839 113.666C131.895 113.692 131.946 113.729 131.988 113.775L135.64 117.763C135.702 117.83 135.743 117.914 135.758 118.005C135.773 118.095 135.761 118.188 135.725 118.272C135.688 118.356 135.627 118.427 135.55 118.477C135.474 118.527 135.384 118.554 135.292 118.554V118.554Z" fill="#304E86"/>
<path d="M85.9145 64.6448C85.849 64.6448 85.7842 64.6313 85.7242 64.6049C85.6642 64.5786 85.6104 64.54 85.5662 64.4917L81.9136 60.5039C81.8292 60.4116 81.785 60.2895 81.7905 60.1645C81.796 60.0396 81.851 59.9219 81.9432 59.8374C82.0354 59.7528 82.1574 59.7083 82.2824 59.7137C82.4074 59.719 82.5251 59.7737 82.6098 59.8658L86.2624 63.8536C86.3242 63.9211 86.3651 64.0052 86.38 64.0956C86.395 64.186 86.3833 64.2787 86.3464 64.3626C86.3095 64.4464 86.2491 64.5178 86.1724 64.5679C86.0957 64.618 86.0061 64.6447 85.9145 64.6448V64.6448Z" fill="#304E86"/>
<path d="M109.575 70.954C105.979 70.7963 102.418 71.7083 99.3405 73.5747C96.2633 75.4411 93.8087 78.178 92.287 81.4395C90.7654 84.7009 90.245 88.3403 90.7918 91.8975C91.3385 95.4546 92.9278 98.7698 95.3587 101.424C97.7896 104.078 100.953 105.951 104.448 106.807C107.944 107.663 111.615 107.464 114.997 106.233C118.379 105.003 121.321 102.798 123.449 99.8959C125.578 96.994 126.798 93.526 126.956 89.9305C127.061 87.5432 126.694 85.1586 125.878 82.913C125.061 80.6673 123.81 78.6045 122.196 76.8424C120.582 75.0803 118.636 73.6533 116.471 72.643C114.305 71.6326 111.962 71.0587 109.575 70.954V70.954ZM108.17 102.971C105.433 102.851 102.793 101.922 100.584 100.302C98.3755 98.6813 96.6967 96.4423 95.7602 93.8678C94.8238 91.2933 94.6718 88.4989 95.3235 85.8381C95.9752 83.1772 97.4013 80.7693 99.4214 78.9189C101.442 77.0686 103.965 75.8588 106.673 75.4426C109.381 75.0264 112.151 75.4225 114.633 76.5808C117.116 77.7391 119.199 79.6075 120.62 81.9498C122.041 84.2922 122.735 87.0032 122.615 89.7401C122.535 91.5573 122.098 93.341 121.329 94.9894C120.56 96.6378 119.474 98.1186 118.133 99.3472C116.791 100.576 115.221 101.528 113.512 102.15C111.802 102.772 109.987 103.051 108.17 102.971V102.971Z" fill="#304E86"/>
<path d="M109.644 97.582C111.459 97.3939 113.166 96.627 114.511 95.3945C115.857 94.162 116.771 92.5294 117.117 90.7377C117.125 90.6948 117.133 90.652 117.141 90.6092C117.715 87.2745 113.679 85.1325 111.184 87.4181L102.772 95.1226C103.662 96.0194 104.74 96.7058 105.929 97.1313C107.118 97.5569 108.388 97.7109 109.644 97.582V97.582Z" fill="#F4F6F9"/>
<path d="M113.65 89.3468C113.768 86.6559 111.682 84.3787 108.991 84.2607C106.3 84.1426 104.023 86.2284 103.905 88.9193C103.787 91.6103 105.873 93.8874 108.564 94.0055C111.255 94.1235 113.532 92.0378 113.65 89.3468Z" fill="#304E86"/>
<path d="M108.787 98.0964C108.653 98.0964 108.519 98.0935 108.385 98.0877C106.03 97.9834 103.811 96.9547 102.21 95.2247C100.609 93.4948 99.7542 91.2033 99.832 88.8473C99.9098 86.4914 100.914 84.2612 102.625 82.6407C104.337 81.0201 106.619 80.14 108.976 80.1913C111.332 80.2426 113.574 81.2212 115.213 82.9147C116.853 84.6082 117.759 86.88 117.734 89.2371C117.709 91.5941 116.756 93.8464 115.081 95.505C113.406 97.1636 111.144 98.0948 108.787 98.0964ZM108.769 81.1145C106.656 81.116 104.629 81.9506 103.127 83.4374C101.626 84.9241 100.771 86.943 100.749 89.0559C100.726 91.1688 101.538 93.2053 103.008 94.7233C104.478 96.2414 106.487 97.1186 108.6 97.1646C110.712 97.2106 112.758 96.4216 114.292 94.9689C115.826 93.5163 116.726 91.517 116.796 89.4052C116.866 87.2933 116.1 85.2391 114.664 83.6885C113.229 82.1378 111.24 81.2157 109.129 81.1224C109.009 81.1173 108.888 81.1147 108.769 81.1145Z" fill="#304E86"/>
<path d="M109.164 80.8009C109.157 80.8009 109.15 80.8009 109.143 80.8004C109.081 80.7977 109.02 80.7828 108.964 80.7566C108.908 80.7304 108.857 80.6933 108.815 80.6476C108.773 80.6019 108.741 80.5484 108.72 80.4901C108.699 80.4318 108.689 80.37 108.692 80.308L108.754 78.9013C108.761 78.7769 108.817 78.6603 108.909 78.5762C109 78.492 109.122 78.4469 109.246 78.4504C109.308 78.4531 109.369 78.468 109.425 78.4942C109.481 78.5204 109.532 78.5575 109.574 78.6032C109.615 78.6489 109.648 78.7025 109.669 78.7607C109.69 78.819 109.7 78.8809 109.697 78.9428L109.635 80.3495C109.63 80.471 109.578 80.5857 109.49 80.6698C109.402 80.7539 109.286 80.8009 109.164 80.8009V80.8009Z" fill="#304E86"/>
<path d="M108.33 99.8166C108.323 99.8166 108.315 99.8165 108.308 99.8161C108.246 99.8134 108.186 99.7985 108.129 99.7722C108.073 99.746 108.023 99.709 107.981 99.6632C107.939 99.6175 107.907 99.564 107.885 99.5057C107.864 99.4475 107.855 99.3856 107.857 99.3236L107.919 97.9169C107.921 97.8546 107.936 97.7934 107.962 97.7368C107.988 97.6801 108.025 97.6292 108.071 97.5869C108.117 97.5446 108.17 97.5118 108.229 97.4904C108.287 97.469 108.349 97.4594 108.412 97.4621C108.474 97.4649 108.535 97.4799 108.592 97.5064C108.648 97.5329 108.699 97.5702 108.741 97.6164C108.782 97.6625 108.815 97.7165 108.836 97.7752C108.857 97.8339 108.866 97.8962 108.862 97.9584L108.801 99.3651C108.795 99.4866 108.744 99.6013 108.656 99.6854C108.568 99.7695 108.451 99.8165 108.33 99.8166Z" fill="#304E86"/>
<path d="M115.276 83.6528C115.181 83.6528 115.088 83.6241 115.01 83.5704C114.931 83.5167 114.871 83.4405 114.836 83.3518C114.802 83.2631 114.795 83.1661 114.817 83.0735C114.838 82.9808 114.887 82.8968 114.957 82.8326L115.996 81.8814C116.088 81.797 116.21 81.7527 116.335 81.7583C116.46 81.7638 116.578 81.8187 116.662 81.911C116.747 82.0032 116.791 82.1252 116.786 82.2502C116.781 82.3751 116.726 82.4929 116.634 82.5776L115.595 83.5288C115.508 83.6086 115.395 83.6529 115.276 83.6528V83.6528Z" fill="#304E86"/>
<path d="M101.24 96.509C101.145 96.509 101.052 96.4803 100.974 96.4266C100.895 96.3729 100.835 96.2967 100.8 96.208C100.766 96.1194 100.759 96.0224 100.78 95.9297C100.802 95.837 100.851 95.7531 100.921 95.6888L101.96 94.7381C102.052 94.6537 102.174 94.6094 102.299 94.615C102.424 94.6205 102.542 94.6754 102.626 94.7677C102.711 94.8599 102.755 94.9819 102.75 95.1069C102.744 95.2318 102.69 95.3496 102.598 95.4343L101.559 96.385C101.472 96.4648 101.358 96.5091 101.24 96.509Z" fill="#304E86"/>
<path d="M118.989 90.0536C118.982 90.0536 118.975 90.0536 118.968 90.0531L117.562 89.9913C117.437 89.9853 117.32 89.9301 117.236 89.8379C117.151 89.7456 117.107 89.6237 117.113 89.499C117.118 89.3742 117.173 89.2567 117.265 89.1722C117.357 89.0877 117.478 89.043 117.603 89.048L119.009 89.1098C119.133 89.1153 119.249 89.1688 119.333 89.2588C119.417 89.3488 119.463 89.4683 119.46 89.5916C119.458 89.7149 119.407 89.8322 119.319 89.9186C119.231 90.0049 119.112 90.0533 118.989 90.0535L118.989 90.0536Z" fill="#304E86"/>
<path d="M99.9731 89.219C99.9662 89.219 99.9588 89.219 99.9519 89.2186L98.5452 89.1568C98.4831 89.1543 98.422 89.1396 98.3656 89.1135C98.3092 89.0874 98.2585 89.0504 98.2164 89.0046C98.1743 88.9589 98.1417 88.9052 98.1204 88.8468C98.0991 88.7884 98.0895 88.7264 98.0923 88.6643C98.095 88.6022 98.11 88.5412 98.1363 88.4849C98.1627 88.4286 98.1999 88.378 98.2458 88.3362C98.2918 88.2943 98.3455 88.2619 98.404 88.2408C98.4625 88.2197 98.5246 88.2104 98.5867 88.2134L99.9934 88.2752C100.117 88.2807 100.233 88.3342 100.317 88.4243C100.401 88.5143 100.447 88.6337 100.444 88.757C100.442 88.8803 100.391 88.9977 100.303 89.084C100.215 89.1704 100.096 89.2188 99.9731 89.219L99.9731 89.219Z" fill="#304E86"/>
<path d="M115.681 97.1424C115.616 97.1425 115.551 97.1289 115.491 97.1026C115.431 97.0762 115.377 97.0377 115.333 96.9894L114.382 95.9515C114.34 95.9058 114.307 95.8523 114.286 95.794C114.265 95.7357 114.255 95.6737 114.258 95.6117C114.26 95.5497 114.275 95.4888 114.301 95.4325C114.328 95.3763 114.365 95.3257 114.41 95.2838C114.456 95.2418 114.51 95.2093 114.568 95.1881C114.626 95.1669 114.688 95.1574 114.75 95.1601C114.812 95.1629 114.873 95.1778 114.93 95.2041C114.986 95.2304 115.036 95.2676 115.078 95.3134L116.029 96.3512C116.091 96.4188 116.132 96.5029 116.147 96.5933C116.162 96.6838 116.15 96.7766 116.113 96.8604C116.077 96.9443 116.016 97.0157 115.939 97.0657C115.863 97.1158 115.773 97.1425 115.681 97.1424V97.1424Z" fill="#304E86"/>
<path d="M102.824 83.1063C102.759 83.1064 102.694 83.0928 102.634 83.0664C102.574 83.0401 102.52 83.0015 102.476 82.9532L101.526 81.9154C101.483 81.8697 101.451 81.8161 101.43 81.7578C101.408 81.6995 101.399 81.6376 101.401 81.5756C101.404 81.5136 101.419 81.4527 101.445 81.3964C101.471 81.3401 101.508 81.2896 101.554 81.2476C101.6 81.2057 101.653 81.1732 101.712 81.152C101.77 81.1308 101.832 81.1212 101.894 81.124C101.956 81.1268 102.017 81.1417 102.073 81.168C102.129 81.1943 102.18 81.2314 102.222 81.2773L103.172 82.3151C103.234 82.3827 103.275 82.4668 103.29 82.5572C103.305 82.6476 103.293 82.7404 103.257 82.8243C103.22 82.9082 103.159 82.9795 103.082 83.0296C103.006 83.0797 102.916 83.1063 102.824 83.1063Z" fill="#304E86"/>
<path d="M108.883 87.1968C108.876 87.1968 108.869 87.1968 108.862 87.1963C108.8 87.1936 108.739 87.1787 108.683 87.1525C108.627 87.1262 108.576 87.0892 108.535 87.0435C108.493 86.9978 108.46 86.9442 108.439 86.886C108.418 86.8277 108.408 86.7658 108.411 86.7039L108.442 86.0026C108.448 85.8779 108.503 85.7606 108.595 85.6765C108.688 85.5923 108.81 85.5482 108.934 85.5537C109.059 85.5592 109.177 85.6138 109.261 85.7058C109.346 85.7977 109.39 85.9193 109.385 86.0441L109.354 86.7454C109.349 86.8668 109.297 86.9816 109.209 87.0657C109.122 87.1498 109.005 87.1967 108.883 87.1968V87.1968Z" fill="white"/>
<path d="M169.453 250.441C208.924 250.441 240.921 218.444 240.921 178.974C240.921 139.504 208.924 107.507 169.453 107.507C129.983 107.507 97.9858 139.504 97.9858 178.974C97.9858 218.444 129.983 250.441 169.453 250.441Z" fill="white"/>
<path d="M230.123 180.756C230.406 170.988 228.329 161.296 224.066 152.503C219.803 143.71 213.48 136.076 205.636 130.249C197.791 124.422 188.656 120.574 179.007 119.033C169.357 117.491 159.478 118.302 150.208 121.395L150.711 122.58C151.429 124.273 152.705 125.669 154.328 126.535C155.95 127.401 157.82 127.685 159.626 127.34C167.27 125.891 175.14 126.156 182.67 128.116C190.199 130.076 197.199 133.683 203.166 138.676C209.133 143.669 213.917 149.924 217.175 156.989C220.432 164.055 222.081 171.755 222.002 179.535L230.123 180.756Z" fill="#F4F6F9"/>
<path d="M197.444 232.833C196.642 230.939 195.145 229.424 193.261 228.6C191.376 227.777 189.248 227.707 187.314 228.406C179.35 231.279 170.811 232.187 162.421 231.051C154.032 229.916 146.041 226.771 139.128 221.885C132.214 216.998 126.584 210.514 122.714 202.985C118.844 195.455 116.851 187.102 116.902 178.636L108.778 177.415C108.507 187.97 110.993 198.414 115.993 207.714C120.992 217.014 128.331 224.849 137.284 230.446C146.238 236.042 156.497 239.206 167.047 239.624C177.598 240.043 188.075 237.702 197.444 232.833V232.833Z" fill="#F4F6F9"/>
<path d="M169.606 250.957C165.974 250.956 162.348 250.684 158.757 250.143C139.882 247.306 122.907 237.087 111.566 221.734C100.225 206.381 95.4481 187.153 98.285 168.278C104.183 129.036 140.907 101.909 180.15 107.805C219.392 113.704 246.52 150.428 240.622 189.671C238.061 206.687 229.491 222.223 216.463 233.465C203.436 244.708 186.813 250.913 169.606 250.957V250.957ZM169.409 108.001C134.898 108.001 104.556 133.287 99.2747 168.426C96.4834 187.036 101.198 205.992 112.381 221.127C123.564 236.261 140.3 246.334 158.909 249.131C177.517 251.928 196.475 247.22 211.613 236.041C226.751 224.863 236.83 208.13 239.632 189.522L240.127 189.596L239.632 189.522C245.448 150.826 218.698 114.611 180.001 108.795C176.495 108.267 172.955 108.002 169.409 108.001V108.001Z" fill="#304E86"/>
<path d="M230.067 182.692C230.058 182.692 230.049 182.692 230.039 182.691C229.974 182.688 229.91 182.671 229.85 182.643C229.791 182.614 229.738 182.575 229.694 182.526C229.65 182.477 229.616 182.42 229.595 182.358C229.573 182.296 229.563 182.23 229.567 182.165C230.359 167.221 225.557 152.518 216.098 140.923C206.638 129.328 193.198 121.672 178.4 119.448C163.602 117.223 148.506 120.591 136.055 128.893C123.605 137.195 114.693 149.837 111.058 164.353C111.042 164.417 111.014 164.478 110.975 164.531C110.936 164.584 110.887 164.629 110.831 164.663C110.774 164.697 110.711 164.72 110.646 164.729C110.581 164.739 110.515 164.736 110.451 164.72C110.387 164.704 110.326 164.676 110.273 164.636C110.22 164.597 110.176 164.548 110.142 164.491C110.108 164.434 110.086 164.372 110.076 164.306C110.067 164.241 110.071 164.175 110.087 164.111C113.783 149.353 122.842 136.501 135.5 128.06C148.157 119.62 163.504 116.197 178.549 118.458C193.593 120.719 207.256 128.503 216.873 140.291C226.49 152.079 231.372 167.026 230.566 182.219C230.559 182.346 230.504 182.467 230.411 182.555C230.318 182.643 230.195 182.692 230.067 182.692V182.692Z" fill="#304E86"/>
<path d="M169.501 240.177C161.187 240.182 152.959 238.493 145.319 235.214C137.68 231.934 130.788 227.133 125.065 221.102C119.342 215.071 114.908 207.938 112.032 200.137C109.157 192.337 107.901 184.032 108.341 175.73C108.342 175.663 108.357 175.598 108.385 175.538C108.413 175.478 108.453 175.424 108.502 175.38C108.551 175.335 108.609 175.302 108.672 175.281C108.735 175.26 108.801 175.252 108.867 175.257C108.933 175.261 108.997 175.277 109.057 175.305C109.116 175.334 109.169 175.373 109.213 175.422C109.257 175.471 109.29 175.528 109.312 175.59C109.334 175.652 109.344 175.718 109.34 175.783C108.548 190.727 113.349 205.43 122.809 217.025C132.269 228.62 145.708 236.277 160.507 238.501C175.305 240.725 190.401 237.358 202.851 229.055C215.302 220.753 224.213 208.111 227.849 193.595C227.864 193.531 227.892 193.471 227.931 193.418C227.97 193.364 228.02 193.319 228.076 193.285C228.133 193.251 228.195 193.229 228.26 193.219C228.326 193.209 228.392 193.212 228.456 193.228C228.52 193.244 228.58 193.273 228.633 193.312C228.686 193.351 228.731 193.401 228.765 193.457C228.798 193.514 228.821 193.577 228.83 193.642C228.84 193.707 228.836 193.774 228.82 193.838C225.506 207.065 217.87 218.807 207.124 227.202C196.378 235.597 183.137 240.163 169.501 240.177V240.177Z" fill="#304E86"/>
<path d="M138.807 156.255C137.638 156.256 136.483 156.004 135.421 155.517C134.358 155.03 133.414 154.32 132.651 153.435C131.888 152.549 131.326 151.51 131.002 150.387C130.678 149.264 130.6 148.085 130.773 146.929C131.004 145.392 131.671 143.954 132.696 142.785C133.72 141.617 135.058 140.766 136.551 140.336C138.044 139.905 139.63 139.911 141.119 140.355C142.608 140.799 143.939 141.66 144.953 142.838C145.968 144.015 146.623 145.459 146.841 146.997C147.059 148.536 146.83 150.105 146.183 151.518C145.536 152.931 144.497 154.128 143.189 154.968C141.882 155.808 140.361 156.254 138.807 156.255V156.255ZM138.787 141.016C136.94 141.017 135.165 141.734 133.835 143.016C132.505 144.297 131.723 146.045 131.654 147.891C131.586 149.737 132.235 151.537 133.465 152.915C134.696 154.292 136.413 155.139 138.255 155.277C140.097 155.416 141.921 154.835 143.344 153.657C144.766 152.479 145.677 150.795 145.885 148.96C146.093 147.125 145.581 145.28 144.458 143.814C143.334 142.348 141.686 141.374 139.86 141.097C139.505 141.043 139.146 141.016 138.787 141.016V141.016Z" fill="#304E86"/>
<path d="M119.565 162.846C119.54 162.846 119.515 162.844 119.49 162.841L100.659 160.011C100.528 159.991 100.41 159.92 100.331 159.813C100.252 159.706 100.219 159.573 100.238 159.441C100.258 159.31 100.329 159.192 100.436 159.113C100.543 159.034 100.676 159.001 100.808 159.02L119.434 161.82L132.159 152.42C132.266 152.341 132.4 152.308 132.531 152.328C132.662 152.348 132.78 152.419 132.859 152.525C132.938 152.632 132.971 152.766 132.952 152.897C132.932 153.029 132.861 153.147 132.754 153.226L119.862 162.748C119.776 162.812 119.672 162.846 119.565 162.846V162.846Z" fill="#304E86"/>
<path d="M131.108 207.561C130.699 207.56 130.29 207.53 129.884 207.469C128.296 207.23 126.815 206.526 125.627 205.445C124.439 204.365 123.599 202.956 123.211 201.397C122.824 199.839 122.908 198.201 123.452 196.69C123.995 195.179 124.975 193.863 126.267 192.909C127.558 191.955 129.104 191.405 130.708 191.329C132.312 191.254 133.903 191.655 135.278 192.484C136.654 193.312 137.754 194.529 138.437 195.982C139.121 197.435 139.359 199.058 139.12 200.647C138.831 202.566 137.864 204.319 136.395 205.587C134.925 206.855 133.05 207.555 131.108 207.561V207.561ZM131.076 192.32C129.714 192.323 128.381 192.716 127.236 193.454C126.09 194.191 125.181 195.242 124.615 196.481C124.049 197.72 123.85 199.096 124.042 200.444C124.235 201.793 124.81 203.058 125.699 204.089C126.589 205.121 127.756 205.875 129.062 206.263C130.368 206.652 131.758 206.657 133.066 206.279C134.375 205.901 135.548 205.155 136.445 204.13C137.343 203.106 137.928 201.845 138.13 200.498V200.498C138.281 199.484 138.212 198.449 137.927 197.465C137.641 196.48 137.147 195.568 136.477 194.792C135.808 194.016 134.979 193.393 134.047 192.967C133.114 192.54 132.101 192.319 131.076 192.32V192.32Z" fill="#304E86"/>
<path d="M126.405 193.595C126.326 193.595 126.249 193.577 126.179 193.541C126.109 193.506 126.048 193.455 126.002 193.391L116.602 180.666L97.9754 177.867C97.8442 177.847 97.7261 177.776 97.6473 177.669C97.5684 177.563 97.5352 177.429 97.5549 177.298C97.5746 177.166 97.6456 177.048 97.7523 176.969C97.859 176.891 97.9927 176.857 98.124 176.877L116.955 179.707C117.02 179.717 117.083 179.739 117.139 179.773C117.195 179.807 117.244 179.852 117.283 179.905L126.807 192.797C126.862 192.872 126.895 192.96 126.903 193.052C126.911 193.144 126.893 193.237 126.851 193.32C126.809 193.402 126.746 193.472 126.667 193.52C126.588 193.569 126.497 193.595 126.405 193.595V193.595Z" fill="#304E86"/>
<path d="M200.122 217.933C199.713 217.933 199.304 217.902 198.898 217.842C196.831 217.527 194.966 216.424 193.695 214.764C192.423 213.103 191.845 211.015 192.08 208.937C192.316 206.86 193.347 204.954 194.958 203.621C196.569 202.287 198.634 201.63 200.719 201.786C202.804 201.943 204.748 202.901 206.141 204.46C207.535 206.019 208.27 208.057 208.193 210.147C208.116 212.237 207.232 214.215 205.727 215.667C204.222 217.119 202.213 217.931 200.122 217.933V217.933ZM200.09 202.693C198.388 202.697 196.744 203.311 195.455 204.423C194.167 205.535 193.319 207.072 193.066 208.755V208.755C192.857 210.147 193.065 211.57 193.664 212.844C194.264 214.117 195.228 215.185 196.434 215.911C197.64 216.637 199.034 216.989 200.441 216.923C201.847 216.857 203.202 216.375 204.334 215.538C205.467 214.702 206.326 213.548 206.802 212.224C207.279 210.899 207.353 209.463 207.013 208.096C206.674 206.73 205.937 205.495 204.895 204.548C203.854 203.6 202.555 202.983 201.163 202.774C200.808 202.72 200.449 202.693 200.09 202.693V202.693Z" fill="#304E86"/>
<path d="M206.451 205.626C206.345 205.626 206.242 205.593 206.157 205.531C206.072 205.469 206.008 205.382 205.975 205.282C205.942 205.182 205.941 205.074 205.973 204.973C206.005 204.873 206.068 204.785 206.153 204.723L219.045 195.199C219.152 195.121 219.285 195.088 219.416 195.107L238.248 197.937C238.313 197.947 238.375 197.97 238.432 198.004C238.488 198.038 238.537 198.082 238.576 198.135C238.615 198.188 238.643 198.248 238.659 198.312C238.675 198.376 238.678 198.442 238.668 198.507C238.659 198.572 238.636 198.634 238.602 198.691C238.568 198.747 238.524 198.796 238.471 198.835C238.418 198.874 238.358 198.903 238.294 198.918C238.23 198.934 238.164 198.937 238.099 198.928L219.473 196.128L206.747 205.528C206.661 205.591 206.557 205.626 206.451 205.626V205.626Z" fill="#304E86"/>
<path d="M207.82 166.628C207.415 166.628 207.01 166.598 206.609 166.538C205.555 166.379 204.542 166.015 203.628 165.465C202.715 164.915 201.919 164.19 201.285 163.333C200.652 162.475 200.193 161.501 199.936 160.466C199.679 159.431 199.628 158.356 199.787 157.302C200.018 155.765 200.685 154.327 201.71 153.158C202.734 151.989 204.072 151.139 205.565 150.708C207.058 150.278 208.643 150.284 210.133 150.728C211.622 151.171 212.953 152.033 213.967 153.21C214.981 154.388 215.636 155.832 215.854 157.37C216.072 158.909 215.844 160.478 215.197 161.891C214.55 163.303 213.511 164.501 212.203 165.341C210.896 166.18 209.374 166.627 207.82 166.628V166.628ZM207.8 151.389C206.099 151.393 204.454 152.007 203.166 153.119C201.878 154.231 201.03 155.767 200.777 157.45V157.45C200.567 158.843 200.775 160.266 201.375 161.54C201.974 162.814 202.938 163.881 204.144 164.608C205.35 165.334 206.745 165.686 208.151 165.62C209.558 165.554 210.913 165.072 212.045 164.235C213.178 163.399 214.037 162.245 214.514 160.921C214.991 159.596 215.064 158.159 214.725 156.793C214.385 155.427 213.648 154.191 212.607 153.244C211.565 152.296 210.266 151.679 208.874 151.47C208.519 151.416 208.16 151.389 207.8 151.389H207.8Z" fill="#304E86"/>
<path d="M240.858 181.077C240.833 181.077 240.808 181.075 240.783 181.072L221.952 178.241C221.887 178.231 221.824 178.208 221.768 178.175C221.712 178.141 221.663 178.096 221.624 178.043L212.1 165.151C212.061 165.098 212.033 165.038 212.017 164.974C212.001 164.91 211.998 164.844 212.007 164.779C212.017 164.714 212.04 164.651 212.074 164.595C212.107 164.539 212.152 164.489 212.205 164.45C212.258 164.411 212.318 164.383 212.382 164.367C212.446 164.351 212.512 164.348 212.577 164.358C212.642 164.368 212.705 164.391 212.761 164.425C212.817 164.459 212.866 164.503 212.905 164.556L222.305 177.281L240.932 180.081C241.056 180.1 241.17 180.165 241.248 180.264C241.327 180.363 241.366 180.487 241.356 180.613C241.347 180.739 241.291 180.857 241.198 180.943C241.106 181.029 240.984 181.077 240.858 181.077H240.858Z" fill="#304E86"/>
<path d="M178.332 108.038L181.82 108.562L181.448 111.031C181.379 111.494 181.129 111.91 180.752 112.188C180.376 112.465 179.905 112.583 179.443 112.513C178.98 112.443 178.564 112.193 178.286 111.817C178.009 111.441 177.891 110.97 177.961 110.507L178.332 108.038V108.038Z" fill="#304E86"/>
<path d="M160.575 249.91L157.088 249.385L157.459 246.917C157.528 246.454 157.779 246.038 158.155 245.76C158.531 245.483 159.002 245.365 159.465 245.435C159.927 245.504 160.343 245.755 160.621 246.131C160.899 246.507 161.016 246.978 160.946 247.441L160.575 249.91V249.91Z" fill="#304E86"/>
<path d="M225.891 135.093L227.986 137.929L225.978 139.413C225.602 139.691 225.131 139.808 224.668 139.738C224.206 139.669 223.79 139.418 223.512 139.042V139.042C223.234 138.666 223.117 138.195 223.186 137.732C223.256 137.27 223.506 136.854 223.883 136.576L225.891 135.093L225.891 135.093Z" fill="#304E86"/>
<path d="M113.016 222.855L110.921 220.019L112.929 218.535C113.305 218.257 113.776 218.14 114.239 218.21C114.701 218.279 115.117 218.53 115.395 218.906V218.906C115.673 219.282 115.79 219.753 115.72 220.216C115.651 220.678 115.4 221.094 115.024 221.372L113.016 222.855V222.855Z" fill="#304E86"/>
<path d="M213.334 235.411L210.498 237.507L209.014 235.498C208.877 235.312 208.777 235.101 208.721 234.876C208.666 234.651 208.655 234.418 208.689 234.189C208.723 233.96 208.803 233.74 208.922 233.541C209.041 233.343 209.199 233.17 209.385 233.032C209.571 232.895 209.783 232.795 210.008 232.739C210.232 232.684 210.466 232.673 210.695 232.707C210.924 232.741 211.144 232.821 211.342 232.94C211.541 233.059 211.714 233.217 211.851 233.403L213.334 235.411L213.334 235.411Z" fill="#304E86"/>
<path d="M125.572 122.537L128.409 120.441L129.892 122.45C130.17 122.826 130.287 123.297 130.218 123.759C130.148 124.222 129.898 124.638 129.522 124.916C129.145 125.193 128.674 125.311 128.212 125.241C127.749 125.172 127.333 124.921 127.056 124.545L125.572 122.537V122.537Z" fill="#304E86"/>
<path d="M179.162 186.149C179.99 180.638 176.968 178.252 170.474 176.471C165.845 175.131 165.09 173.73 165.421 171.525C165.752 169.321 167.54 168.141 170.688 168.614C173.522 169.04 174.955 170.222 175.387 172.702C175.434 172.942 175.554 173.162 175.729 173.332C175.905 173.503 176.129 173.615 176.371 173.654L178.89 174.033C179.035 174.058 179.184 174.054 179.327 174.02C179.471 173.987 179.606 173.924 179.724 173.836C179.843 173.749 179.943 173.638 180.017 173.511C180.092 173.384 180.139 173.243 180.158 173.097L180.181 172.939C180.133 171.187 179.507 169.5 178.402 168.14C177.296 166.78 175.772 165.824 174.067 165.419L174.635 161.64C174.729 161.011 174.328 160.467 173.565 160.191L171.203 159.836C170.573 159.742 170.03 160.143 169.754 160.907L169.209 164.528C164.391 164.448 160.927 167.147 160.335 171.083C159.554 176.279 162.396 178.799 168.89 180.58C173.18 182.03 174.455 183.188 174.077 185.707C173.698 188.226 171.233 189.626 168.242 189.177C164.148 188.562 162.992 186.616 162.874 184.184C162.866 183.917 162.766 183.66 162.592 183.458C162.417 183.256 162.178 183.12 161.914 183.074L159.237 182.671C159.092 182.646 158.944 182.65 158.8 182.684C158.657 182.718 158.522 182.78 158.403 182.868C158.285 182.956 158.185 183.066 158.111 183.193C158.036 183.321 157.988 183.462 157.97 183.608L157.946 183.765C157.984 187.796 160.078 191.009 165.155 192.577L164.587 196.356C164.492 196.985 164.894 197.528 165.657 197.804L168.019 198.159C168.649 198.254 169.192 197.853 169.468 197.089L170.036 193.311C174.877 193.233 178.523 190.4 179.162 186.149V186.149Z" fill="#304E86"/>
<path d="M158.111 199.809C153.829 197.467 150.37 193.867 148.202 189.496C146.033 185.124 145.259 180.192 145.984 175.366C146.709 170.54 148.899 166.053 152.257 162.512C155.615 158.972 159.98 156.547 164.76 155.567C165.082 155.481 165.369 155.297 165.58 155.04C165.792 154.783 165.919 154.467 165.942 154.135L166.273 151.931C166.338 151.645 166.297 151.346 166.158 151.088C166.019 150.831 165.792 150.632 165.518 150.529C165.299 150.473 165.068 150.495 164.864 150.592C158.858 151.552 153.314 154.398 149.033 158.719C144.753 163.04 141.958 168.61 141.054 174.625C140.15 180.639 141.184 186.786 144.005 192.174C146.826 197.562 151.289 201.912 156.747 204.595C156.867 204.691 157.007 204.757 157.157 204.788C157.307 204.819 157.462 204.814 157.61 204.773C157.757 204.732 157.893 204.657 158.006 204.554C158.119 204.45 158.206 204.322 158.259 204.178C158.44 204.045 158.464 203.887 158.511 203.573L158.843 201.368C158.836 201.072 158.768 200.78 158.642 200.511C158.516 200.243 158.335 200.003 158.111 199.809V199.809ZM182.183 153.195C182.064 153.099 181.923 153.033 181.773 153.002C181.624 152.972 181.468 152.977 181.321 153.017C181.173 153.058 181.038 153.133 180.925 153.237C180.812 153.34 180.725 153.468 180.672 153.612C180.49 153.746 180.467 153.903 180.419 154.218L180.088 156.422C180.067 156.743 180.121 157.065 180.243 157.362C180.366 157.66 180.555 157.925 180.796 158.139C185.077 160.481 188.537 164.081 190.705 168.452C192.874 172.824 193.648 177.756 192.923 182.582C192.198 187.408 190.008 191.895 186.65 195.435C183.292 198.976 178.927 201.401 174.147 202.38C173.825 202.466 173.538 202.651 173.326 202.908C173.115 203.164 172.988 203.481 172.965 203.813L172.634 206.017C172.569 206.303 172.61 206.602 172.749 206.86C172.888 207.117 173.115 207.316 173.389 207.419C173.608 207.475 173.839 207.453 174.043 207.356C180.05 206.37 185.589 203.504 189.864 199.17C194.139 194.837 196.929 189.259 197.834 183.24C198.739 177.22 197.711 171.068 194.899 165.67C192.087 160.271 187.635 155.903 182.183 153.195L182.183 153.195Z" fill="#304E86"/>
<path d="M79.9728 307.929C119.443 307.929 151.44 275.932 151.44 236.462C151.44 196.991 119.443 164.994 79.9728 164.994C40.5024 164.994 8.50537 196.991 8.50537 236.462C8.50537 275.932 40.5024 307.929 79.9728 307.929Z" fill="white"/>
<path d="M138.832 221.645C136.443 212.17 131.803 203.41 125.305 196.112C118.808 188.813 110.644 183.191 101.509 179.722C92.3735 176.253 82.5358 175.04 72.8313 176.186C63.1269 177.332 53.8424 180.804 45.7666 186.306L46.5731 187.31C47.7252 188.743 49.3336 189.738 51.1303 190.129C52.9271 190.52 54.8036 190.284 56.4473 189.46C63.4073 185.982 71.0521 184.093 78.8307 183.927C86.6092 183.762 94.3275 185.325 101.429 188.503C108.531 191.681 114.838 196.395 119.898 202.306C124.957 208.217 128.641 215.177 130.686 222.683L138.832 221.645Z" fill="#F4F6F9"/>
<path d="M121.58 280.655C120.293 279.051 118.44 278.002 116.402 277.723C114.364 277.444 112.297 277.957 110.627 279.157C103.748 284.091 95.7785 287.291 87.3972 288.485C79.0159 289.678 70.4702 288.83 62.4871 286.012C54.504 283.194 47.3194 278.49 41.5446 272.3C35.7697 266.109 31.5753 258.615 29.3181 250.456L21.1689 251.495C23.7837 261.725 29.022 271.095 36.3662 278.682C43.7105 286.268 52.9067 291.807 63.0465 294.751C73.1863 297.696 83.9188 297.945 94.1841 295.473C104.449 293 113.892 287.893 121.58 280.655H121.58Z" fill="#F4F6F9"/>
<path d="M79.8263 308.441C62.3405 308.4 45.4674 301.996 32.3574 290.425C19.2474 278.854 10.7966 262.908 8.58283 245.563C3.56481 206.198 31.5079 170.09 70.8725 165.071C110.235 160.058 146.345 187.997 151.363 227.361C153.777 246.295 148.57 265.412 136.889 280.507C125.207 295.602 108.008 305.438 89.0737 307.852C86.0068 308.244 82.9181 308.441 79.8263 308.441V308.441ZM80.0235 165.49C77.0062 165.49 73.992 165.682 70.9991 166.065C32.1818 171.013 4.62753 206.619 9.5759 245.436C11.3509 259.359 17.2147 272.443 26.4258 283.034C35.6369 293.625 47.7816 301.246 61.3242 304.934C74.8668 308.623 89.199 308.213 102.508 303.756C115.818 299.299 127.507 290.995 136.097 279.895C141.823 272.537 146.033 264.117 148.483 255.121C150.933 246.125 151.575 236.733 150.37 227.488C145.809 191.703 115.191 165.49 80.0235 165.49H80.0235Z" fill="#304E86"/>
<path d="M19.3026 238.822C19.1727 238.822 19.0479 238.771 18.9546 238.681C18.8613 238.591 18.8068 238.468 18.8026 238.338C18.337 223.131 23.5519 208.296 33.4305 196.726C43.309 185.156 57.1429 177.68 72.2343 175.757C87.3258 173.833 102.593 177.599 115.058 186.321C127.523 195.043 136.293 208.095 139.657 222.931C139.672 222.996 139.674 223.062 139.662 223.127C139.651 223.191 139.627 223.253 139.592 223.309C139.557 223.364 139.511 223.413 139.458 223.45C139.404 223.488 139.343 223.515 139.279 223.53C139.215 223.544 139.149 223.546 139.084 223.535C139.019 223.523 138.957 223.5 138.902 223.464C138.846 223.429 138.798 223.384 138.76 223.33C138.722 223.276 138.695 223.216 138.681 223.151C135.372 208.557 126.745 195.719 114.484 187.14C102.222 178.561 87.2054 174.857 72.361 176.749C57.5165 178.642 43.9091 185.995 34.1921 197.376C24.4752 208.756 19.3454 223.348 19.803 238.305C19.8052 238.371 19.7943 238.437 19.7711 238.498C19.7479 238.56 19.7128 238.616 19.6679 238.664C19.6229 238.712 19.5689 238.75 19.509 238.777C19.4491 238.804 19.3844 238.819 19.3187 238.822C19.3133 238.822 19.308 238.822 19.3026 238.822Z" fill="#304E86"/>
<path d="M79.9272 297.664C66.0557 297.651 52.6 292.927 41.7648 284.265C30.9296 275.604 23.3573 263.52 20.2886 249.992C20.2742 249.928 20.2725 249.862 20.2837 249.797C20.2949 249.732 20.3187 249.67 20.3538 249.615C20.389 249.559 20.4347 249.511 20.4884 249.473C20.5421 249.435 20.6028 249.408 20.6669 249.394C20.731 249.379 20.7973 249.378 20.8621 249.389C20.9268 249.4 20.9888 249.424 21.0443 249.459C21.0999 249.494 21.148 249.54 21.1858 249.594C21.2237 249.647 21.2506 249.708 21.2651 249.772C24.5744 264.366 33.2008 277.205 45.4621 285.783C57.7234 294.362 72.7405 298.067 87.585 296.175C102.429 294.282 116.037 286.929 125.754 275.548C135.471 264.168 140.601 249.576 140.143 234.618C140.141 234.552 140.151 234.487 140.175 234.426C140.198 234.364 140.233 234.308 140.278 234.26C140.323 234.212 140.377 234.173 140.437 234.146C140.496 234.119 140.561 234.104 140.627 234.102C140.692 234.1 140.758 234.111 140.819 234.134C140.881 234.157 140.937 234.192 140.985 234.237C141.033 234.282 141.072 234.336 141.099 234.396C141.126 234.456 141.141 234.52 141.143 234.586C141.391 242.78 139.99 250.94 137.025 258.582C134.06 266.225 129.59 273.194 123.881 279.077C118.172 284.96 111.34 289.636 103.789 292.829C96.2392 296.022 88.1247 297.666 79.9272 297.664H79.9272Z" fill="#304E86"/>
<path d="M42.0725 223.262C39.9627 223.261 37.9359 222.44 36.4211 220.971C34.9062 219.503 34.0221 217.502 33.9557 215.394C33.8893 213.285 34.6459 211.233 36.0654 209.672C37.4849 208.111 39.4559 207.164 41.5615 207.03C43.6671 206.897 45.742 207.588 47.3473 208.957C48.9526 210.326 49.9624 212.265 50.1629 214.366C50.3634 216.466 49.7391 218.562 48.4219 220.21C47.1046 221.858 45.1979 222.929 43.1051 223.196C42.7627 223.24 42.4177 223.262 42.0725 223.262V223.262ZM42.083 208.024C40.6363 208.023 39.2236 208.462 38.0331 209.284C36.8425 210.106 35.9306 211.271 35.4188 212.624C34.907 213.977 34.8197 215.454 35.1683 216.858C35.5169 218.262 36.2851 219.527 37.3704 220.484C38.4557 221.44 39.8067 222.043 41.2434 222.213C42.6801 222.382 44.1343 222.11 45.4124 221.432C46.6905 220.755 47.7318 219.703 48.3976 218.419C49.0634 217.135 49.3221 215.678 49.1392 214.243V214.242C48.9181 212.526 48.0803 210.949 46.782 209.805C45.4837 208.66 43.8135 208.027 42.083 208.024H42.083Z" fill="#304E86"/>
<path d="M8.55056 236.965C8.42337 236.965 8.30102 236.917 8.20837 236.83C8.11572 236.742 8.05973 236.623 8.05176 236.496C8.0438 236.369 8.08446 236.244 8.16549 236.146C8.24652 236.048 8.36183 235.985 8.488 235.968L27.1723 233.587L36.8545 221.075C36.9361 220.971 37.0556 220.903 37.1869 220.886C37.3182 220.87 37.4507 220.906 37.5554 220.987C37.6601 221.068 37.7284 221.188 37.7454 221.319C37.7625 221.45 37.7268 221.583 37.6463 221.688L27.837 234.363C27.7555 234.468 27.636 234.536 27.5044 234.554L8.61458 236.962C8.59333 236.964 8.57196 236.965 8.55056 236.965V236.965Z" fill="#304E86"/>
<path d="M48.6338 274.726C46.5242 274.725 44.4976 273.904 42.9828 272.436C41.4679 270.967 40.5837 268.968 40.5172 266.859C40.4507 264.75 41.2071 262.699 42.6264 261.138C44.0457 259.577 46.0165 258.63 48.1218 258.496C50.2272 258.362 52.302 259.053 53.9071 260.422C55.5123 261.791 56.522 263.73 56.7226 265.831C56.9232 267.931 56.2989 270.026 54.9819 271.674C53.6648 273.322 51.7583 274.393 49.6657 274.66C49.3235 274.704 48.9788 274.726 48.6338 274.726V274.726ZM48.6538 259.487C48.3479 259.487 48.0423 259.507 47.7389 259.546C46.3424 259.724 45.03 260.312 43.9677 261.236C42.9054 262.159 42.141 263.378 41.771 264.736C41.401 266.094 41.4422 267.532 41.8892 268.867C42.3362 270.202 43.1691 271.374 44.2824 272.236C45.3958 273.097 46.7396 273.609 48.1441 273.707C49.5485 273.805 50.9504 273.484 52.1725 272.786C53.3946 272.087 54.382 271.041 55.0098 269.781C55.6377 268.521 55.8778 267.103 55.6998 265.706V265.706C55.4808 263.991 54.645 262.413 53.3484 261.269C52.0519 260.125 50.3832 259.491 48.6538 259.487V259.487Z" fill="#304E86"/>
<path d="M42.3998 262.279C42.2891 262.279 42.1814 262.242 42.0939 262.174L29.5819 252.491L10.8978 254.873C10.8326 254.882 10.7664 254.877 10.703 254.86C10.6396 254.843 10.5802 254.813 10.5282 254.773C10.4762 254.733 10.4327 254.682 10.4 254.625C10.3674 254.568 10.3463 254.505 10.338 254.44C10.3297 254.375 10.3343 254.309 10.3516 254.245C10.3689 254.182 10.3985 254.123 10.4387 254.071C10.4789 254.019 10.529 253.975 10.5861 253.942C10.6431 253.91 10.7061 253.889 10.7713 253.88L29.6611 251.472C29.7927 251.457 29.9252 251.493 30.0306 251.573L42.7063 261.382C42.7889 261.446 42.8495 261.534 42.8795 261.634C42.9096 261.734 42.9076 261.841 42.8738 261.94C42.84 262.039 42.7761 262.125 42.6911 262.185C42.6061 262.246 42.5043 262.279 42.3998 262.279L42.3998 262.279Z" fill="#304E86"/>
<path d="M117.851 265.901C115.878 265.897 113.975 265.174 112.496 263.869C111.017 262.564 110.064 260.765 109.814 258.808V258.808C109.611 257.215 109.885 255.597 110.601 254.16C111.317 252.723 112.443 251.53 113.837 250.733C115.231 249.936 116.83 249.57 118.432 249.682C120.034 249.793 121.567 250.377 122.837 251.36C124.107 252.343 125.057 253.68 125.567 255.203C126.077 256.726 126.124 258.365 125.702 259.915C125.28 261.464 124.408 262.853 123.196 263.907C121.984 264.961 120.487 265.632 118.895 265.835C118.548 265.879 118.2 265.901 117.851 265.901V265.901ZM110.807 258.681C110.807 256.5 111.673 254.408 113.216 252.866C114.758 251.324 116.85 250.457 119.031 250.457C121.212 250.457 123.304 251.324 124.846 252.866C126.389 254.408 127.255 256.5 127.255 258.681C127.255 260.862 126.389 262.954 124.846 264.497C123.304 266.039 121.212 266.905 119.031 266.905C116.85 266.905 114.758 266.039 113.216 264.497C111.673 262.955 110.807 260.863 110.807 258.682V258.681Z" fill="#304E86"/>
<path d="M122.696 252.043C122.602 252.043 122.51 252.016 122.431 251.967C122.352 251.917 122.288 251.847 122.246 251.763C122.205 251.679 122.188 251.585 122.198 251.492C122.207 251.399 122.243 251.31 122.3 251.236L132.109 238.56C132.191 238.456 132.31 238.387 132.442 238.37L151.332 235.962C151.463 235.947 151.595 235.984 151.7 236.065C151.805 236.146 151.874 236.265 151.892 236.396C151.908 236.527 151.872 236.66 151.791 236.765C151.71 236.87 151.59 236.938 151.458 236.955L132.774 239.337L123.092 251.849C123.045 251.909 122.985 251.958 122.916 251.992C122.848 252.025 122.772 252.043 122.696 252.043V252.043Z" fill="#304E86"/>
<path d="M111.301 214.437C109.328 214.433 107.423 213.711 105.942 212.406C104.461 211.101 103.506 209.302 103.253 207.345V207.344C103.045 205.708 103.341 204.047 104.1 202.583C104.859 201.119 106.046 199.921 107.504 199.149C108.961 198.376 110.619 198.066 112.257 198.26C113.894 198.453 115.434 199.141 116.672 200.231C117.909 201.321 118.785 202.763 119.182 204.363C119.58 205.964 119.481 207.648 118.897 209.19C118.314 210.733 117.275 212.062 115.918 212.999C114.561 213.936 112.951 214.438 111.301 214.437V214.437ZM104.246 207.218C104.246 205.036 105.113 202.945 106.655 201.402C108.198 199.86 110.29 198.994 112.471 198.994C114.652 198.994 116.744 199.86 118.286 201.402C119.828 202.945 120.695 205.037 120.695 207.218C120.695 209.399 119.828 211.491 118.286 213.033C116.744 214.575 114.652 215.442 112.471 215.442C110.29 215.442 108.198 214.576 106.655 213.033C105.113 211.491 104.246 209.399 104.246 207.218V207.218Z" fill="#304E86"/>
<path d="M130.222 221.455C130.111 221.455 130.003 221.418 129.915 221.35L117.24 211.541C117.188 211.501 117.144 211.451 117.111 211.394C117.079 211.337 117.057 211.274 117.049 211.209C117.041 211.143 117.045 211.077 117.062 211.014C117.08 210.95 117.109 210.891 117.15 210.839C117.19 210.787 117.24 210.743 117.297 210.711C117.354 210.678 117.417 210.657 117.482 210.649C117.548 210.64 117.614 210.645 117.677 210.662C117.741 210.68 117.8 210.709 117.852 210.749L130.364 220.432L149.048 218.05C149.18 218.034 149.312 218.07 149.417 218.151C149.522 218.233 149.59 218.352 149.607 218.484C149.623 218.615 149.587 218.748 149.506 218.853C149.425 218.958 149.306 219.026 149.175 219.043L130.285 221.451C130.264 221.454 130.243 221.455 130.222 221.455V221.455Z" fill="#304E86"/>
<path d="M69.1861 165.791L72.6844 165.345L73.0001 167.822C73.0592 168.286 72.9316 168.754 72.6454 169.124C72.3592 169.494 71.9378 169.735 71.4739 169.794C71.01 169.853 70.5416 169.726 70.1717 169.439C69.8019 169.153 69.5609 168.732 69.5017 168.268L69.186 165.791L69.1861 165.791Z" fill="#304E86"/>
<path d="M90.7598 307.133L87.2614 307.579L86.9457 305.102C86.8865 304.638 87.0141 304.17 87.3003 303.8C87.5866 303.43 88.008 303.189 88.4719 303.13V303.13C88.9358 303.071 89.4042 303.199 89.7741 303.485C90.1439 303.771 90.3849 304.192 90.4441 304.656L90.7598 307.133L90.7598 307.133Z" fill="#304E86"/>
<path d="M122.318 178.863L125.107 181.021L123.579 182.996C123.293 183.366 122.871 183.607 122.407 183.666C121.944 183.725 121.475 183.597 121.105 183.311C120.735 183.025 120.494 182.604 120.435 182.14C120.376 181.676 120.504 181.207 120.79 180.837L122.318 178.863L122.318 178.863Z" fill="#304E86"/>
<path d="M37.6284 294.061L34.8394 291.903L36.3673 289.928C36.6535 289.558 37.0749 289.317 37.5388 289.258C38.0027 289.199 38.4712 289.327 38.841 289.613C39.2109 289.899 39.4519 290.321 39.511 290.784C39.5701 291.248 39.4426 291.717 39.1563 292.087L37.6284 294.061L37.6284 294.061Z" fill="#304E86"/>
<path d="M137.572 278.806L135.414 281.595L133.439 280.068C133.07 279.781 132.829 279.36 132.769 278.896C132.71 278.432 132.838 277.964 133.124 277.594C133.41 277.224 133.832 276.983 134.296 276.924C134.76 276.865 135.228 276.992 135.598 277.278L137.572 278.806V278.806Z" fill="#304E86"/>
<path d="M22.374 194.117L24.5324 191.328L26.5068 192.856C26.8767 193.143 27.1177 193.564 27.1768 194.028C27.2359 194.492 27.1084 194.96 26.8221 195.33C26.5359 195.7 26.1145 195.941 25.6506 196C25.1867 196.059 24.7183 195.932 24.3484 195.645L22.374 194.117L22.374 194.117Z" fill="#304E86"/>
<path d="M92.884 232.502C95.6415 230.624 97.1478 227.744 96.1544 223.391L96.1526 223.391L96.1526 223.391C94.8053 217.442 89.3485 216.085 82.7105 216.347L81.7879 209.11C81.7692 208.963 81.7217 208.821 81.6482 208.693C81.5747 208.564 81.4766 208.452 81.3596 208.361C81.2425 208.271 81.1088 208.204 80.9659 208.165C80.8231 208.126 80.674 208.116 80.5272 208.135L77.6774 208.498C77.3809 208.536 77.1116 208.69 76.9287 208.927C76.7458 209.163 76.6643 209.462 76.7021 209.759L77.597 216.776C76.2599 216.946 74.8967 217.147 73.5422 217.347L72.6415 210.276C72.6228 210.129 72.5753 209.988 72.5019 209.859C72.4284 209.731 72.3304 209.618 72.2133 209.527C72.0963 209.437 71.9625 209.37 71.8197 209.331C71.6769 209.292 71.5278 209.282 71.381 209.3L68.5339 209.663C68.2375 209.701 67.9682 209.855 67.7852 210.092C67.6023 210.328 67.5207 210.627 67.5584 210.924L68.4793 218.159C67.3813 218.322 66.3024 218.48 65.2482 218.615L65.2442 218.589L59.3482 219.339C59.2013 219.357 59.0596 219.405 58.931 219.478C58.8025 219.552 58.6897 219.65 58.599 219.767C58.5084 219.884 58.4418 220.018 58.4029 220.161C58.364 220.304 58.3536 220.453 58.3724 220.6L58.7782 223.777C58.797 223.925 58.8451 224.068 58.9196 224.197C58.9941 224.326 59.0935 224.44 59.2122 224.53C59.3308 224.621 59.4662 224.687 59.6106 224.725C59.755 224.762 59.9055 224.771 60.0532 224.75C61.1515 224.595 62.6502 224.391 62.6162 224.439C64.676 224.177 65.4991 225.288 65.8261 226.295L68.7434 249.185C68.7593 249.423 68.7281 249.662 68.6514 249.888C68.5747 250.113 68.4541 250.322 68.2965 250.501C68.1389 250.68 67.9474 250.827 67.7331 250.932C67.5187 251.037 67.2857 251.098 67.0476 251.113C67.0973 251.146 64.8666 251.416 63.4516 251.582C63.3035 251.6 63.1603 251.647 63.0303 251.72C62.9003 251.793 62.7862 251.892 62.6946 252.009C62.603 252.127 62.5357 252.262 62.4966 252.406C62.4575 252.55 62.4474 252.7 62.4668 252.848L62.9682 256.672C63.007 256.968 63.1613 257.236 63.3975 257.418C63.6337 257.6 63.9324 257.682 64.2282 257.644L69.7327 256.942C70.9647 256.787 72.1792 256.653 73.3701 256.508L74.3069 263.841C74.3447 264.137 74.4988 264.407 74.7351 264.59C74.9715 264.772 75.2708 264.854 75.5672 264.816L78.4119 264.454C78.5587 264.435 78.7004 264.388 78.8289 264.314C78.9574 264.241 79.0702 264.143 79.1608 264.026C79.2514 263.909 79.318 263.775 79.3569 263.632C79.3958 263.489 79.4062 263.34 79.3875 263.193L78.4638 255.95C79.8625 255.802 81.2135 255.64 82.5317 255.471L83.4481 262.676C83.4668 262.822 83.5142 262.964 83.5877 263.093C83.6612 263.221 83.7592 263.334 83.8763 263.425C83.9934 263.515 84.1272 263.582 84.27 263.621C84.4129 263.66 84.562 263.67 84.7088 263.651L87.5587 263.288C87.8552 263.25 88.1245 263.096 88.3074 262.859C88.4903 262.623 88.5718 262.324 88.5341 262.027L87.6023 254.709C96.0903 253.129 101.8 250.212 101.519 242.088C101.295 235.546 97.886 233.049 92.884 232.502ZM74.4239 223.309C77.295 222.943 86.197 220.88 86.9617 226.872L86.9612 226.872C87.6922 232.618 78.589 233.097 75.718 233.463L74.4239 223.309ZM91.3406 242.367C92.1483 248.682 81.2439 249.342 77.7974 249.785L76.3715 238.588C79.8193 238.15 90.5013 235.781 91.3408 242.367L91.3406 242.367Z" fill="#304E86"/>
</svg>
