<svg id="Layer_1" data-name="Layer 1" xmlns="http://www.w3.org/2000/svg" viewBox="0 0 512 512"><circle cx="345.39642" cy="198.56677" r="142.80403" fill="#fff"/><path d="M466.62338,202.12735a121.32807,121.32807,0,0,0-159.682-118.61321l1.00407,2.36886a16.07191,16.07191,0,0,0,17.813,9.51032A105.07128,105.07128,0,0,1,450.39662,199.68849Z" fill="#f4f6f9"/><path d="M401.326,306.18521A16.05626,16.05626,0,0,0,381.08414,297.34a105.04425,105.04425,0,0,1-140.69381-99.44875l-16.23286-2.43978A121.27965,121.27965,0,0,0,401.326,306.18523Z" fill="#f4f6f9"/><path d="M345.70117,342.40039a145.801,145.801,0,0,1-21.67822-1.627,143.804,143.804,0,0,1-120.833-163.58008c11.78565-78.41211,85.166-132.61621,163.57959-120.834,78.41309,11.78613,132.61865,85.168,120.8335,163.58105a143.87232,143.87232,0,0,1-141.90186,122.46ZM345.30762,56.75c-68.9585,0-129.58692,50.52539-140.14014,120.74023a141.80409,141.80409,0,0,0,280.458,42.15332l.98877.14844-.98877-.14844C497.24658,142.32129,443.79492,69.959,366.47266,58.33789A142.40533,142.40533,0,0,0,345.30762,56.75Z" fill="#304e86"/><path d="M466.5127,205.99609a.52173.52173,0,0,1-.05518-.002.99941.99941,0,0,1-.94434-1.05176A120.28648,120.28648,0,0,0,228.7124,169.35156a1,1,0,1,1-1.94043-.48437A122.28643,122.28643,0,0,1,467.51025,205.0498,1.00019,1.00019,0,0,1,466.5127,205.99609Z" fill="#304e86"/><path d="M345.49072,320.86035A122.30616,122.30616,0,0,1,223.28271,192.084a.9721.9721,0,0,1,1.05274-.94433.99941.99941,0,0,1,.94434,1.05176,120.28618,120.28618,0,0,0,236.80029,35.59082,1,1,0,1,1,1.94043.48437,122.32019,122.32019,0,0,1-118.52979,92.59375Z" fill="#304e86"/><path d="M284.15869,153.1709a16.22637,16.22637,0,0,1-16.05224-18.63574,16.22314,16.22314,0,1,1,16.05224,18.63574Zm-.03955-30.4502a14.26793,14.26793,0,1,0,2.14453.16114A14.3351,14.3351,0,0,0,284.11914,122.7207Z" fill="#304e86"/><path d="M245.71,166.34082a1.0851,1.0851,0,0,1-.14844-.01074l-37.62793-5.65528a1.00033,1.00033,0,0,1,.29688-1.97851L245.44922,164.29l25.42724-18.78223a1.00032,1.00032,0,0,1,1.18848,1.60938L246.3042,166.14551A1.00033,1.00033,0,0,1,245.71,166.34082Z" fill="#304e86"/><path d="M268.77637,255.6875a16.55484,16.55484,0,0,1-2.4458-.18359,16.22363,16.22363,0,1,1,18.4541-13.63184h0a16.23149,16.23149,0,0,1-16.0083,13.81543Zm-.06494-30.45312a14.22544,14.22544,0,1,0,14.0957,16.34082h0a14.24288,14.24288,0,0,0-14.0957-16.34082Zm15.08447,16.48925h0Z" fill="#304e86"/><path d="M259.377,227.78125a.998.998,0,0,1-.80517-.40625l-18.78272-25.42676-37.21826-5.59375a1.00033,1.00033,0,0,1,.29688-1.97851l37.62793,5.65527a.99958.99958,0,0,1,.65576.39551l19.02881,25.76074a.9994.9994,0,0,1-.80323,1.59375Z" fill="#304e86"/><path d="M406.67822,276.41406a16.55494,16.55494,0,0,1-2.4458-.18359,16.15514,16.15514,0,1,1,2.4458.18359Zm-.06543-30.45312a14.22818,14.22818,0,0,0-14.03467,12.1123h0a14.22337,14.22337,0,1,0,16.1792-11.95117A14.33508,14.33508,0,0,0,406.61279,245.96094ZM391.58936,257.9248h0Z" fill="#304e86"/><path d="M419.32324,251.82129a1.00039,1.00039,0,0,1-.59521-1.80469l25.76074-19.0293a1.01348,1.01348,0,0,1,.74268-.18457l37.62793,5.65625a1.00033,1.00033,0,0,1-.29688,1.97852l-37.21875-5.59473L419.9165,251.626A.99684.99684,0,0,1,419.32324,251.82129Z" fill="#304e86"/><path d="M422.06055,173.89746a16.29379,16.29379,0,0,1-2.42041-.18066,16.22352,16.22352,0,0,1-13.63184-18.45508h0a16.22315,16.22315,0,1,1,16.05225,18.63574Zm-.04-30.45019a14.22845,14.22845,0,0,0-14.03467,12.11132h0a14.22411,14.22411,0,1,0,16.17969-11.95019A14.34175,14.34175,0,0,0,422.02051,143.44727Zm-15.02344,11.96289h0Z" fill="#304e86"/><path d="M488.0752,202.76855a1.11056,1.11056,0,0,1-.14991-.01074l-37.62793-5.65625a.99958.99958,0,0,1-.65576-.39551l-19.0293-25.76074a.99964.99964,0,1,1,1.6084-1.1875l18.78321,25.42676,37.21826,5.59473a1.00019,1.00019,0,0,1-.147,1.98925Z" fill="#304e86"/><path d="M362.46529,57.30161h7.04691a0,0,0,0,1,0,0v4.98855a3.52345,3.52345,0,0,1-3.52345,3.52345h0a3.52345,3.52345,0,0,1-3.52345-3.52345V57.30161a0,0,0,0,1,0,0Z" transform="translate(13.21437 -53.71312) rotate(8.54753)" fill="#304e86"/><path d="M321.28064,331.31993h7.04691a0,0,0,0,1,0,0v4.98855a3.52345,3.52345,0,0,1-3.52345,3.52345h0a3.52345,3.52345,0,0,1-3.52345-3.52345v-4.98855A0,0,0,0,1,321.28064,331.31993Z" transform="translate(596.12404 715.70012) rotate(-171.45248)" fill="#304e86"/><path d="M453.314,111.99164H460.361a0,0,0,0,1,0,0v4.98855a3.52345,3.52345,0,0,1-3.52345,3.52345h0a3.52345,3.52345,0,0,1-3.52345-3.52345v-4.98855A0,0,0,0,1,453.314,111.99164Z" transform="translate(278.90839 -320.2787) rotate(53.54749)" fill="#304e86"/><path d="M230.43188,276.6299h7.04691a0,0,0,0,1,0,0v4.98855a3.52345,3.52345,0,0,1-3.52345,3.52345h0a3.52345,3.52345,0,0,1-3.52345-3.52345V276.6299A0,0,0,0,1,230.43188,276.6299Z" transform="translate(147.03089 635.95792) rotate(-126.45251)" fill="#304e86"/><path d="M424.19208,305.75187H431.239a0,0,0,0,1,0,0v4.98855a3.52345,3.52345,0,0,1-3.52345,3.52345h0a3.52345,3.52345,0,0,1-3.52345-3.52345v-4.98855a0,0,0,0,1,0,0Z" transform="translate(955.94149 305.23314) rotate(143.54754)" fill="#304e86"/><path d="M259.55385,82.86967h7.04691a0,0,0,0,1,0,0v4.98855a3.52345,3.52345,0,0,1-3.52345,3.52345h0a3.52345,3.52345,0,0,1-3.52345-3.52345V82.86967A0,0,0,0,1,259.55385,82.86967Z" transform="translate(-0.29507 173.35527) rotate(-36.45252)" fill="#304e86"/><path d="M364.796,212.903c1.65491-11.01077-4.3843-15.77895-17.36115-19.33764-9.24884-2.67718-10.75821-5.47744-10.09616-9.88236s4.23376-6.76268,10.52553-5.817c5.66281.85112,8.52537,3.21161,9.38885,8.167a2.3927,2.3927,0,0,0,1.96608,1.90378l5.03311.75648a2.17451,2.17451,0,0,0,2.53337-1.87068l.04733-.31485a15.89373,15.89373,0,0,0-12.21842-15.02617l1.13482-7.55042c.18917-1.25865-.61277-2.34431-2.1382-2.89554l-4.719-.70927c-1.25866-.18917-2.34431.61278-2.89566,2.139l-1.0875,7.23557c-9.6272-.15987-16.54976,5.23357-17.7319,13.09884-1.56038,10.38182,4.11676,15.41677,17.09349,18.97621,8.5727,2.89675,11.1204,5.20991,10.36381,10.24378s-5.68158,7.83217-11.6585,6.93384c-8.18012-1.22946-10.49132-5.11613-10.72586-9.977a2.3234,2.3234,0,0,0-1.918-2.21851l-5.34871-.80391a2.1745,2.1745,0,0,0-2.53273,1.87154l-.04732.31486c.07586,8.05358,4.25861,14.473,14.40394,17.60686l-1.13482,7.55042c-.18906,1.2579.61289,2.34356,2.13832,2.89479l4.719.70926c1.25865.18918,2.34431-.61277,2.89554-2.1382l1.13482-7.55042c9.67452-.155,16.95925-5.81594,18.23592-14.31016Z" fill="#304e86"/><path d="M322.732,240.19913a47.60593,47.60593,0,0,1,13.28684-88.40256,3.19323,3.19323,0,0,0,2.36048-2.86256l.66195-4.40415a2.41813,2.41813,0,0,0-1.50937-2.80026,1.91578,1.91578,0,0,0-1.30587.12492,57.24887,57.24887,0,0,0-16.21853,107.90831,1.93416,1.93416,0,0,0,3.02058-.8331c.36206-.26677.40938-.58162.50391-1.21058l.66206-4.40491A4.2375,4.2375,0,0,0,322.732,240.19913Zm48.10062-93.14327a1.93416,1.93416,0,0,0-3.02058.8331c-.36218.26753-.40938.58163-.504,1.21133l-.66194,4.40416a4.21985,4.21985,0,0,0,1.41472,3.43A47.60593,47.60593,0,0,1,354.774,245.337a3.19321,3.19321,0,0,0-2.36049,2.86256l-.66194,4.40416a2.41812,2.41812,0,0,0,1.50937,2.80026,1.91579,1.91579,0,0,0,1.30587-.12493,57.49424,57.49424,0,0,0,16.26585-108.22316Z" fill="#304e86"/><circle cx="166.59956" cy="313.43724" r="142.80403" fill="#fff"/><path d="M284.20947,283.83044a121.32807,121.32807,0,0,0-185.96-70.61376L99.861,215.2223a16.0719,16.0719,0,0,0,19.73035,4.29667,105.0713,105.0713,0,0,1,148.3408,66.38646Z" fill="#f4f6f9"/><path d="M249.73729,401.74334a16.05626,16.05626,0,0,0-21.8861-2.99484A105.04425,105.04425,0,0,1,65.38288,341.4l-16.28342,2.07577A121.27964,121.27964,0,0,0,249.7373,401.74335Z" fill="#f4f6f9"/><path d="M166.30615,457.26465A143.856,143.856,0,0,1,23.94971,331.62207c-10.02686-78.65723,45.8081-150.80762,124.46533-160.835,78.65381-10.01758,150.80762,45.80859,160.83447,124.46582a143.80439,143.80439,0,0,1-124.46533,160.834A146.2166,146.2166,0,0,1,166.30615,457.26465Zm.394-285.6416a142.533,142.533,0,0,0-18.03223,1.14843c-77.56348,9.8877-132.62158,81.03418-122.73389,158.59766a141.80421,141.80421,0,0,0,252.81055,68.85449,140.87453,140.87453,0,0,0,28.52051-104.71777C298.15039,224.002,236.97119,171.62305,166.7002,171.62305Z" fill="#304e86"/><path d="M45.37012,318.15332a.99975.99975,0,0,1-.999-.96777,122.28645,122.28645,0,0,1,241.48829-30.78418,1,1,0,1,1-1.95118.43945A120.28635,120.28635,0,0,0,46.37012,317.12109a.99941.99941,0,0,1-.96778,1.03125C45.3916,318.15332,45.38086,318.15332,45.37012,318.15332Z" fill="#304e86"/><path d="M166.50781,435.72949a122.3157,122.3157,0,0,1-119.168-95.25683,1,1,0,1,1,1.95118-.43946,120.286,120.286,0,0,0,237.53759-30.28027,1,1,0,0,1,1.999-.06445,122.34746,122.34746,0,0,1-122.31983,126.041Z" fill="#304e86"/><path d="M90.86768,287.06152a16.23315,16.23315,0,1,1,2.06347-.13086A16.24843,16.24843,0,0,1,90.86768,287.06152Zm.021-30.44824A14.22483,14.22483,0,1,0,104.98828,269.04v-.001A14.246,14.246,0,0,0,90.88867,256.61328Z" fill="#304e86"/><path d="M23.88525,314.44336a1.00011,1.00011,0,0,1-.125-1.99219l37.33448-4.75879,19.34668-25.001a1.00031,1.00031,0,0,1,1.582,1.22461L62.42285,309.24414a1.00628,1.00628,0,0,1-.66455.37988l-37.74512,4.81153A1.132,1.132,0,0,1,23.88525,314.44336Z" fill="#304e86"/><path d="M103.978,389.89551a16.23136,16.23136,0,1,1,2.062-.13086A16.24919,16.24919,0,0,1,103.978,389.89551Zm.04-30.4502a14.42037,14.42037,0,0,0-1.82813.11719,14.22306,14.22306,0,1,0,15.90723,12.31055v-.001a14.22852,14.22852,0,0,0-14.0791-12.42676Z" fill="#304e86"/><path d="M91.522,365.02344a.99728.99728,0,0,1-.61133-.209l-25.001-19.34765-37.334,4.75976a1.00021,1.00021,0,0,1-.25293-1.98437l37.74512-4.81153a1.01706,1.01706,0,0,1,.73828.20118l25.32813,19.60058a.99985.99985,0,0,1-.61231,1.791Z" fill="#304e86"/><path d="M242.28613,372.2627a16.22926,16.22926,0,0,1-16.06006-14.17383v-.001a16.22347,16.22347,0,1,1,18.145,14.042A16.48965,16.48965,0,0,1,242.28613,372.2627ZM228.21045,357.835a16.43327,16.43327,0,1,1,0,.001Z" fill="#304e86"/><path d="M251.96631,344.57031a1.00022,1.00022,0,0,1-.79053-1.6123l19.60059-25.32813a1.00624,1.00624,0,0,1,.66455-.37988l37.74512-4.81152a1.01035,1.01035,0,0,1,1.11865.86621,1.00017,1.00017,0,0,1-.86573,1.11816l-37.33447,4.75879-19.34668,25.001A1.00038,1.00038,0,0,1,251.96631,344.57031Z" fill="#304e86"/><path d="M229.19873,269.42773a16.24842,16.24842,0,0,1-16.08154-14.17187v-.001a16.2185,16.2185,0,1,1,16.08154,14.17285ZM215.10156,255.002a16.43326,16.43326,0,1,1,0,.001Z" fill="#304e86"/><path d="M267.00488,283.45117a1.00236,1.00236,0,0,1-.61181-.209L241.06494,263.6416a1,1,0,1,1,1.22363-1.582l25.001,19.34766,37.334-4.75977a1.00022,1.00022,0,0,1,.25292,1.98438l-37.74511,4.81152A1.09956,1.09956,0,0,1,267.00488,283.45117Z" fill="#304e86"/><path d="M145.55613,171.74542H152.603a0,0,0,0,1,0,0V176.734a3.52345,3.52345,0,0,1-3.52345,3.52345h0a3.52345,3.52345,0,0,1-3.52345-3.52345v-4.98855a0,0,0,0,1,0,0Z" transform="matrix(0.99197, -0.12645, 0.12645, 0.99197, -21.05935, 20.26457)" fill="#304e86"/><path d="M180.59609,446.61706H187.643a0,0,0,0,1,0,0v4.98855a3.52345,3.52345,0,0,1-3.52345,3.52345h0a3.52345,3.52345,0,0,1-3.52345-3.52345v-4.98855A0,0,0,0,1,180.59609,446.61706Z" transform="translate(423.77577 874.84408) rotate(172.73527)" fill="#304e86"/><path d="M247.86942,199.61094h7.04691a0,0,0,0,1,0,0v4.98855a3.52345,3.52345,0,0,1-3.52345,3.52345h0a3.52345,3.52345,0,0,1-3.52345-3.52345v-4.98855A0,0,0,0,1,247.86942,199.61094Z" transform="translate(177.3491 -111.21658) rotate(37.73529)" fill="#304e86"/><path d="M78.2828,418.75154h7.04691a0,0,0,0,1,0,0v4.98855a3.52345,3.52345,0,0,1-3.52345,3.52345h0a3.52345,3.52345,0,0,1-3.52345-3.52345v-4.98855A0,0,0,0,1,78.2828,418.75154Z" transform="translate(-112.38409 807.60831) rotate(-142.26472)" fill="#304e86"/><path d="M272.64639,393.97457h7.04691a0,0,0,0,1,0,0v4.98855a3.52345,3.52345,0,0,1-3.52345,3.52345h0a3.52345,3.52345,0,0,1-3.52345-3.52345v-4.98855A0,0,0,0,1,272.64639,393.97457Z" transform="translate(760.12909 423.54503) rotate(127.73525)" fill="#304e86"/><path d="M53.50583,224.38791h7.04691a0,0,0,0,1,0,0v4.98855a3.52345,3.52345,0,0,1-3.52345,3.52345h0a3.52345,3.52345,0,0,1-3.52345-3.52345v-4.98855A0,0,0,0,1,53.50583,224.38791Z" transform="translate(-158.69578 133.8121) rotate(-52.26473)" fill="#304e86"/><path d="M192.39821,305.52461c5.50983-3.7517,8.51979-9.50728,6.53484-18.20449l-.00369-.00091-.00009.001c-2.692-11.88867-13.5956-14.599-26.85954-14.07586l-1.84353-14.46086a2.252,2.252,0,0,0-2.519-1.94906l-5.69442.72674a2.252,2.252,0,0,0-1.94882,2.51875l1.78824,14.02151c-2.67186.34037-5.39563.7414-8.10226,1.14144l-1.79976-14.12927a2.252,2.252,0,0,0-2.51871-1.94943l-5.68888.72521a2.252,2.252,0,0,0-1.94921,2.51824l1.84009,14.45742c-2.194.32546-4.34992.64232-6.45634.91191l-.00791-.05211-11.78127,1.49751a2.252,2.252,0,0,0-1.9499,2.51934l.81094,6.3488a2.25073,2.25073,0,0,0,2.54771,1.94462c2.19462-.31062,5.18929-.71852,5.12127-.62112,4.11577-.52365,5.7606,1.69564,6.414,3.7078l5.82907,45.73744a3.61718,3.61718,0,0,1-3.38848,3.85263c.09932.06729-4.358.60533-7.18525.93868a2.251,2.251,0,0,0-1.96784,2.52912l1.0018,7.64146a2.252,2.252,0,0,0,2.51775,1.94114l10.999-1.4025c2.46162-.31038,4.88839-.57729,7.26809-.86619l1.8718,14.65189a2.252,2.252,0,0,0,2.51836,1.94859l5.68411-.72386a2.252,2.252,0,0,0,1.94943-2.51887l-1.84568-14.47269c2.79493-.29754,5.49447-.61931,8.1283-.95724l1.83118,14.39533a2.25193,2.25193,0,0,0,2.51911,1.94965l5.69467-.72678a2.25206,2.25206,0,0,0,1.94884-2.51838l-1.86187-14.62254c16.96044-3.15816,28.36942-8.98612,27.80838-25.22021C209.20443,311.60678,202.39289,306.61732,192.39821,305.52461Zm-36.88642-18.36939c5.73679-.73168,23.5246-4.85279,25.05251,7.12021l-.00082.00029c1.46064,11.48031-16.72917,12.438-22.46593,13.16971Zm33.80232,38.08228c1.614,12.618-20.17492,13.9373-27.06148,14.82179l-2.84935-22.3728c6.88936-.87611,28.23388-5.61076,29.91123,7.55087Z" fill="#304e86"/></svg>