<svg id="Layer_1" data-name="Layer 1" xmlns="http://www.w3.org/2000/svg" viewBox="0 0 512 512"><path d="M412.78,431.59747,199.8357,415.67757a11.44013,11.44013,0,0,1-10.5554-12.26118L214.87516,61.0598a11.44014,11.44014,0,0,1,12.26119-10.5554L407.57729,63.99432l40.62882,47.19456L425.04123,421.04207A11.44014,11.44014,0,0,1,412.78,431.59747Z" fill="#fff"/><path d="M413.14,106.36962l14.78621,20.97217a10.38723,10.38723,0,0,0,18.84773-5.211l.82145-10.9876Z" fill="#f4f6f9"/><path d="M413.03125,432.584c-.31055,0-.62207-.01171-.93652-.03515L199.15039,416.62891a12.43779,12.43779,0,0,1-11.47754-13.333L213.26758,60.93945a12.45656,12.45656,0,0,1,13.332-11.478L407.041,62.95166a.99814.99814,0,0,1,.68359.34473l40.62891,47.19433a1.00125,1.00125,0,0,1,.23925.72705l-23.165,309.85352A12.45818,12.45818,0,0,1,413.03125,432.584ZM225.666,51.42627a10.45381,10.45381,0,0,0-10.4043,9.6626L189.667,403.44531a10.43843,10.43843,0,0,0,9.63184,11.18946l212.94433,15.91992a10.44668,10.44668,0,0,0,11.19043-9.63281l23.13379-309.44043L406.47949,64.915,226.45117,51.45557Q226.05567,51.42628,225.666,51.42627Z" fill="#304e86"/><path d="M447.59535,111.14322l-32.5034-2.43a11.44013,11.44013,0,0,1-10.5554-12.26119l2.43-32.5034Z" fill="#304e86"/><path d="M280.11328,96.21387l-.24414,3.2539-.31836-.02343a5.19116,5.19116,0,0,0-.50781-1.666,2.41324,2.41324,0,0,0-.89063-.85449,3.01672,3.01672,0,0,0-1.166-.248l-.89453-.06738-.69532,9.27441a3.90264,3.90264,0,0,0,.01563,1.16016.91453.91453,0,0,0,.36914.43262,1.62372,1.62372,0,0,0,.79883.23339l.39844.03028-.02344.32812-6.29492-.4707.02343-.32813.40039.03028a1.68286,1.68286,0,0,0,.85547-.123.8493.8493,0,0,0,.39453-.39941,3.62827,3.62827,0,0,0,.18164-1.10938l.69336-9.27344-.86914-.06543a2.53358,2.53358,0,0,0-1.80273.38282,3.41608,3.41608,0,0,0-1.12891,1.97461l-.33593-.02539.24218-3.25293Z" fill="#304e86"/><path d="M285.46875,103.19336l-.252,3.36914a3.69885,3.69885,0,0,0,.02734,1.2373.87663.87663,0,0,0,.39063.43555,2.84579,2.84579,0,0,0,1.11328.23438l-.02344.32812-6.15234-.46.02343-.32812a2.79913,2.79913,0,0,0,1.14258-.07032.92355.92355,0,0,0,.44727-.373,3.70138,3.70138,0,0,0,.21093-1.21485l.584-7.80176a3.66966,3.66966,0,0,0-.0293-1.23632.87076.87076,0,0,0-.39062-.43457,2.85382,2.85382,0,0,0-1.11524-.23536l.02539-.32812,5.58594.418a12.1755,12.1755,0,0,1,3.168.54,3.21293,3.21293,0,0,1,1.56641,1.23633,2.99156,2.99156,0,0,1,.49609,1.94921,2.84858,2.84858,0,0,1-1.12109,2.127,3.982,3.982,0,0,1-1.77344.69726l2.58594,4.28418a6.067,6.067,0,0,0,.73242,1.04492,1.49567,1.49567,0,0,0,.82031.36426l-.02344.32813-3.78711-.28321-3.46484-5.76855Zm.43945-5.89551-.39258,5.2666.50391.03809a5.66449,5.66449,0,0,0,1.86133-.08887,1.82919,1.82919,0,0,0,1.02148-.74316,2.96556,2.96556,0,0,0,.4668-1.51172,2.34032,2.34032,0,0,0-2.51172-2.88965Z" fill="#304e86"/><path d="M295.03516,97.33008l6.20507.46387-.02343.32812-.31055-.02344a2.18554,2.18554,0,0,0-.97266.07422.83008.83008,0,0,0-.40234.376,4.28519,4.28519,0,0,0-.207,1.27734l-.44141,5.88672a5.9981,5.9981,0,0,0,.08594,2.15527,2.02543,2.02543,0,0,0,.73633.92872,2.65486,2.65486,0,0,0,1.38476.45117,3.02611,3.02611,0,0,0,1.69336-.31543,2.69322,2.69322,0,0,0,1.11914-1.13282,7.33729,7.33729,0,0,0,.543-2.66113l.36719-4.90234a2.89881,2.89881,0,0,0-.082-1.166,1.00556,1.00556,0,0,0-.39063-.50976,2.52466,2.52466,0,0,0-1.11132-.28809l.02343-.32812,4.15821.31054-.02344.32813-.24805-.01856a1.60179,1.60179,0,0,0-.85742.14063,1.16619,1.16619,0,0,0-.5332.57617,3.00088,3.00088,0,0,0-.19141,1.01074l-.3418,4.56543a11.8275,11.8275,0,0,1-.50781,3.03809,3.41094,3.41094,0,0,1-1.49023,1.62695,4.92118,4.92118,0,0,1-3.01172.56836,5.62518,5.62518,0,0,1-2.38086-.59668,3.54352,3.54352,0,0,1-1.5293-1.57617,5.05237,5.05237,0,0,1-.30273-2.4209l.4414-5.88769a4.28979,4.28979,0,0,0-.01757-1.29883.87046.87046,0,0,0-.3711-.43262,2.42608,2.42608,0,0,0-1.03515-.2207Z" fill="#304e86"/><path d="M316.63477,98.668l-.20118,4.01465-.36328-.02735a4.12407,4.12407,0,0,0-1.082-2.51855,3.19124,3.19124,0,0,0-2.10742-1.08106,2.045,2.045,0,0,0-1.46875.377,1.47148,1.47148,0,0,0-.61133,1.07226,1.35174,1.35174,0,0,0,.13281.72364,3.0564,3.0564,0,0,0,.76172.88671,19.22711,19.22711,0,0,0,1.84766,1.18165,8.5288,8.5288,0,0,1,2.69922,2.17187,3.33336,3.33336,0,0,1,.57031,2.16406,3.42582,3.42582,0,0,1-1.36914,2.50586,4.23941,4.23941,0,0,1-3.06445.86231,4.80534,4.80534,0,0,1-1.06446-.19532,8.2659,8.2659,0,0,1-1.23633-.52832,1.89445,1.89445,0,0,0-.6875-.23046.87459.87459,0,0,0-.5.14062,1.2513,1.2513,0,0,0-.457.50977l-.32812-.02442.33984-4.54.32813.02539a5.20355,5.20355,0,0,0,1.28515,3.03321,3.521,3.521,0,0,0,2.32227,1.18554,2.25087,2.25087,0,0,0,1.62305-.42285,1.63525,1.63525,0,0,0,.51953-2.05566,2.63933,2.63933,0,0,0-.63086-.80957,10.43637,10.43637,0,0,0-1.5625-1.05664,14.09294,14.09294,0,0,1-2.25391-1.55176,4.21221,4.21221,0,0,1-1.00976-1.34961,3.137,3.137,0,0,1-.26953-1.57129,3.26721,3.26721,0,0,1,1.23828-2.36816,3.6946,3.6946,0,0,1,2.73437-.8125,4.58266,4.58266,0,0,1,1.125.22656,5.75436,5.75436,0,0,1,.98438.4707,2.40308,2.40308,0,0,0,.8164.35156.47629.47629,0,0,0,.375-.11523,1.66636,1.66636,0,0,0,.29883-.66406Z" fill="#304e86"/><path d="M330.002,99.94434l-.24414,3.25293-.31836-.02344a5.17551,5.17551,0,0,0-.50781-1.665,2.44589,2.44589,0,0,0-.89062-.85547,3.03027,3.03027,0,0,0-1.166-.24707l-.89648-.06738-.69336,9.27343a3.76345,3.76345,0,0,0,.01562,1.16016.91633.91633,0,0,0,.36914.43359,1.61708,1.61708,0,0,0,.79883.2334l.39844.0293-.02539.32813-6.29492-.47071.02539-.32812.39843.03027a1.66634,1.66634,0,0,0,.85742-.123.85565.85565,0,0,0,.39454-.39843,3.6286,3.6286,0,0,0,.18164-1.10938l.69336-9.27441-.86914-.06446a2.53131,2.53131,0,0,0-1.80274.38184,3.41152,3.41152,0,0,0-1.1289,1.97559l-.33594-.0254.24218-3.2539Z" fill="#304e86"/><path d="M334.93555,112.40234l.02343-.32812.39844.03027A1.618,1.618,0,0,0,336.17383,112a1.0116,1.0116,0,0,0,.44531-.417,4.197,4.197,0,0,0,.16211-1.11035l.5918-7.90918a3.97742,3.97742,0,0,0-.00977-1.15918.8954.8954,0,0,0-.36523-.4336,1.5949,1.5949,0,0,0-.791-.23242l-.39844-.03027.02539-.32715,5.38086.40234a8.64762,8.64762,0,0,1,3.42383.84375,5.148,5.148,0,0,1,2.27149,2.35352,6.93081,6.93081,0,0,1,0,5.6582,5.38511,5.38511,0,0,1-1.18555,1.68457,5.1619,5.1619,0,0,1-1.57813,1.00488,7.97584,7.97584,0,0,1-2.11914.49805,9.91378,9.91378,0,0,1-1.71093-.02148Zm5.43164-10.99609-.70117,9.37891a3.31929,3.31929,0,0,0,.002.91894.516.516,0,0,0,.21875.27539,1.45994,1.45994,0,0,0,.68164.18457,2.69191,2.69191,0,0,0,2.33789-.84179,6.90164,6.90164,0,0,0,1.38086-4.15821,7.99586,7.99586,0,0,0-.45117-3.751,3.1039,3.1039,0,0,0-1.3711-1.583A5.756,5.756,0,0,0,340.36719,101.40625Z" fill="#304e86"/><path d="M353.9668,102.43164l-.36719,4.89356.24023.01855a1.90279,1.90279,0,0,0,1.71094-.59473,4.4255,4.4255,0,0,0,.81445-2.07031l.33789.02539-.4707,6.29492-.33789-.02539a4.67241,4.67241,0,0,0-.32226-1.71777,1.91967,1.91967,0,0,0-.72657-.94141,3.02246,3.02246,0,0,0-1.29492-.32422l-.2539,3.38672a4.93469,4.93469,0,0,0-.00586,1.22168.73316.73316,0,0,0,.2871.38672,1.50039,1.50039,0,0,0,.73438.19727l.71875.05371a3.88667,3.88667,0,0,0,4.39453-2.84571l.32813.02442-.82813,3.78125-10.39062-.77734.02539-.32813.39843.03027a1.66893,1.66893,0,0,0,.85547-.123.79934.79934,0,0,0,.38672-.39942,3.62851,3.62851,0,0,0,.18164-1.10937l.5918-7.90918a6.39507,6.39507,0,0,0,.03125-1.00391.86693.86693,0,0,0-.293-.50488,1.53678,1.53678,0,0,0-.9043-.31641l-.39843-.03027.02343-.32715,10.0625.752-.26562,3.55469-.33594-.02539a4.36919,4.36919,0,0,0-.582-1.92383,2.70414,2.70414,0,0,0-1.25391-.93164,7.11343,7.11343,0,0,0-1.84961-.29883Z" fill="#304e86"/><path d="M366.44141,103.36426l-.36719,4.89355.24023.01856a1.90477,1.90477,0,0,0,1.71094-.59473,4.44183,4.44183,0,0,0,.81445-2.07031l.33789.02539-.4707,6.29492-.33789-.02539a4.70324,4.70324,0,0,0-.32226-1.7168,1.92923,1.92923,0,0,0-.72657-.94238,3.03856,3.03856,0,0,0-1.29492-.32422l-.25391,3.38672a4.93576,4.93576,0,0,0-.00586,1.22168.72326.72326,0,0,0,.28711.38672,1.48325,1.48325,0,0,0,.73438.19726l.7168.05372a3.8896,3.8896,0,0,0,4.39648-2.84571l.32813.02442-.82813,3.78125-10.39062-.77735.02343-.32812.40039.03027a1.66207,1.66207,0,0,0,.85547-.123.8072.8072,0,0,0,.38672-.39941,3.65254,3.65254,0,0,0,.17969-1.10937l.5918-7.90821a6.4079,6.4079,0,0,0,.03125-1.00488.84713.84713,0,0,0-.293-.50488,1.52545,1.52545,0,0,0-.90235-.31641l-.40039-.03027.02539-.32715,10.0625.752-.26562,3.55469-.33789-.02539a4.3184,4.3184,0,0,0-.582-1.92383,2.68418,2.68418,0,0,0-1.25391-.93164,7.12278,7.12278,0,0,0-1.84961-.29883Z" fill="#304e86"/><path d="M373.35938,115.27539l.02539-.32812.39648.02929a1.60512,1.60512,0,0,0,.81641-.10351,1.00142,1.00142,0,0,0,.44531-.417,4.24973,4.24973,0,0,0,.16406-1.11035l.5918-7.90918a4.02378,4.02378,0,0,0-.01172-1.15918.89534.89534,0,0,0-.36523-.43359,1.60462,1.60462,0,0,0-.791-.2334l-.39648-.0293.02343-.32812,5.38086.40234a8.64779,8.64779,0,0,1,3.42383.84375,5.15469,5.15469,0,0,1,2.27148,2.3545,6.92793,6.92793,0,0,1,0,5.65722,5.37851,5.37851,0,0,1-1.18554,1.68555,5.18038,5.18038,0,0,1-1.57813,1.00488,7.97584,7.97584,0,0,1-2.11914.498,9.91311,9.91311,0,0,1-1.71094-.02149Zm5.43164-10.99707-.70118,9.37988a3.31878,3.31878,0,0,0,.002.919.51414.51414,0,0,0,.2207.27539,1.453,1.453,0,0,0,.68164.18457,2.69009,2.69009,0,0,0,2.33594-.8418,6.904,6.904,0,0,0,1.38086-4.1582,8.002,8.002,0,0,0-.45117-3.75195,3.09848,3.09848,0,0,0-1.36915-1.582A5.75479,5.75479,0,0,0,378.791,104.27832Z" fill="#304e86"/><path d="M411.85938,183.126c-.0254,0-.04981-.001-.0752-.00293L237.15723,170.06689a.99983.99983,0,1,1,.14843-1.99414l174.627,13.05616a.99992.99992,0,0,1-.07324,1.99707Z" fill="#304e86"/><path d="M409.67969,212.2793c-.02539,0-.04981-.001-.0752-.00293L234.97754,199.22021a1.00011,1.00011,0,0,1-.92285-1.07177.98982.98982,0,0,1,1.07129-.92237l174.627,13.05616a.99992.99992,0,0,1-.07324,1.99707Z" fill="#304e86"/><path d="M306.60449,145.93994c-.02539,0-.0498-.001-.07519-.00293l-67.19239-5.02392a.99983.99983,0,1,1,.14844-1.99414l67.19238,5.02392a.99992.99992,0,0,1-.07324,1.99707Z" fill="#304e86"/><path d="M407.5,241.43311c-.02539,0-.0498-.001-.0752-.00293L232.79785,228.374a.99983.99983,0,1,1,.14844-1.99414l174.627,13.05616a.99992.99992,0,0,1-.07324,1.99707Z" fill="#304e86"/><path d="M405.32031,270.58643c-.02539,0-.0498-.001-.07519-.00293l-174.627-13.05616a.99983.99983,0,1,1,.14844-1.99414l174.627,13.05616a.99992.99992,0,0,1-.07324,1.99707Z" fill="#304e86"/><path d="M403.14062,299.74023c-.02539,0-.0498-.001-.07519-.00293L228.43848,286.68115a.99983.99983,0,1,1,.14843-1.99414l174.627,13.05615a.99992.99992,0,0,1-.07325,1.99707Z" fill="#304e86"/><path d="M400.96094,328.89355c-.02539,0-.04981-.001-.0752-.00293L226.25879,315.83447a.99983.99983,0,1,1,.14844-1.99414l174.627,13.05615a.99992.99992,0,0,1-.07324,1.99707Z" fill="#304e86"/><path d="M337.30078,353.45068c-.02539,0-.0498-.001-.07519-.00293l-113.14649-8.46a.99983.99983,0,1,1,.14844-1.99414l113.14648,8.46a.99992.99992,0,0,1-.07324,1.99707Z" fill="#304e86"/><path d="M327.67871,404.50977a1.00021,1.00021,0,0,1-.62207-1.78418l10.67969-8.45508c-.03906-.14356-.07422-.28906-.10449-.437l-1.13868-5.51368a5.13081,5.13081,0,0,1,5.40723-6.15429,5.13142,5.13142,0,0,1,2.80371,9.13965l-4.55469,3.60546a4.92226,4.92226,0,0,0,6.59571,1.82276q-.252-.33839-.47559-.70117a2.44015,2.44015,0,0,1,.92871-3.43653,2.44154,2.44154,0,0,1,2.89649,3.85938l-.44141.45312a7.79293,7.79293,0,0,0,9.792.09034l3.52149-2.79053a6.93558,6.93558,0,0,1,.42773-2.8374,8.28234,8.28234,0,0,1,4.85156-4.877,2.44184,2.44184,0,0,1,2.377,4.19922l-5.49512,4.35449a4.9037,4.9037,0,0,0,1.01953,1.89942,4.8192,4.8192,0,0,0,4.69629,1.59277l19.7793-4.13037a1.00005,1.00005,0,0,1,.4082,1.958l-19.7793,4.13037a6.80265,6.80265,0,0,1-6.62011-2.2461,6.9805,6.9805,0,0,1-1.166-1.8872l-2.77832,2.20166a9.79449,9.79449,0,0,1-12.56055-.33057,6.92926,6.92926,0,0,1-9.56054-2.0708l-10.26758,8.1294A.99635.99635,0,0,1,327.67871,404.50977Zm20.69043-10.21338a.48526.48526,0,0,0-.22949.064.44047.44047,0,0,0-.16895.6211c.09864.16015.20313.31591.31153.46728l.38086-.39014a.40766.40766,0,0,0,.03711-.57373A.41759.41759,0,0,0,348.36914,394.29639Zm-6.85742-10.14551a3.13117,3.13117,0,0,0-3.05957,3.76416l1.02734,4.9751,3.98242-3.15332a3.13115,3.13115,0,0,0-1.71-5.57715Q341.63038,384.15088,341.51172,384.15088Zm27.62207,4.17871a.51641.51641,0,0,0-.18262.03613,6.28174,6.28174,0,0,0-3.68164,3.69971c-.05176.1416-.09765.28369-.13672.42627l4.248-3.36621a.40334.40334,0,0,0,.11035-.564A.41254.41254,0,0,0,369.13379,388.32959Z" fill="#304e86"/><polygon points="260.625 236.071 223.99 252.426 223.99 295.959 260.625 279.603 297.26 295.959 297.26 252.426 260.625 236.071" fill="#fff"/><path d="M297.25977,296.9585a.99614.99614,0,0,1-.40723-.08692L260.625,280.69873l-36.22754,16.17285a1,1,0,0,1-1.40723-.91308V252.42627a1.00011,1.00011,0,0,1,.59278-.91309l36.63476-16.35547a.99494.99494,0,0,1,.81446,0L297.667,251.51318a1.00011,1.00011,0,0,1,.59278.91309V295.9585a1.00058,1.00058,0,0,1-1,1Zm-36.63477-18.355a.99283.99283,0,0,1,.40723.08691L296.25977,294.417V253.0752L260.625,237.166,224.99023,253.0752V294.417l35.22754-15.72656A.99283.99283,0,0,1,260.625,278.60352Z" fill="#304e86"/><polygon points="260.625 312.508 223.99 296.153 223.99 252.621 260.625 268.976 260.625 312.508" fill="#fff"/><path d="M260.625,313.5083a.99636.99636,0,0,1-.40723-.08691L223.583,297.06592a1.00011,1.00011,0,0,1-.59278-.91309V252.62061a1,1,0,0,1,1.40723-.91309L261.03223,268.063a1.00008,1.00008,0,0,1,.59277.91308V312.5083a1.00054,1.00054,0,0,1-1,1Zm-35.63477-18.00391L259.625,310.9668V269.62451l-34.63477-15.4624Z" fill="#304e86"/><polygon points="260.625 312.508 297.26 296.153 297.26 252.621 260.625 268.976 260.625 312.508" fill="#304e86"/><path d="M260.625,313.5083a1.00054,1.00054,0,0,1-1-1V268.97607a1.00008,1.00008,0,0,1,.59277-.91308l36.63477-16.35547a1,1,0,0,1,1.40723.91309v43.53222a1.00011,1.00011,0,0,1-.59278.91309l-36.63476,16.35547A.99636.99636,0,0,1,260.625,313.5083Zm1-43.88379V310.9668l34.63477-15.46241V254.16211Z" fill="#304e86"/><polygon points="100.448 236.071 63.813 252.426 63.813 295.959 100.448 279.603 137.083 295.959 137.083 252.426 100.448 236.071" fill="#fff"/><path d="M137.083,296.9585a.99617.99617,0,0,1-.40723-.08692l-36.22754-16.17285L64.2207,296.87158a1,1,0,0,1-1.40722-.91308V252.42627a1.0001,1.0001,0,0,1,.59277-.91309L100.041,235.15771a.99492.99492,0,0,1,.81445,0l36.63476,16.35547a1.0001,1.0001,0,0,1,.59278.91309V295.9585a1.00058,1.00058,0,0,1-1,1Zm-36.63477-18.355a.99283.99283,0,0,1,.40723.08691L136.083,294.417V253.0752L100.44824,237.166,64.81348,253.0752V294.417L100.041,278.69043A.99275.99275,0,0,1,100.44824,278.60352Z" fill="#304e86"/><polygon points="100.448 312.508 63.813 296.153 63.813 252.621 100.448 268.976 100.448 312.508" fill="#fff"/><path d="M100.44824,313.5083a.99628.99628,0,0,1-.40722-.08691L63.40625,297.06592a1.0001,1.0001,0,0,1-.59277-.91309V252.62061a1,1,0,0,1,1.40722-.91309L100.85547,268.063a1.00008,1.00008,0,0,1,.59277.91308V312.5083a1.00054,1.00054,0,0,1-1,1ZM64.81348,295.50439,99.44824,310.9668V269.62451l-34.63476-15.4624Z" fill="#304e86"/><polygon points="100.448 312.508 137.083 296.153 137.083 252.621 100.448 268.976 100.448 312.508" fill="#304e86"/><path d="M100.44824,313.5083a1.00056,1.00056,0,0,1-1-1V268.97607a1.00007,1.00007,0,0,1,.59278-.91308l36.63476-16.35547a1,1,0,0,1,1.40723.91309v43.53222a1.0001,1.0001,0,0,1-.59278.91309l-36.63476,16.35547A.99632.99632,0,0,1,100.44824,313.5083Zm1-43.88379V310.9668L136.083,295.50439V254.16211Z" fill="#304e86"/><polygon points="180.556 338.643 143.921 354.998 143.921 398.53 180.556 382.175 217.19 398.53 217.19 354.998 180.556 338.643" fill="#fff"/><path d="M217.19043,399.53027a.99636.99636,0,0,1-.40723-.08691l-36.22754-16.17285-36.22754,16.17285a1,1,0,0,1-1.40722-.91309V354.99805a1.0001,1.0001,0,0,1,.59277-.91309l36.63477-16.355a.99492.99492,0,0,1,.81445,0l36.63477,16.355a1.0001,1.0001,0,0,1,.59277.91309v43.53222a1.00054,1.00054,0,0,1-1,1Zm-36.63477-18.355a.9928.9928,0,0,1,.40723.08692l35.22754,15.72656V355.647l-35.63477-15.90869L144.9209,355.647v41.3418l35.22754-15.72656A.99276.99276,0,0,1,180.55566,381.17529Z" fill="#304e86"/><polygon points="180.555 415.08 143.921 398.725 143.921 355.193 180.555 371.548 180.555 415.08" fill="#304e86"/><path d="M180.55566,416.08008a.99613.99613,0,0,1-.40722-.08692l-36.63477-16.355a1.00008,1.00008,0,0,1-.59277-.91308V355.19238a1,1,0,0,1,1.40722-.91308l36.63477,16.35547a1.00008,1.00008,0,0,1,.59277.91308v43.53223a1.00054,1.00054,0,0,1-1,1ZM144.9209,398.07617l34.63476,15.4624V372.19629l-34.63476-15.4624Z" fill="#304e86"/><polygon points="180.555 415.08 217.19 398.725 217.19 355.193 180.555 371.548 180.555 415.08" fill="#fff"/><path d="M180.55566,416.08008a1.00056,1.00056,0,0,1-1-1V371.54785a1.00009,1.00009,0,0,1,.59278-.91308L216.7832,354.2793a1,1,0,0,1,1.40723.91308V398.7251a1.00008,1.00008,0,0,1-.59277.91308l-36.63477,16.355A.99614.99614,0,0,1,180.55566,416.08008Zm1-43.88379v41.34228l34.63477-15.4624V356.73389Z" fill="#304e86"/><polygon points="180.556 277.034 143.921 293.39 143.921 336.922 180.556 320.567 217.19 336.922 217.19 293.39 180.556 277.034" fill="#fff"/><path d="M217.19043,337.92188a.99621.99621,0,0,1-.40723-.08692l-36.22754-16.17285L144.32812,337.835a1,1,0,0,1-1.40722-.91308V293.38965a1.0001,1.0001,0,0,1,.59277-.91309l36.63477-16.35547a.99492.99492,0,0,1,.81445,0l36.63477,16.35547a1.0001,1.0001,0,0,1,.59277.91309v43.53223a1.00056,1.00056,0,0,1-1,1Zm-36.63477-18.355a.9928.9928,0,0,1,.40723.08692l35.22754,15.72656v-41.3418l-35.63477-15.90918L144.9209,294.03857v41.3418l35.22754-15.72656A.99276.99276,0,0,1,180.55566,319.56689Z" fill="#304e86"/><polygon points="180.555 353.472 143.921 337.116 143.921 293.584 180.555 309.939 180.555 353.472" fill="#fff"/><path d="M180.55566,354.47168a.99628.99628,0,0,1-.40722-.08691L143.51367,338.0293a1.0001,1.0001,0,0,1-.59277-.91309V293.584a1,1,0,0,1,1.40722-.91308l36.63477,16.35547a1.00008,1.00008,0,0,1,.59277.91308v43.53223a1.00054,1.00054,0,0,1-1,1ZM144.9209,336.46777l34.63476,15.46241V310.58789l-34.63476-15.4624Z" fill="#304e86"/><polygon points="180.555 353.472 217.19 337.116 217.19 293.584 180.555 309.939 180.555 353.472" fill="#304e86"/><path d="M180.55566,354.47168a1.00056,1.00056,0,0,1-1-1V309.93945a1.00009,1.00009,0,0,1,.59278-.91308L216.7832,292.6709a1,1,0,0,1,1.40723.91308v43.53223a1.0001,1.0001,0,0,1-.59277.91309l-36.63477,16.35547A.99629.99629,0,0,1,180.55566,354.47168Zm1-43.88379v41.34229l34.63477-15.46241V295.12549Z" fill="#304e86"/><path d="M180.51855,310.93994a1.00019,1.00019,0,0,1-.4082-1.91357l61.7041-27.54737a.99978.99978,0,1,1,.81446,1.82618L180.9248,310.85254A.99328.99328,0,0,1,180.51855,310.93994Z" fill="#304e86"/><path d="M180.5166,310.93994a.99335.99335,0,0,1-.40625-.0874l-61.70508-27.54736a.99978.99978,0,1,1,.81446-1.82618l61.70507,27.54737a1.00019,1.00019,0,0,1-.4082,1.91357Z" fill="#304e86"/><path d="M242.20117,410.582a.99335.99335,0,0,1-.40625-.0874l-43.28613-19.32471a.99978.99978,0,1,1,.81445-1.82617l43.28614,19.32471a1.0002,1.0002,0,0,1-.40821,1.91357Z" fill="#304e86"/><path d="M118.79492,410.582a1.00019,1.00019,0,0,1-.4082-1.91357l61.7041-27.54737a.99978.99978,0,1,1,.81445,1.82618l-61.7041,27.54736A.99331.99331,0,0,1,118.79492,410.582Z" fill="#304e86"/><polygon points="100.429 385.136 137.063 401.492 137.063 445.024 100.429 428.669 63.794 445.024 63.794 401.492 100.429 385.136" fill="#fff"/><path d="M137.06348,446.02393a.99614.99614,0,0,1-.40723-.08692l-36.22754-16.17285L64.20117,445.937a1,1,0,0,1-1.40722-.91308V401.4917a1.0001,1.0001,0,0,1,.59277-.91309l36.63476-16.35547a.99494.99494,0,0,1,.81446,0l36.63476,16.35547a1.00011,1.00011,0,0,1,.59278.91309v43.53223a1.00058,1.00058,0,0,1-1,1Zm-36.63477-18.355a.99283.99283,0,0,1,.40723.08691l35.22754,15.72656v-41.3418l-35.63477-15.90917L64.794,402.14062v41.3418l35.22753-15.72656A.99283.99283,0,0,1,100.42871,427.669Z" fill="#304e86"/><polygon points="100.429 461.574 137.063 445.218 137.063 401.686 100.429 418.041 100.429 461.574" fill="#fff"/><path d="M100.42871,462.57373a1.00056,1.00056,0,0,1-1-1V418.0415a1.00008,1.00008,0,0,1,.59277-.91308L136.65625,400.773a1,1,0,0,1,1.40723.91309v43.53222a1.00011,1.00011,0,0,1-.59278.91309l-36.63476,16.35547A.99636.99636,0,0,1,100.42871,462.57373Zm1-43.88379v41.34229l34.63477-15.46241V403.22754Z" fill="#304e86"/><polygon points="100.429 461.574 63.794 445.218 63.794 401.686 100.429 418.041 100.429 461.574" fill="#304e86"/><path d="M100.42871,462.57373a.99636.99636,0,0,1-.40723-.08691L63.38672,446.13135a1.0001,1.0001,0,0,1-.59277-.91309V401.686a1,1,0,0,1,1.40722-.91309l36.63477,16.35547a1.00008,1.00008,0,0,1,.59277.91308v43.53223a1.00054,1.00054,0,0,1-1,1ZM64.794,444.56982l34.63476,15.46241V418.68994L64.794,403.22754Z" fill="#304e86"/><polygon points="260.605 385.136 297.24 401.492 297.24 445.024 260.605 428.669 223.971 445.024 223.971 401.492 260.605 385.136" fill="#fff"/><path d="M297.24023,446.02393a.99613.99613,0,0,1-.40722-.08692l-36.22754-16.17285L224.37793,445.937a1,1,0,0,1-1.40723-.91308V401.4917a1.0001,1.0001,0,0,1,.59278-.91309l36.63476-16.35547a.99494.99494,0,0,1,.81446,0l36.63476,16.35547a1.0001,1.0001,0,0,1,.59277.91309v43.53223a1.00056,1.00056,0,0,1-1,1Zm-36.63476-18.355a.99283.99283,0,0,1,.40723.08691l35.22753,15.72656v-41.3418l-35.63476-15.90917L224.9707,402.14062v41.3418l35.22754-15.72656A.99283.99283,0,0,1,260.60547,427.669Z" fill="#304e86"/><polygon points="260.606 461.574 297.24 445.218 297.24 401.686 260.606 418.041 260.606 461.574" fill="#fff"/><path d="M260.60547,462.57373a1.00054,1.00054,0,0,1-1-1V418.0415a1.00008,1.00008,0,0,1,.59277-.91308L296.833,400.773a1,1,0,0,1,1.40722.91309v43.53222a1.0001,1.0001,0,0,1-.59277.91309L261.0127,462.48682A.99636.99636,0,0,1,260.60547,462.57373Zm1-43.88379v41.34229l34.63476-15.46241V403.22754Z" fill="#304e86"/><polygon points="260.606 461.574 223.971 445.218 223.971 401.686 260.606 418.041 260.606 461.574" fill="#304e86"/><path d="M260.60547,462.57373a.99632.99632,0,0,1-.40723-.08691l-36.63476-16.35547a1.0001,1.0001,0,0,1-.59278-.91309V401.686a1,1,0,0,1,1.40723-.91309l36.63477,16.35547a1.00008,1.00008,0,0,1,.59277.91308v43.53223a1.00056,1.00056,0,0,1-1,1ZM224.9707,444.56982l34.63477,15.46241V418.68994l-34.63477-15.4624Z" fill="#304e86"/><path d="M135.5791,290.87793a.99335.99335,0,0,1-.40625-.0874l-16.76758-7.48535a.99978.99978,0,1,1,.81446-1.82618l16.76757,7.48536a1.00019,1.00019,0,0,1-.4082,1.91357Z" fill="#fff"/><path d="M145.71777,398.5625a1.00019,1.00019,0,0,1-.4082-1.91357l16.52148-7.376a.99978.99978,0,1,1,.81446,1.82617l-16.52149,7.376A.99328.99328,0,0,1,145.71777,398.5625Z" fill="#fff"/></svg>