<svg id="Layer_1" data-name="Layer 1" xmlns="http://www.w3.org/2000/svg" viewBox="0 0 512 512"><path d="M372.42182,385.18652c38.92774-24.629,20.08514-79.94985-4.46731-108.38131-15.20956-17.61272-61.40418,57.10468-89.60092,86.75049C298.35672,395.50578,340.71892,405.24365,372.42182,385.18652Z" fill="#fff" fill-rule="evenodd"/><path d="M422.36778,406.47934,383.73913,359.7102A60.61584,60.61584,0,0,0,369.37559,312.014l-67.07545-76.947L175.4028,345.68268l45.2799,51.9439c25.02834,28.71163,56.53508,43.421,81.63587,41.31678l39.3089,46.85041Z" fill="#fff" fill-rule="evenodd"/><path d="M297.42578,440.14551c-25.438,0-54.66308-15.66748-77.49707-41.86182l-45.27978-51.94385a1.00016,1.00016,0,1,1,1.50781-1.31445l45.27978,51.94385c23.92627,27.44824,54.88233,43.1499,80.79834,40.97754a1.00007,1.00007,0,1,1,.167,1.99316C300.76318,440.07715,299.10059,440.14551,297.42578,440.14551Z" fill="#353535"/><path d="M203.91906,374.70674,214.393,390.41117c39.52181-8.78276,79.10684-16.81077,109.66065-7.91863l-6.88506-57.74407-104.72674,17.591Z" fill="#304e86" fill-rule="evenodd"/><path d="M91.65524,170.85775l-.00038.00058a19.89663,19.89663,0,0,0,9.05341,26.55455L268.43,279.85057a19.89644,19.89644,0,0,0,26.55431-9.05321l.00027-.00016a19.8966,19.8966,0,0,0-9.05329-26.555L118.20934,161.8053A19.89563,19.89563,0,0,0,91.65524,170.85775Z" fill="#fff" fill-rule="evenodd"/><path d="M128.50328,211.16927l64.24793,31.57882L234.0557,218.8396,126.665,166.05606l0,0a29.8039,29.8039,0,0,0-3.91686,35.17046Z" fill="#304e86" fill-rule="evenodd"/><path d="M277.147,282.88281a20.71185,20.71185,0,0,1-9.15771-2.13476l-167.72168-82.4375a20.86262,20.86262,0,0,1-9.51026-27.89307l.00049-.00049a20.86211,20.86211,0,0,1,27.89258-9.50928l167.72168,82.437a20.83709,20.83709,0,0,1-9.2251,39.53808ZM91.65527,170.85791l.89746.44092a18.8608,18.8608,0,0,0,8.59668,25.21679l167.72168,82.4375a18.83847,18.83847,0,0,0,16.61914-33.81347l-167.72168-82.437a18.85963,18.85963,0,0,0-25.21582,8.59619Z" fill="#304e86"/><rect x="134.69256" y="34.91341" width="185.22856" height="344.00635" rx="26.54798" transform="translate(484.81783 374.75867) rotate(170.78427)" fill="#304e86"/><path d="M134.54665,47.71422,155.0231,44.392a7.51109,7.51109,0,0,1,7.81451,3.85l3.83581,7.11543a10.882,10.882,0,0,0,11.32152,5.57775l49.93928-8.10247a10.88193,10.88193,0,0,0,8.97724-8.87115l1.38936-7.9632a7.5111,7.5111,0,0,1,6.19641-6.12317l20.47645-3.32224a26.548,26.548,0,0,1,30.457,21.95361l46.58992,287.15537a26.548,26.548,0,0,1-21.95361,30.457L189.64,387.28025a26.548,26.548,0,0,1-30.457-21.95361L112.593,78.17127A26.548,26.548,0,0,1,134.54665,47.71422Z" fill="#fff"/><path d="M185.37305,388.62549a27.59268,27.59268,0,0,1-27.17725-23.13867L111.606,78.33154a27.5796,27.5796,0,0,1,22.78027-31.60449L264.81348,25.56543A27.54924,27.54924,0,0,1,296.418,48.34619L343.00781,335.502a27.5483,27.5483,0,0,1-22.78076,31.6045L189.80029,388.26758A27.64817,27.64817,0,0,1,185.37305,388.62549ZM269.27979,27.2041a25.82826,25.82826,0,0,0-4.146.33594L134.70654,48.70166a25.576,25.576,0,0,0-21.126,29.30957L160.17041,365.1665A25.57391,25.57391,0,0,0,189.48,386.293l130.42676-21.16113a25.547,25.547,0,0,0,21.12646-29.30957L294.44336,48.6665a25.56129,25.56129,0,0,0-25.16357-21.4624Z" fill="#304e86"/><path d="M221.18994,371.769a1.00009,1.00009,0,0,1-.15869-1.9873l63.72266-10.33887a1.00021,1.00021,0,0,1,.32031,1.97461l-63.72266,10.33887A1.01013,1.01013,0,0,1,221.18994,371.769Z" fill="#304e86"/><path d="M359.79509,332.09462,322.561,278.89185c-14.28493-19.81519,10.92673-51.87274,22.86356-34.97977l31.20286,44.4505C390.34772,302.59435,385.23965,327.75365,359.79509,332.09462Z" fill="#fff" fill-rule="evenodd"/><path d="M327.23923,274.04079l-23.34544-7.984c-27.52724-11.52876-33.31687-56.12331-9.29659-46.06321l43.74049,17.7961C351.37433,243.2494,334.46125,259.08247,327.23923,274.04079Z" fill="#fff" fill-rule="evenodd"/><path d="M307.50241,241.5397c-19.104-6.49851-21.83245-18.64746-18.41973-22.97514a17.61076,17.61076,0,0,1,5.514,1.42849l24.30678,10.18C316.37722,237.23044,312.25548,243.15715,307.50241,241.5397Z" fill="#f4f6f9" fill-rule="evenodd"/><path d="M324.86768,273.23291a29.721,29.721,0,0,1-11.44825-2.29492l-9.897-3.95264c-11.97363-5.01465-18.26855-15.11719-20.95654-20.69336-4.11475-8.53564-5.2041-17.33935-2.84326-22.97656,2.40722-5.75049,7.96923-7.29785,15.26074-4.24414l43.73144,17.792a1,1,0,0,1-.7539,1.85254l-43.74073-17.7959c-6.30761-2.6416-10.67919-1.54492-12.65283,3.16846-4.33447,10.34912,4.3003,33.33447,22.71241,41.0459l9.897,3.95263a27.69418,27.69418,0,0,0,12.94092,2.05323,1,1,0,1,1,.165,1.99316C326.47949,273.19971,325.67285,273.23291,324.86768,273.23291Z" fill="#304e86"/><path d="M328.95356,386.22191c63.43019-3.5003,64.97221-48.01789,3.02066-94.35421C290.39622,311.35989,301.17061,368.19667,328.95356,386.22191Z" fill="#fff" fill-rule="evenodd"/><path d="M328.95264,387.22168a.994.994,0,0,1-.54346-.16113c-15.894-10.31153-26.36475-33.3086-24.897-54.68213,1.29345-18.83789,11.251-33.54639,28.03759-41.416a.99979.99979,0,0,1,.84864,1.81055c-16.09912,7.54785-25.64942,21.66162-26.89112,39.74267-1.42089,20.69288,8.66846,42.92676,23.99073,52.86719a1,1,0,0,1-.54541,1.83887Z" fill="#353535"/><path d="M328.95264,387.22168a.994.994,0,0,1-.54346-.16113c-15.71143-10.19336-26.19385-32.97119-24.92432-54.16065,1.09864-18.33691,10.38233-32.854,26.18067-40.99951l-7.94776-12.47119a23.07634,23.07634,0,0,1-3.23291-6.40527l-14.96484-6.04c-14.9165-6.24707-23.29639-21.55811-24.77539-33.14209-.85254-6.67969.59961-11.9878,3.98389-14.564,2.06494-1.57129,5.86572-2.88183,12.25488-.20654l43.73144,17.792a12.70637,12.70637,0,0,1,5.001,3.70068,14.31357,14.31357,0,0,1,2.52539,2.771L377.4458,287.7876a1,1,0,0,1-1.63672,1.14941L344.606,244.48682a12.2521,12.2521,0,0,0-2.23535-2.43946,1.01555,1.01555,0,0,1-.14795-.14892,10.71135,10.71135,0,0,0-4.271-3.18653l-43.73145-17.792c-4.37011-1.83008-7.92089-1.84472-10.28027-.05078-2.80078,2.13184-3.97119,6.76807-3.21142,12.71924,1.40869,11.03271,9.37939,25.61035,23.55175,31.5459l15.39258,6.2124a.999.999,0,0,1,.583.63916,21.236,21.236,0,0,0,3.11621,6.3208l8.57471,13.45215a1,1,0,0,1-.40283,1.43555c-15.73047,7.7124-24.98633,21.856-26.0625,39.82519-1.229,20.51563,8.87109,42.5376,24.0166,52.36328a1,1,0,0,1-.54541,1.83887Z" fill="#304e86"/><path d="M131.18507,316.101l-.00042.00036a18.017,18.017,0,0,0,13.42807,21.56517l21.832,5.07631a18.01657,18.01657,0,0,0,21.56558-13.42843l.00043-.00037a18.01649,18.01649,0,0,0-13.42849-21.56479l-21.832-5.07633A18.01593,18.01593,0,0,0,131.18507,316.101Z" fill="#fff" fill-rule="evenodd"/><path d="M170.51465,344.21143a18.95968,18.95968,0,0,1-4.29639-.49463l-21.832-5.07618A18.98621,18.98621,0,0,1,130.21045,315.875l.00049-.00049a19.01686,19.01686,0,0,1,22.76611-14.17578l21.832,5.07666a18.96455,18.96455,0,0,1-4.29443,37.436ZM148.68408,303.2041a17.05016,17.05016,0,0,0-16.5249,13.12354h0a16.98275,16.98275,0,0,0,12.68018,20.36474l21.832,5.07617a16.96334,16.96334,0,0,0,7.68457-33.04492l-21.832-5.07666A16.93751,16.93751,0,0,0,148.68408,303.2041Z" fill="#304e86"/><path d="M184.9752,328.6083c1.89631-6.31261.32728-11.62892-3.47087-12.60213-12.244-3.13944-17.42133-.051-19.50724,7.259-1.35358,7.48122,1.93,12.53687,14.30331,15.12067C180.13925,339.18856,183.89171,335.11036,184.9752,328.6083Z" fill="#f4f6f9" fill-rule="evenodd"/><path d="M121.11656,274.0302l-.00054.0003a19.89716,19.89716,0,0,0,9.40682,26.43108L152.882,311.08252a19.89669,19.89669,0,0,0,26.43163-9.40712l.00054-.0003a19.89657,19.89657,0,0,0-9.40736-26.43079l-22.35911-10.62094A19.89594,19.89594,0,0,0,121.11656,274.0302Z" fill="#fff" fill-rule="evenodd"/><path d="M161.36133,314a20.71546,20.71546,0,0,1-8.90869-2.01416l-22.35889-10.62109a20.862,20.862,0,0,1-9.88086-27.76368l.90332.4292-.90283-.4292a20.89591,20.89591,0,0,1,27.76367-9.88086l22.35889,10.62061A20.83719,20.83719,0,0,1,161.36133,314Zm-22.26758-50.2915a18.97422,18.97422,0,0,0-6.3667,1.10888,18.70094,18.70094,0,0,0-10.707,9.64209h0a18.896,18.896,0,0,0,8.93213,25.09864L153.311,310.1792a18.83823,18.83823,0,0,0,16.1665-34.03174l-22.35889-10.6206A18.66015,18.66015,0,0,0,139.09375,263.7085Z" fill="#304e86"/><path d="M176.20526,300.19838c3.53333-6.364,3.09306-12.46963-.77556-14.41456-12.47071-6.2721-18.78433-4.15972-22.75721,3.23574-3.2231,7.75276-.87153,13.98111,11.86956,19.68417C168.49475,310.47429,173.50427,306.95834,176.20526,300.19838Z" fill="#f4f6f9" fill-rule="evenodd"/><path d="M115.63391,221.85175a19.89655,19.89655,0,0,0,4.489,27.69356l31.04639,22.3864a19.89638,19.89638,0,0,0,27.69357-4.489l.00039-.00078a19.89694,19.89694,0,0,0-4.48845-27.69369l-31.046-22.38529A19.8976,19.8976,0,0,0,115.63391,221.85175Z" fill="#fff" fill-rule="evenodd"/><path d="M162.69727,276.66162a20.62336,20.62336,0,0,1-12.1128-3.91894l-31.04638-22.38623a20.863,20.863,0,0,1-4.71534-29.08985h0a20.86421,20.86421,0,0,1,29.09082-4.71484L174.96,238.937a20.81521,20.81521,0,0,1-8.85791,37.44922A21.31405,21.31405,0,0,1,162.69727,276.66162Zm-46.25245-54.2251a18.8605,18.8605,0,0,0,4.26319,26.29786l31.04638,22.38623A18.83864,18.83864,0,0,0,173.79,240.55908l-31.04639-22.38525a18.86177,18.86177,0,0,0-26.29883,4.26269Z" fill="#304e86"/><path d="M175.31794,264.79836c4.62258-5.623,5.2903-11.70726,1.83523-14.31884-11.1354-8.41611-17.726-7.47715-22.96789-.918-4.56735,7.04394-3.377,13.59422,8.12756,21.5011C165.882,273.51583,171.44307,270.95994,175.31794,264.79836Z" fill="#f4f6f9" fill-rule="evenodd"/><path d="M422.36865,407.47949a.99778.99778,0,0,1-.77295-.36523l-32.80078-39.90479a.99923.99923,0,0,1-.12256-1.08056c13.09229-26.28077-1.293-65.29981-21.47461-88.66993a1.00013,1.00013,0,0,1,1.51368-1.30761c20.45507,23.687,35.0166,63.24218,22.03662,90.28515l32.39257,39.40821a1,1,0,0,1-.772,1.63476Z" fill="#304e86"/><path d="M341.62793,486.794a.998.998,0,0,1-.7666-.35743L301.88379,439.981c-26.438,1.97461-57.77734-13.96094-81.95508-41.69727L208.33838,384.9873a1.00016,1.00016,0,1,1,1.50781-1.31445l11.59033,13.29639c23.92627,27.44775,54.88623,43.15722,80.79834,40.97754a.99863.99863,0,0,1,.84961.354l39.30908,46.85059a1,1,0,0,1-.76562,1.64258Z" fill="#304e86"/><path d="M174.35287,200.67388a8.61608,8.61608,0,0,1,10.6328,7.251,9.25988,9.25988,0,0,1-.97777,6.04789,8.59442,8.59442,0,0,1-6.60749,4.44465,8.77723,8.77723,0,0,1-7.66208-1.97394,9.19357,9.19357,0,0,1-2.95063-5.55282,8.65938,8.65938,0,0,1,1.56465-6.78532A8.37735,8.37735,0,0,1,174.35287,200.67388Zm.28273.78423a3.91239,3.91239,0,0,0-3.18714,2.9816,13.00443,13.00443,0,0,0-.07962,5.82417q.71158,4.3858,2.59362,6.23371a3.56093,3.56093,0,0,0,3.24614.978,3.65736,3.65736,0,0,0,2.07129-.98435,5.26184,5.26184,0,0,0,1.31224-2.8658,14.55744,14.55744,0,0,0-.13227-4.73279,15.5859,15.5859,0,0,0-1.45748-4.98422,5.01712,5.01712,0,0,0-1.99777-2.12111A3.85044,3.85044,0,0,0,174.6356,201.45811Z" fill="#304e86"/><path d="M190.45613,198.30779,200.636,207.565l-1.19556-7.36865a3.53415,3.53415,0,0,0-.78052-2.01371,2.47821,2.47821,0,0,0-2.14993-.37745l-.07582-.46733,5.66219-.91869.07582.46733a4.38507,4.38507,0,0,0-1.40126.59708,1.46964,1.46964,0,0,0-.46442.8148,4.97381,4.97381,0,0,0,.06908,1.74624l2.31522,14.26948-.42933.06966-13.90509-12.389,1.76771,10.89506a2.435,2.435,0,0,0,1,1.88693,2.5053,2.5053,0,0,0,1.63212.267l.40465-.06565.07591.46782-6.07919.98634-.0759-.46782a2.78281,2.78281,0,0,0,1.87713-.90119,2.75468,2.75468,0,0,0,.24246-2.02369l-1.96252-12.09569-.44048-.3955a3.37457,3.37457,0,0,0-1.10587-.74134,2.93942,2.93942,0,0,0-1.23963-.04552l-.07583-.46733Z" fill="#304e86"/><path d="M209.39788,196.24593l1.132,6.97682.34149-.0554a2.74192,2.74192,0,0,0,2.19714-1.40741,6.38018,6.38018,0,0,0,.44506-3.17232l.48065-.078,1.45593,8.97345-.48065.078a6.80428,6.80428,0,0,0-1.02767-2.29775,2.78465,2.78465,0,0,0-1.33507-1.07387,4.36132,4.36132,0,0,0-1.92307-.01871l.7833,4.82772a7.02373,7.02373,0,0,0,.40136,1.71208,1.05174,1.05174,0,0,0,.53264.44538,2.129,2.129,0,0,0,1.09431.0301l1.024-.16614a5.597,5.597,0,0,0,5.19763-5.46132l.46733-.07582.113,5.57259-14.8128,2.40337-.0759-.46782.569-.09232a2.40429,2.40429,0,0,0,1.15764-.4598,1.16541,1.16541,0,0,0,.40685-.689,5.26975,5.26975,0,0,0-.11922-1.615l-1.8292-11.274a9.13351,9.13351,0,0,0-.29488-1.41788,1.22821,1.22821,0,0,0-.57855-.60658,2.20454,2.20454,0,0,0-1.37155-.14061l-.569.09232-.07583-.46733,14.345-2.32746.82229,5.068-.48016.07791a6.2621,6.2621,0,0,0-1.46257-2.49967,3.87908,3.87908,0,0,0-2.07-.88373,10.30368,10.30368,0,0,0-2.69085.20311Z" fill="#304e86"/><path d="M222.05453,210.77021l-.0759-.46782.56849-.09224a2.31464,2.31464,0,0,0,1.106-.419,1.45025,1.45025,0,0,0,.48412-.73392,6.1125,6.1125,0,0,0-.14487-1.61088l-1.82921-11.274a5.72869,5.72869,0,0,0-.40521-1.6203,1.28148,1.28148,0,0,0-.65584-.48363,2.30067,2.30067,0,0,0-1.18392-.06114l-.56849.09224-.07582-.46733,7.67164-1.24472a12.44054,12.44054,0,0,1,5.077.0322,7.40231,7.40231,0,0,1,3.97159,2.53371,9.9954,9.9954,0,0,1,1.90165,7.92162,7.75433,7.75433,0,0,1-1.096,2.75931,7.45428,7.45428,0,0,1-1.871,1.938,11.53166,11.53166,0,0,1-2.80074,1.4081,14.054,14.054,0,0,1-2.40186.54519Zm3.91143-17.2251,2.16957,13.37183a4.76052,4.76052,0,0,0,.31238,1.28539.73188.73188,0,0,0,.40048.31133,2.09417,2.09417,0,0,0,1.01672.02952,3.87694,3.87694,0,0,0,2.98913-1.96387q1.201-2.19213.53628-6.28723a11.523,11.523,0,0,0-1.89142-5.10223A4.47713,4.47713,0,0,0,229.048,193.434,8.303,8.303,0,0,0,225.966,193.54511Z" fill="#304e86"/><path d="M249.86511,201.251l-6.054.98226-.44978,1.78535a3.76061,3.76061,0,0,0-.13036,1.43472,1.16,1.16,0,0,0,.75362.96765,4.95445,4.95445,0,0,0,1.73045.03021l.07591.46781-5.70019.92486-.07591-.46782a2.58035,2.58035,0,0,0,1.39244-1.01045,10.28283,10.28283,0,0,0,1.04674-2.82273l3.9112-14.66991.23984-.03891,8.46122,13.052a8.65643,8.65643,0,0,0,1.86132,2.279,2.007,2.007,0,0,0,1.28729.2581l.0759.46782-8.29145,1.34529-.07591-.46782.34149-.05541a2.63079,2.63079,0,0,0,1.35789-.50546.68442.68442,0,0,0,.18351-.6264,1.57633,1.57633,0,0,0-.15141-.45557q-.0444-.10979-.53329-.8864Zm-.58155-.86541-3.51045-5.48833-1.67109,6.329Z" fill="#304e86"/><path d="M271.30942,185.18941l.07582.46732a2.56152,2.56152,0,0,0-1.22181.70421,13.30074,13.30074,0,0,0-1.52753,3.21829l-2.70906,6.80842.67264,4.14572a5.69488,5.69488,0,0,0,.40674,1.62664,1.29952,1.29952,0,0,0,.64206.47979,2.13837,2.13837,0,0,0,1.133.06889l.9608-.15589.07591.46782-9.61843,1.56059-.0759-.46782.89764-.14565a2.36144,2.36144,0,0,0,1.15764-.4598,1.22355,1.22355,0,0,0,.41967-.691,5.26927,5.26927,0,0,0-.11921-1.615l-.55775-3.43758-5.2232-6.68934a10.98044,10.98044,0,0,0-2.10885-2.2844,2.15906,2.15906,0,0,0-1.37925-.18494l-.07582-.46732,8.21546-1.333.07582.46732-.36665.05949a1.87779,1.87779,0,0,0-1.00782.38434.59413.59413,0,0,0-.22325.50319,7.71184,7.71184,0,0,0,1.38225,2.12322l4.01735,5.17261,2.24506-5.66955a6.93641,6.93641,0,0,0,.7422-2.7019.68125.68125,0,0,0-.42089-.51516,3.16462,3.16462,0,0,0-1.6417-.12312l-.07582-.46732Z" fill="#304e86"/><path d="M263.82362,183.278a3.89048,3.89048,0,1,1,3.21718-4.46334A3.89478,3.89478,0,0,1,263.82362,183.278Zm-.91821-5.65923a1.84276,1.84276,0,1,0,2.11409,1.52385A1.84473,1.84473,0,0,0,262.90541,177.6188Z" fill="#304e86"/><path d="M291.77039,178.74369a3.89048,3.89048,0,1,1,3.21718-4.46334A3.89489,3.89489,0,0,1,291.77039,178.74369Zm-.9182-5.65923a1.84276,1.84276,0,1,0,2.11409,1.52384A1.84515,1.84515,0,0,0,290.85219,173.08446Z" fill="#304e86"/><rect x="265.88443" y="176.14674" width="22.579" height="2.04773" transform="translate(-24.79695 46.67769) rotate(-9.21589)" fill="#304e86"/><rect x="270.54424" y="180.10885" width="14.54556" height="2.04773" transform="translate(-25.4232 46.83183) rotate(-9.21589)" fill="#304e86"/><rect x="274.61011" y="184.60128" width="2.04773" height="17.36219" transform="translate(-27.3972 46.63903) rotate(-9.21589)" fill="#304e86"/><rect x="278.41167" y="183.96439" width="2.04773" height="14.2906" transform="translate(-27.00017 47.21982) rotate(-9.21589)" fill="#304e86"/><rect x="282.21323" y="183.32751" width="2.04773" height="11.21901" transform="translate(-26.60313 47.80062) rotate(-9.21589)" fill="#304e86"/><path d="M325.68628,436.11726c-8.31163,9.54985.54162,29.83579,14.32717,46.26615l-37.69488-43.44005Z" fill="#304e86"/><path d="M302.31738,439.94336a.99994.99994,0,0,1-.09131-1.99561,139.83623,139.83623,0,0,0,30.34327-6.02783,1,1,0,0,1,.61425,1.90332,141.813,141.813,0,0,1-30.77295,6.11572C302.37939,439.94189,302.34814,439.94336,302.31738,439.94336Z" fill="#304e86"/></svg>