<svg id="Layer_1" data-name="Layer 1" xmlns="http://www.w3.org/2000/svg" viewBox="0 0 512 512"><rect x="112.4046" y="44.55122" width="227.70716" height="422.89757" rx="32.63624" transform="translate(475.39508 489.79387) rotate(174.65121)" fill="#304e86"/><path d="M125.6836,53.04287l25.39046-2.37721a9.23365,9.23365,0,0,1,9.26557,5.37l4.11483,9.04532a13.37753,13.37753,0,0,0,13.42378,7.7799l61.92386-5.79769a13.37753,13.37753,0,0,0,11.74635-10.13648l2.36428-9.65194a9.23362,9.23362,0,0,1,8.10774-6.99655L287.41093,37.901a32.63627,32.63627,0,0,1,35.53646,29.45186l33.33724,356.06781a32.63629,32.63629,0,0,1-29.45187,35.53647L165.10544,474.099A32.63626,32.63626,0,0,1,129.569,444.64715L96.23174,88.57934A32.63628,32.63628,0,0,1,125.6836,53.04287Z" fill="#fff"/><path d="M162.00342,475.24463a33.643,33.643,0,0,1-33.43018-30.5044L95.23633,88.67236a33.63595,33.63595,0,0,1,30.354-36.625l161.728-15.14209a33.63664,33.63664,0,0,1,36.625,30.3545l33.33691,356.06787a33.63587,33.63587,0,0,1-30.35449,36.625l-161.727,15.14209C164.13037,475.19482,163.063,475.24463,162.00342,475.24463ZM290.50977,38.75586q-1.49561,0-3.00586.14062L125.77686,54.03857A31.63671,31.63671,0,0,0,97.22754,88.48584l33.33691,356.06787a31.67661,31.67661,0,0,0,34.44776,28.54981l161.728-15.14209a31.63514,31.63514,0,0,0,28.54786-34.44727L321.95117,67.44629a31.64181,31.64181,0,0,0-31.4414-28.69043Z" fill="#304e86"/><rect x="116.74425" y="65.29149" width="31.31137" height="9.02236" rx="2.01452" transform="translate(-5.93031 12.64588) rotate(-5.34871)" fill="#f4f6f9"/><rect x="268.26771" y="51.10513" width="31.31137" height="9.02236" rx="2.01452" transform="translate(-3.94814 26.70869) rotate(-5.34871)" fill="#f4f6f9"/><path d="M194.78174,460.8667a1,1,0,0,1-.09229-1.99561l100.24707-9.38574a.99992.99992,0,1,1,.18555,1.99121L194.876,460.8623C194.84424,460.86523,194.8125,460.8667,194.78174,460.8667Z" fill="#304e86"/><path d="M388.26412,425.88131,199.36705,414.26278a10.13911,10.13911,0,0,1-9.49753-10.74244L208.549,99.82522a10.13911,10.13911,0,0,1,10.74243-9.49753l160.0642,9.8451,36.557,41.34874-16.906,274.86224A10.13911,10.13911,0,0,1,388.26412,425.88131Z" fill="#fff"/><rect x="230.34125" y="178.19246" width="47.14158" height="13.67631" rx="3.20232" transform="translate(11.83818 -15.23895) rotate(3.51967)" fill="#304e86"/><rect x="296.491" y="183.78709" width="96.7598" height="13.67631" rx="3.20232" transform="translate(12.35321 -20.81247) rotate(3.51967)" fill="#fff"/><path d="M389.74609,201.23047c-.08789,0-.17578-.00293-.26367-.0083h0l-90.18554-5.54737a4.20163,4.20163,0,0,1-3.93555-4.45263l.44629-7.25733a4.20952,4.20952,0,0,1,4.45215-3.93652l90.18457,5.54736a4.2015,4.2015,0,0,1,3.93652,4.45215l-.44629,7.25781a4.203,4.203,0,0,1-4.18848,3.94483Zm-.14062-2.0044a2.20222,2.20222,0,0,0,2.333-2.063l.44629-7.2583a2.203,2.203,0,0,0-2.06348-2.333l-90.18457-5.54737a2.21243,2.21243,0,0,0-2.333,2.063l-.44629,7.2583a2.20138,2.20138,0,0,0,2.0625,2.333Z" fill="#304e86"/><rect x="227.93364" y="217.01318" width="26.12028" height="13.67631" rx="3.20232" transform="translate(14.19706 -14.37266) rotate(3.51967)" fill="#304e86"/><rect x="294.06356" y="223.25306" width="96.7598" height="13.67631" rx="3.20232" transform="translate(14.77149 -20.58901) rotate(3.51967)" fill="#fff"/><path d="M387.31836,240.69629c-.08789,0-.17578-.00293-.26367-.0083h0l-90.18457-5.54688a4.20842,4.20842,0,0,1-3.93653-4.45263l.44629-7.25782a4.20233,4.20233,0,0,1,4.45215-3.936l90.18555,5.54687a4.20594,4.20594,0,0,1,3.93554,4.45215l-.44628,7.2583a4.20308,4.20308,0,0,1-4.18848,3.94434Zm-.14063-2.0044a2.20222,2.20222,0,0,0,2.333-2.063l.44629-7.2583a2.20463,2.20463,0,0,0-2.0625-2.333L297.709,221.49072a2.2022,2.2022,0,0,0-2.333,2.063l-.44629,7.25781a2.20586,2.20586,0,0,0,2.06347,2.3335Z" fill="#304e86"/><rect x="225.48637" y="257.12441" width="47.14158" height="13.67631" rx="3.20232" transform="translate(16.67475 -14.79202) rotate(3.51967)" fill="#304e86"/><rect x="291.63611" y="262.71904" width="96.7598" height="13.67631" rx="3.20232" transform="translate(17.18978 -20.36554) rotate(3.51967)" fill="#fff"/><path d="M384.8916,280.16211c-.08789,0-.17578-.00293-.26465-.0083l-90.18457-5.54688a4.20148,4.20148,0,0,1-3.93652-4.45214l.44629-7.25831a4.20878,4.20878,0,0,1,4.45312-3.936l90.18457,5.54687a4.20844,4.20844,0,0,1,3.93653,4.45264l-.44727,7.25781a4.20131,4.20131,0,0,1-4.1875,3.94434Zm-89.74512-19.20947a2.20683,2.20683,0,0,0-2.19824,2.06738l-.44629,7.25781a2.203,2.203,0,0,0,2.06348,2.333L384.75,278.15771h0a2.21968,2.21968,0,0,0,1.59375-.54785,2.18934,2.18934,0,0,0,.73926-1.51513l.44726-7.25782a2.20585,2.20585,0,0,0-2.06347-2.33349l-90.18457-5.54688C295.23633,260.95361,295.19141,260.95264,295.14648,260.95264Z" fill="#304e86"/><rect x="223.06884" y="296.26776" width="36.63093" height="13.67631" rx="3.20232" transform="translate(19.06333 -14.24714) rotate(3.51967)" fill="#304e86"/><rect x="289.20867" y="302.18501" width="96.7598" height="13.67631" rx="3.20232" transform="translate(19.60806 -20.14208) rotate(3.51967)" fill="#fff"/><path d="M382.46,319.62842c-.08691,0-.17285-.00293-.26074-.0083h0l-90.18457-5.54737a4.20163,4.20163,0,0,1-3.93555-4.45263l.44629-7.25733a4.21049,4.21049,0,0,1,4.45215-3.93652l90.18457,5.54687a4.20843,4.20843,0,0,1,3.93652,4.45264l-.44629,7.25781A4.20833,4.20833,0,0,1,382.46,319.62842Zm-.13769-2.0044a2.21052,2.21052,0,0,0,2.334-2.063l.44629-7.25831a2.20586,2.20586,0,0,0-2.06348-2.33349l-90.18457-5.54688a2.21414,2.21414,0,0,0-2.333,2.063l-.44628,7.2583a2.20138,2.20138,0,0,0,2.0625,2.333Z" fill="#304e86"/><rect x="220.62157" y="336.37899" width="57.65224" height="13.67631" rx="3.20232" transform="translate(21.54102 -14.66651) rotate(3.51967)" fill="#304e86"/><rect x="286.78123" y="341.65099" width="96.7598" height="13.67631" rx="3.20232" transform="translate(22.02635 -19.91861) rotate(3.51967)" fill="#fff"/><path d="M380.03613,359.09424c-.08789,0-.17578-.00293-.26367-.0083h0l-90.18457-5.54688a4.20842,4.20842,0,0,1-3.93652-4.45263l.44629-7.25782a4.20315,4.20315,0,0,1,4.45214-3.93652l90.18458,5.54736a4.2015,4.2015,0,0,1,3.93652,4.45215l-.44629,7.2583a4.20306,4.20306,0,0,1-4.18848,3.94434Zm-.14062-2.0044a2.20222,2.20222,0,0,0,2.333-2.063l.44628-7.25831a2.203,2.203,0,0,0-2.06347-2.333l-90.18457-5.54737a2.16353,2.16353,0,0,0-1.59375.54834,2.19032,2.19032,0,0,0-.73926,1.51514l-.44629,7.25781a2.20586,2.20586,0,0,0,2.06348,2.3335Z" fill="#304e86"/><rect x="218.22387" y="374.87708" width="26.12028" height="13.67631" rx="3.20232" transform="translate(23.8702 -13.4788) rotate(3.51967)" fill="#304e86"/><rect x="284.35379" y="381.11696" width="96.7598" height="13.67631" rx="3.20232" transform="translate(24.44463 -19.69515) rotate(3.51967)" fill="#fff"/><path d="M377.60938,398.56006c-.0879,0-.17579-.00293-.26465-.0083l-90.18457-5.54688a4.20148,4.20148,0,0,1-3.93653-4.45215l.44629-7.2583a4.20242,4.20242,0,0,1,4.45313-3.936l90.18457,5.54687a4.20168,4.20168,0,0,1,3.93554,4.45313l-.44628,7.25732a4.20133,4.20133,0,0,1-4.1875,3.94434Zm-89.748-19.21a2.20268,2.20268,0,0,0-2.19531,2.06738l-.44629,7.25781a2.20308,2.20308,0,0,0,2.06347,2.3335l90.18457,5.54687h0a2.20133,2.20133,0,0,0,2.333-2.063l.44629-7.25782a2.20141,2.20141,0,0,0-2.0625-2.33349L288,379.35449C287.9541,379.35156,287.90723,379.3501,287.86133,379.3501Z" fill="#304e86"/><rect x="233.13743" y="133.71898" width="111.41839" height="13.67631" rx="3.20232" transform="translate(568.51944 298.58178) rotate(-176.48033)" fill="#304e86"/><line x1="305.17127" y1="188.18343" x2="351.10225" y2="191.00851" fill="#fff"/><path d="M351.10352,192.0083c-.02051,0-.041-.00049-.0625-.00195l-45.93164-2.82471a.99994.99994,0,1,1,.123-1.99609l45.93164,2.8247a1,1,0,0,1-.06054,1.998Z" fill="#304e86"/><line x1="302.74383" y1="227.6494" x2="375.03398" y2="232.09577" fill="#fff"/><path d="M375.03516,233.0957c-.02051,0-.041-.00049-.0625-.00195l-72.29-4.44629a.99989.99989,0,0,1-.93653-1.05957.98888.98888,0,0,1,1.05957-.93652l72.29,4.44629a1,1,0,0,1-.06054,1.998Z" fill="#304e86"/><line x1="300.31639" y1="267.11538" x2="312.78269" y2="267.88214" fill="#fff"/><path d="M312.7832,268.88232c-.0205,0-.041-.00048-.0625-.00195l-12.46582-.76709a.99988.99988,0,0,1-.93652-1.05957.98365.98365,0,0,1,1.05957-.93652l12.46582.76709a1,1,0,0,1-.06055,1.998Z" fill="#304e86"/><line x1="297.88894" y1="306.58135" x2="353.44675" y2="309.99856" fill="#fff"/><path d="M353.44727,310.99854c-.02051,0-.041-.00049-.0625-.002l-55.55762-3.417a.99989.99989,0,0,1-.93653-1.05957.98547.98547,0,0,1,1.05958-.93652l55.55761,3.417a1,1,0,0,1-.06054,1.998Z" fill="#304e86"/><line x1="295.4615" y1="346.04733" x2="372.84219" y2="350.8068" fill="#fff"/><path d="M372.84277,351.80664c-.0205,0-.041-.00049-.0625-.002l-77.37988-4.75928a.99988.99988,0,0,1-.93652-1.05957.98728.98728,0,0,1,1.05957-.93652l77.37988,4.75927a1,1,0,0,1-.06055,1.99805Z" fill="#304e86"/><line x1="293.03406" y1="385.5133" x2="348.59187" y2="388.93051" fill="#fff"/><path d="M348.59277,389.93066c-.0205,0-.041-.00048-.0625-.00195l-55.55761-3.41748a.99989.99989,0,0,1-.93653-1.05957.98911.98911,0,0,1,1.05957-.93652l55.55762,3.41748a1,1,0,0,1-.06055,1.998Z" fill="#304e86"/><path d="M385.32245,137.694l13.34871,18.41263a9.206,9.206,0,0,0,16.64191-4.83832l.5995-9.74679Z" fill="#f4f6f9"/><path d="M388.89355,426.90088c-.22949,0-.459-.00733-.6914-.02149L199.30566,415.26074A11.1389,11.1389,0,0,1,188.87158,403.459l18.6792-303.69531A11.14872,11.14872,0,0,1,219.353,89.32959L379.417,99.1748a1.00056,1.00056,0,0,1,.6875.33545l36.55664,41.34864a.99926.99926,0,0,1,.249.72412l-16.90528,274.8623A11.15431,11.15431,0,0,1,388.89355,426.90088Zm-.56835-2.01758a9.173,9.173,0,0,0,9.68359-8.561l16.87988-274.44873-36.00781-40.728L219.23,91.32568a9.14783,9.14783,0,0,0-9.6831,8.561L190.86768,403.582a9.1387,9.1387,0,0,0,8.561,9.68262Z" fill="#304e86"/><path d="M415.91257,141.52153,387.0797,139.7481a10.13912,10.13912,0,0,1-9.49754-10.74244l1.77343-28.83287Z" fill="#304e86"/></svg>